<svg xmlns="http://www.w3.org/2000/svg" xmlns:xlink="http://www.w3.org/1999/xlink" viewBox="0 0 32 32"><defs><polygon id="a" points="0 0 32 0 32 22 0 22"/><polygon id="c" points="0 22 32 22 32 0 0 0"/></defs><g fill="none" fill-rule="evenodd" transform="translate(0 5)"><mask id="b" fill="white"><use xlink:href="#a"/></mask><path fill="#16B52D" d="M0 2a2 2 0 0 1 2-2h28a2 2 0 0 1 2 2v18a2 2 0 0 1-2 2H2a2 2 0 0 1-2-2V2z" mask="url(#b)"/><mask id="d" fill="white"><use xlink:href="#c"/></mask><polygon fill="#8EE39B" points="2 20 30 20 30 2 2 2" mask="url(#d)"/><path fill="#16B52D" d="M16 16a5 5 0 1 1 0-10 5 5 0 0 1 0 10zm-9-3a2 2 0 1 1 0-4 2 2 0 0 1 0 4zm18 0a2 2 0 1 1 0-4 2 2 0 0 1 0 4z" mask="url(#d)"/></g></svg>