<svg xmlns="http://www.w3.org/2000/svg" xmlns:xlink="http://www.w3.org/1999/xlink" viewBox="0 0 182 182"><defs><path id="a" d="M91 182A91 91 0 1 1 91 0a91 91 0 0 1 0 182zm0-24a67 67 0 1 0 0-134 67 67 0 0 0 0 134z"/></defs><g fill="none" fill-rule="evenodd" opacity=".5"><mask id="b" fill="white"><use xlink:href="#a"/></mask><use fill="#287EF2" fill-rule="nonzero" xlink:href="#a"/><polygon fill="#95999D" fill-rule="nonzero" points="91.505 91.476 92.429 0 81.948 0" mask="url(#b)"/><polygon fill="#FC4C83" fill-rule="nonzero" points="92.429 91.476 82.872 0 45.738 0" mask="url(#b)"/><polygon fill="#B449E7" fill-rule="nonzero" points="92.429 92.429 50.445 8.576 18.105 21.71" mask="url(#b)"/><polygon fill="#7F6BEE" fill-rule="nonzero" points="91.476 93.382 0 3.812 0 56.112" mask="url(#b)"/><polygon fill="#FD7461" fill-rule="nonzero" points="92.429 92.87 0 101.958 0 56.22" mask="url(#b)"/><polygon fill="#FF962F" fill-rule="nonzero" points="92.429 90.524 0 99.581 0 182 92.429 182" mask="url(#b)"/><polygon fill="#35CE68" fill-rule="nonzero" points="92.157 90 56.22 182 182 182 182 0 92.157 0" mask="url(#b)"/></g></svg>