<svg width="1920" height="1080" viewBox="0 0 1920 1080" fill="none" xmlns="http://www.w3.org/2000/svg">
<g clip-path="url(#clip0_14343_48705)">
<rect width="1920" height="1080" fill="white"/>
<g clip-path="url(#clip1_14343_48705)">
<rect width="2283.85" height="1108.23" transform="translate(-87 -14.7271)" fill="url(#paint0_linear_14343_48705)"/>
<g filter="url(#filter0_f_14343_48705)">
<ellipse cx="141.385" cy="886.956" rx="334.465" ry="365.041" fill="#1F48D7"/>
</g>
<path d="M1857.52 21.9693H1859.76V19.7229H1857.52V21.9693ZM1858.64 3.99805C1852.44 3.99805 1847.41 9.03 1847.41 15.2301C1847.41 21.4302 1852.44 26.4621 1858.64 26.4621C1864.84 26.4621 1869.87 21.4302 1869.87 15.2301C1869.87 9.03 1864.84 3.99805 1858.64 3.99805ZM1858.64 24.2157C1856.26 24.2127 1853.97 23.2651 1852.29 21.5806C1850.6 19.8961 1849.66 17.6123 1849.65 15.2301C1849.65 10.2768 1853.69 6.24445 1858.64 6.24445C1863.59 6.24445 1867.62 10.2768 1867.62 15.2301C1867.62 20.1834 1863.59 24.2157 1858.64 24.2157ZM1858.64 8.49086C1857.45 8.49086 1856.3 8.96421 1855.46 9.80678C1854.62 10.6493 1854.15 11.7921 1854.15 12.9837H1856.39C1856.39 11.7482 1857.4 10.7373 1858.64 10.7373C1859.87 10.7373 1860.89 11.7482 1860.89 12.9837C1860.89 15.2301 1857.52 14.9493 1857.52 18.5997H1859.76C1859.76 16.0725 1863.13 15.7917 1863.13 12.9837C1863.13 11.7921 1862.66 10.6493 1861.82 9.80678C1860.97 8.96421 1859.83 8.49086 1858.64 8.49086Z" fill="white" fill-opacity="0.64"/>
<path fill-rule="evenodd" clip-rule="evenodd" d="M1902.88 6.69373L1902.91 6.66565L1903.94 5.6309L1903.97 5.60282C1904.31 5.26586 1904.61 4.96681 1904.88 4.73936C1905.17 4.47484 1905.51 4.27149 1905.89 4.14126C1906.47 3.95031 1907.11 3.95031 1907.69 4.14126C1908.1 4.27183 1908.42 4.49647 1908.7 4.73936C1908.97 4.96681 1909.27 5.26446 1909.61 5.60282L1909.63 5.6309L1910.67 6.66565L1910.7 6.69373C1911.04 7.0321 1911.34 7.33115 1911.56 7.59932C1911.81 7.88433 1912.03 8.20585 1912.16 8.60739C1912.35 9.19567 1912.35 9.82888 1912.16 10.4158C1912.03 10.7881 1911.83 11.1308 1911.56 11.4238C1911.33 11.692 1911.04 11.991 1910.7 12.328L1910.67 12.3561L1909.64 13.3922L1909.61 13.4203C1909.27 13.7573 1908.97 14.0577 1908.7 14.2838C1908.41 14.5481 1908.07 14.7514 1907.69 14.8819C1907.11 15.0728 1906.47 15.0728 1905.89 14.8819C1905.51 14.7514 1905.17 14.5481 1904.88 14.2838C1904.56 14.0083 1904.26 13.7203 1903.97 13.4203L1903.95 13.3922L1902.91 12.3575L1902.88 12.3294C1902.54 11.991 1902.24 11.692 1902.02 11.4238C1901.75 11.1308 1901.55 10.7881 1901.42 10.4158C1901.23 9.82809 1901.23 9.19506 1901.42 8.60739C1901.55 8.23489 1901.75 7.89215 1902.02 7.59932C1902.24 7.33115 1902.54 7.0321 1902.88 6.69514V6.69373ZM1903.69 9.02017C1903.54 9.20129 1903.51 9.26868 1903.51 9.28553C1903.46 9.43244 1903.46 9.5907 1903.51 9.73762C1903.51 9.75446 1903.54 9.82186 1903.69 10.0044C1903.85 10.1953 1904.09 10.4298 1904.46 10.8047L1905.5 11.8394C1905.87 12.2143 1906.11 12.4487 1906.3 12.6116C1906.48 12.7661 1906.55 12.7885 1906.56 12.7941C1906.71 12.8419 1906.87 12.8419 1907.02 12.7941C1907.03 12.7885 1907.1 12.7661 1907.28 12.6116C1907.47 12.4487 1907.71 12.2143 1908.08 11.8394L1909.12 10.8047C1909.49 10.4298 1909.73 10.1953 1909.89 10.0044C1910.04 9.82186 1910.07 9.75446 1910.07 9.73762C1910.12 9.5907 1910.12 9.43244 1910.07 9.28553C1910.07 9.26868 1910.04 9.20129 1909.89 9.01877C1909.64 8.74285 1909.38 8.47592 1909.12 8.21848L1908.08 7.18373C1907.83 6.91679 1907.56 6.65922 1907.28 6.41153C1907.1 6.25709 1907.03 6.23463 1907.02 6.22901C1906.87 6.18127 1906.71 6.18127 1906.56 6.22901C1906.55 6.23463 1906.48 6.25709 1906.3 6.41153C1906.02 6.65922 1905.75 6.91679 1905.5 7.18373L1904.46 8.21848C1904.09 8.59335 1903.85 8.82923 1903.69 9.02017ZM1895.33 14.2669H1895.37C1895.85 14.2669 1896.27 14.2669 1896.62 14.2389C1897.01 14.2184 1897.4 14.1196 1897.76 13.9482C1898.31 13.6674 1898.75 13.2195 1899.03 12.6706C1899.2 12.3145 1899.3 11.928 1899.32 11.5333C1899.35 11.1837 1899.35 10.7611 1899.35 10.2838V8.73797C1899.35 8.2606 1899.35 7.8394 1899.32 7.4884C1899.3 7.09483 1899.2 6.70922 1899.03 6.35397C1898.75 5.80328 1898.31 5.35555 1897.76 5.07492C1897.4 4.90344 1897.01 4.80464 1896.62 4.78429C1896.27 4.75621 1895.85 4.75621 1895.37 4.75621H1893.82C1893.35 4.75621 1892.92 4.75621 1892.57 4.78429C1892.18 4.8049 1891.79 4.9037 1891.44 5.07492C1890.89 5.35572 1890.44 5.8036 1890.16 6.35256C1889.99 6.70847 1889.89 7.09508 1889.87 7.48981C1889.84 7.8394 1889.84 8.26201 1889.84 8.73937V10.2852C1889.84 10.7625 1889.84 11.1837 1889.87 11.5347C1889.9 11.9068 1889.97 12.2929 1890.16 12.6692C1890.44 13.2195 1890.89 13.6674 1891.44 13.9482C1891.81 14.1406 1892.2 14.208 1892.57 14.2389C1892.92 14.2669 1893.35 14.2669 1893.82 14.2669H1895.33ZM1896.76 11.9924C1896.74 12.0009 1896.68 12.0318 1896.44 12.0514C1896.07 12.0718 1895.7 12.0788 1895.33 12.0725H1893.86C1893.33 12.0725 1893 12.0725 1892.75 12.0514C1892.51 12.0318 1892.45 12.0009 1892.43 11.9924C1892.3 11.9223 1892.18 11.8102 1892.11 11.6723C1892.11 11.6583 1892.07 11.5923 1892.06 11.355C1892.04 10.9848 1892.03 10.6139 1892.03 10.2431V8.78009C1892.03 8.24937 1892.04 7.91803 1892.06 7.66811C1892.07 7.42943 1892.11 7.36485 1892.11 7.35081C1892.18 7.21294 1892.3 7.10087 1892.43 7.0307C1892.45 7.02227 1892.51 6.99138 1892.75 6.97173C1893 6.95207 1893.33 6.95067 1893.86 6.95067H1895.33C1895.86 6.95067 1896.19 6.95067 1896.44 6.97173C1896.68 6.99138 1896.74 7.02227 1896.76 7.0307C1896.9 7.1009 1897.01 7.21322 1897.08 7.35081C1897.09 7.36485 1897.12 7.43084 1897.14 7.66811C1897.16 7.91803 1897.16 8.24937 1897.16 8.78009V10.2431C1897.16 10.7738 1897.16 11.1051 1897.14 11.355C1897.12 11.5937 1897.09 11.6583 1897.08 11.6723C1897.01 11.8102 1896.9 11.9223 1896.76 11.9924ZM1895.33 26.4621H1895.37C1895.84 26.4621 1896.27 26.4621 1896.62 26.434C1897.01 26.4136 1897.4 26.3148 1897.75 26.1434C1898.3 25.8626 1898.75 25.4147 1899.03 24.8644C1899.22 24.4881 1899.29 24.102 1899.32 23.7285C1899.35 23.3775 1899.35 22.9563 1899.35 22.479V20.9331C1899.35 20.4558 1899.35 20.0346 1899.32 19.6836C1899.3 19.2895 1899.2 18.9034 1899.03 18.5477C1898.75 17.9976 1898.3 17.5504 1897.75 17.2701C1897.4 17.0986 1897.01 16.9998 1896.62 16.9795C1896.27 16.9514 1895.84 16.9514 1895.37 16.9514H1893.82C1893.35 16.9514 1892.93 16.9514 1892.57 16.9795C1892.2 17.009 1891.82 17.0777 1891.44 17.2687C1890.89 17.5495 1890.44 17.9988 1890.16 18.5477C1889.99 18.9036 1889.89 19.2903 1889.87 19.685C1889.84 20.0332 1889.84 20.4572 1889.84 20.9345V22.4776C1889.84 22.9549 1889.84 23.3761 1889.87 23.7271C1889.9 24.1006 1889.97 24.4853 1890.16 24.863C1890.44 25.4133 1890.89 25.8598 1891.44 26.1406C1891.81 26.3329 1892.2 26.4017 1892.57 26.4326C1892.93 26.4607 1893.35 26.4607 1893.82 26.4607H1895.33L1895.33 26.4621ZM1896.76 24.1876C1896.74 24.1946 1896.68 24.2269 1896.44 24.2452C1896.07 24.2661 1895.7 24.2736 1895.33 24.2677H1893.86C1893.33 24.2677 1893 24.2663 1892.75 24.2452C1892.51 24.2269 1892.45 24.1946 1892.43 24.1876C1892.3 24.1175 1892.18 24.0054 1892.11 23.8675C1892.11 23.8535 1892.07 23.7875 1892.06 23.5502C1892.04 23.1799 1892.03 22.809 1892.03 22.4382V20.9725C1892.03 20.4431 1892.04 20.1104 1892.06 19.8605C1892.07 19.6246 1892.11 19.5586 1892.11 19.5432C1892.18 19.4053 1892.3 19.2932 1892.43 19.2231C1892.45 19.216 1892.51 19.1852 1892.75 19.1655C1893 19.1444 1893.33 19.1444 1893.86 19.1444H1895.33C1895.86 19.1444 1896.19 19.1444 1896.44 19.1655C1896.68 19.1852 1896.74 19.216 1896.76 19.2231C1896.9 19.2933 1897.01 19.4056 1897.08 19.5432C1897.09 19.5572 1897.12 19.6232 1897.14 19.8605C1897.16 20.1104 1897.16 20.4431 1897.16 20.9739V22.4368C1897.16 22.9661 1897.16 23.2989 1897.14 23.5488C1897.12 23.7861 1897.09 23.8507 1897.08 23.8661C1897.01 24.004 1896.9 24.1161 1896.76 24.1862L1896.76 24.1876ZM1907.52 26.4621H1907.56C1908.04 26.4621 1908.46 26.4621 1908.81 26.434C1909.19 26.4031 1909.57 26.3358 1909.95 26.1434C1910.5 25.8626 1910.95 25.4147 1911.23 24.8644C1911.4 24.5088 1911.5 24.1227 1911.52 23.7285C1911.55 23.3775 1911.55 22.9563 1911.55 22.479V20.9331C1911.55 20.4558 1911.55 20.0346 1911.52 19.6836C1911.5 19.2894 1911.4 18.9033 1911.23 18.5477C1910.95 17.9978 1910.5 17.5506 1909.95 17.2701C1909.59 17.0986 1909.21 16.9998 1908.81 16.9795C1908.46 16.9514 1908.04 16.9514 1907.56 16.9514H1906.02C1905.54 16.9514 1905.12 16.9514 1904.77 16.9795C1904.39 17.009 1904.01 17.0777 1903.63 17.2687C1903.08 17.5495 1902.63 17.9988 1902.35 18.5477C1902.18 18.9037 1902.08 19.2904 1902.06 19.685C1902.03 20.0332 1902.03 20.4572 1902.03 20.9345V22.4776C1902.03 22.9549 1902.03 23.3761 1902.06 23.7271C1902.09 24.1006 1902.16 24.4853 1902.35 24.863C1902.63 25.4133 1903.08 25.8598 1903.63 26.1406C1904.01 26.3329 1904.39 26.4017 1904.77 26.4326C1905.12 26.4607 1905.54 26.4607 1906.02 26.4607H1907.52V26.4621ZM1908.95 24.1876C1908.94 24.1946 1908.87 24.2269 1908.63 24.2452C1908.26 24.2665 1907.89 24.274 1907.52 24.2677H1906.06C1905.69 24.274 1905.32 24.2665 1904.95 24.2452C1904.71 24.2269 1904.64 24.1946 1904.63 24.1876C1904.49 24.1175 1904.38 24.0054 1904.31 23.8675C1904.3 23.8535 1904.27 23.7875 1904.25 23.5502C1904.23 23.1799 1904.22 22.809 1904.23 22.4382V20.9725C1904.23 20.4431 1904.23 20.1104 1904.25 19.8605C1904.27 19.6246 1904.3 19.5586 1904.31 19.5432C1904.38 19.4053 1904.49 19.2932 1904.63 19.2231C1904.64 19.216 1904.71 19.1852 1904.95 19.1655C1905.2 19.1444 1905.53 19.1444 1906.06 19.1444H1907.52C1908.05 19.1444 1908.38 19.1444 1908.63 19.1655C1908.87 19.1852 1908.94 19.216 1908.95 19.2231C1909.09 19.2933 1909.2 19.4056 1909.27 19.5432C1909.28 19.5572 1909.31 19.6232 1909.33 19.8605C1909.35 20.1104 1909.35 20.4431 1909.35 20.9739V22.4368C1909.35 22.9661 1909.35 23.2989 1909.33 23.5488C1909.31 23.7861 1909.28 23.8507 1909.27 23.8661C1909.2 24.004 1909.09 24.1161 1908.95 24.1862V24.1876Z" fill="white" fill-opacity="0.64"/>
<g filter="url(#filter1_f_14343_48705)">
<circle cx="1616.53" cy="1273.21" r="1417.73" fill="url(#paint1_radial_14343_48705)"/>
</g>
<g filter="url(#filter2_df_14343_48705)">
<circle cx="1616.53" cy="1273.21" r="1417.73" fill="url(#paint2_radial_14343_48705)"/>
</g>
<g filter="url(#filter3_f_14343_48705)">
<circle cx="922.635" cy="167.481" r="312.001" fill="#F6E4DA"/>
</g>
</g>
</g>
<defs>
<filter id="filter0_f_14343_48705" x="-692.282" y="22.7131" width="1667.33" height="1728.48" filterUnits="userSpaceOnUse" color-interpolation-filters="sRGB">
<feFlood flood-opacity="0" result="BackgroundImageFix"/>
<feBlend mode="normal" in="SourceGraphic" in2="BackgroundImageFix" result="shape"/>
<feGaussianBlur stdDeviation="249.601" result="effect1_foregroundBlur_14343_48705"/>
</filter>
<filter id="filter1_f_14343_48705" x="-175.608" y="-518.921" width="3584.27" height="3584.27" filterUnits="userSpaceOnUse" color-interpolation-filters="sRGB">
<feFlood flood-opacity="0" result="BackgroundImageFix"/>
<feBlend mode="normal" in="SourceGraphic" in2="BackgroundImageFix" result="shape"/>
<feGaussianBlur stdDeviation="187.201" result="effect1_foregroundBlur_14343_48705"/>
</filter>
<filter id="filter2_df_14343_48705" x="-178.104" y="-521.417" width="3639.18" height="3639.18" filterUnits="userSpaceOnUse" color-interpolation-filters="sRGB">
<feFlood flood-opacity="0" result="BackgroundImageFix"/>
<feColorMatrix in="SourceAlpha" type="matrix" values="0 0 0 0 0 0 0 0 0 0 0 0 0 0 0 0 0 0 127 0" result="hardAlpha"/>
<feMorphology radius="89.8563" operator="dilate" in="SourceAlpha" result="effect1_dropShadow_14343_48705"/>
<feOffset dx="24.9601" dy="24.9601"/>
<feGaussianBlur stdDeviation="156"/>
<feComposite in2="hardAlpha" operator="out"/>
<feColorMatrix type="matrix" values="0 0 0 0 0.964706 0 0 0 0 0.901961 0 0 0 0 0.843137 0 0 0 1 0"/>
<feBlend mode="normal" in2="BackgroundImageFix" result="effect1_dropShadow_14343_48705"/>
<feBlend mode="normal" in="SourceGraphic" in2="effect1_dropShadow_14343_48705" result="shape"/>
<feGaussianBlur stdDeviation="2.49601" result="effect2_foregroundBlur_14343_48705"/>
</filter>
<filter id="filter3_f_14343_48705" x="322.345" y="-432.808" width="1200.58" height="1200.58" filterUnits="userSpaceOnUse" color-interpolation-filters="sRGB">
<feFlood flood-opacity="0" result="BackgroundImageFix"/>
<feBlend mode="normal" in="SourceGraphic" in2="BackgroundImageFix" result="shape"/>
<feGaussianBlur stdDeviation="144.144" result="effect1_foregroundBlur_14343_48705"/>
</filter>
<linearGradient id="paint0_linear_14343_48705" x1="82.9923" y1="61.1522" x2="1766.55" y2="1108.23" gradientUnits="userSpaceOnUse">
<stop stop-color="#1C5BDE"/>
<stop offset="0.282872" stop-color="#5981D9"/>
<stop offset="0.519532" stop-color="#254AD7"/>
</linearGradient>
<radialGradient id="paint1_radial_14343_48705" cx="0" cy="0" r="1" gradientUnits="userSpaceOnUse" gradientTransform="translate(1616.53 1273.21) rotate(90) scale(1417.73)">
<stop stop-color="#DDC2F9"/>
<stop offset="0.717923" stop-color="#F7D6E9"/>
<stop offset="1" stop-color="#F6E8D5"/>
</radialGradient>
<radialGradient id="paint2_radial_14343_48705" cx="0" cy="0" r="1" gradientUnits="userSpaceOnUse" gradientTransform="translate(1616.53 1273.21) rotate(90) scale(1417.73)">
<stop stop-color="#DDC2F9"/>
<stop offset="0.717923" stop-color="#F7D6E9"/>
<stop offset="1" stop-color="#F6E8D5"/>
</radialGradient>
<clipPath id="clip0_14343_48705">
<rect width="1920" height="1080" fill="white"/>
</clipPath>
<clipPath id="clip1_14343_48705">
<rect width="2283.85" height="1108.23" fill="white" transform="translate(-87 -14.7271)"/>
</clipPath>
</defs>
</svg>
