<?xml version="1.0" encoding="UTF-8" standalone="no"?>
<svg width="24px" height="24px" viewBox="0 0 24 24" version="1.1" xmlns="http://www.w3.org/2000/svg" xmlns:xlink="http://www.w3.org/1999/xlink">
    <!-- Generator: Sketch 39.1 (31720) - http://www.bohemiancoding.com/sketch -->
    <title>icon-phone</title>
    <desc>Created with Sketch.</desc>
    <defs></defs>
    <g id="Page-1" stroke="none" stroke-width="1" fill="none" fill-rule="evenodd">
        <g id="Group" transform="translate(-56.000000, -1.000000)">
            <g id="Group-4" transform="translate(61.000000, 1.000000)">
                <path d="M13,19 L1,19 L1,5 L13,5 L13,19 Z M7,22.5 C6.448,22.5 6,22.052 6,21.5 C6,20.947 6.448,20.5 7,20.5 C7.553,20.5 8,20.947 8,21.5 C8,22.052 7.553,22.5 7,22.5 L7,22.5 Z M4.5,2 L9.5,2 C9.776,2 10,2.224 10,2.5 C10,2.776 9.776,3 9.5,3 L4.5,3 C4.224,3 4,2.776 4,2.5 C4,2.224 4.224,2 4.5,2 L4.5,2 Z M11.5,0 L2.5,0 C1.121,0 0,1.122 0,2.5 L0,4 L0,20 L0,21.5 C0,22.878 1.121,24 2.5,24 L11.5,24 C12.878,24 14,22.878 14,21.5 L14,20 L14,4 L14,2.5 C14,1.122 12.878,0 11.5,0 L11.5,0 Z" id="Fill-1141" fill="#AFB9C6"></path>
                <path d="M4.2211008,13.5229295 C4.06299323,13.5215908 3.90618683,13.4461031 3.80897485,13.3002851 L2.75897485,11.7252851 C2.60579862,11.4955208 2.66788556,11.1850861 2.8976499,11.0319099 C3.12741425,10.8787336 3.43784892,10.9408206 3.59102515,11.1705849 L3.85575041,11.5676728 C4.2892306,9.90240687 5.67654275,8.73913809 7.40941846,8.67537355 C9.52022218,8.59765796 11.2949284,10.2465692 11.3718161,12.35676 C11.4507261,14.4680046 9.80182009,16.2428298 7.69041286,16.3201501 C7.41445546,16.3302557 7.18255555,16.1147403 7.17244992,15.8387829 C7.16234429,15.5628255 7.37785974,15.3309256 7.65381714,15.3208199 C9.2131132,15.2637181 10.4307814,13.9530624 10.3724966,12.3936412 C10.3157088,10.8351006 9.00500762,9.61730469 7.44620103,9.67469684 C6.30425932,9.71671681 5.36777358,10.3982875 4.94974918,11.4353541 L5.07371165,11.2936827 C5.25555268,11.0858644 5.57143399,11.0648056 5.7792523,11.2466467 C5.98707062,11.4284877 6.00812937,11.744369 5.82628835,11.9521873 L4.62818545,13.3214478 C4.54475874,13.4334521 4.4151194,13.5100942 4.26492475,13.5214996 C4.25726391,13.5220813 4.24963031,13.5224872 4.24202792,13.5227207 C4.23507817,13.5229029 4.2280956,13.5229885 4.22111556,13.5229296 C4.22111064,13.5229296 4.22110572,13.5229295 4.2211008,13.5229295 Z" id="Combined-Shape" fill="#33A6FF"></path>
            </g>
        </g>
    </g>
</svg>