<svg width="33" height="32" viewBox="0 0 33 32" fill="none" xmlns="http://www.w3.org/2000/svg">
<rect x="0.122559" width="32" height="32" rx="9.76415" fill="white"/>
<rect x="0.122559" width="32" height="32" rx="9.76415" fill="url(#paint0_linear_12591_72)"/>
<rect x="0.122559" width="32" height="32" rx="9.76415" fill="url(#paint1_linear_12591_72)"/>
<rect x="0.122559" width="32" height="32" rx="9.76415" fill="url(#paint2_linear_12591_72)"/>
<path d="M16.1273 4.97534C16.1389 4.98384 16.1523 4.98963 16.1664 4.99227C16.1733 4.99227 16.1802 4.99545 16.1876 4.99597C16.2692 5.00443 16.3482 5.02946 16.4198 5.06951C16.4421 5.08062 16.4632 5.09385 16.4849 5.10601L18.0747 6.00538L19.9337 7.05712C20.3834 7.31106 20.8328 7.56535 21.2817 7.82C21.3098 7.83587 21.3378 7.85068 21.3648 7.86761C21.5372 7.97303 21.6578 8.14561 21.6976 8.34375C21.7021 8.36464 21.7047 8.38588 21.7055 8.40723C21.7055 8.45696 21.7092 8.50669 21.7092 8.55695V10.7038C21.7092 11.5048 21.7092 12.3057 21.7092 13.1067C21.7092 13.1496 21.7092 13.1924 21.7092 13.2347C21.7057 13.3493 21.6722 13.461 21.6119 13.5585C21.5218 13.7102 21.3796 13.8239 21.2119 13.8786C21.1404 13.9007 21.0661 13.913 20.9913 13.9151C20.9592 13.9148 20.9272 13.9122 20.8955 13.9071C20.8104 13.8978 20.7278 13.8723 20.6522 13.832C20.6268 13.8188 20.6019 13.8045 20.5776 13.7908L18.1884 12.4391L16.4955 11.4831L16.4119 11.436C16.345 11.4029 16.2737 11.3792 16.2003 11.3656C16.1828 11.3624 16.1651 11.3604 16.1474 11.3598C16.1188 11.3598 16.0903 11.3598 16.0617 11.3598C15.951 11.3605 15.8421 11.3879 15.7443 11.4397C15.7157 11.4545 15.6882 11.4709 15.6607 11.4868C15.0583 11.8317 14.4559 12.1768 13.8535 12.5221L11.6844 13.7648C11.6537 13.7828 11.6225 13.8003 11.5913 13.8177C11.5224 13.855 11.4485 13.882 11.3717 13.8976C11.3578 13.9006 11.3436 13.9025 11.3294 13.9034L11.2236 13.9066C11.1234 13.9068 11.0244 13.8836 10.9347 13.8389C10.7402 13.7506 10.5956 13.5798 10.5406 13.3733C10.5236 13.3151 10.5147 13.2547 10.5142 13.194V8.55748C10.5142 8.52891 10.5142 8.50034 10.5142 8.4723C10.5161 8.38307 10.534 8.29491 10.5671 8.21202C10.6227 8.07199 10.721 7.95299 10.848 7.87184C10.8718 7.8565 10.8972 7.84274 10.9215 7.82846L12.2002 7.09521L13.7201 6.22441L15.257 5.34567L15.6374 5.12771L15.721 5.08062C15.7714 5.05309 15.8246 5.03093 15.8797 5.01449C15.9145 5.00592 15.9499 4.99974 15.9855 4.99597C15.9995 4.99384 16.0126 4.98758 16.0231 4.97799L16.1273 4.97534Z" fill="white"/>
<path d="M4.94702 18.0272C4.96837 18.0213 4.98378 18.0027 4.98564 17.9806C4.99115 17.9384 4.99927 17.8965 5.00998 17.8553C5.05577 17.6926 5.15702 17.5511 5.29619 17.4553C5.32529 17.4352 5.3565 17.4172 5.38718 17.4024L6.3585 16.8416L8.52281 15.5931L9.36452 15.1069C9.3952 15.0894 9.42641 15.0714 9.45816 15.054C9.55361 15.005 9.65929 14.9792 9.76659 14.9788C9.95768 14.9766 10.142 15.0496 10.2798 15.182C10.3661 15.2627 10.4304 15.3642 10.4665 15.4767C10.4887 15.5407 10.5009 15.6078 10.5025 15.6756C10.5025 15.7148 10.5025 15.7539 10.5025 15.7931V20.3105C10.5025 20.3566 10.5025 20.4031 10.5025 20.4491C10.5069 20.6847 10.6252 20.9036 10.8199 21.0364C10.8517 21.0586 10.8866 21.0776 10.9204 21.0967L11.8431 21.6125L13.7444 22.6753L14.9221 23.3324C14.9533 23.3499 14.9845 23.3668 15.0147 23.3853C15.1772 23.4794 15.2951 23.6347 15.3422 23.8165C15.3685 23.9091 15.3752 24.0063 15.3617 24.1016C15.3503 24.1864 15.3249 24.2686 15.2866 24.345C15.2273 24.4596 15.1379 24.5558 15.0279 24.6233C14.9977 24.6423 14.966 24.6587 14.9348 24.6762L11.8568 26.3691L10.8088 26.9442C10.7808 26.9595 10.7559 26.9759 10.7247 26.9902C10.6772 27.0148 10.6272 27.0341 10.5755 27.0479C10.503 27.0669 10.4281 27.0749 10.3533 27.0717C10.2316 27.0658 10.1134 27.0294 10.0094 26.9659L9.68723 26.7765L5.40729 24.2604C5.37978 24.2445 5.35438 24.2286 5.32476 24.2112C5.15984 24.109 5.04282 23.9449 4.99993 23.7556C4.99199 23.7244 4.98987 23.6922 4.98405 23.661C4.98128 23.6466 4.97126 23.6348 4.9576 23.6297C4.95433 23.6284 4.95097 23.6274 4.94755 23.6266L4.94702 18.0272Z" fill="white"/>
<path d="M21.6182 27.1066C21.6104 27.0997 21.6016 27.0938 21.5923 27.0892C21.5654 27.0797 21.538 27.0717 21.5103 27.0653C21.4441 27.0504 21.3805 27.026 21.3214 26.9929C21.287 26.9738 21.2537 26.9537 21.2198 26.9341L19.6385 26.0215L17.298 24.672C17.2732 24.6577 17.2483 24.6439 17.2245 24.6286C17.0626 24.5276 16.9482 24.3657 16.9071 24.1794C16.8954 24.1309 16.8896 24.0812 16.8896 24.0313C16.881 23.7876 16.998 23.5564 17.1996 23.4192C17.229 23.4 17.2594 23.3823 17.2906 23.3663L18.6249 22.6013L20.4236 21.5713L21.2669 21.0882C21.3039 21.0671 21.3415 21.0464 21.3775 21.0237C21.5149 20.9385 21.6199 20.8099 21.6758 20.6581C21.6953 20.6083 21.7082 20.5562 21.7145 20.5031C21.7208 20.4466 21.724 20.3897 21.724 20.3328C21.724 20.1296 21.724 19.927 21.724 19.7238C21.724 18.428 21.724 17.1324 21.724 15.837C21.724 15.801 21.724 15.7656 21.724 15.7312C21.724 15.6968 21.724 15.674 21.7272 15.646C21.7362 15.4765 21.8076 15.3163 21.9277 15.1963C22.018 15.1042 22.1315 15.0382 22.2562 15.0053C22.311 14.9895 22.3675 14.9804 22.4244 14.9782C22.5424 14.9764 22.6592 15.0031 22.7646 15.0561C22.7932 15.0704 22.8212 15.0863 22.8487 15.1027L23.9216 15.7211L25.8087 16.8104L26.798 17.3812C26.8292 17.3992 26.8599 17.4167 26.8906 17.4342C27.0162 17.5106 27.1152 17.6238 27.1742 17.7585C27.1853 17.7809 27.1927 17.805 27.1959 17.8299C27.1999 17.847 27.2077 17.8631 27.2186 17.877V23.7742C27.2065 23.782 27.1986 23.7948 27.1969 23.8091C27.1929 23.8375 27.1843 23.865 27.1715 23.8906C27.114 24.0179 27.0204 24.1255 26.9022 24.2001C26.8726 24.2196 26.8414 24.2371 26.8107 24.253L25.3564 25.0867L22.1144 26.9463C22.0869 26.9622 22.0615 26.9786 22.0308 26.9934C21.9719 27.0266 21.9085 27.0511 21.8425 27.0659C21.8181 27.0714 21.7941 27.0785 21.7705 27.087C21.7606 27.0906 21.7522 27.0975 21.7467 27.1066H21.6182Z" fill="white"/>
<defs>
<linearGradient id="paint0_linear_12591_72" x1="32.1226" y1="18.6667" x2="0.122558" y2="18.6667" gradientUnits="userSpaceOnUse">
<stop offset="0.12998" stop-color="#A033FF"/>
<stop offset="0.610381" stop-color="#0094FF"/>
<stop offset="1" stop-color="#4FB500"/>
</linearGradient>
<linearGradient id="paint1_linear_12591_72" x1="14.7892" y1="10" x2="4.78922" y2="30" gradientUnits="userSpaceOnUse">
<stop stop-color="#FFD600" stop-opacity="0"/>
<stop offset="0.563347" stop-color="#FFC700"/>
</linearGradient>
<linearGradient id="paint2_linear_12591_72" x1="17.4559" y1="18.6667" x2="28.7892" y2="30.6667" gradientUnits="userSpaceOnUse">
<stop offset="0.0297327" stop-color="#FF3B30" stop-opacity="0"/>
<stop offset="0.842824" stop-color="#E73B2D"/>
</linearGradient>
</defs>
</svg>
