<svg viewBox="0 0 120 112" xmlns="http://www.w3.org/2000/svg" xmlns:xlink="http://www.w3.org/1999/xlink"><defs><path id="a" d="M.48.309h30.315v30.496H.48z"/><path id="c" d="M0 .018h13.422v5.504H0z"/></defs><g fill="none" fill-rule="evenodd"><path fill="#FFF" d="M-580-80H700v768H-580z"/><path d="M40.893 107.851c2.17 1.412 7.738 2.638 12.222 3.129 12.245 1.343 29.361.64 36.61-1.807 7.308-2.464 7.634-6.202-10.949-8.074-15.82-1.595-34.283.637-38.23 3.981-1.06.896-1 1.894.347 2.771" fill="#BBD9FD"/><path d="M53.006 72.355a.532.532 0 0 0-.352.071c-.873-.095-1.79.228-2.5 1-1.327 1.434-1.2 3.939.367 5.101 1.454 1.076 4.062.19 4.963-1.376 1.206-2.092-.46-4.504-2.478-4.796" fill="#FF9300"/><path d="M85.88 22.569c-.413-2.334-1.007-4.578-2.108-6.399-1.948-3.205-5.425-3.465-9.17-2.771-1.707.262-3.41.8-4.88 1.225-7.115 2.06-32.856 9.169-33.912 9.588-3.899 1.594-4.114 4.556-3.27 7.932.079.543 11.246 47.33 12.011 49.803 1.038 3.351 2.75 6.377 5.947 6.712 3.202.348 42.19-10.316 44-10.95 2.216-.779 3.207-2.036 3.453-3.545.338-.808.21-1.729.038-2.883-.449-3.033-10.031-43.34-12.11-48.712" fill="#FFB15C"/><path d="M93.202 48.322a192.311 192.311 0 0 1-5.22-15.931 151.41 151.41 0 0 1-3.456-12.086 98.733 98.733 0 0 1-1.796-7.538c-.28-.392-.599-.684-.982-.784-.316-.088-.616-.048-.91.024-.043.003-.087-.01-.134.007a5.878 5.878 0 0 1-.834.298c-.035.014-.063.06-.096.086-7.97 3.272-27.742 9.367-36.23 12.889-.417.201-.87.344-1.2.76-.484.482-.79 1.222-.679 2.343.101 1.109.51 2.161.806 3.227.03.105.088.186.131.275 4.751 15.208 9.51 30.412 14.272 45.61.036.122.09.2.134.294v.01c.112.387.224.77.348 1.143.292.995.641 1.93 1.13 2.623.154.275.32.539.508.76.892 1.04 2.15.83 3.149.328 8.243-3.444 26.721-12.164 34.79-15.558.857-.236 1.757-.72 2.131-1.844.259-.795.22-1.672.046-2.573-2.403-4.612-4.137-9.683-5.908-14.363" fill="#BBD9FD"/><path d="M46.474 16.086c-.164 1.014.072 3.17.089 4.191.005.104.035.194.054.281.645 13.36 1.289 26.724 1.944 40.085.066 1.345.668 7.49.914 8.997.001.005.007.013.01.022.014.12.052.246.159.359.736.808 1.261 1.772 2.085 2.493.222.538 1.208.521 1.327-.21.117-.725.455-1.373.797-2.021.058-.007.123-.018.184-.027.425.567.84 1.14 1.38 1.612.215.539 1.207.518 1.322-.214.118-.699.435-1.325.762-1.95l.123-.02c.413.551.815 1.104 1.339 1.562.219.535 1.209.518 1.325-.214.112-.684.421-1.306.745-1.92a1.28 1.28 0 0 0 .156-.029c.41.545.808 1.088 1.322 1.537.218.542 1.206.521 1.325-.214.111-.673.416-1.287.734-1.896.081-.017.162-.03.245-.043.4.536.797 1.072 1.308 1.519.22.54 1.208.52 1.327-.214.11-.672.411-1.285.73-1.892.049-.007.1-.017.148-.027.404.536.8 1.073 1.305 1.516.223.544 1.209.518 1.328-.213.108-.67.413-1.28.726-1.888.109-.02.22-.04.33-.056.4.532.795 1.066 1.303 1.51.217.54 1.204.52 1.325-.214.108-.666.409-1.277.726-1.879.065-.01.132-.025.196-.035.401.535.792 1.065 1.299 1.504.219.54 1.205.522 1.325-.21.11-.663.408-1.27.717-1.865.074-.017.149-.025.215-.038.396.527.789 1.055 1.29 1.49.219.54 1.206.52 1.327-.213.107-.652.396-1.246.7-1.83.102-.023.213-.038.322-.056.385.516.771 1.036 1.264 1.463.217.54 1.206.522 1.328-.21.103-.627.372-1.202.667-1.77.117-.022.232-.034.345-.054.38.5.75.996 1.223 1.412.221.538 1.21.519 1.327-.214.175-1.056.82-1.965 1.246-2.922.42-.765-.248-1.747-.531-3.502-.67-4.198-1.148-8.488-1.579-12.535a179.16 179.16 0 0 1-.96-15.47 140.598 140.598 0 0 1-.27-11.615c-.04-2.387 0-4.768.149-7.161-.021-.056-.055-.099-.077-.148-.024-.06-.04-.126-.089-.187-.02-.025-.03-.048-.05-.068a1.607 1.607 0 0 0-.136-.208c-.551-.807-.975-1.692-1.652-2.41-.166-.558-1.15-.636-1.342.083-.203.764-.654 1.424-1.084 2.087-.402-.65-.773-1.32-1.304-1.879-.167-.562-1.15-.633-1.34.081-.192.72-.603 1.347-1.013 1.973-.377-.62-.735-1.244-1.239-1.78-.161-.557-1.149-.63-1.34.089-.191.716-.601 1.341-1.01 1.968-.376-.624-.739-1.246-1.241-1.775-.165-.562-1.149-.636-1.34.084-.197.741-.627 1.382-1.044 2.022-.388-.635-.754-1.28-1.27-1.827-.167-.556-1.152-.632-1.342.084-.186.71-.59 1.327-.995 1.94-.37-.611-.728-1.22-1.22-1.744-.164-.563-1.15-.636-1.34.083-.202.762-.656 1.422-1.086 2.085-.402-.655-.772-1.323-1.302-1.883-.164-.558-1.152-.631-1.341.083-.189.721-.606 1.348-1.012 1.973-.378-.622-.738-1.25-1.24-1.777-.165-.56-1.148-.634-1.338.082-.192.717-.604 1.347-1.013 1.97-.375-.62-.737-1.245-1.24-1.777-.16-.556-1.148-.634-1.34.088-.192.74-.626 1.382-1.046 2.024-.387-.639-.756-1.28-1.268-1.828-.165-.559-1.153-.635-1.34.086-.135.5-.376.954-.647 1.396a7.03 7.03 0 0 0-.79-1.063c-.166-.553-1.152-.631-1.343.08-.271 1.037-1.001 1.882-1.521 2.795-.006.02-.005.032-.018.05a1.11 1.11 0 0 0-.144.436" fill="#FFE2A1"/><path d="M99.253 28.89c.214-2.122.248-4.218-.26-6.052-.898-3.251-3.843-4.34-7.258-4.655-1.549-.195-3.149-.143-4.526-.136-6.78.037-30.954-.096-31.728-.01-3.764.422-4.681 2.936-4.774 6.063-.062.494-1.867 43.756-1.808 46.083.083 3.156.819 6.192 3.504 7.278 2.684 1.076 39.065 1.406 40.798 1.302 2.098-.133 3.272-.978 3.846-2.227.497-.622.606-1.443.75-2.484.353-2.739 1.941-40.006 1.456-45.161" fill="#B7F6F7"/><path d="M101.66 61.673c.121-5.6.505-11.179 1.112-16.728.271-4.18.697-8.35 1.315-12.503.288-2.565.66-5.12 1.15-7.662-.115-.467-.301-.858-.617-1.092-.262-.2-.553-.277-.853-.318-.042-.014-.078-.044-.127-.045-.132.004-.242.001-.368.001a5.034 5.034 0 0 1-.518-.035c-.038-.004-.08.032-.122.04-8.615.057-29.233-1.68-38.42-1.586-.461.032-.936-.006-1.4.256-.626.265-1.186.84-1.503 1.92-.321 1.066-.338 2.195-.459 3.293-.011.108.012.205.019.305-1.28 15.882-2.548 31.762-3.811 47.637-.013.128.004.22.014.325 0 0 0 .003-.004.005-.044.404-.08.802-.108 1.197-.098 1.03-.126 2.025.07 2.85a4.8 4.8 0 0 0 .188.897c.438 1.296 1.682 1.573 2.796 1.48 8.935-.111 29.332-1.291 38.084-1.424.884.102 1.9-.011 2.665-.914.54-.638.831-1.468 1.007-2.37-.506-5.177-.218-10.526-.11-15.53" fill="#FF8E8E"/><path d="M94.634 34.692c-.138-2.382-.465-4.692-1.353-6.639-1.567-3.43-5.004-4.1-8.827-3.851-1.74.06-3.5.396-5.022.648-7.472 1.238-34.153 5.346-34.996 5.57-.479.133-1.818.567-2.204.748-2.9 1.358-2.388 3.725-1.995 6.784.013.554 5.642 48.594 6.111 51.155.647 3.468 1.997 6.688 5.149 7.404 3.158.728 43.352-5.322 45.23-5.737 2.305-.52 3.443-1.658 3.867-3.137.437-.765.413-1.7.379-2.869-.088-3.086-4.897-44.468-6.34-50.076" fill="#FEC267"/><path d="M49.121 73.031c-2.28-13.548-4.767-27.147-6.697-40.737-.02-.164-.117-.732-.196-.85.022-.417-1.298.148-2.526.038-.038 0-.518-.064-.556-.064a8.103 8.103 0 0 1-1.205-.309c-1.992-.721-2.79-2.393-2.767-4.251.026-1.665 1.331-2.4 1.28-2.843-.027-.24-1.468.505-1.634.562-.227.073-1.754 1.06-2.45 2.278-.7 1.227-.48 2.968-.44 4.51.136 5.2 4.489 37.286 5.33 43.997-.014.085.2 1.737.307 2.475.212 1.627.432 3.255.662 4.881.179 1.273.926 8.494 1.082 8.826 1.9 4.126 7.226 5.533 11.497 5.235.243.015.477-.01.854-.056.473-.06 1.134.018 1.88-.132-.082-1.378-3.33-17.08-4.421-23.56" fill="#FF9300"/><path d="M70.154 65.97c-.08-.236.045-.462.304-.509l8.95-1.64a.377.377 0 0 1 .464.373s.443 4.555-4.035 5.377c-4.481.818-5.683-3.6-5.683-3.6" fill="#3281EE"/><path d="M69.624 48.894c-2.046-3.602-6.43-5.584-10.287-4.043a5.863 5.863 0 0 0-2.444 1.194c-.066.041-.123.097-.186.142l-.162.142a5.654 5.654 0 0 0-1.688 2.075c-.078.136-.16.27-.23.41-.015.048-.052.077-.065.124-.05.13-.072.26-.118.393a6.849 6.849 0 0 0-.44 1.8c-.223 1.344-.195 2.69.262 4.132.803 2.529 3.852 3.795 6.204 4.184 1.716.283 3.67-.122 5.35-.85 2.403-1.043 3.146-2.394 3.773-4.187.643-1.835 1.055-3.718.031-5.516M92.25 45.255c-.953-1.863-2.476-3.036-4.314-3.71-.041-.027-.067-.06-.112-.09-1.141-.814-2.694-1.121-4.147-.92-3.405.223-6.504 3.162-7.526 6.523-.52 1.713-.457 3.827.42 5.415 1.313 2.382 3.497 3.551 6.087 4.094 4.324.911 9.07-2.066 10.146-6.289.417-1.629.213-3.526-.554-5.023" fill="#BBD9FD"/><path d="M64.873 54.533a1.474 1.474 0 0 1-1.626-1.304c-.083-.638-.45-1.71-1.928-1.545-1.61.175-1.59 1.52-1.545 1.928a1.473 1.473 0 1 1-2.927.323c-.206-1.873.729-4.799 4.15-5.18 3.42-.374 4.97 2.279 5.176 4.15.09.809-.49 1.539-1.3 1.628M87.712 51.245a1.467 1.467 0 0 1-1.624-1.301c-.087-.637-.454-1.707-1.932-1.545-1.61.18-1.588 1.522-1.545 1.93a1.473 1.473 0 0 1-1.302 1.625 1.476 1.476 0 0 1-1.623-1.304c-.207-1.87.725-4.798 4.147-5.175 3.422-.381 4.972 2.274 5.179 4.146.09.81-.493 1.535-1.3 1.624" fill="#3281EE"/><path d="M68.932 49.172a.172.172 0 0 0-.133.035c-.338-.016-.68.13-.933.443-.47.584-.357 1.54.268 1.942.584.376 1.56-.029 1.863-.651.41-.827-.286-1.707-1.065-1.77M77.37 48.07a.163.163 0 0 0-.127.037c-.341-.017-.681.13-.935.443-.47.584-.36 1.536.269 1.94.582.376 1.56-.027 1.864-.65.407-.829-.286-1.708-1.071-1.77" fill="#FF9300"/><path d="M78.1 48.497c-.515-1.866-3.02-2.973-4.795-2.85-2.11.15-4.815 1.96-5.2 4.177-.208 1.198 1.794 1.398 1.991.263.44-2.507 4.986-3.708 6-1.123.019.2.126.4.378.562.013.013.028.02.04.028.79.516 1.844-.113 1.585-1.057" fill="#FFB15C"/><path d="M48.754 38.747a.594.594 0 0 0-.403.06c-.987-.153-2.044.17-2.892 1.008-1.58 1.561-1.56 4.415.158 5.814 1.597 1.296 4.603.423 5.707-1.31 1.478-2.315-.292-5.138-2.57-5.572M50.765 56.094a.53.53 0 0 0-.353.053c-.869-.135-1.798.15-2.543.887-1.388 1.373-1.373 3.88.138 5.113 1.405 1.14 4.048.373 5.02-1.153 1.3-2.037-.256-4.52-2.262-4.9M52.765 73.094a.53.53 0 0 0-.353.053c-.869-.135-1.798.15-2.543.887-1.388 1.373-1.373 3.88.138 5.113 1.405 1.14 4.048.373 5.02-1.153 1.3-2.037-.256-4.52-2.262-4.9" fill="#FF9300"/><path d="M44.216 42.884c-.222 3.323-4.876 3.547-7.722 2.687a7.558 7.558 0 0 1-.69-.284 5.067 5.067 0 0 1-.778-.488 22.353 22.353 0 0 1-.636-.534c-.608-.565-1.156-1.255-1.353-1.924a544.64 544.64 0 0 1-.39-3.334 4.776 4.776 0 0 0-1.474.638c-.788.523-1.275 1.088-1.628 1.967-.049.12-.07.245-.095.373-.186.34-.31.713-.312 1.1-.87 3.152 1.457 5.501 4.809 6.675-.018-.136-.033-.267-.05-.402l.015.009c.01.13.017.257.035.393 5.9 2.067 14.987.481 15.48-6.876.203-3.023-5.008-3.023-5.21 0M49.064 57.193l-.215-.002c-1.872-.032-2.709 1.436-2.486 2.73-.46 1.701-3.774 2.287-5.15 2.55-1.865.357-3.477.078-4.448-.95a3.096 3.096 0 0 1-.29-.375c-.542-.809-.933-1.666-1.393-2.502l-.351-2.715c-.586.007-4.17.522-4.15 2.851.034 4.146 2.305 6.706 5.535 7.792a7.56 7.56 0 0 0-.018-.13.287.287 0 0 1 .024.007l-.006.123c1.41.473 3.013.67 4.725.585 4.167-.204 10.94-2.465 10.792-7.6-.04-1.382-1.23-2.342-2.57-2.364M37.26 75.362c-.014.084.201 1.736.307 2.475.212 1.627.432 3.255.662 4.88.024.168.057.445.098.791.236.063.473.13.71.182 5.568 1.243 13.312-1.27 15.039-7.274.777-2.704-3.217-3.837-4.641-1.98-1.822 1.682-3.573 2.396-6.012 2.794-1.298.211-5.375.658-5.68-.562l-.483-1.306z" fill="#BBD9FD"/><path d="M37.567 77.837c-.106-.738-.321-2.39-.306-2.475a487.2 487.2 0 0 0-.33-2.562c-.801-.527-1.879-.662-2.753-.087-2.257 1.482-2.953 3.501-1.98 6.073 1.004 2.647 3.538 4.024 6.13 4.722-.042-.346-.076-.623-.099-.79-.23-1.626-.45-3.254-.662-4.881" fill="#BBD9FD"/><g transform="translate(89.6 71.487)"><mask id="b" fill="#fff"><use xlink:href="#a"/></mask><path d="M.402 19.17c.994 3.952 3.896 7.51 6.307 9.01 6.581 4.096 16.156 2.711 20.526-3.78 4.405-6.54 5.13-16.817-4.88-22.573-8.523-4.9-19.068.639-21.741 9.706-.717 2.432-.83 5.18-.212 7.638" fill="#CBF7D8" mask="url(#b)"/><path d="M12.08 9.625c-.106.611.125 1.49.524 1.973l2.586 3.125 3.484-2.077c.532-.317 1.052-1.077 1.157-1.682L12.08 9.625zm-1.467-1.394a1.123 1.123 0 1 1 .383-2.214l11.066 1.911a1.123 1.123 0 1 1-.383 2.215l.003.001-.191 1.107c-.107.615-.602 1.397-1.108 1.753l-4.277 3.017 3.017 4.277c.357.507.56 1.409.455 2.024l-.191 1.108h-.003a1.123 1.123 0 1 1-.382 2.214L7.936 23.732a1.121 1.121 0 0 1-.92-1.3 1.129 1.129 0 0 1 1.302-.915h-.003l.192-1.108c.105-.61.597-1.393 1.107-1.753l4.278-3.017-3.018-4.278c-.36-.51-.56-1.412-.455-2.023l.19-1.108.004.001z" fill="#35CE68" mask="url(#b)"/></g><path d="M22.729 11.428c-1.32-5.006-1.033-5.115-2.157-10.196-.465-2.087-3.703-1.317-3.238.778 1.128 5.073.84 5.18 2.158 10.19.544 2.067 3.783 1.3 3.237-.772M12.062 19.66c-4.47-2.61-4.348-2.885-8.734-5.68-1.803-1.151-3.55 1.683-1.738 2.831 4.386 2.798 4.257 3.07 8.734 5.683 1.843 1.077 3.593-1.755 1.738-2.834" fill="#FF8E8E"/><g transform="translate(0 32.866)"><mask id="d" fill="#fff"><use xlink:href="#c"/></mask><path d="M11.428.08C6.421 1.403 6.308 1.117 1.234 2.242c-2.09.462-1.32 3.702.777 3.234 5.075-1.127 5.18-.84 10.193-2.159 2.064-.543 1.302-3.784-.776-3.237" fill="#FF8E8E" mask="url(#d)"/></g></g></svg>