<svg xmlns="http://www.w3.org/2000/svg" xmlns:xlink="http://www.w3.org/1999/xlink" width="97" height="96" viewBox="0 0 97 96">
    <defs>
        <path id="to8a9i91na" d="M0.489 0.448L38.222 0.448 38.222 43.586 0.489 43.586z"/>
    </defs>
    <g fill="none" fill-rule="evenodd">
        <g>
            <g>
                <g>
                    <g>
                        <path d="M0 0H96V96H0z" transform="translate(-590 -229) translate(440 197) translate(32 32) translate(118.688)"/>
                        <path fill="#BBD9FD" d="M14.71 92.502c2.737 1.3 9.758 2.427 15.412 2.88 15.44 1.235 37.024.588 46.164-1.663 9.216-2.267 9.627-5.707-13.806-7.43-19.95-1.467-43.23.586-48.208 3.664-1.336.824-1.26 1.743.438 2.55" transform="translate(-590 -229) translate(440 197) translate(32 32) translate(118.688)"/>
                        <g>
                            <path fill="#3281EE" d="M64.068 27.242c1.05-2.365 2.212-4.687 3.466-6.946.862-1.737 1.785-3.448 2.793-5.106.576-1.048 1.198-2.073 1.867-3.073.04-.196.014-.401-.079-.58-.074-.12-.18-.22-.308-.283l-.037-.044-.16-.067c-.072-.033-.143-.07-.211-.112C67.622 9.532 59.064 5.118 55.1 3.537c-.2-.098-.42-.145-.642-.138-.399.02-.765.224-.99.552-.306.414-.568.86-.783 1.326-.022.042-.04.087-.052.133-3.401 6.59-6.78 13.154-10.135 19.689-.025.043-.046.09-.06.14-.088.163-.176.327-.25.492-.227.38-.392.794-.487 1.226-.04.136-.065.276-.074.417 0 .555.407 1.026.958 1.113 3.87 1.533 12.83 4.653 16.61 6.139.4.25.904.274 1.327.06.349-.203.64-.49.848-.836.768-2.253 1.67-4.46 2.697-6.608" transform="translate(-590 -229) translate(440 197) translate(32 32) translate(118.688) translate(6.549)"/>
                            <path fill="#FF8E8E" d="M55.946 31.455c.118-4.625-.001-16.961.107-21.493.04-.457.029-.983-.189-1.366-.304-.537-.817-.56-1.282-.605V7.99c-4.069-.67-7.86-1.243-11.924-1.917-.03-.016-.061-.032-.094-.04-.198-.043-.4-.107-.595-.08-.265.013-.492.129-.61.427-.053.138-.078.29-.092.445-.004.023-.013.04-.014.067l-.005.19c-.005.09-.01.18-.018.268-.002.021.007.042.008.064-.125 4.46-.332 17.959-.457 22.717 0 .238-.017.482.041.72.059.321.195.602.462.753.265.15.551.143.827.189.028.005.053-.006.079-.013 4 .437 8 .872 12 1.303.03.004.055-.006.08-.011h.003c.1.017.201.031.3.038.26.039.51.036.724-.075.08-.026.158-.058.23-.11.335-.245.425-.893.419-1.47" transform="translate(-590 -229) translate(440 197) translate(32 32) translate(118.688) translate(6.549)"/>
                            <path fill="#F52D2D" d="M45.597 12.306c-1.358-.294-.476-.195-2.797-.411-.398-.037-.445 1.222-.042 1.283 2.43.364 1.437.118 2.796.41.4.087.443-1.196.043-1.282M49.01 10.433c-1.79-.366-3.579-.74-5.369-1.085-.384-.074-.433 1.384-.05 1.457 1.791.345 3.58.718 5.37 1.086.383.078.433-1.38.049-1.458M54.07 17.325c-1.99-.253-9.26-.949-11.25-1.182-.428-.051-.469 1.312-.041 1.361 1.991.234 9.26.93 11.251 1.185.427.054.468-1.309.04-1.364M54.07 19.874c-1.99-.253-9.26-.95-11.25-1.182-.428-.052-.469 1.312-.041 1.361 1.991.234 9.26.93 11.251 1.184.427.055.468-1.308.04-1.363" transform="translate(-590 -229) translate(440 197) translate(32 32) translate(118.688) translate(6.549)"/>
                            <g transform="translate(-590 -229) translate(440 197) translate(32 32) translate(118.688) translate(6.549) translate(11.894)">
                                <mask id="2hl83vrlnb" fill="#fff">
                                    <use xlink:href="#to8a9i91na"/>
                                </mask>
                                <path fill="#FFDEC1" d="M26.492 2.006c-.01-.008-.013-.017-.022-.026-.554-.437-1.221-.775-1.652-1.344-.298-.395-.896-.105-.86.278-.111.274-.176.559-.231.846-.28-.204-.545-.424-.754-.7-.298-.395-.897-.106-.861.277-.186.462-.253.95-.34 1.436-.422-.292-.853-.581-1.162-.989-.298-.395-.897-.106-.86.277-.183.45-.251.924-.334 1.396-.41-.282-.826-.567-1.125-.963-.299-.395-.897-.105-.862.278-.181.45-.25.923-.332 1.396-.412-.284-.827-.567-1.126-.964-.298-.394-.897-.105-.861.277-.192.477-.258.979-.347 1.478-.436-.301-.884-.596-1.202-1.017-.3-.395-.897-.107-.862.277-.178.444-.248.91-.329 1.376-.404-.279-.81-.56-1.106-.95-.298-.394-.897-.105-.862.277-.186.463-.253.951-.339 1.436-.423-.291-.854-.58-1.162-.988-.298-.396-.897-.107-.86.277-.182.45-.252.923-.334 1.396-.411-.283-.826-.568-1.126-.964-.298-.394-.897-.105-.86.278-.182.45-.252.924-.334 1.396-.41-.283-.826-.567-1.126-.963-.298-.395-.896-.107-.86.277-.193.476-.259.978-.348 1.478-.435-.3-.884-.597-1.201-1.017-.3-.395-.897-.106-.862.277-.245.607-.29 1.257-.434 1.89-.015.05-.026.103-.034.157-.005.018-.007.037-.012.055-.014.05-.011.093-.01.137 0 .039-.011.07-.01.11.692 1.434 1.314 2.892 1.884 4.37 1.02 2.367 1.922 4.773 2.735 7.211 1.227 3.2 2.323 6.449 3.265 9.75.742 2.596 1.517 5.352 2.145 8.098.263 1.152.089 1.92.544 2.284.509.487 1.14.887 1.511 1.494.259.42.883.19.885-.195.194-.371.306-.768.416-1.166l.23-.054c.325.276.638.564.86.924.258.422.883.191.885-.193.2-.386.315-.8.428-1.214l.212-.046c.338.287.669.582.899.958.258.42.881.19.884-.195.205-.393.319-.813.435-1.235l.143-.03c.344.29.682.59.917.972.258.421.881.19.884-.194.207-.395.32-.82.437-1.245.045-.01.088-.019.133-.027.347.293.688.594.925.98.258.42.882.19.884-.195.207-.397.321-.823.438-1.25l.22-.045c.348.294.692.596.929.983.258.42.882.19.884-.195.207-.398.322-.825.44-1.253l.1-.02c.35.296.693.597.93.986.258.42.883.189.884-.195.21-.4.323-.828.442-1.257l.163-.034c.35.297.696.6.935.99.258.42.882.19.884-.196.21-.403.325-.835.444-1.267l.106-.023c.354.3.704.605.945.998.258.42.882.19.884-.195.214-.409.329-.849.45-1.287l.082-.019c.36.304.717.614.962 1.013.259.422.883.191.884-.194.221-.422.336-.876.461-1.33l.125-.028c.374.315.748.632 1.003 1.046.258.422.882.191.883-.194.338-.647.427-1.37.686-2.046.037-.098.032-.184.01-.26v-.016c-.223-.987-1.381-4.915-1.677-5.76-2.932-8.378-5.867-16.755-8.805-25.132-.01-.061-.013-.122-.038-.187-.242-.631-.633-2.017-.99-2.6-.072-.12-.14-.187-.203-.233" mask="url(#2hl83vrlnb)"/>
                            </g>
                            <path fill="#FF9300" d="M18.963 15.26c5.227-1.251 5.767-1.42 10.987-2.693 1.119-.273.632-1.762-.488-1.49-5.22 1.274-5.76 1.443-10.986 2.693-1.12.268-.634 1.758.487 1.49M21.496 20.36c5.23-1.228 5.77-1.396 10.993-2.646 1.12-.267.658-1.81-.462-1.541-5.223 1.25-5.764 1.417-10.993 2.645-1.121.263-.659 1.804.462 1.541M23.18 26.308c5.232-1.201 5.773-1.368 11-2.594 1.12-.262.682-1.86-.439-1.596-5.225 1.226-5.767 1.392-10.999 2.594-1.122.258-.684 1.854.438 1.596M24.864 30.563c5.234-.94 5.777-1.072 11.005-2.031 1.12-.206.708-1.53-.414-1.324-5.227.96-5.77 1.09-11.005 2.03-1.122.203-.708 1.527.414 1.325M27.397 35.662c5.237-.917 5.781-1.047 11.01-1.984 1.122-.201.734-1.576-.387-1.375-5.232.938-5.775 1.068-11.011 1.985-1.123.197-.735 1.571.388 1.374M35.114 11.852c.812-.254 1.032-.316 1.628-.505 1.126-.359.636-2.317-.49-1.958-.737.235-.81.258-1.63.505-1.13.342-.636 2.31.492 1.958M37.646 18.652c.814-.242 1.035-.3 1.633-.482 1.129-.342.667-2.333-.463-1.989-.74.225-.812.246-1.633.482-1.133.326-.668 2.326.463 1.99M40.179 26.302c.815-.23 1.037-.286 1.636-.458 1.132-.327.699-2.348-.434-2.02-.74.213-.815.234-1.637.458-1.136.309-.699 2.34.435 2.02M42.711 32.253c.818-.22 1.04-.271 1.641-.435 1.134-.31.729-2.362-.407-2.052-.742.204-.816.223-1.64.435-1.138.293-.73 2.355.406 2.052" transform="translate(-590 -229) translate(440 197) translate(32 32) translate(118.688) translate(6.549)"/>
                            <path fill="#BBD9FD" d="M17.352 41.268c3.896-2.374 3.427-2.34 7.237-4.678.417-.189.832-.498.89-1.058.082-.785-.5-1.622-1.005-2.392-4.206-6.896-8.168-13.294-12.363-20.183-.024-.057-.047-.116-.08-.174-.195-.34-.379-.7-.629-.998-.319-.416-.678-.717-1.057-.74-.176-.01-.327.036-.47.098-.024.006-.049.001-.071.015l-.16.097c-.08.042-.158.084-.238.12-.02.008-.028.033-.043.05-3.772 2.27-4.629 2.354-8.64 4.791-.196.132-.413.24-.538.465-.193.272-.263.646-.073 1.159.187.506.527.963.811 1.43.03.048.067.081.103.12 4.315 6.656 8.632 13.31 12.952 19.963.034.052.07.085.105.124l.002.004c.103.17.209.34.319.503.272.437.567.838.906 1.118.115.114.232.221.358.307.59.403 1.222.187 1.684-.141" transform="translate(-590 -229) translate(440 197) translate(32 32) translate(118.688) translate(6.549)"/>
                            <path fill="#3281EE" d="M10.974 19.588c-1.092-2.013-.322-.75-2.373-4.054-.352-.567-1.218-.037-.877.547 2.06 3.527 1.281 2.04 2.374 4.053.322.592 1.198.047.876-.546M16.064 24.472c-1.62-3.52-3.237-7.044-4.871-10.553-.35-.753-1.27-.065-.92.688 1.635 3.51 3.251 7.032 4.872 10.553.347.754 1.267.067.92-.688M16.043 34.759C14.047 31.642 6.588 20.38 4.576 17.273c-.432-.667-1.51-.027-1.078.64C5.51 21.02 12.97 32.28 14.965 35.398c.428.668 1.506.028 1.078-.64" transform="translate(-590 -229) translate(440 197) translate(32 32) translate(118.688) translate(6.549)"/>
                            <path fill="#FFDEC1" d="M78.026 18.811c-.006-.011-.005-.02-.01-.032-.345-.613-.832-1.176-1.012-1.866-.124-.48-.787-.432-.902-.062-.207.215-.375.456-.537.703-.18-.295-.34-.599-.427-.934-.125-.478-.788-.432-.901-.061-.35.362-.6.791-.864 1.212-.279-.43-.566-.86-.695-1.355-.124-.478-.789-.432-.902-.061-.34.351-.585.767-.842 1.177-.271-.416-.546-.836-.671-1.317-.125-.478-.788-.432-.902-.06-.34.35-.585.767-.841 1.176-.272-.417-.548-.836-.672-1.317-.124-.478-.788-.432-.902-.06-.36.37-.612.815-.885 1.246-.288-.442-.589-.884-.722-1.394-.125-.479-.788-.433-.902-.062-.334.347-.578.756-.83 1.16-.267-.411-.535-.824-.659-1.297-.124-.478-.787-.432-.901-.062-.35.362-.599.791-.863 1.212-.28-.43-.567-.86-.696-1.354-.125-.479-.788-.433-.9-.062-.34.352-.587.768-.843 1.178-.271-.418-.546-.838-.672-1.317-.124-.479-.788-.433-.901-.062-.34.352-.586.767-.843 1.177-.27-.416-.545-.835-.671-1.316-.124-.479-.787-.432-.9-.062-.36.372-.614.815-.888 1.248-.287-.443-.588-.885-.72-1.395-.125-.48-.788-.432-.902-.062-.46.475-.749 1.064-1.124 1.6-.034.04-.063.086-.092.133-.012.015-.021.032-.033.047-.031.041-.045.083-.06.125-.016.034-.038.06-.054.098.091 1.594.109 3.184.07 4.771.034 2.586-.053 5.165-.235 7.739-.091 3.438-.322 6.873-.715 10.3-.31 2.694-.648 5.552-1.12 8.344-.197 1.17-.652 1.821-.37 2.33.282.643.712 1.25.823 1.955.078.488.743.505.891.147.322-.273.577-.602.831-.933.077.012.154.025.234.036.193.378.374.763.44 1.182.078.489.743.506.892.148.333-.285.597-.627.86-.972l.214.037c.202.392.394.791.463 1.226.077.488.742.506.891.148.34-.29.606-.64.875-.99l.144.026c.207.399.404.804.474 1.247.078.488.742.506.891.148.343-.292.61-.645.88-.998l.133.024c.21.402.41.81.48 1.257.078.487.742.505.891.148.344-.293.613-.648.883-1.002l.222.04c.208.403.41.813.481 1.261.078.488.742.505.892.148.343-.293.613-.65.885-1.004.033.006.067.011.1.018.21.405.412.814.483 1.264.077.489.742.506.891.148.346-.294.616-.651.889-1.007l.164.029c.21.407.413.818.485 1.27.078.487.742.505.89.147.35-.297.62-.657.896-1.016l.107.018c.213.41.419.825.491 1.281.077.488.742.506.891.148.354-.302.629-.67.908-1.034l.083.014c.216.418.428.84.502 1.302.077.49.742.507.891.148.365-.311.645-.692.934-1.067l.126.02c.225.432.45.867.526 1.347.077.488.742.506.891.147.56-.476.918-1.117 1.416-1.651.072-.077.1-.158.11-.239.001-.005.004-.008.005-.014.173-1.002.606-5.095.656-5.99.5-8.899.994-17.797 1.487-26.695.014-.062.034-.119.036-.189.018-.679.188-2.115.081-2.792-.021-.137-.057-.225-.098-.292" transform="translate(-590 -229) translate(440 197) translate(32 32) translate(118.688) translate(6.549)"/>
                            <path fill="#FF9300" d="M54.323 24.954c5.59.69 6.186.715 11.78 1.375 1.2.142 1.41-1.867.21-2.009-5.593-.66-6.189-.684-11.78-1.374-1.198-.148-1.41 1.86-.21 2.008M54.315 27.436c5.59.72 6.185.748 11.779 1.44 1.199.149 1.427-1.792.227-1.94-5.593-.692-6.19-.72-11.778-1.44-1.199-.156-1.426 1.786-.228 1.94M54.308 31.622c5.588.749 6.184.78 11.776 1.502 1.199.154 1.444-1.723.244-1.878-5.591-.72-6.187-.753-11.775-1.502-1.198-.16-1.444 1.718-.245 1.878M54.3 34.111c5.587.776 6.184.813 11.774 1.56 1.199.16 1.462-1.657.262-1.818-5.591-.748-6.187-.784-11.774-1.56-1.198-.165-1.46 1.653-.261 1.818M53.444 39.154c5.584.8 6.182.84 11.771 1.614 1.198.165 1.478-1.597.279-1.762-5.59-.773-6.186-.814-11.772-1.614-1.197-.17-1.476 1.591-.278 1.762M53.436 42.5c5.584.823 6.181.868 11.77 1.665 1.197.17 1.494-1.538.295-1.709-5.589-.797-6.185-.842-11.769-1.665-1.197-.175-1.493 1.533-.296 1.71M53.43 45.85c5.58.844 6.18.892 11.765 1.712 1.198.176 1.512-1.483.313-1.658-5.587-.82-6.184-.87-11.766-1.713-1.197-.181-1.51 1.478-.313 1.658M72.13 26.166c.828.08 1.051.108 1.66.165 1.15.107 1.353-1.415.203-1.522-.753-.071-.828-.078-1.66-.165-1.15-.121-1.353 1.409-.202 1.522M71.268 32.942c.827.09 1.049.12 1.658.184 1.149.12 1.38-1.378.23-1.5-.753-.079-.828-.087-1.658-.184-1.147-.133-1.379 1.373-.23 1.5M71.255 41.416c.825.1 1.048.133 1.656.204 1.147.134 1.406-1.343.257-1.477-.75-.088-.826-.097-1.655-.204-1.146-.147-1.405 1.338-.258 1.477M69.543 48.193c.825.108 1.047.143 1.654.221 1.145.148 1.432-1.307.286-1.454-.751-.097-.826-.106-1.654-.222-1.144-.16-1.432 1.302-.286 1.455" transform="translate(-590 -229) translate(440 197) translate(32 32) translate(118.688) translate(6.549)"/>
                            <path fill="#35CE68" d="M4.798 60.319c.812-.025 1.548-.315 2.193-.768.091-.025.181-.073.267-.153 4.805-4.536 10.665-8.134 15.09-13.074.303-.34.19-.784-.067-1.029.25-.895 1.468-1.91 1.502-3.057.08-2.63-.999-5.46-1.75-7.936-.797-2.625-1.484-5.28-2.62-7.79-1.304-2.88-2.992-5.468-3.589-8.624-.064-.34-.317-.496-.586-.516-.191-.348-.638-.551-.997-.192-2.817 2.81-6.523 4.787-9.493 7.477-.134.067-.24.178-.3.337-.021.045-.032.09-.042.135-.002.014-.01.023-.012.036l-.005.055c-.002.024-.01.046-.008.07-.268 2.581-.726 5.148-.537 7.752.25 3.443 1.292 6.786 2.295 10.073 1.034 3.386 2.543 7.175 2.368 10.76-.05 1.028-.343 2.135-.893 3.017-.348.56-.949 1.056-1.64 1.386-.824.393-1.776.55-2.576.289" transform="translate(-590 -229) translate(440 197) translate(32 32) translate(118.688) translate(6.549)"/>
                            <path fill="#CBF7D8" d="M25.292 7.42C22.312 9.21 6.807 21.491 4.829 23.23c-.003.001-.01.02-.019.04-.252.265-.382.578-.463.942-.186.67-.059 1.342-.032 2.032 0 .005.003.008.003.013.004.301.012.6.062.899.007.042.028.068.04.106.118.693 1.247.723 1.323-.084.002-.024.011-.044.016-.066.007-.012.015-.023.02-.036.196-.415.682-.613 1.17-.643 1.47.321 2.559 2.897 2.844 3.628.599 1.53.834 3.16 1.12 4.774.265 2.27.352 4.538.546 6.436.2 1.944.323 4.637.865 7.104.133 1.778.282 3.557.482 5.328.315.931.676 1.834 1.093 2.696 1.91 3.937 6.286 7.053 8.766 2.549 5.062-5.121 10.243-10.114 15.541-14.98.128-.01.257-.047.379-.158.607-.545 1.213-1.09 1.82-1.633.035-.031.05-.067.075-.1.246-.17.395-.475.228-.827l-3.1-6.48c-.11-.227-.287-.33-.474-.357-.047-.077-.114-.148-.203-.21-5.725-3.912-6.225-9.391-5.908-15.902.008-.146-.033-.263-.09-.365l.008-.932c.02-.056.045-.107.05-.174.253-2.972-.477-12.547-5.7-9.41" transform="translate(-590 -229) translate(440 197) translate(32 32) translate(118.688) translate(6.549)"/>
                            <path fill="#35CE68" d="M24.602 58.62c1.012-1.123 2.03-2.238 3.053-3.348 3.782-4.104 7.634-8.127 11.556-12.07.12-.01.24-.048.355-.162l1.712-1.68c.032-.033.045-.07.07-.104.23-.176.371-.489.213-.85l-2.914-6.67c-.102-.234-.268-.34-.445-.367-.044-.08-.107-.154-.19-.215-.673-.505-8.62 8.275-13.992 13.601-.648.64.23 5.36.582 11.864" transform="translate(-590 -229) translate(440 197) translate(32 32) translate(118.688) translate(6.549)"/>
                            <path fill="#C2F0D1" d="M48 39.753c-.074-.083-.155-.14-.239-.177-.165-.249-.46-.388-.795-.182-4.243 2.606-3.766-5.455-4.471-7.02-.53-1.174-1.522-2.019-2.91-1.735-1.228.254-2.003 1.38-2.819 2.21-1.785 1.817-3.618 3.59-5.405 5.406-2.722 2.767-5.678 5.38-8.247 8.28-.093.105-.128.211-.14.314-.165.183.305.083.183.28-.149.24 2.443-.486 2.72-.585.275-.1.524-.122.747-.08.212.04.4.134.57.272.921.748 1.296 2.754 1.637 4.003.001.054-.005.105.013.165.71 2.394 1.958 7.117 4.715 8.49.508.253 3.55-.127 4.036-1.216 2.572-3.924 6.057-7.532 8.857-11.306 2.135-2.877 4.25-4.035 1.547-7.119" transform="translate(-590 -229) translate(440 197) translate(32 32) translate(118.688) translate(6.549)"/>
                            <path fill="#E1FFE8" d="M49.574 35.285c-1.457 3.333-4.794 6.39-7.198 9.024-2.119 2.321-4.355 4.562-6.312 7.027-.291.368-.1.749.22.925.02.037.028.078.058.114.483.611.482 1.482.604 2.222.118.715.363 1.47.14 2.187-.047.15-.033.282.003.402-.38.378-.77.745-1.173 1.09-.664.567.225 1.595.89 1.027 3.192-2.727 5.62-6.514 8.359-9.69 1.946-2.255 4.302-4.406 6.038-6.903.663-.612 1.21-1.277 1.313-2.01.131-.131.202-.32.124-.567-.523-1.667-1.16-3.31-1.824-4.924-.244-.593-1.024-.425-1.242.076" transform="translate(-590 -229) translate(440 197) translate(32 32) translate(118.688) translate(6.549)"/>
                            <path fill="#E1FFE8" d="M35.361 52.992c.598 1.228.885 2.443.661 3.795-.34 2.068-2.427 2.744-3.886 1.206-1.68-1.773-2.448-4.333-3.12-6.604-.007-.046-.002-.09-.019-.137-.659-1.913-.297-4.01-2.445-5.07-1.3-.64-2.808-.217-3.836.73-3.638 3.347 2.439 8.962-2.073 12.199-.699.502.195 1.491.891.991 2.192-1.572 2.522-3.651 2.114-6.152-.296-1.81-1.577-4.837.149-6.223 2.693-2.162 3.31 1.665 3.843 3.621.002.054-.004.104.014.164.834 2.813 2.415 8.873 6.348 8.806 4.096-.07 3.8-5.383 2.572-7.904-.374-.766-1.587-.189-1.213.578" transform="translate(-590 -229) translate(440 197) translate(32 32) translate(118.688) translate(6.549)"/>
                            <path fill="#35CE68" d="M19.56 34.112c-1.212 1.122-1.16 1.14-2.384 2.243-.509.456.141 1.357.647.9 1.225-1.102 1.173-1.12 2.385-2.242.503-.466-.146-1.366-.648-.9M20.333 30.723c-1.26 1.113-2.692 2.119-4.002 3.188-.538.44.187 1.233.727.791 1.31-1.069 2.743-2.074 4.002-3.186.52-.46-.204-1.254-.727-.793M23.531 38.37c-2.149 1.588-2.878 1.968-6.34 4.847-.595.494.271 1.295.888.81 3.73-2.936 4.191-3.26 6.34-4.848.634-.466-.254-1.276-.888-.808M23.628 42.611c-1.96 1.505-.749.476-3.907 3.205-.541.468.249 1.227.81.767 3.403-2.782 1.947-1.7 3.908-3.205.577-.442-.232-1.21-.81-.767M19.467 25.602c-1.984 1.46-.75.452-3.97 3.129-.554.459.13 1.327.703.879 3.455-2.717 1.986-1.67 3.97-3.13.584-.428-.119-1.308-.703-.878M23.544 18.844c-3.233 2.632-6.471 5.257-9.692 7.904-.69.568.142 1.7.832 1.132 3.222-2.648 6.46-5.273 9.692-7.904.694-.565-.138-1.697-.832-1.132M26.082 18.498c-.006-.012-.019-.084-.04-.216l-.086.05c-.058.035-.14.013-.249-.067-.11-.08-.18-.159-.215-.238-.04-.095.134-.279.524-.55.033-.452.147-.874.343-1.262.195-.39.46-.683.794-.878.108-.064.24-.06.392.015.152.073.257.177.314.31.027.064.033.14.017.228s-.046.146-.09.173c-.014.007-.058-.016-.133-.069-.076-.054-.14-.065-.195-.032-.138.08-.266.214-.384.4-.12.186-.216.397-.292.631.395-.23.715-.398.962-.502.246-.105.391-.106.435-.005.038.09-.109.268-.44.537-.332.27-.63.49-.895.66-.11.08-.179.129-.208.145 0 .045.005.123.017.235.421-.31.812-.57 1.176-.782.362-.213.565-.267.608-.166.07.162-.432.67-1.506 1.523.153.157.345.167.58.03.294-.172.602-.439.92-.8.109-.12.186-.192.23-.217.042-.025.084-.028.121-.009.04.02.068.052.086.095.04.092.008.24-.096.447-.104.205-.252.416-.445.632-.192.215-.383.378-.572.489-.631.37-1.109.303-1.43-.2-.04.028-.11.07-.209.128-.052.03-.131.006-.24-.073-.109-.08-.18-.157-.212-.233-.02-.044.12-.187.418-.429M26.93 27.843c-.005-.012-.018-.084-.038-.215l-.086.05c-.058.035-.142.011-.25-.068-.108-.08-.18-.159-.214-.238-.04-.095.133-.278.523-.55.033-.451.148-.873.343-1.263.196-.389.46-.683.794-.877.109-.064.24-.059.392.014.152.075.257.178.315.31.027.064.032.14.016.229-.016.088-.046.146-.091.172-.013.008-.057-.015-.132-.068-.076-.054-.14-.065-.195-.032-.138.08-.266.213-.384.4-.12.186-.216.397-.291.632.394-.231.715-.398.961-.503.246-.105.39-.106.435-.004.038.089-.11.267-.44.537-.333.27-.63.489-.895.659-.109.08-.179.129-.208.146 0 .044.005.122.017.234.421-.31.813-.57 1.175-.783.363-.212.566-.266.61-.165.069.162-.433.67-1.506 1.524.152.156.345.167.58.03.293-.173.601-.44.919-.8.11-.12.186-.192.229-.217.043-.026.084-.029.122-.01.038.02.068.052.087.095.04.093.007.241-.097.447-.104.205-.253.416-.445.632-.192.215-.383.379-.572.489-.632.37-1.108.303-1.43-.2-.04.028-.11.071-.209.129-.05.03-.131.006-.24-.073-.108-.08-.18-.158-.211-.234-.02-.044.119-.187.417-.429M29.48 34.64c-.007-.013-.019-.085-.04-.216l-.086.051c-.058.034-.14.011-.25-.07-.108-.078-.18-.157-.213-.236-.041-.095.132-.279.522-.55.034-.452.148-.873.344-1.263.196-.39.46-.683.794-.878.11-.064.24-.059.392.014.152.075.256.179.315.312.026.063.032.139.016.227-.016.089-.046.146-.091.173-.013.007-.057-.016-.132-.069-.076-.053-.14-.064-.196-.032-.137.081-.265.214-.383.4-.119.187-.216.398-.292.632.395-.23.715-.398.962-.503.246-.104.39-.106.435-.004.038.09-.109.268-.44.538-.332.269-.63.488-.894.659-.11.08-.18.128-.21.145 0 .044.006.122.018.234.421-.309.813-.57 1.175-.782.362-.212.566-.267.61-.165.07.161-.433.669-1.507 1.523.152.156.345.167.58.03.295-.172.602-.439.92-.8.11-.12.186-.192.229-.217.044-.026.085-.029.122-.01.039.02.067.052.087.096.04.092.008.241-.097.446-.104.205-.253.416-.445.632-.192.216-.382.38-.572.49-.632.369-1.108.303-1.43-.2-.04.028-.11.07-.21.129-.05.03-.131.005-.24-.074-.108-.08-.179-.158-.211-.234-.02-.044.12-.187.417-.429" transform="translate(-590 -229) translate(440 197) translate(32 32) translate(118.688) translate(6.549)"/>
                            <path fill="#BBD9FD" d="M71.97 40.05c.229-4.354-.003-3.97.208-8.236.076-.43.055-.925-.366-1.285-.592-.505-1.59-.528-2.494-.57-7.912-.63-15.286-1.17-23.185-1.805-.06-.015-.12-.03-.185-.037-.385-.041-.778-.101-1.156-.075-.514.012-.957.12-1.184.4-.106.13-.153.274-.182.42-.007.022-.025.038-.026.063l-.01.18c-.01.084-.019.168-.035.25-.003.02.013.04.017.061-.244 4.198-.648 4.909-.89 9.387 0 .225-.032.454.08.677.114.303.378.567.899.71.514.14 1.071.134 1.607.177.055.005.103-.005.153-.012 7.778.412 15.556.82 23.334 1.227.06.003.107-.006.158-.011h.004c.196.016.391.03.584.036.505.036.993.034 1.407-.071.156-.024.307-.055.447-.104.652-.23.827-.84.815-1.383" transform="translate(-590 -229) translate(440 197) translate(32 32) translate(118.688) translate(6.549)"/>
                            <path fill="#3281EE" d="M52.184 32.695c-2.377-.293-.833-.195-4.894-.411-.696-.037-.78 1.223-.075 1.284 4.254.364 2.516.117 4.893.41.7.086.776-1.196.076-1.283M59.752 29.973c-3.834-.366-7.669-.74-11.505-1.085-.822-.074-.928 1.383-.105 1.457 3.836.345 7.67.718 11.505 1.086.821.078.928-1.38.105-1.458M67.384 36.866c-3.84-.254-17.858-.95-21.7-1.183-.823-.051-.901 1.312-.077 1.362 3.84.233 17.86.93 21.7 1.183.823.055.901-1.307.077-1.362M35.194 55.047c4.19-1.498 3.738-1.559 7.84-3.039.434-.099.892-.311 1.065-.837.243-.736-.131-1.655-.447-2.495-2.53-7.452-4.933-14.38-7.454-21.823-.01-.06-.02-.121-.038-.183-.113-.367-.212-.748-.385-1.083-.215-.463-.492-.824-.846-.92-.164-.046-.317-.033-.466-.002-.024.002-.046-.007-.07.002l-.173.06c-.083.024-.167.048-.25.068-.021.003-.033.027-.05.038-4.051 1.423-4.88 1.334-9.194 2.87-.212.086-.441.147-.607.337-.24.222-.385.566-.313 1.096.07.523.296 1.028.467 1.533.017.053.046.092.072.136 2.683 7.245 5.369 14.489 8.057 21.732.02.056.048.095.072.14l.002.003c.061.185.126.369.196.547.166.474.36.918.623 1.253.083.132.173.258.274.366.475.504 1.118.424 1.625.201" transform="translate(-590 -229) translate(440 197) translate(32 32) translate(118.688) translate(6.549)"/>
                            <path fill="#3281EE" d="M33.098 33.235c-.885-2.38-.218-.866-2.013-4.835-.308-.68-1.597-.324-1.309.372 1.744 4.205 1.129 2.455 2.015 4.835.26.7 1.569.33 1.307-.372M37.35 39.125c-1.042-3.56-2.077-7.123-3.134-10.677-.226-.762-1.278-.372-1.052.391 1.057 3.555 2.093 7.117 3.134 10.677.223.764 1.275.372 1.052-.391M34.789 48.484c-1.37-3.415-6.58-15.803-7.97-19.212-.297-.731-1.586-.33-1.288.402 1.389 3.41 6.6 15.797 7.969 19.213.293.732 1.582.33 1.289-.403" transform="translate(-590 -229) translate(440 197) translate(32 32) translate(118.688) translate(6.549)"/>
                            <path fill="#FF8E8E" d="M45.18 53.473c3.993 1.794 3.717 1.44 7.634 3.186.376.227.846.388 1.333.127.684-.366 1.06-1.287 1.423-2.111 3.41-7.126 6.544-13.785 9.954-20.898.035-.05.07-.101.1-.159.175-.342.372-.686.483-1.048.172-.482.228-.933.046-1.245-.084-.145-.2-.242-.327-.321-.018-.016-.027-.038-.05-.048-.058-.025-.108-.05-.165-.075-.075-.04-.15-.079-.222-.123-.018-.011-.042-.003-.063-.006-3.84-1.753-4.363-2.388-8.467-4.24-.211-.082-.414-.196-.663-.173-.324-.003-.665.146-.984.58-.315.425-.508.946-.74 1.427-.023.05-.03.099-.043.148-3.157 7.08-6.313 14.163-9.465 21.246-.024.055-.032.102-.046.152l-.001.003c-.086.176-.168.353-.243.53-.214.456-.385.91-.434 1.333-.034.154-.059.306-.063.453-.016.691.492 1.074 1.004 1.262" transform="translate(-590 -229) translate(440 197) translate(32 32) translate(118.688) translate(6.549)"/>
                            <path fill="#F52D2D" d="M59.741 36.21c1.159-2.298.484-.775 2.223-4.796.299-.69-.733-1.19-1.055-.5-1.938 4.166-1.064 2.497-2.223 4.795-.34.676.714 1.178 1.055.5" transform="translate(-590 -229) translate(440 197) translate(32 32) translate(118.688) translate(6.549)"/>
                            <path fill="#FF8E8E" d="M59.605 42.97c1.355-3.535 2.716-7.066 4.057-10.608.288-.76-.642-1.33-.93-.57-1.341 3.543-2.701 7.074-4.057 10.608-.29.758.64 1.328.93.57" transform="translate(-590 -229) translate(440 197) translate(32 32) translate(118.688) translate(6.549)"/>
                            <path fill="#F52D2D" d="M48.912 48.925c1.748-3.379 7.91-15.788 9.64-19.175.371-.725-.897-1.24-1.268-.514-1.73 3.386-7.892 15.795-9.64 19.174-.375.724.893 1.24 1.268.515" transform="translate(-590 -229) translate(440 197) translate(32 32) translate(118.688) translate(6.549)"/>
                            <path fill="#B7F6F7" d="M57.007 44.883c-.493-2.936-.785-5.862-1.06-8.84-.249-2.218-.419-4.429-.511-6.633-.094-1.362-.18-2.744-.129-4.11-.084-.212-.24-.39-.442-.506-.146-.088-.313-.136-.485-.138l-.066-.019-.202.034-.286.033c-4.67.842-16.044 1.897-21.024 2.811-.263.034-.514.128-.731.274-.38.27-.612.69-.63 1.144-.021.587.005 1.175.078 1.76.01.055.026.109.045.162.824 8.457 1.685 16.886 2.582 25.288-.02.063.026.11.032.17.018.212.036.424.065.64.022.504.131 1.002.323 1.472.042.158.104.31.183.455.359.533 1.069.735 1.673.478 4.849-.917 15.794-3.453 20.52-4.358.564 0 1.084-.29 1.362-.762.22-.41.327-.865.314-1.325-.697-2.645-1.236-5.326-1.611-8.03" transform="translate(-590 -229) translate(440 197) translate(32 32) translate(118.688) translate(6.549)"/>
                            <path fill="#2BD1D4" d="M44.81 38.26c-2.738.66-5.592.992-8.413 1.573-.488.104-.8.586-.696 1.076.104.49.583.803 1.072.7 2.795-.496 5.7-.96 8.412-1.573 1.14-.272.768-2.059-.376-1.776M44.859 33.142c-2.574.372-5.122.906-7.633 1.6-.469.098-.773.575-.677 1.064.094.49.552.806 1.021.707 6.644-1.377 3.896-.946 7.633-1.6 1.105-.186.75-1.92-.344-1.771M50.85 29.746c-4.871.744-9.723 1.408-14.583 2.127-.439.105-.684.466-.548.806.115.289.472.476.86.452 4.859-.747 9.715-1.42 14.572-2.13.447-.064.741-.398.658-.744-.083-.347-.513-.577-.96-.511" transform="translate(-590 -229) translate(440 197) translate(32 32) translate(118.688) translate(6.549)"/>
                        </g>
                        <g>
                            <path fill="#FFCB78" d="M49.559 53.742c.432-14.376 5.324-28.498 5.03-42.921C37.75 9.612 20.91 8.646 4.07 7.924c-.857 12.76-.789 25.58.207 38.459.173 2.2 2.108 4.158 4.282 4.362 14.35 1.33 24.414 2.163 38.238 2.96.845.042 1.688.065 2.762.037" transform="translate(-590 -229) translate(440 197) translate(32 32) translate(118.688) translate(4 29.735)"/>
                            <path fill="#ED994C" d="M4.054 8.171C2.774 6.588 1.52 5.018.29 3.458c-.491-.624-.346-1.55.32-2.073.296-.233.661-.355 1.024-.344 12.268.387 24.534.958 36.801 1.713 1.955.12 3.836.99 5.298 2.438 1.851 1.834 3.722 3.673 5.606 5.514C34.244 9.668 19.15 8.823 4.054 8.171" transform="translate(-590 -229) translate(440 197) translate(32 32) translate(118.688) translate(4 29.735)"/>
                            <path fill="#FFB15C" d="M43.503 35.146c-.16-1.904-1.032-3.708-2.355-5.216-1.44-1.64-3.515-3.02-5.722-3.38-.43-3.622-3.028-6.934-6.78-8.177-.72-.239-1.45-.39-2.171-.46v-.002l-.01-.001h-.01c-.723-.021-1.45.034-2.171.18-3.752.755-6.35 3.73-6.78 7.297-2.208.071-4.284 1.182-5.722 2.635-1.324 1.337-2.195 3.027-2.356 4.912-.055.65-.016 1.313.108 1.967.13.902.534 2.225 1.115 3.254 1.523 2.705 4.119 3.952 7.333 4.715 1.775.421 3.46.715 8.316 1.03l.157.01h.02c.053.004.105.008.157.01 4.854.316 6.54.242 8.316.052 3.213-.346 5.81-1.256 7.333-3.763.58-.953.985-2.223 1.115-3.108.124-.638.162-1.297.107-1.955" transform="translate(-590 -229) translate(440 197) translate(32 32) translate(118.688) translate(4 29.735)"/>
                            <path fill="#FFCB78" d="M32.643 34.885c-.358-.278-.78-.82-.765-1.073.015-.261-.1-.5-.317-.65-.231-.162-.544-.197-.8-.089-.246.104-.401.327-.417.595-.022.37.093.695.26.989-2.506 1.114-5.837.848-8.204-.673.152-.296.232-.643.18-1.048-.06-.463-.504-.726-.882-.705-.397.022-.648.319-.598.705.057.445-.323.731-.828 1.06-.22.145-.334.392-.302.658.031.269.207.517.446.632.084.042.172.065.26.07.145.01.29-.028.419-.113.122-.08.267-.174.417-.285 1.494.974 3.306 1.534 5.122 1.65 1.692.11 3.387-.163 4.825-.84.105.103.215.203.34.3.135.105.285.162.433.172.215.013.422-.073.57-.254.236-.296.242-.788-.159-1.1" transform="translate(-590 -229) translate(440 197) translate(32 32) translate(118.688) translate(4 29.735)"/>
                            <path fill="#EFA158" d="M81.115 7.271c1.28-1.654 2.535-3.296 3.762-4.924.492-.651.346-1.57-.318-2.055-.297-.216-.662-.318-1.026-.286-7.828.686-15.657 1.447-23.486 2.284-1.955.208-3.812 1.157-5.234 2.665-1.801 1.91-3.627 3.83-5.473 5.757 10.59-1.242 21.183-2.389 31.775-3.44" transform="translate(-590 -229) translate(440 197) translate(32 32) translate(118.688) translate(4 29.735)"/>
                            <path fill="#FFB15C" d="M81.098 7.025C70.512 8.074 59.924 9.218 49.336 10.46c.167 14.407.135 28.84-.093 43.295.721-.041 1.545-.112 2.553-.226 8.271-1.063 16.542-2.199 24.814-3.43 2.174-.325 4.11-2.392 4.282-4.602.996-12.936 1.064-25.76.206-38.47" transform="translate(-590 -229) translate(440 197) translate(32 32) translate(118.688) translate(4 29.735)"/>
                        </g>
                        <g>
                            <path fill="#CBF7D8" d="M0 16C0 7.164 7.164 0 16 0s16 7.164 16 16-7.164 16-16 16S0 24.836 0 16" transform="translate(-590 -229) translate(440 197) translate(32 32) translate(118.688) translate(64 53)"/>
                            <path fill="#35CE68" fill-rule="nonzero" d="M21.94 9.94L12 19.878l-1.94-1.94c-.585-.585-1.535-.585-2.12 0-.586.586-.586 1.536 0 2.122l3 3c.585.585 1.535.585 2.12 0l11-11c.586-.586.586-1.536 0-2.122-.585-.585-1.535-.585-2.12 0z" transform="translate(-590 -229) translate(440 197) translate(32 32) translate(118.688) translate(64 53)"/>
                        </g>
                    </g>
                </g>
            </g>
        </g>
    </g>
</svg>
