<svg xmlns="http://www.w3.org/2000/svg" width="41" height="48" viewBox="0 0 41 48" xmlns:xlink="http://www.w3.org/1999/xlink">
  <defs>
    <path id="a" d="M21.3051149,38.4837001 L21.3051149,45.0309914 C21.3051149,46.6843931 19.9894851,48 18.3360877,48 C16.6826902,48 15.3670612,46.6843931 15.3670612,45.0309914 L15.3670612,38.4837001 L13.2437297,38.4837001 C11.4704251,38.4837001 10.0428188,37.0560945 10.0428188,35.2827901 L10.0428188,16.0909643 L36.5230833,16.0909643 L36.5230833,35.2827901 C36.5230833,37.0560945 35.0954777,38.4837001 33.3221718,38.4837001 L31.1988389,38.4837001 L31.1988389,45.0309914 C31.1988389,46.6843931 29.8832105,48 28.2298131,48 C26.5764157,48 25.2607857,46.6843931 25.2607857,45.0309914 L25.2607857,38.4837001 L21.3051149,38.4837001 Z M5.96902679,15.5817281 C7.62242379,15.5817281 8.93805352,16.8973581 8.93805352,18.5507555 L8.93805352,30.9179111 C8.93805352,32.5713085 7.62242379,33.8869384 5.96902679,33.8869384 C4.31562964,33.8869384 3,32.5713085 3,30.9179111 L3,18.5507555 C3,16.8973581 4.31562964,15.5817281 5.96902679,15.5817281 Z M40.5970649,15.5817281 C42.2504623,15.5817281 43.5660908,16.8973581 43.5660908,18.5507555 L43.5660908,30.9179111 C43.5660908,32.5713085 42.2504623,33.8869384 40.5970649,33.8869384 C38.9436673,33.8869384 37.6280375,32.5713085 37.6280375,30.9179111 L37.6280375,18.5507555 C37.6280375,16.8973581 38.9436673,15.5817281 40.5970649,15.5817281 Z M15.0624292,2.06094112e-05 C15.212677,-0.00142066281 15.3550971,0.0736432616 15.4352625,0.218264414 L17.5540476,4.03753387 C19.2872964,3.26872079 21.2314062,2.83719295 23.2829511,2.83719295 C25.3344944,2.83719295 27.2786027,3.26872079 29.0118532,4.03753387 L31.1306383,0.218264414 C31.2108041,0.0736432616 31.353223,-0.00142927707 31.503473,2.06094112e-05 C31.573659,0.000689566692 31.639059,0.018846165 31.70353,0.0545808433 C31.9152436,0.171936952 31.9848655,0.415222163 31.8672137,0.627472621 L29.7757079,4.40582082 C33.7996669,6.49959759 36.5176427,10.478613 36.5230833,15.0452128 L10.0428188,15.0452128 C10.0482662,10.478613 12.7662353,6.49959759 16.7901929,4.40582082 L14.6986893,0.627472621 C14.5810368,0.415222163 14.6506581,0.171936952 14.8623723,0.0545808433 C14.926843,0.018846165 14.9922433,0.000738374663 15.0624292,2.06094112e-05 Z M17.1720844,7.98865829 C16.5675894,7.98865829 16.0672242,8.48902274 16.0672242,9.09351917 C16.0672242,9.69801417 16.5675894,10.1983786 17.1720844,10.1983786 C17.7765794,10.1983786 18.2769438,9.69801417 18.2769438,9.09351917 C18.2769438,8.48902274 17.7765794,7.98865829 17.1720844,7.98865829 Z M29.3937446,7.98865829 C28.7892495,7.98865829 28.2888838,8.48902274 28.2888838,9.09351917 C28.2888838,9.69801417 28.7892495,10.1983786 29.3937446,10.1983786 C29.9982382,10.1983786 30.498604,9.69801417 30.498604,9.09351917 C30.498604,8.48902274 29.9982382,7.98865829 29.3937446,7.98865829 Z"/>
  </defs>
  <g fill="none" fill-rule="evenodd" transform="translate(-3)">
    <mask id="b" fill="white">
      <use xlink:href="#a"/>
    </mask>
    <use fill="#A4C639" fill-rule="nonzero" xlink:href="#a"/>
    <rect width="48" height="48" fill="#A4C639" mask="url(#b)"/>
  </g>
</svg>
