<svg xmlns="http://www.w3.org/2000/svg" width="189" height="56" viewBox="0 0 189 56">
  <g fill="none">
    <path fill="#A6A6A6" d="M182.2758,56 L6.6206,56 C2.9708,56 0,53.0208 0,49.3738 L0,6.6164 C0,2.968 2.9708,0 6.6206,0 L182.2758,0 C185.9242,0 189,2.968 189,6.6164 L189,49.3738 C189,53.0208 185.9242,56 182.2758,56 L182.2758,56 Z"/>
    <path fill="#000000" d="M187.6448,49.3752 C187.6448,52.3376 185.2452,54.7372 182.2772,54.7372 L6.6206,54.7372 C3.654,54.7372 1.246,52.3376 1.246,49.3752 L1.246,6.615 C1.246,3.654 3.654,1.246 6.6206,1.246 L182.2758,1.246 C185.2452,1.246 187.6434,3.654 187.6434,6.615 L187.6448,49.3752 L187.6448,49.3752 Z"/>
    <g fill="#FFFFFF" transform="translate(16.8 8.4)">
      <path d="M25.3792 19.2976C25.3386 14.7854 29.0738 12.5902 29.2446 12.488 27.1292 9.4038 23.8504 8.9824 22.6982 8.9488 19.9444 8.659 17.2732 10.5966 15.8704 10.5966 14.4396 10.5966 12.2794 8.9768 9.9512 9.0244 6.9552 9.0706 4.1524 10.8052 2.6152 13.4988-.5572 18.991 1.8088 27.062 4.8482 31.5014 6.3686 33.6756 8.1452 36.1032 10.4706 36.0178 12.7456 35.924 13.5954 34.5674 16.3408 34.5674 19.061 34.5674 19.859 36.0178 22.2306 35.9632 24.6722 35.924 26.2094 33.7792 27.6766 31.5854 29.4336 29.0934 30.1392 26.6392 30.1672 26.5132 30.1098 26.4936 25.4254 24.7058 25.3792 19.2976zM20.8992 6.0284C22.1228 4.4982 22.96 2.4164 22.7276.3038 20.9566.3822 18.7418 1.5288 17.4664 3.0254 16.338 4.3442 15.33 6.5058 15.5904 8.5386 17.5798 8.687 19.6224 7.5348 20.8992 6.0284z"/>
    </g>
    <g fill="#FFFFFF" transform="translate(58.8 25.2)">
      <path d="M16.303 18.9056L13.1236 18.9056 11.382 13.433 5.3284 13.433 3.6694 18.9056.574 18.9056 6.5716.2744 10.276.2744 16.303 18.9056zM10.857 11.137L9.282 6.272C9.1154 5.775 8.8032 4.6046 8.3426 2.7622L8.2866 2.7622C8.1032 3.5546 7.8078 4.725 7.4018 6.272L5.8548 11.137 10.857 11.137 10.857 11.137zM31.7268 12.0232C31.7268 14.308 31.1094 16.114 29.8746 17.4398 28.7686 18.62 27.3952 19.2094 25.7558 19.2094 23.9862 19.2094 22.715 18.5738 21.9408 17.3026L21.8848 17.3026 21.8848 24.3796 18.9 24.3796 18.9 9.8938C18.9 8.4574 18.8622 6.9832 18.7894 5.4712L21.4144 5.4712 21.581 7.6006 21.637 7.6006C22.6324 5.9962 24.143 5.1954 26.1702 5.1954 27.755 5.1954 29.078 5.8212 30.1364 7.0742 31.1976 8.3286 31.7268 9.9778 31.7268 12.0232zM28.686 12.1324C28.686 10.8248 28.392 9.7468 27.8012 8.8984 27.1558 8.0136 26.2892 7.5712 25.2028 7.5712 24.4664 7.5712 23.7972 7.8176 23.1994 8.3034 22.6002 8.7934 22.2082 9.4332 22.0248 10.2256 21.9324 10.5952 21.8862 10.8976 21.8862 11.1356L21.8862 13.3756C21.8862 14.3528 22.1858 15.1774 22.785 15.8508 23.3842 16.5242 24.1626 16.8602 25.1202 16.8602 26.2444 16.8602 27.1194 16.4262 27.7452 15.561 28.3724 14.6944 28.686 13.552 28.686 12.1324zM47.1786 12.0232C47.1786 14.308 46.5612 16.114 45.325 17.4398 44.2204 18.62 42.847 19.2094 41.2076 19.2094 39.438 19.2094 38.1668 18.5738 37.394 17.3026L37.338 17.3026 37.338 24.3796 34.3532 24.3796 34.3532 9.8938C34.3532 8.4574 34.3154 6.9832 34.2426 5.4712L36.8676 5.4712 37.0342 7.6006 37.0902 7.6006C38.0842 5.9962 39.5948 5.1954 41.6234 5.1954 43.2068 5.1954 44.5298 5.8212 45.591 7.0742 46.648 8.3286 47.1786 9.9778 47.1786 12.0232zM44.1378 12.1324C44.1378 10.8248 43.8424 9.7468 43.2516 8.8984 42.6062 8.0136 41.7424 7.5712 40.6546 7.5712 39.9168 7.5712 39.249 7.8176 38.6498 8.3034 38.0506 8.7934 37.66 9.4332 37.4766 10.2256 37.3856 10.5952 37.338 10.8976 37.338 11.1356L37.338 13.3756C37.338 14.3528 37.6376 15.1774 38.234 15.8508 38.8332 16.5228 39.6116 16.8602 40.572 16.8602 41.6962 16.8602 42.5712 16.4262 43.197 15.561 43.8242 14.6944 44.1378 13.552 44.1378 12.1324zM64.4546 13.6808C64.4546 15.2656 63.9044 16.555 62.7998 17.5504 61.586 18.6382 59.8962 19.1814 57.7248 19.1814 55.72 19.1814 54.1128 18.795 52.8962 18.0208L53.5878 15.533C54.8982 16.3254 56.336 16.723 57.9026 16.723 59.0268 16.723 59.9018 16.4682 60.5304 15.9614 61.1562 15.4546 61.4684 14.7742 61.4684 13.9258 61.4684 13.1698 61.2108 12.5328 60.6942 12.0162 60.1804 11.4996 59.3222 11.0194 58.1238 10.5756 54.8618 9.359 53.2322 7.5768 53.2322 5.2332 53.2322 3.7016 53.8034 2.4458 54.9472 1.4686 56.0868.49 57.6072.0014 59.5084.0014 61.2038.0014 62.6122.2968 63.7364.8862L62.9902 3.3194C61.9402 2.7482 60.753 2.4626 59.4244 2.4626 58.3744 2.4626 57.554 2.7216 56.966 3.2368 56.469 3.6974 56.2198 4.2588 56.2198 4.9238 56.2198 5.6602 56.504 6.2692 57.0752 6.748 57.5722 7.1904 58.4752 7.6692 59.7856 8.1858 61.3886 8.8312 62.566 9.5858 63.3234 10.451 64.078 11.3134 64.4546 12.3928 64.4546 13.6808zM74.3232 7.7112L71.0332 7.7112 71.0332 14.2338C71.0332 15.8928 71.6128 16.7216 72.7748 16.7216 73.3082 16.7216 73.7506 16.6754 74.1006 16.583L74.1832 18.8496C73.5952 19.0694 72.821 19.18 71.862 19.18 70.6832 19.18 69.762 18.8202 69.097 18.102 68.4348 17.3824 68.1016 16.1756 68.1016 14.4802L68.1016 7.7084 66.1416 7.7084 66.1416 5.4684 68.1016 5.4684 68.1016 3.0086 71.0332 2.1238 71.0332 5.4684 74.3232 5.4684 74.3232 7.7112zM89.1674 12.0778C89.1674 14.1428 88.5766 15.8382 87.3978 17.164 86.1616 18.529 84.5208 19.2094 82.4754 19.2094 80.5042 19.2094 78.9348 18.5556 77.7644 17.248 76.594 15.9404 76.0088 14.2898 76.0088 12.3004 76.0088 10.2186 76.6108 8.5134 77.819 7.1876 79.0244 5.8604 80.6512 5.1968 82.6966 5.1968 84.6678 5.1968 86.254 5.8506 87.451 7.1596 88.5962 8.4294 89.1674 10.0688 89.1674 12.0778zM86.0706 12.1744C86.0706 10.9354 85.806 9.8728 85.2698 8.9866 84.644 7.9142 83.7494 7.3794 82.5902 7.3794 81.3904 7.3794 80.479 7.9156 79.8532 8.9866 79.317 9.8742 79.0524 10.9536 79.0524 12.2304 79.0524 13.4694 79.317 14.532 79.8532 15.4168 80.4986 16.4892 81.4002 17.024 82.5636 17.024 83.7032 17.024 84.5978 16.478 85.2432 15.3888 85.7934 14.4858 86.0706 13.412 86.0706 12.1744zM98.8694 8.0962C98.574 8.0416 98.259 8.0136 97.9286 8.0136 96.8786 8.0136 96.0666 8.4098 95.4954 9.2036 94.9984 9.9036 94.7492 10.7884 94.7492 11.8566L94.7492 18.9056 91.7658 18.9056 91.7938 9.702C91.7938 8.1536 91.756 6.7438 91.6818 5.4726L94.2816 5.4726 94.3908 8.043 94.4734 8.043C94.7884 7.1596 95.2854 6.4484 95.9658 5.915 96.6308 5.4348 97.349 5.1954 98.1232 5.1954 98.399 5.1954 98.6482 5.215 98.8694 5.25L98.8694 8.0962zM112.2184 11.5528C112.2184 12.0876 112.1834 12.5384 112.1092 12.9066L103.1548 12.9066C103.1898 14.2338 103.6224 15.2488 104.454 15.9488 105.2086 16.5746 106.1844 16.8882 107.3828 16.8882 108.7086 16.8882 109.9182 16.6768 111.006 16.2526L111.4736 18.3246C110.2024 18.879 108.7016 19.1548 106.9698 19.1548 104.8866 19.1548 103.2514 18.5416 102.0614 17.3166 100.8742 16.0916 100.2792 14.4466 100.2792 12.383 100.2792 10.3572 100.8322 8.6702 101.9396 7.3248 103.0988 5.8884 104.6654 5.1702 106.6366 5.1702 108.5728 5.1702 110.0386 5.8884 111.034 7.3248 111.8222 8.4658 112.2184 9.877 112.2184 11.5528zM109.3722 10.7786C109.3918 9.8938 109.1972 9.1294 108.7926 8.484 108.276 7.6538 107.4822 7.2394 106.414 7.2394 105.4382 7.2394 104.6444 7.644 104.0382 8.456 103.5412 9.1014 103.2458 9.8756 103.1548 10.7772L109.3722 10.7772 109.3722 10.7786z"/>
    </g>
    <g fill="#FFFFFF" transform="translate(60.2 8.4)">
      <path d="M8.47 5.6126C8.47 7.2604 7.9758 8.5008 6.9888 9.3338 6.0746 10.1024 4.7754 10.4874 3.0926 10.4874 2.2582 10.4874 1.5442 10.451.9464 10.3782L.9464 1.3748C1.7262 1.2488 2.5662 1.1844 3.4734 1.1844 5.0764 1.1844 6.2846 1.533 7.0994 2.2302 8.0122 3.0184 8.47 4.1454 8.47 5.6126zM6.923 5.6532C6.923 4.585 6.6402 3.766 6.0746 3.1948 5.509 2.625 4.683 2.3394 3.5952 2.3394 3.1332 2.3394 2.7398 2.3702 2.4136 2.4346L2.4136 9.2792C2.5942 9.3072 2.9246 9.3198 3.4048 9.3198 4.5276 9.3198 5.3942 9.0076 6.0046 8.3832 6.615 7.7588 6.923 6.8488 6.923 5.6532zM16.6726 7.0518C16.6726 8.0668 16.3828 8.8984 15.8032 9.5508 15.1956 10.2214 14.3906 10.556 13.3854 10.556 12.4166 10.556 11.6452 10.2354 11.0698 9.5914 10.4958 8.9488 10.2088 8.1382 10.2088 7.161 10.2088 6.139 10.5042 5.3004 11.0978 4.6494 11.6914 3.9984 12.4894 3.6722 13.4946 3.6722 14.4634 3.6722 15.2418 3.9928 15.8312 4.6354 16.3912 5.2598 16.6726 6.0662 16.6726 7.0518zM15.1508 7.0994C15.1508 6.4904 15.0192 5.9682 14.7574 5.5328 14.4494 5.0064 14.0112 4.7432 13.4414 4.7432 12.852 4.7432 12.404 5.0064 12.096 5.5328 11.8328 5.9682 11.7026 6.4988 11.7026 7.126 11.7026 7.735 11.8342 8.2572 12.096 8.6926 12.4138 9.219 12.8562 9.4822 13.4274 9.4822 13.9874 9.4822 14.427 9.2148 14.7434 8.6786 15.015 8.2348 15.1508 7.7084 15.1508 7.0994zM27.671 3.8066L25.606 10.4062 24.262 10.4062 23.4066 7.5404C23.1896 6.825 23.0132 6.1138 22.876 5.4082L22.8494 5.4082C22.722 6.1334 22.5456 6.8432 22.3188 7.5404L21.4102 10.4062 20.0508 10.4062 18.109 3.8066 19.6168 3.8066 20.363 6.944C20.5436 7.686 20.692 8.393 20.811 9.0622L20.8376 9.0622C20.9468 8.5106 21.1274 7.8078 21.3822 6.958L22.3188 3.808 23.5144 3.808 24.4118 6.8908C24.6288 7.6426 24.8052 8.3664 24.941 9.0636L24.9816 9.0636C25.081 8.3846 25.2308 7.6608 25.4296 6.8908L26.2304 3.808 27.671 3.808 27.671 3.8066zM35.2772 10.4062L33.81 10.4062 33.81 6.6262C33.81 5.4614 33.3676 4.879 32.48 4.879 32.0446 4.879 31.6932 5.0386 31.4202 5.3592 31.15 5.6798 31.0128 6.0578 31.0128 6.4904L31.0128 10.4048 29.5456 10.4048 29.5456 5.6924C29.5456 5.1128 29.5274 4.4842 29.4924 3.8038L30.7818 3.8038 30.8504 4.8356 30.891 4.8356C31.0618 4.515 31.3166 4.2504 31.6512 4.039 32.0488 3.7926 32.494 3.668 32.9812 3.668 33.5972 3.668 34.1096 3.8668 34.517 4.2658 35.0238 4.7544 35.2772 5.4838 35.2772 6.4526L35.2772 10.4062 35.2772 10.4062z"/>
      <polygon points="39.323 10.406 37.857 10.406 37.857 .778 39.323 .778"/>
      <path d="M47.9612 7.0518C47.9612 8.0668 47.6714 8.8984 47.0918 9.5508 46.4842 10.2214 45.6778 10.556 44.674 10.556 43.7038 10.556 42.9324 10.2354 42.3584 9.5914 41.7844 8.9488 41.4974 8.1382 41.4974 7.161 41.4974 6.139 41.7928 5.3004 42.3864 4.6494 42.98 3.9984 43.778 3.6722 44.7818 3.6722 45.752 3.6722 46.529 3.9928 47.1198 4.6354 47.6798 5.2598 47.9612 6.0662 47.9612 7.0518zM46.438 7.0994C46.438 6.4904 46.3064 5.9682 46.0446 5.5328 45.738 5.0064 45.2984 4.7432 44.73 4.7432 44.1392 4.7432 43.6912 5.0064 43.3846 5.5328 43.1214 5.9682 42.9912 6.4988 42.9912 7.126 42.9912 7.735 43.1228 8.2572 43.3846 8.6926 43.7024 9.219 44.1448 9.4822 44.716 9.4822 45.276 9.4822 45.7142 9.2148 46.0306 8.6786 46.3036 8.2348 46.438 7.7084 46.438 7.0994zM55.062 10.4062L53.7446 10.4062 53.6354 9.646 53.5948 9.646C53.144 10.2522 52.5014 10.556 51.667 10.556 51.044 10.556 50.54 10.3558 50.1606 9.9582 49.8162 9.597 49.644 9.1476 49.644 8.6142 49.644 7.8078 49.98 7.1932 50.6562 6.7676 51.331 6.342 52.2802 6.1334 53.5024 6.1432L53.5024 6.02C53.5024 5.1506 53.046 4.7166 52.1318 4.7166 51.4808 4.7166 50.9068 4.8804 50.4112 5.2052L50.113 4.242C50.7262 3.8626 51.4836 3.6722 52.3768 3.6722 54.1016 3.6722 54.9668 4.5822 54.9668 6.4022L54.9668 8.8326C54.9668 9.492 54.999 10.017 55.062 10.4062zM53.5388 8.1382L53.5388 7.1204C51.9204 7.0924 51.1112 7.5362 51.1112 8.4504 51.1112 8.7948 51.2036 9.0524 51.3926 9.2246 51.5816 9.3968 51.8224 9.4822 52.1094 9.4822 52.4314 9.4822 52.7324 9.38 53.0068 9.177 53.2826 8.9726 53.452 8.7136 53.515 8.3958 53.5304 8.3244 53.5388 8.2376 53.5388 8.1382zM63.399 10.4062L62.097 10.4062 62.0284 9.3464 61.9878 9.3464C61.572 10.1528 60.8636 10.556 59.8682 10.556 59.073 10.556 58.4108 10.2438 57.8858 9.6194 57.3608 8.995 57.099 8.1844 57.099 7.189 57.099 6.1208 57.3832 5.2556 57.9544 4.5948 58.5074 3.9788 59.185 3.6708 59.9914 3.6708 60.8776 3.6708 61.4978 3.969 61.8506 4.5668L61.8786 4.5668 61.8786.7784 63.3472.7784 63.3472 8.6282C63.3472 9.2708 63.364 9.863 63.399 10.4062zM61.8786 7.623L61.8786 6.5226C61.8786 6.3322 61.8646 6.1782 61.838 6.0606 61.7554 5.7078 61.5776 5.411 61.3074 5.1716 61.0344 4.9322 60.7054 4.8118 60.326 4.8118 59.7786 4.8118 59.3502 5.0288 59.0352 5.4642 58.723 5.8996 58.5648 6.4554 58.5648 7.1344 58.5648 7.7868 58.7146 8.316 59.0156 8.7234 59.3334 9.1574 59.7618 9.3744 60.298 9.3744 60.7796 9.3744 61.1646 9.1938 61.4572 8.8312 61.74 8.4966 61.8786 8.0934 61.8786 7.623zM75.9472 7.0518C75.9472 8.0668 75.6574 8.8984 75.0778 9.5508 74.4702 10.2214 73.6666 10.556 72.66 10.556 71.6926 10.556 70.9212 10.2354 70.3444 9.5914 69.7704 8.9488 69.4834 8.1382 69.4834 7.161 69.4834 6.139 69.7788 5.3004 70.3724 4.6494 70.966 3.9984 71.764 3.6722 72.7706 3.6722 73.738 3.6722 74.5178 3.9928 75.1058 4.6354 75.6658 5.2598 75.9472 6.0662 75.9472 7.0518zM74.4268 7.0994C74.4268 6.4904 74.2952 5.9682 74.0334 5.5328 73.724 5.0064 73.2872 4.7432 72.716 4.7432 72.128 4.7432 71.68 5.0064 71.3706 5.5328 71.1074 5.9682 70.9772 6.4988 70.9772 7.126 70.9772 7.735 71.1088 8.2572 71.3706 8.6926 71.6884 9.219 72.1308 9.4822 72.702 9.4822 73.262 9.4822 73.703 9.2148 74.0194 8.6786 74.2896 8.2348 74.4268 7.7084 74.4268 7.0994zM83.8362 10.4062L82.3704 10.4062 82.3704 6.6262C82.3704 5.4614 81.928 4.879 81.039 4.879 80.6036 4.879 80.2522 5.0386 79.9806 5.3592 79.709 5.6798 79.5732 6.0578 79.5732 6.4904L79.5732 10.4048 78.1046 10.4048 78.1046 5.6924C78.1046 5.1128 78.0878 4.4842 78.0528 3.8038L79.3408 3.8038 79.4094 4.8356 79.45 4.8356C79.6222 4.515 79.877 4.2504 80.2102 4.039 80.6092 3.7926 81.053 3.668 81.5416 3.668 82.1562 3.668 82.6686 3.8668 83.076 4.2658 83.5842 4.7544 83.8362 5.4838 83.8362 6.4526L83.8362 10.4062 83.8362 10.4062zM93.7104 4.9056L92.0948 4.9056 92.0948 8.1116C92.0948 8.9264 92.3818 9.3338 92.9502 9.3338 93.2134 9.3338 93.4318 9.3114 93.604 9.2652L93.6418 10.3782C93.352 10.4874 92.9712 10.542 92.5022 10.542 91.9226 10.542 91.4718 10.3656 91.1456 10.0128 90.818 9.66 90.6556 9.0664 90.6556 8.2334L90.6556 4.9056 89.691 4.9056 89.691 3.8066 90.6556 3.8066 90.6556 2.597 92.0934 2.163 92.0934 3.8052 93.709 3.8052 93.709 4.9056 93.7104 4.9056zM101.4776 10.4062L100.009 10.4062 100.009 6.6542C100.009 5.4712 99.5666 4.879 98.6804 4.879 98 4.879 97.5352 5.222 97.2804 5.908 97.237 6.0522 97.2118 6.2286 97.2118 6.4358L97.2118 10.4048 95.746 10.4048 95.746.7784 97.2118.7784 97.2118 4.7558 97.2398 4.7558C97.7018 4.032 98.364 3.6708 99.2222 3.6708 99.8298 3.6708 100.3324 3.8696 100.7314 4.2686 101.2284 4.7656 101.4776 5.5048 101.4776 6.482L101.4776 10.4062 101.4776 10.4062zM109.4898 6.7942C109.4898 7.0574 109.4702 7.2786 109.4352 7.4592L105.035 7.4592C105.0546 8.1116 105.2646 8.6086 105.672 8.953 106.0444 9.261 106.5246 9.415 107.1126 9.415 107.7636 9.415 108.3572 9.3114 108.892 9.1028L109.1216 10.122C108.4958 10.3936 107.7594 10.5294 106.9068 10.5294 105.8848 10.5294 105.0798 10.2284 104.4974 9.6264 103.9122 9.0244 103.6224 8.2166 103.6224 7.203 103.6224 6.2076 103.8926 5.3788 104.4372 4.718 105.0056 4.0124 105.7742 3.6596 106.7444 3.6596 107.6936 3.6596 108.4146 4.0124 108.9018 4.718 109.2952 5.278 109.4898 5.971 109.4898 6.7942zM108.0898 6.4148C108.101 5.9794 108.0044 5.6042 107.8056 5.2878 107.5508 4.8804 107.163 4.676 106.638 4.676 106.1592 4.676 105.7686 4.8748 105.4704 5.2738 105.2268 5.5916 105.0826 5.971 105.035 6.4148L108.0898 6.4148z"/>
    </g>
  </g>
</svg>
