<svg xmlns="http://www.w3.org/2000/svg" viewBox="0 0 32 32"><g fill="none" fill-rule="evenodd"><circle cx="16" cy="16" r="16" fill="#40DE8E"/><path fill="#FFFFFF" d="M25.58 14c.12.33.22.66.29 1H24v3h1.75l-.06.2-.47.8H23v-4h-5v3h2v1h-3v-4h-5v3h2v1h-3v-4H6.13c.07-.34.17-.67.29-1h19.16zm-.44-1H6.86A9.46 9.46 0 0 1 11 9V7h-1V5h12v2h-1v2a9.46 9.46 0 0 1 4.14 4zm-.51 7l-.6 1H7.97l-.59-1H9v-3H7v-1h3v4h5v-3h-2v-1h3v4h5v-3h-2v-1h3v4h2.63zm1.32-3H25v-1h1a5.74 5.74 0 0 1-.05 1zm-19.7 1H8v1H6.78l-.47-.8a6.39 6.39 0 0 1-.06-.2zm17.2 4l-2.95 5h-9l-2.95-5h14.9z"/></g></svg>