<svg xmlns="http://www.w3.org/2000/svg" viewBox="0 0 32 32"><g fill="none" fill-rule="evenodd"><circle cx="16" cy="16" r="16" fill="#F52D2D"/><g fill="#FFFFFF" transform="translate(4 6)"><path d="M16.04 17.38a1.5 1.5 0 0 1-1.34.83 1.51 1.51 0 0 1-1.44-1.1l-.94-3.28-.78 1.55a1.5 1.5 0 0 1-2.59.16l-.82-1.24-.23.3c-.28.38-.73.6-1.2.5H4.06c1.56 2.8 5.35 6.25 7.86 7.92a.5.5 0 0 0 .59-.02c2.2-1.7 5.79-5.25 7.36-7.9h-2.74l-1.09 2.28zM2.32 12.1h3.63L7 10.8c.28-.37.73-.6 1.21-.6.51.02.97.27 1.24.68l.56.84 1.35-2.68a1.5 1.5 0 0 1 1.34-.83c.75.03 1.27.5 1.44 1.08l.97 3.28c.28-.3.67-.47 1.09-.47h5.53a11.4 11.4 0 0 0 1.47-5.32c0-4.32-2.81-6.57-5.6-6.57-2.06 0-4.33 1.26-5.4 4.02C11.15 1.5 8.93.27 6.92.27 3.17.27 1.2 3.84 1.2 7.37c0 1.85.58 3.79 1.12 4.73"/><path d="M23.7 13.1h-7.5a.5.5 0 0 0-.45.28l-.92 1.95-1.65-5.76a.5.5 0 0 0-.5-.36.5.5 0 0 0-.43.27l-2.11 4.23-1.52-2.28a.5.5 0 0 0-.42-.22.5.5 0 0 0-.4.2L6.45 13.1H.7a.5.5 0 0 0 0 1h6a.5.5 0 0 0 .4-.2l1.08-1.33 1.6 2.41a.5.5 0 0 0 .47.22.5.5 0 0 0 .4-.27l1.92-3.85 1.65 5.76c.05.2.23.36.49.37a.5.5 0 0 0 .44-.28l1.36-2.83h7.19a.5.5 0 0 0 0-1"/></g></g></svg>