<svg xmlns="http://www.w3.org/2000/svg" viewBox="0 0 32 32"><g fill="none" fill-rule="evenodd"><circle cx="16" cy="16" r="16" fill="#4DCEC5"/><path fill="#FFFFFF" d="M14.5 13h-.7l-.85 1.72a.5.5 0 0 1-.67.23.5.5 0 0 1-.23-.67l1-2a.5.5 0 0 1 .45-.28h1a.5.5 0 0 1 0 1m13 6a.5.5 0 0 1 0 1h-2.3a2.74 2.74 0 0 0-2.7-3.25A2.75 2.75 0 0 0 19.8 20h-8.6a2.74 2.74 0 0 0-2.7-3.25A2.75 2.75 0 0 0 5.8 20H4.5a.5.5 0 0 1-.5-.5V16c0-1.1.9-2 2-2h3.69l1.86-3.72A.5.5 0 0 1 12 10h9.5c.19 0 .36.1.45.28L23.8 14H25a2 2 0 0 1 2 2v3h.5zm-19-1.75a2.25 2.25 0 1 1 0 4.5 2.25 2.25 0 0 1 0-4.5zm14 0a2.25 2.25 0 1 1 0 4.5 2.25 2.25 0 0 1 0-4.5z"/></g></svg>