<svg xmlns="http://www.w3.org/2000/svg" viewBox="0 0 32 32"><g fill="none" fill-rule="evenodd"><circle cx="16" cy="16" r="16" fill="#FF962F"/><path fill="#FFFFFF" d="M7 17.83c0 4.9 4.03 8.87 9 8.87 0-4.9-4.03-8.87-9-8.87m9-7.4c1.38 0 2.5 1.11 2.5 2.47a2.48 2.48 0 0 1-2.5 2.46c-1.38 0-2.5-1.1-2.5-2.46a2.48 2.48 0 0 1 2.5-2.47m-6.4 4.69a2.48 2.48 0 0 0 2.5 2.46c.53 0 1-.16 1.42-.43l-.02.19A2.48 2.48 0 0 0 16 19.8c1.38 0 2.5-1.1 2.5-2.46l-.02-.19c.4.27.89.43 1.42.43 1.38 0 2.5-1.1 2.5-2.46 0-.99-.59-1.82-1.43-2.22a2.45 2.45 0 0 0 1.43-2.22 2.48 2.48 0 0 0-2.5-2.46c-.53 0-1.01.16-1.42.43l.02-.18A2.48 2.48 0 0 0 16 6c-1.38 0-2.5 1.1-2.5 2.46l.02.19c-.4-.27-.89-.43-1.42-.43-1.38 0-2.5 1.1-2.5 2.46 0 .99.59 1.82 1.43 2.22a2.46 2.46 0 0 0-1.43 2.22M16 26.7c4.97 0 9-3.97 9-8.87-4.97 0-9 3.97-9 8.87"/></g></svg>