<svg xmlns="http://www.w3.org/2000/svg" viewBox="0 0 32 32"><g fill="none" fill-rule="evenodd"><circle cx="16" cy="16" r="16" fill="#FD7461"/><path fill="#FFFFFF" d="M21 22H6a1 1 0 0 1-1-1v-2a1 1 0 0 1 1-1h15v4zm1 0v-4h2v4h-2zm3 0v-4h1a1 1 0 0 1 1 1v2a1 1 0 0 1-1 1h-1zm-4.5-10a3.5 3.5 0 0 1 3.5 3.5 1 1 0 1 1-2 0c0-.83-.67-1.5-1.5-1.5h-2a3.5 3.5 0 0 1 0-7 1 1 0 1 1 0 2 1.5 1.5 0 0 0 0 3h2zm3.92-2.57A4.5 4.5 0 0 1 27 13.5v2a1 1 0 1 1-2 0v-2a2.5 2.5 0 0 0-2.5-2.5h-1a1 1 0 1 1 0-2 1.5 1.5 0 0 0 0-3 1 1 0 1 1 0-2 3.5 3.5 0 0 1 2.92 5.43z"/></g></svg>