<svg xmlns="http://www.w3.org/2000/svg" viewBox="0 0 32 32"><g fill="none" fill-rule="evenodd"><circle cx="16" cy="16" r="16" fill="#FD7461"/><g fill="#FFFFFF" transform="translate(4.5 7.5)"><path d="M10.55 13.31l-1.3 1.08a.74.74 0 0 1-.51.18h-.02a.77.77 0 0 1-.48-.18c-.21-.17-5.18-4.22-6.86-6.09a4.94 4.94 0 0 1 .02-6.87c1.9-1.9 5-1.9 6.9 0l.44.44.44-.44c1.9-1.9 5-1.9 6.9 0a4.77 4.77 0 0 1 1.35 4.07 6.94 6.94 0 0 0-6.88 7.81z"/><path d="M17.52 18.54a5.52 5.52 0 1 1 0-11.04 5.52 5.52 0 0 1 0 11.04zm2.53-3.12a.47.47 0 0 0-.1-.72l-.15-.1a.46.46 0 0 0-.6.05 1.78 1.78 0 0 1-3.06-.59h1.8c.27 0 .48-.2.48-.47 0-.2-.17-.36-.37-.36h-2.1l-.01-.4c0-.14 0-.28.02-.42h1.99c.26 0 .47-.2.47-.46 0-.2-.16-.36-.36-.36h-1.9c.29-.73.87-1.18 1.62-1.18.6 0 .99.2 1.36.59.16.16.41.18.6.05l.2-.14a.47.47 0 0 0 .07-.72 2.94 2.94 0 0 0-2.2-.85 3.07 3.07 0 0 0-2.99 2.25h-.51a.47.47 0 0 0-.47.46c0 .2.16.36.36.36h.46c-.02.15-.02.3-.02.44v.37h-.33a.47.47 0 0 0-.47.47c0 .2.17.37.37.37h.58a3.06 3.06 0 0 0 3.06 2.3 3 3 0 0 0 2.2-.94z"/></g></g></svg>