<svg xmlns="http://www.w3.org/2000/svg" viewBox="0 0 32 32"><g fill="none" fill-rule="evenodd"><circle cx="16" cy="16" r="16" fill="#FD7461"/><path fill="#FFFFFF" d="M13.2 16.65c.53-1 1.74-1.65 3.1-1.65 1.35 0 2.56.65 3.08 1.65a8.07 8.07 0 0 0 1.96 2.38 2.51 2.51 0 0 1 1.27 2.1c0 .94-.56 1.76-1.53 2.27a4.5 4.5 0 0 1-3.02.38 8.2 8.2 0 0 0-3.51 0 4.5 4.5 0 0 1-3.04-.4c-.96-.5-1.51-1.32-1.51-2.25 0-.76.4-1.49 1.11-2 .02 0 1.22-.86 2.1-2.48zm-.69-9.64c1.3-.15 2.46 1.23 2.65 2.88.1.85-.05 1.7-.43 2.35-1.23 2.12-3.79.87-4.11-1.82-.1-.85.05-1.7.43-2.35.36-.61.88-.99 1.46-1.06zM9.06 12.7c.63.3 1.18.86 1.54 1.55.37.68.5 1.44.4 2.12-.13.73-.51 1.3-1.09 1.59a2.2 2.2 0 0 1-1.94-.05 3.51 3.51 0 0 1-1.54-1.54 3.43 3.43 0 0 1-.4-2.13c.13-.73.51-1.3 1.1-1.58.57-.3 1.26-.28 1.93.04zm10.25-5.68c1.4 0 2.29 1.69 2.08 3.42-.2 1.62-1.28 2.89-2.46 2.89-1.4 0-2.3-1.7-2.08-3.42.2-1.62 1.27-2.9 2.46-2.9zm1.7 9.36a3.64 3.64 0 0 1 1.93-3.67c1.4-.68 2.78.03 3.02 1.53a3.64 3.64 0 0 1-1.93 3.67c-1.38.67-2.77-.02-3.02-1.53z"/></g></svg>