<svg xmlns="http://www.w3.org/2000/svg" viewBox="0 0 32 32"><g fill="none" fill-rule="evenodd"><circle cx="16" cy="16" r="16" fill="#FD7461"/><path fill="#FFFFFF" d="M5 21c0 1.38 1.12 3 2.5 3h17c1.38 0 2.5-1.62 2.5-3H5zm6-10c.28 0 .5.23.5.5a.5.5 0 1 1-.5-.5zm2.5-1c.28 0 .5.23.5.5a.5.5 0 1 1-.5-.5zm2.5 1c.28 0 .5.23.5.5a.5.5 0 1 1-.5-.5zm2.5-1c.28 0 .5.23.5.5a.5.5 0 1 1-.5-.5zm2.5 1c.27 0 .5.23.5.5a.5.5 0 1 1-.5-.5zm6 4a7 7 0 0 0-7-7h-8a7 7 0 0 0-7 7h22zm-1 1H6c-.83 0-1.5.67-1.5 1.5v1c0 .83.67 1.5 1.5 1.5h20c.83 0 1.5-.67 1.5-1.5v-1c0-.83-.67-1.5-1.5-1.5"/></g></svg>