<svg xmlns="http://www.w3.org/2000/svg" viewBox="0 0 32 32"><g fill="none" fill-rule="evenodd"><circle cx="16" cy="16" r="16" fill="#95999D"/><path fill="#FFFFFF" d="M25.27 13.27h-9.51a.55.55 0 0 1 0-1.09h9.51a.55.55 0 0 1 0 1.1m.14 5.98l-1.1.27a.54.54 0 0 1-.62-.3l-.65-1.47-.84 1.5a.55.55 0 0 1-.98-.08l-.62-1.69-.82 1.99a.55.55 0 0 1-.37.32l-1.1.27a.55.55 0 1 1-.26-1.05l.82-.2 1.26-3.03a.55.55 0 0 1 1.02.02l.68 1.88.78-1.4a.55.55 0 0 1 .98.03l.9 2.04.65-.16a.55.55 0 0 1 .27 1.06m-10.2-3.8c0-.3.25-.55.55-.55h2.12a.55.55 0 1 1 0 1.09h-2.12a.55.55 0 0 1-.55-.55m-2.55 3.34a3.2 3.2 0 0 1-2.4 1.01 3.32 3.32 0 0 1-3.31-2.49H6.3a.4.4 0 0 1-.4-.4c0-.28.23-.51.5-.51h.38l-.01-.4c0-.15 0-.32.02-.48h-.5a.39.39 0 0 1-.4-.39c0-.28.24-.5.52-.5h.56a3.34 3.34 0 0 1 3.24-2.44c.9-.04 1.77.3 2.4.92a.5.5 0 0 1-.08.78l-.22.15a.5.5 0 0 1-.65-.06 1.9 1.9 0 0 0-1.48-.64c-.81 0-1.45.5-1.76 1.28h2.07a.4.4 0 0 1 .38.4.5.5 0 0 1-.5.5H8.22c-.03.15-.03.3-.03.46l.01.43h2.29c.22 0 .4.17.4.4a.5.5 0 0 1-.51.5H8.4c.32.83.97 1.34 1.86 1.34.62 0 1.04-.25 1.47-.7a.5.5 0 0 1 .65-.06l.16.11c.28.2.32.56.1.79M27.46 10H4.55c-.3 0-.55.2-.55.46v11.08c0 .26.24.46.55.46h22.9c.3 0 .55-.2.55-.46V10.46c0-.26-.24-.46-.55-.46"/></g></svg>