<?xml version="1.0" encoding="utf-8"?><!--Generator: Adobe Illustrator 23.0.1, SVG Export Plug-In . SVG Version: 6.00 Build 0)--><svg version="1.1" id="Calque_1" xmlns="http://www.w3.org/2000/svg" xmlns:xlink="http://www.w3.org/1999/xlink" x="0px" y="0px" viewBox="0 0 32 32" style="enable-background:new 0 0 32 32" xml:space="preserve"><g><circle cx="16" cy="16" r="16" style="fill:#F52D2D"/></g><path d="M29,17c0-2.2-1.8-4-4-4s-4,1.8-4,4c0,1.9,1.3,3.4,3,3.9V21c0,2.8-2.2,5-5,5c0,0,0,0,0,0c-2.8,0-5-2.2-5-5v-1
	c2.8-0.3,5-2.6,5-5.5v-2.7c1.2-0.4,2-1.5,2-2.8c0-1.7-1.3-3-3-3s-3,1.3-3,3c0,1.3,0.8,2.4,2,2.8v2.7c0,1.9-1.6,3.5-3.5,3.5h-1
	C10.6,18,9,16.4,9,14.5v-2.7c1.2-0.4,2-1.5,2-2.8c0-1.7-1.3-3-3-3S5,7.3,5,9c0,1.3,0.8,2.4,2,2.8v2.7c0,2.9,2.2,5.2,5,5.5v1
	c0,3.9,3.1,7,7,7c0,0,0,0,0,0c3.9,0,7-3.1,7-7v-0.1C27.7,20.4,29,18.9,29,17z M18,8c0.6,0,1,0.4,1,1s-0.4,1-1,1s-1-0.4-1-1
	S17.4,8,18,8z M8,8c0.6,0,1,0.4,1,1s-0.4,1-1,1S7,9.6,7,9S7.4,8,8,8z M25,19c-1.1,0-2-0.9-2-2c0-1.1,0.9-2,2-2s2,0.9,2,2
	C27,18.1,26.1,19,25,19z" style="fill:#FFFFFF"/></svg>