<?xml version="1.0" encoding="utf-8"?><!--Generator: Adobe Illustrator 23.0.1, SVG Export Plug-In . SVG Version: 6.00 Build 0)--><svg version="1.1" id="Calque_1" xmlns="http://www.w3.org/2000/svg" xmlns:xlink="http://www.w3.org/1999/xlink" x="0px" y="0px" viewBox="0 0 32 32" style="enable-background:new 0 0 32 32" xml:space="preserve"><g><circle cx="16" cy="16" r="16" style="fill-rule:evenodd;clip-rule:evenodd;fill:#95999D"/></g><circle cx="16" cy="22" r="1" style="fill-rule:evenodd;clip-rule:evenodd;fill:#FFFFFF"/><path d="M16.6,19.4c0,0.3-0.3,0.6-0.6,0.6c-0.3,0-0.6-0.3-0.6-0.6v-2.5c0-0.3,0.3-0.6,0.6-0.6c1.7,0,3.1-1.4,3.1-3
	c0-1.7-1.4-3.1-3-3.1c-1.7,0-3.1,1.4-3.1,3c0,0,0,0,0,0c0,0.3-0.3,0.6-0.6,0.6c-0.3,0-0.6-0.3-0.6-0.6c0-2.4,1.9-4.3,4.3-4.3
	c2.4,0,4.3,1.9,4.3,4.3c0,2.1-1.6,3.9-3.7,4.2C16.6,17.5,16.6,19.4,16.6,19.4z" style="fill-rule:evenodd;clip-rule:evenodd;fill:#FFFFFF"/><path d="M16,4C9.4,4,4,9.4,4,16s5.4,12,12,12s12-5.4,12-12S22.6,4,16,4z M16,26.5c-5.8,0-10.5-4.7-10.5-10.5
	S10.2,5.5,16,5.5S26.5,10.2,26.5,16S21.8,26.5,16,26.5z" style="fill-rule:evenodd;clip-rule:evenodd;fill:#FFFFFF"/></svg>