<svg xmlns="http://www.w3.org/2000/svg" viewBox="0 0 32 32"><g fill="none" fill-rule="evenodd"><circle cx="16" cy="16" r="16" fill="#6984CE"/><path fill="#FFFFFF" fill-rule="nonzero" d="M24.75 13c.64-.04 1.2.45 1.25 1.09v9.82c-.05.64-.6 1.13-1.25 1.09H7.25c-.64.04-1.2-.45-1.25-1.09v-9.82c.05-.64.6-1.13 1.25-1.09h17.5zm0-1H7.25c-1.2-.04-2.2.9-2.25 2.09v9.82A2.18 2.18 0 0 0 7.25 26h17.5c1.2.04 2.2-.9 2.25-2.09v-9.82A2.18 2.18 0 0 0 24.75 12z"/><path fill="#FFFFFF" fill-rule="nonzero" d="M23.88 14H8.12a1 1 0 0 0-1.12.91v8.18a1 1 0 0 0 1.12.91h15.76a1 1 0 0 0 1.12-.91v-8.18a1 1 0 0 0-1.12-.91zM10 20a1 1 0 1 1 0-2 1 1 0 0 1 0 2zm6 1.5a2.5 2.5 0 1 1 0-5 2.5 2.5 0 0 1 0 5zm6-1.5a1 1 0 1 1 0-2 1 1 0 0 1 0 2z"/><path fill="#FFFFFF" d="M19.85 5.15a.5.5 0 0 0-.7.7L20.29 7H15.5a.5.5 0 1 0 0 1h4.79l-1.14 1.15a.5.5 0 0 0 .35.85c.13 0 .26-.05.35-.15l2-2a.48.48 0 0 0 0-.7l-2-2zM10 4.5c0 .13.05.26.15.35l2 2c.09.1.22.15.35.15a.5.5 0 0 0 .35-.85L11.71 5h4.79a.5.5 0 1 0 0-1h-4.79l1.14-1.15a.5.5 0 1 0-.7-.7l-2 2c-.1.1-.15.22-.15.35z"/></g></svg>