<svg xmlns="http://www.w3.org/2000/svg" viewBox="0 0 32 32"><g fill="none" fill-rule="evenodd"><circle cx="16" cy="16" r="16" fill="#FD7461"/><path fill="#FFFFFF" d="M10.52 17.73v-1.2h1.15l-.01-.52c0-.2 0-.42.03-.63h-1.17V14.2h1.4a4.38 4.38 0 0 1 4.26-3.2 4.2 4.2 0 0 1 3.65 1.82l-1.39.96c-.64-.82-1.26-1.26-2.3-1.26-1.07 0-1.9.65-2.31 1.68h3.22v1.18h-3.5c-.04.2-.04.4-.04.6 0 .2 0 .38.02.56h3.52v1.19H13.8c.42 1.09 1.28 1.75 2.44 1.75 1 0 1.6-.48 2.3-1.32l1.31.9A4.21 4.21 0 0 1 16.24 21a4.36 4.36 0 0 1-4.36-3.27h-1.36zM16 6a10.01 10.01 0 0 1 0 20c-4.47 0-8.26-2.95-9.54-7H8.6A8 8 0 0 0 24 16a8 8 0 0 0-8-8c-2.3 0-4.36.98-5.82 2.54.22.04.43.14.59.32a1 1 0 0 1-.13 1.4l-3 2.5A1 1 0 0 1 6 14v-4a.99.99 0 1 1 1.96-.2l.17.06A9.97 9.97 0 0 1 16 6z"/></g></svg>