<svg xmlns="http://www.w3.org/2000/svg" viewBox="0 0 32 32"><g fill="none" fill-rule="evenodd"><circle cx="16" cy="16" r="16" fill="#FD7461"/><path fill="#FFFFFF" d="M24.14 23.18l-4.95-4.95 3.9-3.9a.5.5 0 0 0-.72-.7l-3.89 3.89-.7-.7 3.89-3.9a.5.5 0 0 0-.71-.7l-3.89 3.89-.7-.71 3.88-3.89a.5.5 0 0 0 0-.7.5.5 0 0 0-.7 0l-3.9 3.88-.7-.7 3.89-3.9a.5.5 0 0 0 0-.7.5.5 0 0 0-.7 0l-3.9 3.89-.7-.71 3.88-3.89a.5.5 0 0 0 0-.7.5.5 0 0 0-.7 0l-3.9 3.88-.7-.7 3.89-3.9a.5.5 0 0 0-.7-.7l-3.9 3.89-.7-.7 3.89-3.9a.5.5 0 0 0-.7-.7L10 9.03 8.94 10.1l-.35.35a2 2 0 0 0 0 2.83L21.3 26a2 2 0 1 0 2.83-2.83"/></g></svg>