<svg xmlns="http://www.w3.org/2000/svg" viewBox="0 0 32 32"><g fill="none" fill-rule="evenodd"><circle cx="16" cy="16" r="16" fill="#FC6D00"/><path fill="#FFFFFF" d="M16 22.04a.5.5 0 0 0 .23-.06L24 17.93v.98c0 2.3-3.04 5.5-8 5.5a9.9 9.9 0 0 1-4.53-1.04A2.97 2.97 0 0 0 10 20.4v-1.43l5.77 3a.5.5 0 0 0 .23.06zm-5.52.73l.02.23a1.99 1.99 0 0 1-2 2 1.99 1.99 0 0 1-2-2l.03-.32.02-.11.05-.19.05-.12a1.9 1.9 0 0 1 .45-.67l.07-.07.18-.14.07-.05.24-.14.03-.01c.1-.04.2-.08.31-.1v-3.15l1 .52v2.59l.3.13a2 2 0 0 1 1.18 1.6zm17.25-8.8a.5.5 0 0 1 0 .88L16 20.98 4.27 14.85a.5.5 0 0 1 0-.88l11.5-6a.5.5 0 0 1 .46 0l11.5 6z"/></g></svg>