<svg xmlns="http://www.w3.org/2000/svg" viewBox="0 0 32 32"><g fill="none" fill-rule="evenodd"><circle cx="16" cy="16" r="16" fill="#FF962F"/><g transform="translate(8 3)"><path fill="#FFFFFF" d="M12.5 10a.5.5 0 0 1 0-1h1a.5.5 0 0 1 0 1h-1zm0 3a.5.5 0 0 1 0-1h1a.5.5 0 0 1 0 1h-1zm0 3a.5.5 0 0 1 0-1h1a.5.5 0 0 1 0 1h-1zm0 3a.5.5 0 0 1 0-1h1a.5.5 0 0 1 0 1h-1zm-4-3h-5a.5.5 0 0 1 0-1h5a.5.5 0 0 1 0 1m-2 3h-3a.5.5 0 0 1 0-1h3a.5.5 0 0 1 0 1m9.65-17.85L14.5 2.79l-1.65-1.64a.5.5 0 0 0-.7 0L10.5 2.79 8.85 1.15a.5.5 0 0 0-.7 0L6.5 2.79 4.85 1.15a.5.5 0 0 0-.7 0L2.5 2.79.85 1.15A.5.5 0 0 0 0 1.5v23a.5.5 0 0 0 .85.36L2.5 23.2l1.65 1.64c.2.2.5.2.7 0L6.5 23.2l1.65 1.64c.2.2.5.2.7 0l1.65-1.64 1.65 1.64c.2.2.5.2.7 0l1.65-1.64 1.65 1.64a.5.5 0 0 0 .85-.35v-23a.5.5 0 0 0-.85-.35z"/><polygon fill="#FF962F" points="1 10 6 5 11 10 10 10 10 12.999 7 12.999 7 10 5 10 5 13 2 12.999 2 10"/></g></g></svg>