<svg xmlns="http://www.w3.org/2000/svg" xmlns:xlink="http://www.w3.org/1999/xlink" viewBox="0 0 32 32"><defs><polygon id="a" points=".121 0 19.89 0 19.89 7.999 .121 7.999"/><polygon id="c" points="0 .483 20 .483 20 12 0 12"/></defs><g fill="none" fill-rule="evenodd"><circle cx="16" cy="16" r="16" fill="#7F6BEE"/><g transform="translate(6 9)"><mask id="b" fill="white"><use xlink:href="#a"/></mask><path fill="#FFFFFF" d="M11.14 7.7l8.75-6.33A2 2 0 0 0 18 0H2A2 2 0 0 0 .12 1.34L8.95 7.7c.58.4 1.57.4 2.19 0" mask="url(#b)"/><g transform="translate(0 2)"><mask id="d" fill="white"><use xlink:href="#c"/></mask><path fill="#FFFFFF" d="M11.7 6.53a3.1 3.1 0 0 1-1.66.47 3 3 0 0 1-1.67-.48L0 .48V10c0 1.1.9 2 2 2h16a2 2 0 0 0 2-2V.53l-8.3 6z" mask="url(#d)"/></g></g></g></svg>