<svg xmlns="http://www.w3.org/2000/svg" viewBox="0 0 32 32"><g fill="none" fill-rule="evenodd"><circle cx="16" cy="16" r="16" fill="#1FA8F1"/><circle cx="16" cy="16" r="16" fill="#1FA8F1"/><path fill="#FFFFFF" d="M21.8 13.1a1 1 0 0 1-1.4.2 6.54 6.54 0 0 0-4.33-1.29c-.6 0-1.03-.4-1.07-.93a1 1 0 0 1 .93-1.06l.57-.02c1.83 0 3.64.6 5.1 1.7a1 1 0 0 1 .2 1.4M10 17a2 2 0 1 1 0-4 2 2 0 0 1 0 4m18.01-4a.99.99 0 0 0-.98.99c0 .42-.28.8-.68.93l-.44.1C25.33 10.79 21.12 7.5 16 7.5c-.73 0-1.47.07-2.22.22A4.01 4.01 0 0 0 8.5 6.54a.5.5 0 0 0 0 .86c.7.41 1.21 1.1 1.4 1.87a8.44 8.44 0 0 0-3.75 5.23H4.5a.5.5 0 0 0-.5.5v4c0 .28.22.5.5.5h2.39A9.13 9.13 0 0 0 11 23.35V26a1 1 0 0 0 2 0v-1.9a11.66 11.66 0 0 0 6 0V26a1 1 0 0 0 2 0v-2.67c2.66-1.32 4.53-3.64 4.9-6.35V17l.7-.11a2.96 2.96 0 0 0 2.4-2.9.99.99 0 0 0-.99-.99"/></g></svg>