<svg xmlns="http://www.w3.org/2000/svg" viewBox="0 0 32 32"><g fill="none" fill-rule="evenodd"><circle cx="16" cy="16" r="16" fill="#B449E7"/><path fill="#FFFFFF" d="M27 25a.5.5 0 0 1 0 1H5a.5.5 0 0 1 0-1h22zm-2.5-11h2a.5.5 0 0 1 0 1v8a.5.5 0 0 1 0 1h-2V14zm-3 0h2v10h-2a.5.5 0 0 1 0-1v-8a.5.5 0 0 1 0-1zm-13 0h2a.5.5 0 0 1 0 1v8a.5.5 0 0 1 0 1h-2V14zm-3 0h2v10h-2a.5.5 0 0 1 0-1v-8a.5.5 0 0 1 0-1zm11 0h2a.5.5 0 0 1 0 1v8a.5.5 0 0 1 0 1h-2V14zm-3 0h2v10h-2a.5.5 0 0 1 0-1v-8a.5.5 0 0 1 0-1zM5 13a.5.5 0 0 1-.3-.9l11.02-9a.5.5 0 0 1 .62 0l10.97 9a.5.5 0 0 1-.3.9H5z"/></g></svg>