<svg xmlns="http://www.w3.org/2000/svg" viewBox="0 0 32 32"><g fill="none" fill-rule="evenodd"><circle cx="16" cy="16" r="16" fill="#7F6BEE"/><path fill="#FFFFFF" d="M21.5 11h-1a.5.5 0 0 1 0-1h1a.5.5 0 0 1 0 1m0 3h-1a.5.5 0 0 1 0-1h1a.5.5 0 0 1 0 1m0 3h-1a.5.5 0 0 1 0-1h1a.5.5 0 0 1 0 1m0 3h-1a.5.5 0 0 1 0-1h1a.5.5 0 0 1 0 1m-4-9h-6a.5.5 0 0 1 0-1h6a.5.5 0 0 1 0 1M11 13.5c0-.28.22-.5.5-.5h4a.5.5 0 0 1 0 1h-4a.5.5 0 0 1-.5-.5m5.5 3.5h-5a.5.5 0 0 1 0-1h5a.5.5 0 0 1 0 1m-2 3h-3a.5.5 0 0 1 0-1h3a.5.5 0 0 1 0 1M24.7 4.04a.5.5 0 0 0-.55.1L22.5 5.8l-1.65-1.64a.5.5 0 0 0-.7 0L18.5 5.79l-1.65-1.64a.5.5 0 0 0-.7 0L14.5 5.79l-1.65-1.64a.5.5 0 0 0-.7 0L10.5 5.79 8.85 4.15A.5.5 0 0 0 8 4.5v23a.5.5 0 0 0 .85.36l1.65-1.65 1.65 1.64c.2.2.5.2.7 0l1.65-1.64 1.65 1.64c.2.2.5.2.7 0l1.65-1.64 1.65 1.64c.2.2.5.2.7 0l1.65-1.64 1.65 1.64a.5.5 0 0 0 .85-.35v-23a.5.5 0 0 0-.3-.46"/></g></svg>