<svg xmlns="http://www.w3.org/2000/svg" viewBox="0 0 32 32"><g fill="none" fill-rule="evenodd"><circle cx="16" cy="16" r="16" fill="#35CE68"/><path fill="#FFFFFF" d="M8.5 17.13c.28 0 .5.22.5.5v7.5a.5.5 0 0 1-.5.5h-4a.5.5 0 0 1-.5-.5v-7.5c0-.28.22-.5.5-.5h4zm19.35 4.14a.5.5 0 0 1-.13.8 110.91 110.91 0 0 0-5.97 3.22C19.7 26.46 18.72 27 17.57 27c-.96 0-2.04-.38-3.97-1.08-.98-.36-2.2-.8-3.76-1.32a.5.5 0 0 1-.34-.47v-5.5c0-.28.22-.5.5-.5h1.5c2.3 0 3.69 1.39 4.15 1.85.1.1.22.15.35.15h3c1.09 0 1.38.94 1.38 1.5 0 .4-.13.78-.36 1.05-.24.3-.59.45-1.02.45h-5a.5.5 0 0 0 0 1h5a2.3 2.3 0 0 0 1.8-.8 2.65 2.65 0 0 0 .53-2.18l3.01-1c1.33-.38 2.34-.05 3.51 1.12zM21 11.13a3.5 3.5 0 1 1 0-7.01 3.5 3.5 0 0 1 0 7zm-4.5 7a3.5 3.5 0 1 1 0-7.01 3.5 3.5 0 0 1 0 7zm-.5-4.5v2a.5.5 0 0 0 1 0v-2a.5.5 0 0 0-1 0zm4.5-7v2a.5.5 0 0 0 1 0v-2a.5.5 0 0 0-1 0z"/></g></svg>