<svg xmlns="http://www.w3.org/2000/svg" viewBox="0 0 32 32"><g fill="none" fill-rule="evenodd"><circle cx="16" cy="16" r="16" fill="#FC4C83"/><path fill="#FFFFFF" d="M15.5 7a4.5 4.5 0 0 0-4.5 4.5.5.5 0 0 1-1 0A5.5 5.5 0 0 1 15.5 6a.5.5 0 0 1 0 1m7.5 5c0-4.64-3.15-8-7.5-8S8 7.36 8 12c0 2.73 2.18 5.54 6.32 8.16l-1.25 2.08a.5.5 0 0 0 .43.76H15v2.5a1.5 1.5 0 0 0 3 0 .5.5 0 0 1 1 0v2a.5.5 0 0 0 1 0v-2a1.5 1.5 0 0 0-3 0 .5.5 0 0 1-1 0V23h1.5a.5.5 0 0 0 .43-.76l-1.25-2.08C20.82 17.54 23 14.73 23 12"/></g></svg>