<svg xmlns="http://www.w3.org/2000/svg" viewBox="0 0 32 32"><g fill="none" fill-rule="evenodd"><circle cx="16" cy="16" r="16" fill="#95999D"/><g fill="#FFFFFF" transform="translate(4 7)"><path d="M17.75 19.4V5.76a1.4 1.4 0 0 0-1.4-1.4h-.64V20.8h.64a1.4 1.4 0 0 0 1.4-1.4"/><path d="M19.93 7.27H20a1.8 1.8 0 0 0 1.82-1.82V4c0-1-.8-1.82-1.82-1.82H4C3 2.18 2.18 3 2.18 4v1.45c0 1 .82 1.82 1.82 1.82h.09v2.18H4a4 4 0 0 1-4-4V4a4 4 0 0 1 4-4h16a4 4 0 0 1 4 4v1.45a4 4 0 0 1-4 4h-.07V7.27z"/><path d="M10.04 18.21a1.09 1.09 0 0 1-2.19 0v-1.08a1.09 1.09 0 0 1 2.19 0v1.08zM7.67 4.36c-.78 0-1.4.63-1.4 1.4V19.4c0 .77.62 1.4 1.4 1.4h5.86V4.36H7.67z"/></g></g></svg>