<svg xmlns="http://www.w3.org/2000/svg" width="40" height="48" viewBox="0 0 40 48" xmlns:xlink="http://www.w3.org/1999/xlink">
  <defs>
    <path id="a" d="M37.1417191,25.5008914 C37.2091704,32.7648109 43.514095,35.1820603 43.583945,35.2129134 C43.5306339,35.3833911 42.5765232,38.6577305 40.2622112,42.0398891 C38.2615903,44.9639366 36.1852096,47.8772728 32.9142966,47.9376105 C29.7002974,47.9968313 28.6668172,46.0317007 24.9923063,46.0317007 C21.3189052,46.0317007 20.1706618,47.8772679 17.1282536,47.9968313 C13.9709927,48.1163073 11.5667716,44.8348613 9.54952476,41.9215252 C5.42752509,35.962198 2.27746446,25.0818664 6.50719966,17.7374652 C8.60844187,14.0902057 12.3635205,11.7806087 16.4393227,11.7213834 C19.5396722,11.6622439 22.4660336,13.8071952 24.3613166,13.8071952 C26.2553978,13.8071952 29.8115498,11.2277033 33.5500012,11.6065343 C35.1150447,11.6716729 39.5081474,12.2387233 42.3290794,16.3678354 C42.1017818,16.5087428 37.0872086,19.4279886 37.1417191,25.5008982 M31.1013791,7.66391937 C32.7775901,5.63493264 33.9057767,2.81039548 33.5979952,0 C31.181863,0.0971068438 28.2602163,1.6100434 26.5271784,3.63791385 C24.9740437,5.43368756 23.6138468,8.30793793 23.9808515,11.0627096 C26.6739145,11.2710683 29.4250856,9.69419641 31.1013791,7.66392267"/>
  </defs>
  <g fill="none" fill-rule="evenodd" transform="translate(-4)">
    <mask id="b" fill="white">
      <use xlink:href="#a"/>
    </mask>
    <use fill="#222222" fill-rule="nonzero" xlink:href="#a"/>
    <rect width="48" height="48" fill="#222222" mask="url(#b)"/>
  </g>
</svg>
