<svg xmlns="http://www.w3.org/2000/svg" width="40" height="36"><path d="M4.008 0l.07.12h.034l.047.016.035.02.029.026L5.945 2.19l1.153 1.326a92.633 92.633 0 002.778 3.052l.676.698.494.5.406.425 1.622 1.768.586.626.526.541c1.012 1.016 1.834 1.682 2.53 2.004.228.105.264.525.03.609-2.223.79-4.188.908-5.798-.02l-.208-.127.126.463c1.819 6.009 6.042 10.741 12.236 14.28 5.583 3.188 11.23 4.584 16.135 3.567l.385-.085.094.014.037.017c.182.106.27.239.242.39a.456.456 0 01-.17.258l-.075.06-.22.096-.571.264-.49.184-.966.352c-8.112 2.89-13.91 3.289-19.627.42-6.312-3.166-11.194-10.25-12.474-17.744l-.066-.409-.059-.41c-.896 1.616-2.631 2.519-4.937 2.987-.242.049-.432-.327-.292-.536.427-.636.768-1.589 1.102-2.989l.072-.307.143-.656.545-2.778.054-.263.101-.469.233-1.004.195-.89c.191-.897.371-1.826.562-2.9l.097-.548.228-1.339.54-3.351.017-.048.007-.011.037-.049.033-.018L4.008 0zm1.885 13.409H5.85l.019.04.015.043.1.364.068.258.218.904.264.778.76 2.311.269.801.296.858c.722 2.046 1.311 3.398 2.093 4.736l.159.268.286.461c2.357 3.705 5.486 6.507 9.028 7.886 5.467 2.129 11.574 1.933 17.96-.202a19.56 19.56 0 01-4.353-.009l-.554-.069 2.21.854-.845.179-2.074-.708-1.449-.507-1.723-.615-1.912-.694-9.578-3.53-4.485-1.636-1.849-.686-.084-.087-.176-.263-.282-.456-.182-.301.799.296 1.26.311c1.263.319 2.533.656 3.807 1.011l1.276.362-1.1-.462-1.531-.651-.596-.248a51.461 51.461 0 00-4.401-1.596 3.325 3.325 0 01-.21-.346l-.056-.107-.186-.395-.136-.299-.236-.541 1.625.525c.909.301 1.81.611 2.703.93l1.335.487 1.324.5-.4-.398c-.392-.4-.766-.806-1.12-1.219a81.77 81.77 0 00-4.845-1.181l-.77-.155-.091-.075-.216-.552.138-.164.692.134c.926.186 1.873.4 2.855.646l.743.19-4.78-1.886-.07-.074-.298-.863 5.155 2.05-.269-.388a17.112 17.112 0 01-.488-.77l-.225-.385-4.295-1.052-.086-.08-.182-.55.147-.158 3.975 1.01-.154-.314-.147-.316L6.76 16l-.072-.075-.317-.928-.017-.071.16-.143 3.877 1.328-.052-.108-.054-.116-.052-.123-4.077-1.816-.068-.08-.102-.377-.02-.042a.114.114 0 00-.074-.041zm5.059 12.397l20.87 8.426-.467.06-.54.064-.175.019.01.002-.328.028-.699.053-.44.025-.448.018-14.502-4.91-.202-.181-.355-.334-.31-.31-.354-.365 15.16 5.138-16.368-6.602a9.298 9.298 0 01-.32-.396l-.145-.194-.387-.54zm3.377 3.921l10.263 4.59-1.006-.185a22.441 22.441 0 01-2.129-.495l-.516-.154-3.883-1.735a17.885 17.885 0 01-1.634-1.13l-.388-.31-.707-.58zm2.994-2.561l3.456 1.309 1.2.445-.55-.337-.537-.343a178.07 178.07 0 00-2.38-.725l-1.189-.35zm-3.95-3.095l1.634.654 1.182.46 1.144.434-.059-.05-1.297-.515-.653-.253-.655-.25-1.296-.48zm2.353.093l.188.179.308.122-.193-.183-.303-.118zm-3.014-2.773l.767.302.217.061-.1-.126-.884-.237zm.181-.703l-.174-.07.11.15.17.069-.106-.15zM4.286.98l.01.736c.025 4.164-.555 8.238-1.67 11.907-.282.93-.622 1.812-.973 2.51l-.132.252-.13.231.07-.112.155-.266.082-.151.083-.16.14-.064.563.142.003-.02c.003-.011.008-.019.022-.029l.075-.043.229-.126.394-.226a6.22 6.22 0 00.74-.501l.125-.104-1.502-.587-.072-.156.106-.304.096-.297.158-.08 1.934.664.133-.184.128-.195.115-.317-2.058-.934-.068-.144.128-.46.016-.007-.01-.02.109-.459.157-.088 5.586 1.78-.676-.332-.256-.123-.823-.386-3.508-1.599-.182-.084-.069-.137.1-.52.173-.088 1.108.509c.61.282 1.227.57 1.853.865l.946.447 1.786.849-.022-.258v-.061l.01-.059-5.666-2.69-.068-.134.088-.462.174-.09 8.563 4.06.21.003.22-.001 1.116-.039.197-.005c.25-.005.46-.003.658.007a11.406 11.406 0 01-1.465-.966l-.266-.206-9.278-2.92-.085-.136.07-.459.158-.099 7.777 2.445-.342-.32-.335-.323L8.732 8.76 4.21 6.73l-.072-.125.05-.466.173-.1 5.495 2.454-.096-.102-.522-.575a38.552 38.552 0 01-1.011-1.183c-.993-.31-2.03-.623-3.085-.919l-.793-.218-.09-.13.031-.457.082-.06-.07-.113.032-.48.17-.107 2.637 1.113-.116-.152-.396-.538-.385-.54-.586-.144-1.2-.306-.093-.124.018-.642.156-.116.854.248.142.042-.273-.421-.255-.02-.256-.036-.253-.042-.103-.122-.004-.337.06-.05-.061-.086-.005-.338.16-.119-.26-.44zm5.632 13.887l.04.13.074.034.032-.011-.032-.1-.114-.053zm-4.894-2.221l4.894 2.22-.026-.084-.085-.316-.077-.322-4.706-1.498zm4.456-.077l.012.12.448.21-.356-.17-.014-.12-.09-.04zm.767-.46l.104.092.233.195.14.11-.121-.098a6.117 6.117 0 01-.307-.27.137.137 0 00-.049-.028z"/></svg>
