<svg xmlns="http://www.w3.org/2000/svg" width="32" height="32" fill="none"><path fill="url(#a)" fill-rule="evenodd" d="M24 11a8 8 0 0 1 0 16h-8a8 8 0 0 1 8-8c-2.21 0-4.21-.895-5.657-2.343L24 11Z" clip-rule="evenodd"/><path fill="url(#b)" fill-rule="evenodd" d="M16 27H8a8 8 0 0 1 0-16l5.657 5.657A7.975 7.975 0 0 1 8 19a8 8 0 0 1 8 8Z" clip-rule="evenodd"/><path fill="url(#c)" fill-rule="evenodd" d="M8 11a8 8 0 0 1 16 0l-5.657 5.657A7.975 7.975 0 0 1 16 11a7.975 7.975 0 0 1-2.343 5.657L8 11Z" clip-rule="evenodd"/><defs><radialGradient id="a" cx="0" cy="0" r="1" gradientTransform="matrix(-8 .15626 -.15626 -8 24 19)" gradientUnits="userSpaceOnUse"><stop stop-color="#00D9DD"/><stop offset=".75" stop-color="#4482FF"/><stop offset=".95" stop-color="#4482FF"/><stop offset="1" stop-color="#5087F1"/></radialGradient><radialGradient id="b" cx="0" cy="0" r="1" gradientTransform="matrix(8 0 0 8 8 19)" gradientUnits="userSpaceOnUse"><stop stop-color="#FF429F"/><stop offset=".255" stop-color="#FF429F"/><stop offset="1" stop-color="#FFC01E"/></radialGradient><radialGradient id="c" cx="0" cy="0" r="1" gradientTransform="matrix(0 8 -8 0 16 11)" gradientUnits="userSpaceOnUse"><stop stop-color="#4381FF"/><stop offset=".25" stop-color="#4381FF"/><stop offset=".75" stop-color="#FF429F"/><stop offset=".94" stop-color="#FF429F"/><stop offset="1" stop-color="#F85AA8"/></radialGradient></defs></svg>