<svg xmlns="http://www.w3.org/2000/svg" viewBox="0 0 96 96"><defs><style>.cls-1{fill:#ff9300}.cls-4{fill:#ffd799}</style></defs><g id="Layer_1" data-name="Layer 1"><path class="cls-1" d="M84 85.5h3v-48a7.5 7.5 0 0 0-7.5-7.5h-63A7.5 7.5 0 0 0 9 37.5v48z"/><path d="M16.5 36.75A1.48 1.48 0 0 0 15 38.2v42.1a1.48 1.48 0 0 0 1.5 1.45h63A1.48 1.48 0 0 0 81 80.3V38.2a1.48 1.48 0 0 0-1.5-1.45z" fill="#fff"/><path d="M91.5 85.5h-87A1.5 1.5 0 0 0 3 87v1.5a7.5 7.5 0 0 0 7.5 7.5h75a7.5 7.5 0 0 0 7.5-7.5V87a1.5 1.5 0 0 0-1.5-1.5z" fill="#ff7f1b"/><path class="cls-4" d="M36 30v-9h10.5v15h3V21H84a1.5 1.5 0 0 0 1.06-2.56l-12-12a1.4 1.4 0 0 0-.44-.29.39.39 0 0 0-.14-.05 1.23 1.23 0 0 0-.39-.1H36V1.5A1.5 1.5 0 0 0 34.5 0h-12A1.5 1.5 0 0 0 21 1.5V6h-3a1.5 1.5 0 0 0-1.06.44l-12 12A1.5 1.5 0 0 0 6 21h15v9zm37.5-18.88L80.38 18H73.5zM70.5 9v6.88L63.62 9zm-9 2.12L68.38 18H61.5zM58.5 9v6.88L51.62 9zm-9 2.12L56.38 18H49.5zM46.5 9v6.88L39.62 9zM36 9.62L44.38 18H36zM21 18H9.62l9-9H21zM50.53 47.59l3-3-2.12-2.12L48 45.88l-2.38-2.38 3.44-3.44A1.5 1.5 0 0 0 49.5 39v-3h-3v2.38l-4.06 4.06a1.49 1.49 0 0 0 0 2.12l3 3-6.71 11h4.39l4.88-8.9 5.69 8.84h3.7z"/><path class="cls-1" d="M48 78.6a13.5 13.5 0 1 0-13.5-13.5A13.49 13.49 0 0 0 48 78.6z"/><circle class="cls-4" cx="48" cy="60.95" r="5.19"/><path class="cls-4" d="M38.23 71a11.43 11.43 0 0 0 19.54 0 .54.54 0 0 0-.11-.26 7.36 7.36 0 0 0-6-2.55h-7.29a7.36 7.36 0 0 0-6 2.55.54.54 0 0 0-.11.26z"/><path class="cls-1" d="M27 13.5h3v3h-3z"/></g></svg>