<svg xmlns="http://www.w3.org/2000/svg" viewBox="0 0 2560 96"><defs><linearGradient id="a" x1="50%" x2="50%" y1="0%" y2="100%"><stop offset="0%" stop-color="#FFFFFF"/><stop offset="100%" stop-color="#FFFFFF" stop-opacity="0"/></linearGradient></defs><g fill="none" fill-rule="evenodd" opacity=".32"><path fill="url(#a)" fill-opacity=".5" d="M0 60.37c34.94 0 31.4-22.73 72.16-22.73 40.75 0 44.3 40.55 91.9 40.55 47.59 0 44.3-67.59 74.93-67.59 30.62 0 31.9 52.57 63.8 52.57s37.46-19.62 69.87-19.62h70.8c31.9 0 33.35-43.55 75.25-43.55s49.4 78.19 87.87 78.19c38.48 0 30.89-40.55 63.8-40.55s32.91-.08 69.87 0c36.97.08 43.46 30.65 84.05 28.67 40.6-1.98 52.98-47.94 85.76-47.94 32.77 0 30.2 25.18 64.12 25.18s42.97-32.95 72.85-32.95c29.87 0 35.5 9.69 60.82 29.73 25.31 20.04 27.86 20.04 55.2 20.04 27.35 0 54.5-49.77 91.83-49.77 37.32 0 67.05 70.06 93.88 70.06 26.84 0 36.56-15.84 56.81-37.11 20.25-21.28 26.33-25.18 69.87-25.18 43.55 0 57.22 37.05 84.05 37.05 26.84 0 18.74-11.87 57.73-11.87h47.59c27.9 0 36.13 21.1 55.82 21.1 31.65 0 29.75-3.71 53.04-27 23.3-23.3 38.07-27.05 69.37-27.05 31.3 0 50.12 44.82 84.05 44.82 33.92 0 30.88-30.18 74.94-30.18 44.05 0 44.05 55.42 74.93 55.42 30.89 0 38.99-43.02 63.8-43.02 24.81 0 41.01 25.53 67.85 25.53 26.83 0 47.93-52.57 81.01-52.57 33.08 0 54.68 54.05 77.97 54.05 23.3 0 35.43-46.28 78.65-46.28 43.22 0 36.8 19.27 62.11 19.27C2533.67 37.64 2528.61 0 2560 0v96H0V60.37z"/><path stroke="#FFFFFF" stroke-width="2" d="M0 60.63c34.94 0 31.4-22.83 72.16-22.83 40.75 0 44.3 40.72 91.9 40.72 47.59 0 44.3-67.87 74.93-67.87 30.62 0 31.9 52.78 63.8 52.78s37.46-19.7 69.87-19.7h70.8c31.9 0 33.35-43.73 75.25-43.73s49.4 78.52 87.87 78.52c38.48 0 30.89-40.72 63.8-40.72s32.91-.08 69.87 0c36.97.08 43.46 30.78 84.05 28.79 40.6-2 52.98-48.14 85.76-48.14 32.77 0 30.2 25.28 64.12 25.28s42.97-33.08 72.85-33.08c29.87 0 35.5 9.72 60.82 29.85 25.31 20.13 27.86 20.13 55.2 20.13 27.35 0 54.5-49.98 91.83-49.98 37.32 0 67.05 70.35 93.88 70.35 26.84 0 36.56-15.9 56.81-37.27 20.25-21.37 26.33-25.28 69.87-25.28 43.55 0 57.22 37.2 84.05 37.2 26.84 0 18.74-11.92 57.73-11.92h47.59c27.9 0 36.13 21.19 55.82 21.19 31.65 0 29.75-3.73 53.04-27.12 23.3-23.39 38.07-27.15 69.37-27.15 31.3 0 50.12 45 84.05 45 33.92 0 30.88-30.3 74.94-30.3 44.05 0 44.05 55.65 74.93 55.65 30.89 0 38.99-43.2 63.8-43.2 24.81 0 41.01 25.63 67.85 25.63 26.83 0 47.93-52.78 81.01-52.78 33.08 0 54.68 54.27 77.97 54.27 23.3 0 35.43-46.47 78.65-46.47 43.22 0 36.8 19.35 62.11 19.35 25.32 0 20.26-37.8 51.65-37.8"/></g></svg>