<svg xmlns="http://www.w3.org/2000/svg" viewBox="0 0 2560 33"><g fill="#FFFFFF" fill-rule="evenodd" opacity=".64" transform="translate(-24)"><g transform="translate(1488 1)"><g transform="translate(651)"><path fill-rule="nonzero" d="M16.5 16.32v1.29h-3.84v2.57h3.24v1.29h-3.24V25h-1.63v-8.68h5.47zm6.74 0v1.29H19.4V20h3.03v1.25H19.4v2.45h3.84V25h-5.47v-8.68h5.47zm-.34-2.07l-1.78 1.3a1.02 1.02 0 0 1-.23.13.58.58 0 0 1-.12.02h-1.31l1.17-1.2.14-.13a.55.55 0 0 1 .28-.11h1.85zm.89 2.07h1.3a.54.54 0 0 1 .54.37l2.04 5.3a7.16 7.16 0 0 1 .37 1.21c.1-.46.2-.87.34-1.22l2.04-5.29c.03-.1.1-.18.19-.25a.5.5 0 0 1 .34-.12h1.3L28.75 25h-1.46l-3.5-8.68zm11.04 5.29V25H33.2v-8.68h2.65c.6 0 1.1.06 1.52.19.42.12.77.29 1.04.51a2 2 0 0 1 .6.79c.12.3.18.64.18 1.01a2.62 2.62 0 0 1-.5 1.54 2.9 2.9 0 0 1-1.41.94c.2.11.38.28.53.5l2.17 3.2h-1.45a.7.7 0 0 1-.36-.08.73.73 0 0 1-.25-.24L36.1 21.9a.64.64 0 0 0-.23-.22.79.79 0 0 0-.36-.07h-.7zm0-1.16h1c.31 0 .57-.04.8-.11.23-.08.41-.18.56-.32.15-.13.25-.29.33-.47.07-.19.1-.39.1-.61 0-.44-.14-.78-.43-1.01-.3-.24-.73-.36-1.33-.36h-1.03v2.88zm5.75 3.73a.92.92 0 0 1 .26-.64.95.95 0 0 1 .65-.26.89.89 0 0 1 .65.26.9.9 0 0 1 .19 1 .87.87 0 0 1-.48.47.94.94 0 0 1-1-.19.92.92 0 0 1-.26-.64z" opacity=".66"/><rect width="1" height="4" x="26"/></g><path fill-rule="nonzero" d="M17.37 21.92c0 .48-.06.92-.18 1.32-.12.39-.3.72-.54 1a2.3 2.3 0 0 1-.89.63c-.36.15-.77.23-1.24.23a5.12 5.12 0 0 1-1.3-.17l.1-.96c0-.08.03-.15.1-.2.05-.06.13-.09.25-.09.06 0 .15.01.26.04.11.03.25.04.42.04.23 0 .43-.03.6-.1.18-.06.33-.17.45-.31.12-.14.2-.33.26-.56.06-.23.1-.51.1-.84v-5.63h1.6v5.6zm5.24 1.78c.31 0 .6-.05.84-.16a1.74 1.74 0 0 0 1.01-1.12c.1-.27.14-.57.14-.9v-5.2h1.61v5.2a4 4 0 0 1-.25 1.43 3.23 3.23 0 0 1-1.85 1.88 4 4 0 0 1-1.5.27 4 4 0 0 1-1.5-.27 3.24 3.24 0 0 1-1.84-1.88 4 4 0 0 1-.25-1.43v-5.2h1.61v5.2c0 .33.05.63.14.9.09.26.22.5.38.68.17.2.38.34.63.44.24.1.52.16.83.16zm7.06 1.3h-1.62v-8.68h1.62V25zm3.57-1.33h3.47V25h-5.09v-8.68h1.62v7.35zm4.5.51a.92.92 0 0 1 .26-.64.95.95 0 0 1 .65-.26.89.89 0 0 1 .64.26.9.9 0 0 1 .2 1 .87.87 0 0 1-.48.47.94.94 0 0 1-1-.19.92.92 0 0 1-.26-.64z" opacity=".66"/><rect width="1" height="4" x="26"/><g transform="translate(558)"><path fill-rule="nonzero" d="M14.58 21.92c0 .48-.06.92-.18 1.32-.12.39-.3.72-.53 1-.24.27-.54.49-.9.63-.35.15-.76.23-1.24.23a5.12 5.12 0 0 1-1.29-.17l.09-.96c0-.08.04-.15.1-.2.06-.06.14-.09.25-.09.07 0 .16.01.27.04.1.03.25.04.42.04.22 0 .43-.03.6-.1a.98.98 0 0 0 .44-.31c.12-.14.21-.33.27-.56.06-.23.09-.51.09-.84v-5.63h1.61v5.6zM23.65 25H22.4a.55.55 0 0 1-.54-.37l-.65-1.77h-3.59l-.65 1.77a.57.57 0 0 1-.53.37h-1.26l3.41-8.68h1.65L23.65 25zm-5.62-3.28h2.77l-1.06-2.88a13.18 13.18 0 0 1-.33-1.02 20 20 0 0 1-.32 1.03l-1.06 2.87zm7.36-5.4l.18.01c.05 0 .1.02.13.04l.11.08.12.13 4.55 5.8a5.97 5.97 0 0 1-.04-.78v-5.28h1.42V25h-.83a.74.74 0 0 1-.32-.06.7.7 0 0 1-.24-.22l-4.54-5.77a8.32 8.32 0 0 1 .04.72V25h-1.43v-8.68h.85zm7.37 0h1.3a.54.54 0 0 1 .55.37l2.04 5.3a7.16 7.16 0 0 1 .37 1.21c.09-.46.2-.87.34-1.22l2.03-5.29c.04-.1.1-.18.2-.25.09-.08.2-.12.34-.12h1.3L37.73 25h-1.46l-3.5-8.68zm7.76 7.86a.92.92 0 0 1 .26-.64.95.95 0 0 1 .65-.26.89.89 0 0 1 .65.26.9.9 0 0 1 .19 1 .87.87 0 0 1-.48.47.94.94 0 0 1-1-.19.92.92 0 0 1-.26-.64z" opacity=".66"/><rect width="1" height="4" x="26"/></g><g transform="translate(465)"><path fill-rule="nonzero" d="M21.79 20.66c0 .64-.1 1.22-.32 1.75a4.02 4.02 0 0 1-2.28 2.27c-.54.21-1.14.32-1.8.32h-3.3v-8.68h3.3c.66 0 1.26.11 1.8.32a4.06 4.06 0 0 1 2.28 2.27c.21.53.32 1.12.32 1.75zm-1.65 0c0-.47-.07-.9-.2-1.28a2.5 2.5 0 0 0-.54-.96 2.35 2.35 0 0 0-.86-.6 2.96 2.96 0 0 0-1.14-.21h-1.7v6.1h1.7c.42 0 .8-.06 1.14-.2.34-.14.62-.34.86-.6.24-.27.42-.59.55-.97.12-.38.19-.8.19-1.28zm8.38-4.34v1.29h-3.84V20h3.03v1.25h-3.03v2.45h3.84V25h-5.47v-8.68h5.47zm-.34-2.07l-1.77 1.3a1.02 1.02 0 0 1-.24.13.58.58 0 0 1-.12.02h-1.31l1.18-1.2.13-.13a.55.55 0 0 1 .28-.11h1.85zm7.7 8.7a.3.3 0 0 1 .23.1l.64.7a3.5 3.5 0 0 1-1.3 1c-.51.23-1.13.35-1.85.35-.64 0-1.22-.11-1.74-.33a3.83 3.83 0 0 1-2.15-2.33 5.27 5.27 0 0 1 .03-3.57 4.1 4.1 0 0 1 2.32-2.32 4.84 4.84 0 0 1 3.5-.01c.48.2.9.48 1.24.82l-.54.75a.49.49 0 0 1-.12.12.35.35 0 0 1-.21.06.47.47 0 0 1-.28-.11 3.5 3.5 0 0 0-.93-.47c-.23-.07-.51-.1-.86-.1-.4 0-.78.06-1.13.2a2.5 2.5 0 0 0-.88.61 2.8 2.8 0 0 0-.57.97 3.99 3.99 0 0 0-.01 2.57c.14.38.33.7.57.96a2.36 2.36 0 0 0 1.86.8c.22 0 .42 0 .6-.03a2.53 2.53 0 0 0 .92-.31l.4-.3a.57.57 0 0 1 .12-.1l.15-.03zm1.65 1.23a.92.92 0 0 1 .26-.64.95.95 0 0 1 .65-.26.89.89 0 0 1 .65.26.9.9 0 0 1 .19 1 .87.87 0 0 1-.48.47.94.94 0 0 1-1-.19.92.92 0 0 1-.26-.64z" opacity=".66"/><rect width="1" height="4" x="26"/></g><g transform="translate(837)"><path fill-rule="nonzero" d="M21.7 25h-1.24a.55.55 0 0 1-.54-.37l-.65-1.77h-3.6l-.64 1.77a.57.57 0 0 1-.53.37h-1.26l3.41-8.68h1.65L21.7 25zm-5.6-3.28h2.76l-1.06-2.88a13.18 13.18 0 0 1-.33-1.02 20 20 0 0 1-.32 1.03l-1.06 2.87zm4.64-5.4h1.3a.54.54 0 0 1 .54.37l2.04 5.3a7.16 7.16 0 0 1 .37 1.21c.1-.46.2-.87.34-1.22l2.04-5.29c.03-.1.1-.18.19-.25a.5.5 0 0 1 .34-.12h1.3L25.7 25h-1.46l-3.5-8.68zm11.04 5.29V25h-1.62v-8.68h2.65c.6 0 1.1.06 1.52.19.42.12.77.29 1.04.51a2 2 0 0 1 .6.79c.12.3.18.64.18 1.01a2.62 2.62 0 0 1-.5 1.54 2.9 2.9 0 0 1-1.41.94c.2.11.38.28.52.5l2.18 3.2h-1.45a.7.7 0 0 1-.36-.08.73.73 0 0 1-.25-.24l-1.83-2.78a.64.64 0 0 0-.22-.22.79.79 0 0 0-.36-.07h-.7zm0-1.16h1c.3 0 .57-.04.8-.11.23-.08.41-.18.56-.32.14-.13.25-.29.33-.47.07-.19.1-.39.1-.61 0-.44-.14-.78-.43-1.01-.3-.24-.73-.36-1.33-.36h-1.03v2.88zm5.75 3.73a.92.92 0 0 1 .26-.64.95.95 0 0 1 .65-.26.89.89 0 0 1 .65.26.9.9 0 0 1 .19 1 .87.87 0 0 1-.48.47.94.94 0 0 1-1-.19.92.92 0 0 1-.26-.64z" opacity=".66"/><rect width="1" height="4" x="26"/></g><g transform="translate(186)"><path fill-rule="nonzero" d="M17.24 17.9a.45.45 0 0 1-.15.19.38.38 0 0 1-.2.05.53.53 0 0 1-.28-.1l-.35-.2a2.9 2.9 0 0 0-.48-.2 2 2 0 0 0-.64-.1c-.23 0-.42.03-.59.08-.17.06-.3.13-.42.23a.9.9 0 0 0-.25.34c-.06.14-.09.28-.09.44 0 .2.06.38.17.51.12.14.27.26.46.35.18.1.4.18.64.26l.73.24c.25.09.5.19.74.3.24.12.45.26.64.44a1.96 1.96 0 0 1 .62 1.55 3 3 0 0 1-.2 1.1 2.54 2.54 0 0 1-1.53 1.5 4.12 4.12 0 0 1-4.13-.92l.47-.78a.6.6 0 0 1 .16-.14.39.39 0 0 1 .2-.06c.1 0 .21.04.33.13l.41.27a2.43 2.43 0 0 0 1.33.4c.46 0 .82-.11 1.07-.33.25-.22.38-.53.38-.94a.87.87 0 0 0-.18-.56 1.38 1.38 0 0 0-.45-.36c-.19-.1-.4-.18-.64-.25l-.73-.22c-.25-.08-.5-.18-.73-.29a2.37 2.37 0 0 1-.65-.44 2 2 0 0 1-.45-.67 2.57 2.57 0 0 1 .57-2.72c.24-.24.54-.42.9-.56a4.05 4.05 0 0 1 2.62.03c.43.16.8.38 1.1.67l-.4.76zm7.26-1.58v1.29h-3.84V20h3.03v1.25h-3.03v2.45h3.84V25h-5.47v-8.68h5.47zm3.07 5.63V25h-1.62v-8.68h2.83c.58 0 1.08.07 1.5.2.43.14.78.33 1.06.58.27.24.48.53.6.87.14.34.2.72.2 1.12 0 .42-.06.8-.2 1.16a2.4 2.4 0 0 1-.63.9c-.28.25-.63.45-1.05.59-.42.14-.92.2-1.48.2h-1.21zm0-1.26h1.21c.3 0 .55-.04.77-.12.22-.07.4-.17.55-.31.14-.14.25-.3.32-.5a1.93 1.93 0 0 0 0-1.3 1.25 1.25 0 0 0-.32-.48 1.44 1.44 0 0 0-.55-.3c-.22-.07-.47-.1-.77-.1h-1.21v3.1zm11.94-4.37v1.33h-2.6V25h-1.62v-7.35h-2.62v-1.33h6.84zm-.49 7.86a.92.92 0 0 1 .26-.64.95.95 0 0 1 .65-.26.89.89 0 0 1 .65.26.9.9 0 0 1 .19 1 .87.87 0 0 1-.48.47.94.94 0 0 1-1-.19.92.92 0 0 1-.26-.64z" opacity=".66"/><rect width="1" height="4" x="26"/></g><g transform="translate(744)"><path fill-rule="nonzero" d="M14.74 21.4a4.88 4.88 0 0 1 .36.82 13.53 13.53 0 0 1 .37-.83l2.57-4.8a.36.36 0 0 1 .1-.15.3.3 0 0 1 .11-.08.5.5 0 0 1 .14-.03h1.41V25h-1.43v-5.6a7.12 7.12 0 0 1 .04-.72l-2.62 4.92a.7.7 0 0 1-.24.26.6.6 0 0 1-.33.09h-.23a.6.6 0 0 1-.33-.1.7.7 0 0 1-.23-.25l-2.66-4.94a5.32 5.32 0 0 1 .04.74V25h-1.42v-8.68h1.21l.2.01a.3.3 0 0 1 .13.03c.04.02.08.04.12.08a.6.6 0 0 1 .1.14l2.6 4.82zM29.17 25h-1.25a.55.55 0 0 1-.54-.37l-.64-1.77h-3.6l-.64 1.77a.57.57 0 0 1-.54.37h-1.25l3.4-8.68h1.66l3.4 8.68zm-5.61-3.28h2.76l-1.05-2.88a13.18 13.18 0 0 1-.33-1.02 20 20 0 0 1-.33 1.03l-1.05 2.87zm8.18-.11V25h-1.62v-8.68h2.65c.59 0 1.1.06 1.52.19.42.12.77.29 1.04.51.27.22.46.48.59.79.13.3.19.64.19 1.01a2.62 2.62 0 0 1-.5 1.54 3.04 3.04 0 0 1-1.41.94c.2.11.37.28.52.5L36.9 25h-1.46a.7.7 0 0 1-.35-.08.73.73 0 0 1-.25-.24L33 21.9a.64.64 0 0 0-.22-.22.79.79 0 0 0-.37-.07h-.69zm0-1.16h1c.3 0 .57-.04.8-.11.22-.08.41-.18.56-.32.14-.13.25-.29.32-.47.08-.19.11-.39.11-.61 0-.44-.14-.78-.43-1.01-.3-.24-.74-.36-1.33-.36h-1.04v2.88zm10.84-2.55a.45.45 0 0 1-.16.19.38.38 0 0 1-.2.05.53.53 0 0 1-.27-.1l-.36-.2a2.9 2.9 0 0 0-.47-.2 2 2 0 0 0-.65-.1c-.22 0-.42.03-.58.08a1.2 1.2 0 0 0-.42.23.9.9 0 0 0-.26.34c-.06.14-.08.28-.08.44 0 .2.05.38.17.51.11.14.26.26.45.35.19.1.4.18.64.26l.74.24c.25.09.5.19.73.3.24.12.46.26.65.44a1.96 1.96 0 0 1 .62 1.55 3 3 0 0 1-.2 1.1 2.54 2.54 0 0 1-1.53 1.5 4.12 4.12 0 0 1-4.13-.92l.47-.78a.6.6 0 0 1 .15-.14.39.39 0 0 1 .21-.06c.1 0 .2.04.32.13l.42.27a2.35 2.35 0 0 0 1.32.4c.47 0 .82-.11 1.07-.33.26-.22.38-.53.38-.94a.87.87 0 0 0-.17-.56 1.38 1.38 0 0 0-.45-.36c-.2-.1-.4-.18-.65-.25l-.73-.22a6.52 6.52 0 0 1-.73-.29 2.37 2.37 0 0 1-.64-.44 2 2 0 0 1-.45-.67 2.57 2.57 0 0 1 .57-2.72c.24-.24.53-.42.89-.56a4.05 4.05 0 0 1 2.62.03c.43.16.8.38 1.1.67l-.4.76z" opacity=".66"/><rect width="1" height="4" x="26"/></g><g transform="translate(93)"><path fill-rule="nonzero" d="M18.16 25h-1.25a.55.55 0 0 1-.54-.37l-.65-1.77h-3.59l-.65 1.77a.57.57 0 0 1-.53.37H9.69l3.41-8.68h1.65L18.16 25zm-5.62-3.28h2.77l-1.06-2.88a13.18 13.18 0 0 1-.33-1.02 20 20 0 0 1-.32 1.03l-1.06 2.87zm14.53-1.06c0 .64-.1 1.23-.32 1.77a4.05 4.05 0 0 1-2.28 2.33c-.54.23-1.14.34-1.8.34a4.7 4.7 0 0 1-1.79-.34 4.07 4.07 0 0 1-2.29-2.33 4.8 4.8 0 0 1-.32-1.77c0-.63.11-1.22.32-1.77a4.16 4.16 0 0 1 2.3-2.33 4.7 4.7 0 0 1 1.79-.33c.65 0 1.25.11 1.8.33a4.1 4.1 0 0 1 2.27 2.34c.21.54.32 1.13.32 1.76zm-1.66 0c0-.47-.06-.9-.18-1.28-.13-.38-.31-.7-.55-.96a2.34 2.34 0 0 0-.86-.6 2.96 2.96 0 0 0-1.14-.22c-.43 0-.8.07-1.15.21-.34.14-.63.34-.87.6-.23.27-.42.6-.54.97-.13.38-.2.8-.2 1.28s.07.9.2 1.28a2.38 2.38 0 0 0 1.42 1.56c.33.15.71.22 1.14.22.42 0 .8-.07 1.14-.21.34-.14.63-.34.86-.6.24-.27.42-.59.55-.97.12-.38.18-.8.18-1.28zm6.42 3.04a2 2 0 0 0 .84-.16 1.74 1.74 0 0 0 1.02-1.12c.09-.27.13-.57.13-.9v-5.2h1.61v5.2a4 4 0 0 1-.24 1.43 3.23 3.23 0 0 1-1.86 1.88 4 4 0 0 1-1.5.27 4 4 0 0 1-1.5-.27 3.24 3.24 0 0 1-1.84-1.88 4 4 0 0 1-.25-1.43v-5.2h1.61v5.2c0 .33.05.63.14.9.09.26.22.5.39.68.16.2.37.34.62.44.24.1.52.16.83.16zm2.2-8H32.9c-.06 0-.12 0-.2-.02a.47.47 0 0 1-.17-.07l-.6-.4a.22.22 0 0 1-.05-.03.89.89 0 0 0-.05-.04l-.03.03a.63.63 0 0 1-.06.04l-.6.4a.47.47 0 0 1-.18.07.92.92 0 0 1-.2.03h-1.12l1.46-1.32h1.47l1.45 1.32zm9.16.62v1.33h-2.6V25h-1.62v-7.35h-2.62v-1.33h6.84z" opacity=".66"/><rect width="1" height="4" x="26"/></g><g transform="translate(930)"><path fill-rule="nonzero" d="M20 21.4a4.88 4.88 0 0 1 .37.82 13.53 13.53 0 0 1 .36-.83l2.57-4.8a.48.48 0 0 1 .1-.15.3.3 0 0 1 .12-.08.5.5 0 0 1 .14-.03h1.4V25h-1.42v-5.6a7.12 7.12 0 0 1 .03-.72l-2.62 4.92a.7.7 0 0 1-.23.26.6.6 0 0 1-.34.09h-.22a.6.6 0 0 1-.34-.1.7.7 0 0 1-.23-.25l-2.66-4.94a5.32 5.32 0 0 1 .04.74V25h-1.42v-8.68h1.22l.19.01c.05 0 .1.01.14.03.04.02.08.04.11.08a.6.6 0 0 1 .1.14l2.6 4.82zM34.45 25H33.2a.55.55 0 0 1-.54-.37L32 22.86h-3.6l-.64 1.77a.57.57 0 0 1-.53.37h-1.26l3.41-8.68h1.65l3.4 8.68zm-5.62-3.28h2.77l-1.06-2.88a13.18 13.18 0 0 1-.33-1.02 20 20 0 0 1-.32 1.03l-1.06 2.87zM37.15 25h-1.62v-8.68h1.62V25z" opacity=".66"/><rect width="1" height="4" x="26"/></g><g transform="translate(279)"><path fill-rule="nonzero" d="M22.5 20.66c0 .64-.1 1.23-.32 1.77a4.05 4.05 0 0 1-2.28 2.33c-.54.23-1.14.34-1.8.34a4.7 4.7 0 0 1-1.8-.34 4.07 4.07 0 0 1-2.28-2.33 4.8 4.8 0 0 1-.32-1.77c0-.63.1-1.22.32-1.77a4.16 4.16 0 0 1 2.29-2.33 4.7 4.7 0 0 1 1.8-.33c.65 0 1.25.11 1.79.33a4.1 4.1 0 0 1 2.28 2.34c.21.54.32 1.13.32 1.76zm-1.66 0c0-.47-.06-.9-.19-1.28a2.5 2.5 0 0 0-.54-.96 2.34 2.34 0 0 0-.86-.6 2.96 2.96 0 0 0-1.14-.22c-.43 0-.81.07-1.15.21a2.42 2.42 0 0 0-1.42 1.57 4.2 4.2 0 0 0 .01 2.56 2.38 2.38 0 0 0 1.42 1.56c.33.15.71.22 1.14.22.42 0 .8-.07 1.14-.21a2.38 2.38 0 0 0 1.4-1.57c.13-.38.2-.8.2-1.28zm8.9 2.3a.3.3 0 0 1 .22.1l.64.69a3.5 3.5 0 0 1-1.3 1c-.52.23-1.13.35-1.85.35-.65 0-1.22-.11-1.74-.33a3.83 3.83 0 0 1-2.15-2.33 5.27 5.27 0 0 1 .03-3.57 4.1 4.1 0 0 1 2.32-2.32 4.84 4.84 0 0 1 3.5-.01c.48.2.9.48 1.24.82l-.54.75a.49.49 0 0 1-.13.12.35.35 0 0 1-.2.06.47.47 0 0 1-.29-.11 3.5 3.5 0 0 0-.92-.47c-.23-.07-.52-.1-.86-.1-.41 0-.79.06-1.13.2a2.5 2.5 0 0 0-.88.61 2.8 2.8 0 0 0-.58.97c-.14.38-.2.8-.2 1.27 0 .49.06.92.2 1.3s.33.7.56.96a2.5 2.5 0 0 0 1.87.8c.22 0 .42 0 .6-.03a2.53 2.53 0 0 0 .92-.31l.4-.3a.57.57 0 0 1 .12-.1c.04-.02.1-.03.14-.03zm8.19-6.64v1.33h-2.61V25h-1.61v-7.35h-2.63v-1.33h6.85zm-.5 7.86a.92.92 0 0 1 .27-.64.95.95 0 0 1 .65-.26.89.89 0 0 1 .64.26.9.9 0 0 1 .2 1 .87.87 0 0 1-.48.47.94.94 0 0 1-1-.19.92.92 0 0 1-.26-.64z" opacity=".66"/><rect width="1" height="4" x="26"/></g><g transform="translate(1023)"><path fill-rule="nonzero" d="M17.46 21.92c0 .48-.06.92-.18 1.32-.12.39-.3.72-.54 1a2.3 2.3 0 0 1-.89.63c-.36.15-.77.23-1.24.23a5.12 5.12 0 0 1-1.3-.17l.1-.96c0-.08.03-.15.1-.2.05-.06.13-.09.25-.09.06 0 .15.01.26.04.11.03.25.04.42.04.23 0 .43-.03.6-.1.18-.06.33-.17.45-.31.12-.14.2-.33.26-.56.06-.23.1-.51.1-.84v-5.63h1.6v5.6zm5.24 1.78c.31 0 .6-.05.84-.16a1.74 1.74 0 0 0 1.01-1.12c.1-.27.14-.57.14-.9v-5.2h1.61v5.2a4 4 0 0 1-.25 1.43 3.23 3.23 0 0 1-1.85 1.88 4 4 0 0 1-1.5.27 4 4 0 0 1-1.5-.27 3.24 3.24 0 0 1-1.84-1.88 4 4 0 0 1-.25-1.43v-5.2h1.61v5.2c0 .33.05.63.14.9.09.26.22.5.38.68.17.2.38.34.63.44.24.1.52.16.83.16zm7.06 1.3h-1.62v-8.68h1.62V25zm2.8-8.68l.18.01c.05 0 .1.02.13.04l.11.08.12.13 4.55 5.8a5.97 5.97 0 0 1-.04-.78v-5.28h1.42V25h-.83a.74.74 0 0 1-.32-.06.7.7 0 0 1-.24-.22l-4.54-5.77a8.32 8.32 0 0 1 .04.72V25H31.7v-8.68h.85z" opacity=".66"/><rect width="1" height="4" x="26"/></g><g transform="translate(372)"><path fill-rule="nonzero" d="M14.04 16.32l.18.01c.04 0 .09.02.12.04.04.02.08.04.12.08l.11.13 4.56 5.8a5.97 5.97 0 0 1-.04-.78v-5.28h1.42V25h-.84a.74.74 0 0 1-.31-.06.7.7 0 0 1-.25-.22l-4.54-5.77a8.32 8.32 0 0 1 .04.72V25H13.2v-8.68h.85zm16.54 4.34c0 .64-.1 1.23-.31 1.77a4.05 4.05 0 0 1-2.28 2.33c-.55.23-1.14.34-1.8.34a4.7 4.7 0 0 1-1.8-.34 4.07 4.07 0 0 1-2.29-2.33 4.8 4.8 0 0 1-.31-1.77c0-.63.1-1.22.32-1.77a4.16 4.16 0 0 1 2.28-2.33 4.7 4.7 0 0 1 1.8-.33c.66 0 1.25.11 1.8.33a4.1 4.1 0 0 1 2.28 2.34c.2.54.31 1.13.31 1.76zm-1.65 0c0-.47-.07-.9-.2-1.28a2.5 2.5 0 0 0-.54-.96 2.34 2.34 0 0 0-.86-.6 2.96 2.96 0 0 0-1.14-.22c-.42 0-.8.07-1.14.21-.35.14-.63.34-.87.6-.24.27-.42.6-.55.97-.13.38-.2.8-.2 1.28s.07.9.2 1.28.31.7.55.96c.24.27.52.47.87.6.34.15.72.22 1.14.22.43 0 .8-.07 1.14-.21.34-.14.63-.34.87-.6.23-.27.41-.59.54-.97.12-.38.19-.8.19-1.28zm1.74-4.34h1.3a.54.54 0 0 1 .54.37l2.04 5.3a7.16 7.16 0 0 1 .37 1.21c.1-.46.2-.87.34-1.22l2.04-5.29c.03-.1.1-.18.19-.25a.5.5 0 0 1 .34-.12h1.3L35.63 25h-1.46l-3.5-8.68zm7.75 7.86a.92.92 0 0 1 .27-.64.95.95 0 0 1 .65-.26.89.89 0 0 1 .64.26.9.9 0 0 1 .2 1 .87.87 0 0 1-.48.47.94.94 0 0 1-1-.19.92.92 0 0 1-.26-.64z" opacity=".66"/><rect width="1" height="4" x="26"/></g></g><g transform="translate(372 1)"><g transform="translate(651)"><path fill-rule="nonzero" d="M16.5 16.32v1.29h-3.84v2.57h3.24v1.29h-3.24V25h-1.63v-8.68h5.47zm6.74 0v1.29H19.4V20h3.03v1.25H19.4v2.45h3.84V25h-5.47v-8.68h5.47zm-.34-2.07l-1.78 1.3a1.02 1.02 0 0 1-.23.13.58.58 0 0 1-.12.02h-1.31l1.17-1.2.14-.13a.55.55 0 0 1 .28-.11h1.85zm.89 2.07h1.3a.54.54 0 0 1 .54.37l2.04 5.3a7.16 7.16 0 0 1 .37 1.21c.1-.46.2-.87.34-1.22l2.04-5.29c.03-.1.1-.18.19-.25a.5.5 0 0 1 .34-.12h1.3L28.75 25h-1.46l-3.5-8.68zm11.04 5.29V25H33.2v-8.68h2.65c.6 0 1.1.06 1.52.19.42.12.77.29 1.04.51a2 2 0 0 1 .6.79c.12.3.18.64.18 1.01a2.62 2.62 0 0 1-.5 1.54 2.9 2.9 0 0 1-1.41.94c.2.11.38.28.53.5l2.17 3.2h-1.45a.7.7 0 0 1-.36-.08.73.73 0 0 1-.25-.24L36.1 21.9a.64.64 0 0 0-.23-.22.79.79 0 0 0-.36-.07h-.7zm0-1.16h1c.31 0 .57-.04.8-.11.23-.08.41-.18.56-.32.15-.13.25-.29.33-.47.07-.19.1-.39.1-.61 0-.44-.14-.78-.43-1.01-.3-.24-.73-.36-1.33-.36h-1.03v2.88zm5.75 3.73a.92.92 0 0 1 .26-.64.95.95 0 0 1 .65-.26.89.89 0 0 1 .65.26.9.9 0 0 1 .19 1 .87.87 0 0 1-.48.47.94.94 0 0 1-1-.19.92.92 0 0 1-.26-.64z" opacity=".66"/><rect width="1" height="4" x="26"/></g><path fill-rule="nonzero" d="M17.37 21.92c0 .48-.06.92-.18 1.32-.12.39-.3.72-.54 1a2.3 2.3 0 0 1-.89.63c-.36.15-.77.23-1.24.23a5.12 5.12 0 0 1-1.3-.17l.1-.96c0-.08.03-.15.1-.2.05-.06.13-.09.25-.09.06 0 .15.01.26.04.11.03.25.04.42.04.23 0 .43-.03.6-.1.18-.06.33-.17.45-.31.12-.14.2-.33.26-.56.06-.23.1-.51.1-.84v-5.63h1.6v5.6zm5.24 1.78c.31 0 .6-.05.84-.16a1.74 1.74 0 0 0 1.01-1.12c.1-.27.14-.57.14-.9v-5.2h1.61v5.2a4 4 0 0 1-.25 1.43 3.23 3.23 0 0 1-1.85 1.88 4 4 0 0 1-1.5.27 4 4 0 0 1-1.5-.27 3.24 3.24 0 0 1-1.84-1.88 4 4 0 0 1-.25-1.43v-5.2h1.61v5.2c0 .33.05.63.14.9.09.26.22.5.38.68.17.2.38.34.63.44.24.1.52.16.83.16zm7.06 1.3h-1.62v-8.68h1.62V25zm3.57-1.33h3.47V25h-5.09v-8.68h1.62v7.35zm4.5.51a.92.92 0 0 1 .26-.64.95.95 0 0 1 .65-.26.89.89 0 0 1 .64.26.9.9 0 0 1 .2 1 .87.87 0 0 1-.48.47.94.94 0 0 1-1-.19.92.92 0 0 1-.26-.64z" opacity=".66"/><rect width="1" height="4" x="26"/><g transform="translate(558)"><path fill-rule="nonzero" d="M14.58 21.92c0 .48-.06.92-.18 1.32-.12.39-.3.72-.53 1-.24.27-.54.49-.9.63-.35.15-.76.23-1.24.23a5.12 5.12 0 0 1-1.29-.17l.09-.96c0-.08.04-.15.1-.2.06-.06.14-.09.25-.09.07 0 .16.01.27.04.1.03.25.04.42.04.22 0 .43-.03.6-.1a.98.98 0 0 0 .44-.31c.12-.14.21-.33.27-.56.06-.23.09-.51.09-.84v-5.63h1.61v5.6zM23.65 25H22.4a.55.55 0 0 1-.54-.37l-.65-1.77h-3.59l-.65 1.77a.57.57 0 0 1-.53.37h-1.26l3.41-8.68h1.65L23.65 25zm-5.62-3.28h2.77l-1.06-2.88a13.18 13.18 0 0 1-.33-1.02 20 20 0 0 1-.32 1.03l-1.06 2.87zm7.36-5.4l.18.01c.05 0 .1.02.13.04l.11.08.12.13 4.55 5.8a5.97 5.97 0 0 1-.04-.78v-5.28h1.42V25h-.83a.74.74 0 0 1-.32-.06.7.7 0 0 1-.24-.22l-4.54-5.77a8.32 8.32 0 0 1 .04.72V25h-1.43v-8.68h.85zm7.37 0h1.3a.54.54 0 0 1 .55.37l2.04 5.3a7.16 7.16 0 0 1 .37 1.21c.09-.46.2-.87.34-1.22l2.03-5.29c.04-.1.1-.18.2-.25.09-.08.2-.12.34-.12h1.3L37.73 25h-1.46l-3.5-8.68zm7.76 7.86a.92.92 0 0 1 .26-.64.95.95 0 0 1 .65-.26.89.89 0 0 1 .65.26.9.9 0 0 1 .19 1 .87.87 0 0 1-.48.47.94.94 0 0 1-1-.19.92.92 0 0 1-.26-.64z" opacity=".66"/><rect width="1" height="4" x="26"/></g><g transform="translate(465)"><path fill-rule="nonzero" d="M21.79 20.66c0 .64-.1 1.22-.32 1.75a4.02 4.02 0 0 1-2.28 2.27c-.54.21-1.14.32-1.8.32h-3.3v-8.68h3.3c.66 0 1.26.11 1.8.32a4.06 4.06 0 0 1 2.28 2.27c.21.53.32 1.12.32 1.75zm-1.65 0c0-.47-.07-.9-.2-1.28a2.5 2.5 0 0 0-.54-.96 2.35 2.35 0 0 0-.86-.6 2.96 2.96 0 0 0-1.14-.21h-1.7v6.1h1.7c.42 0 .8-.06 1.14-.2.34-.14.62-.34.86-.6.24-.27.42-.59.55-.97.12-.38.19-.8.19-1.28zm8.38-4.34v1.29h-3.84V20h3.03v1.25h-3.03v2.45h3.84V25h-5.47v-8.68h5.47zm-.34-2.07l-1.77 1.3a1.02 1.02 0 0 1-.24.13.58.58 0 0 1-.12.02h-1.31l1.18-1.2.13-.13a.55.55 0 0 1 .28-.11h1.85zm7.7 8.7a.3.3 0 0 1 .23.1l.64.7a3.5 3.5 0 0 1-1.3 1c-.51.23-1.13.35-1.85.35-.64 0-1.22-.11-1.74-.33a3.83 3.83 0 0 1-2.15-2.33 5.27 5.27 0 0 1 .03-3.57 4.1 4.1 0 0 1 2.32-2.32 4.84 4.84 0 0 1 3.5-.01c.48.2.9.48 1.24.82l-.54.75a.49.49 0 0 1-.12.12.35.35 0 0 1-.21.06.47.47 0 0 1-.28-.11 3.5 3.5 0 0 0-.93-.47c-.23-.07-.51-.1-.86-.1-.4 0-.78.06-1.13.2a2.5 2.5 0 0 0-.88.61 2.8 2.8 0 0 0-.57.97 3.99 3.99 0 0 0-.01 2.57c.14.38.33.7.57.96a2.36 2.36 0 0 0 1.86.8c.22 0 .42 0 .6-.03a2.53 2.53 0 0 0 .92-.31l.4-.3a.57.57 0 0 1 .12-.1l.15-.03zm1.65 1.23a.92.92 0 0 1 .26-.64.95.95 0 0 1 .65-.26.89.89 0 0 1 .65.26.9.9 0 0 1 .19 1 .87.87 0 0 1-.48.47.94.94 0 0 1-1-.19.92.92 0 0 1-.26-.64z" opacity=".66"/><rect width="1" height="4" x="26"/></g><g transform="translate(837)"><path fill-rule="nonzero" d="M21.7 25h-1.24a.55.55 0 0 1-.54-.37l-.65-1.77h-3.6l-.64 1.77a.57.57 0 0 1-.53.37h-1.26l3.41-8.68h1.65L21.7 25zm-5.6-3.28h2.76l-1.06-2.88a13.18 13.18 0 0 1-.33-1.02 20 20 0 0 1-.32 1.03l-1.06 2.87zm4.64-5.4h1.3a.54.54 0 0 1 .54.37l2.04 5.3a7.16 7.16 0 0 1 .37 1.21c.1-.46.2-.87.34-1.22l2.04-5.29c.03-.1.1-.18.19-.25a.5.5 0 0 1 .34-.12h1.3L25.7 25h-1.46l-3.5-8.68zm11.04 5.29V25h-1.62v-8.68h2.65c.6 0 1.1.06 1.52.19.42.12.77.29 1.04.51a2 2 0 0 1 .6.79c.12.3.18.64.18 1.01a2.62 2.62 0 0 1-.5 1.54 2.9 2.9 0 0 1-1.41.94c.2.11.38.28.52.5l2.18 3.2h-1.45a.7.7 0 0 1-.36-.08.73.73 0 0 1-.25-.24l-1.83-2.78a.64.64 0 0 0-.22-.22.79.79 0 0 0-.36-.07h-.7zm0-1.16h1c.3 0 .57-.04.8-.11.23-.08.41-.18.56-.32.14-.13.25-.29.33-.47.07-.19.1-.39.1-.61 0-.44-.14-.78-.43-1.01-.3-.24-.73-.36-1.33-.36h-1.03v2.88zm5.75 3.73a.92.92 0 0 1 .26-.64.95.95 0 0 1 .65-.26.89.89 0 0 1 .65.26.9.9 0 0 1 .19 1 .87.87 0 0 1-.48.47.94.94 0 0 1-1-.19.92.92 0 0 1-.26-.64z" opacity=".66"/><rect width="1" height="4" x="26"/></g><g transform="translate(186)"><path fill-rule="nonzero" d="M17.24 17.9a.45.45 0 0 1-.15.19.38.38 0 0 1-.2.05.53.53 0 0 1-.28-.1l-.35-.2a2.9 2.9 0 0 0-.48-.2 2 2 0 0 0-.64-.1c-.23 0-.42.03-.59.08-.17.06-.3.13-.42.23a.9.9 0 0 0-.25.34c-.06.14-.09.28-.09.44 0 .2.06.38.17.51.12.14.27.26.46.35.18.1.4.18.64.26l.73.24c.25.09.5.19.74.3.24.12.45.26.64.44a1.96 1.96 0 0 1 .62 1.55 3 3 0 0 1-.2 1.1 2.54 2.54 0 0 1-1.53 1.5 4.12 4.12 0 0 1-4.13-.92l.47-.78a.6.6 0 0 1 .16-.14.39.39 0 0 1 .2-.06c.1 0 .21.04.33.13l.41.27a2.43 2.43 0 0 0 1.33.4c.46 0 .82-.11 1.07-.33.25-.22.38-.53.38-.94a.87.87 0 0 0-.18-.56 1.38 1.38 0 0 0-.45-.36c-.19-.1-.4-.18-.64-.25l-.73-.22c-.25-.08-.5-.18-.73-.29a2.37 2.37 0 0 1-.65-.44 2 2 0 0 1-.45-.67 2.57 2.57 0 0 1 .57-2.72c.24-.24.54-.42.9-.56a4.05 4.05 0 0 1 2.62.03c.43.16.8.38 1.1.67l-.4.76zm7.26-1.58v1.29h-3.84V20h3.03v1.25h-3.03v2.45h3.84V25h-5.47v-8.68h5.47zm3.07 5.63V25h-1.62v-8.68h2.83c.58 0 1.08.07 1.5.2.43.14.78.33 1.06.58.27.24.48.53.6.87.14.34.2.72.2 1.12 0 .42-.06.8-.2 1.16a2.4 2.4 0 0 1-.63.9c-.28.25-.63.45-1.05.59-.42.14-.92.2-1.48.2h-1.21zm0-1.26h1.21c.3 0 .55-.04.77-.12.22-.07.4-.17.55-.31.14-.14.25-.3.32-.5a1.93 1.93 0 0 0 0-1.3 1.25 1.25 0 0 0-.32-.48 1.44 1.44 0 0 0-.55-.3c-.22-.07-.47-.1-.77-.1h-1.21v3.1zm11.94-4.37v1.33h-2.6V25h-1.62v-7.35h-2.62v-1.33h6.84zm-.49 7.86a.92.92 0 0 1 .26-.64.95.95 0 0 1 .65-.26.89.89 0 0 1 .65.26.9.9 0 0 1 .19 1 .87.87 0 0 1-.48.47.94.94 0 0 1-1-.19.92.92 0 0 1-.26-.64z" opacity=".66"/><rect width="1" height="4" x="26"/></g><g transform="translate(744)"><path fill-rule="nonzero" d="M14.74 21.4a4.88 4.88 0 0 1 .36.82 13.53 13.53 0 0 1 .37-.83l2.57-4.8a.36.36 0 0 1 .1-.15.3.3 0 0 1 .11-.08.5.5 0 0 1 .14-.03h1.41V25h-1.43v-5.6a7.12 7.12 0 0 1 .04-.72l-2.62 4.92a.7.7 0 0 1-.24.26.6.6 0 0 1-.33.09h-.23a.6.6 0 0 1-.33-.1.7.7 0 0 1-.23-.25l-2.66-4.94a5.32 5.32 0 0 1 .04.74V25h-1.42v-8.68h1.21l.2.01a.3.3 0 0 1 .13.03c.04.02.08.04.12.08a.6.6 0 0 1 .1.14l2.6 4.82zM29.17 25h-1.25a.55.55 0 0 1-.54-.37l-.64-1.77h-3.6l-.64 1.77a.57.57 0 0 1-.54.37h-1.25l3.4-8.68h1.66l3.4 8.68zm-5.61-3.28h2.76l-1.05-2.88a13.18 13.18 0 0 1-.33-1.02 20 20 0 0 1-.33 1.03l-1.05 2.87zm8.18-.11V25h-1.62v-8.68h2.65c.59 0 1.1.06 1.52.19.42.12.77.29 1.04.51.27.22.46.48.59.79.13.3.19.64.19 1.01a2.62 2.62 0 0 1-.5 1.54 3.04 3.04 0 0 1-1.41.94c.2.11.37.28.52.5L36.9 25h-1.46a.7.7 0 0 1-.35-.08.73.73 0 0 1-.25-.24L33 21.9a.64.64 0 0 0-.22-.22.79.79 0 0 0-.37-.07h-.69zm0-1.16h1c.3 0 .57-.04.8-.11.22-.08.41-.18.56-.32.14-.13.25-.29.32-.47.08-.19.11-.39.11-.61 0-.44-.14-.78-.43-1.01-.3-.24-.74-.36-1.33-.36h-1.04v2.88zm10.84-2.55a.45.45 0 0 1-.16.19.38.38 0 0 1-.2.05.53.53 0 0 1-.27-.1l-.36-.2a2.9 2.9 0 0 0-.47-.2 2 2 0 0 0-.65-.1c-.22 0-.42.03-.58.08a1.2 1.2 0 0 0-.42.23.9.9 0 0 0-.26.34c-.06.14-.08.28-.08.44 0 .2.05.38.17.51.11.14.26.26.45.35.19.1.4.18.64.26l.74.24c.25.09.5.19.73.3.24.12.46.26.65.44a1.96 1.96 0 0 1 .62 1.55 3 3 0 0 1-.2 1.1 2.54 2.54 0 0 1-1.53 1.5 4.12 4.12 0 0 1-4.13-.92l.47-.78a.6.6 0 0 1 .15-.14.39.39 0 0 1 .21-.06c.1 0 .2.04.32.13l.42.27a2.35 2.35 0 0 0 1.32.4c.47 0 .82-.11 1.07-.33.26-.22.38-.53.38-.94a.87.87 0 0 0-.17-.56 1.38 1.38 0 0 0-.45-.36c-.2-.1-.4-.18-.65-.25l-.73-.22a6.52 6.52 0 0 1-.73-.29 2.37 2.37 0 0 1-.64-.44 2 2 0 0 1-.45-.67 2.57 2.57 0 0 1 .57-2.72c.24-.24.53-.42.89-.56a4.05 4.05 0 0 1 2.62.03c.43.16.8.38 1.1.67l-.4.76z" opacity=".66"/><rect width="1" height="4" x="26"/></g><g transform="translate(93)"><path fill-rule="nonzero" d="M18.16 25h-1.25a.55.55 0 0 1-.54-.37l-.65-1.77h-3.59l-.65 1.77a.57.57 0 0 1-.53.37H9.69l3.41-8.68h1.65L18.16 25zm-5.62-3.28h2.77l-1.06-2.88a13.18 13.18 0 0 1-.33-1.02 20 20 0 0 1-.32 1.03l-1.06 2.87zm14.53-1.06c0 .64-.1 1.23-.32 1.77a4.05 4.05 0 0 1-2.28 2.33c-.54.23-1.14.34-1.8.34a4.7 4.7 0 0 1-1.79-.34 4.07 4.07 0 0 1-2.29-2.33 4.8 4.8 0 0 1-.32-1.77c0-.63.11-1.22.32-1.77a4.16 4.16 0 0 1 2.3-2.33 4.7 4.7 0 0 1 1.79-.33c.65 0 1.25.11 1.8.33a4.1 4.1 0 0 1 2.27 2.34c.21.54.32 1.13.32 1.76zm-1.66 0c0-.47-.06-.9-.18-1.28-.13-.38-.31-.7-.55-.96a2.34 2.34 0 0 0-.86-.6 2.96 2.96 0 0 0-1.14-.22c-.43 0-.8.07-1.15.21-.34.14-.63.34-.87.6-.23.27-.42.6-.54.97-.13.38-.2.8-.2 1.28s.07.9.2 1.28a2.38 2.38 0 0 0 1.42 1.56c.33.15.71.22 1.14.22.42 0 .8-.07 1.14-.21.34-.14.63-.34.86-.6.24-.27.42-.59.55-.97.12-.38.18-.8.18-1.28zm6.42 3.04a2 2 0 0 0 .84-.16 1.74 1.74 0 0 0 1.02-1.12c.09-.27.13-.57.13-.9v-5.2h1.61v5.2a4 4 0 0 1-.24 1.43 3.23 3.23 0 0 1-1.86 1.88 4 4 0 0 1-1.5.27 4 4 0 0 1-1.5-.27 3.24 3.24 0 0 1-1.84-1.88 4 4 0 0 1-.25-1.43v-5.2h1.61v5.2c0 .33.05.63.14.9.09.26.22.5.39.68.16.2.37.34.62.44.24.1.52.16.83.16zm2.2-8H32.9c-.06 0-.12 0-.2-.02a.47.47 0 0 1-.17-.07l-.6-.4a.22.22 0 0 1-.05-.03.89.89 0 0 0-.05-.04l-.03.03a.63.63 0 0 1-.06.04l-.6.4a.47.47 0 0 1-.18.07.92.92 0 0 1-.2.03h-1.12l1.46-1.32h1.47l1.45 1.32zm9.16.62v1.33h-2.6V25h-1.62v-7.35h-2.62v-1.33h6.84z" opacity=".66"/><rect width="1" height="4" x="26"/></g><g transform="translate(930)"><path fill-rule="nonzero" d="M20 21.4a4.88 4.88 0 0 1 .37.82 13.53 13.53 0 0 1 .36-.83l2.57-4.8a.48.48 0 0 1 .1-.15.3.3 0 0 1 .12-.08.5.5 0 0 1 .14-.03h1.4V25h-1.42v-5.6a7.12 7.12 0 0 1 .03-.72l-2.62 4.92a.7.7 0 0 1-.23.26.6.6 0 0 1-.34.09h-.22a.6.6 0 0 1-.34-.1.7.7 0 0 1-.23-.25l-2.66-4.94a5.32 5.32 0 0 1 .04.74V25h-1.42v-8.68h1.22l.19.01c.05 0 .1.01.14.03.04.02.08.04.11.08a.6.6 0 0 1 .1.14l2.6 4.82zM34.45 25H33.2a.55.55 0 0 1-.54-.37L32 22.86h-3.6l-.64 1.77a.57.57 0 0 1-.53.37h-1.26l3.41-8.68h1.65l3.4 8.68zm-5.62-3.28h2.77l-1.06-2.88a13.18 13.18 0 0 1-.33-1.02 20 20 0 0 1-.32 1.03l-1.06 2.87zM37.15 25h-1.62v-8.68h1.62V25z" opacity=".66"/><rect width="1" height="4" x="26"/></g><g transform="translate(279)"><path fill-rule="nonzero" d="M22.5 20.66c0 .64-.1 1.23-.32 1.77a4.05 4.05 0 0 1-2.28 2.33c-.54.23-1.14.34-1.8.34a4.7 4.7 0 0 1-1.8-.34 4.07 4.07 0 0 1-2.28-2.33 4.8 4.8 0 0 1-.32-1.77c0-.63.1-1.22.32-1.77a4.16 4.16 0 0 1 2.29-2.33 4.7 4.7 0 0 1 1.8-.33c.65 0 1.25.11 1.79.33a4.1 4.1 0 0 1 2.28 2.34c.21.54.32 1.13.32 1.76zm-1.66 0c0-.47-.06-.9-.19-1.28a2.5 2.5 0 0 0-.54-.96 2.34 2.34 0 0 0-.86-.6 2.96 2.96 0 0 0-1.14-.22c-.43 0-.81.07-1.15.21a2.42 2.42 0 0 0-1.42 1.57 4.2 4.2 0 0 0 .01 2.56 2.38 2.38 0 0 0 1.42 1.56c.33.15.71.22 1.14.22.42 0 .8-.07 1.14-.21a2.38 2.38 0 0 0 1.4-1.57c.13-.38.2-.8.2-1.28zm8.9 2.3a.3.3 0 0 1 .22.1l.64.69a3.5 3.5 0 0 1-1.3 1c-.52.23-1.13.35-1.85.35-.65 0-1.22-.11-1.74-.33a3.83 3.83 0 0 1-2.15-2.33 5.27 5.27 0 0 1 .03-3.57 4.1 4.1 0 0 1 2.32-2.32 4.84 4.84 0 0 1 3.5-.01c.48.2.9.48 1.24.82l-.54.75a.49.49 0 0 1-.13.12.35.35 0 0 1-.2.06.47.47 0 0 1-.29-.11 3.5 3.5 0 0 0-.92-.47c-.23-.07-.52-.1-.86-.1-.41 0-.79.06-1.13.2a2.5 2.5 0 0 0-.88.61 2.8 2.8 0 0 0-.58.97c-.14.38-.2.8-.2 1.27 0 .49.06.92.2 1.3s.33.7.56.96a2.5 2.5 0 0 0 1.87.8c.22 0 .42 0 .6-.03a2.53 2.53 0 0 0 .92-.31l.4-.3a.57.57 0 0 1 .12-.1c.04-.02.1-.03.14-.03zm8.19-6.64v1.33h-2.61V25h-1.61v-7.35h-2.63v-1.33h6.85zm-.5 7.86a.92.92 0 0 1 .27-.64.95.95 0 0 1 .65-.26.89.89 0 0 1 .64.26.9.9 0 0 1 .2 1 .87.87 0 0 1-.48.47.94.94 0 0 1-1-.19.92.92 0 0 1-.26-.64z" opacity=".66"/><rect width="1" height="4" x="26"/></g><g transform="translate(1036)"><path fill-rule="nonzero" d="M4.46 21.92c0 .48-.06.92-.18 1.32-.12.39-.3.72-.54 1a2.3 2.3 0 0 1-.89.63c-.36.15-.77.23-1.24.23a5.12 5.12 0 0 1-1.3-.17l.1-.96c0-.08.03-.15.1-.2.05-.06.13-.09.25-.09.06 0 .15.01.26.04.11.03.25.04.42.04.23 0 .43-.03.6-.1.18-.06.33-.17.45-.31.12-.14.2-.33.26-.56.06-.23.1-.51.1-.84v-5.63h1.6v5.6zM9.7 23.7c.31 0 .6-.05.84-.16a1.74 1.74 0 0 0 1.01-1.12c.1-.27.14-.57.14-.9v-5.2h1.61v5.2a4 4 0 0 1-.25 1.43 3.23 3.23 0 0 1-1.85 1.88 4 4 0 0 1-1.5.27 4 4 0 0 1-1.5-.27 3.24 3.24 0 0 1-1.84-1.88 4 4 0 0 1-.25-1.43v-5.2h1.61v5.2c0 .33.05.63.14.9.09.26.22.5.38.68.17.2.38.34.63.44.24.1.52.16.83.16zm7.06 1.3h-1.62v-8.68h1.62V25zm2.8-8.68l.18.01c.05 0 .1.02.13.04l.11.08.12.13 4.55 5.8a5.97 5.97 0 0 1-.04-.78v-5.28h1.42V25h-.83a.74.74 0 0 1-.32-.06.7.7 0 0 1-.24-.22l-4.54-5.77a8.32 8.32 0 0 1 .04.72V25H18.7v-8.68h.85z" opacity=".66"/><rect width="1" height="4" x="13"/></g><g transform="translate(385)"><path fill-rule="nonzero" d="M1.03 16.32l.19.01c.04 0 .09.02.12.04.04.02.08.04.11.08l.13.13 4.55 5.8a5.97 5.97 0 0 1-.04-.78v-5.28H7.5V25h-.83a.74.74 0 0 1-.32-.06.7.7 0 0 1-.25-.22l-4.54-5.77a8.32 8.32 0 0 1 .04.72V25H.2v-8.68h.84zm16.55 4.34c0 .64-.1 1.23-.31 1.77a4.05 4.05 0 0 1-2.28 2.33c-.55.23-1.14.34-1.8.34a4.7 4.7 0 0 1-1.8-.34 4.07 4.07 0 0 1-2.29-2.33 4.8 4.8 0 0 1-.31-1.77c0-.63.1-1.22.32-1.77a4.16 4.16 0 0 1 2.28-2.33 4.7 4.7 0 0 1 1.8-.33c.66 0 1.25.11 1.8.33a4.1 4.1 0 0 1 2.28 2.34c.2.54.31 1.13.31 1.76zm-1.65 0c0-.47-.07-.9-.2-1.28a2.5 2.5 0 0 0-.54-.96 2.34 2.34 0 0 0-.86-.6 2.96 2.96 0 0 0-1.14-.22c-.42 0-.8.07-1.14.21-.35.14-.63.34-.87.6-.24.27-.42.6-.55.97-.13.38-.2.8-.2 1.28s.07.9.2 1.28.31.7.55.96c.24.27.52.47.87.6.34.15.72.22 1.14.22.43 0 .8-.07 1.14-.21.34-.14.63-.34.87-.6.23-.27.41-.59.54-.97.12-.38.19-.8.19-1.28zm1.74-4.34h1.3a.54.54 0 0 1 .54.37l2.04 5.3a7.16 7.16 0 0 1 .37 1.21c.1-.46.2-.87.34-1.22l2.04-5.29c.03-.1.1-.18.19-.25a.5.5 0 0 1 .34-.12h1.3L22.63 25h-1.46l-3.5-8.68zm7.75 7.86a.92.92 0 0 1 .27-.64.95.95 0 0 1 .65-.26.89.89 0 0 1 .64.26.9.9 0 0 1 .2 1 .87.87 0 0 1-.48.47.94.94 0 0 1-1-.19.92.92 0 0 1-.26-.64z" opacity=".66"/><rect width="1" height="4" x="13"/></g></g><g transform="translate(0 1)"><g transform="translate(93)"><path fill-rule="nonzero" d="M21.7 25h-1.24a.55.55 0 0 1-.54-.37l-.65-1.77h-3.6l-.64 1.77a.57.57 0 0 1-.53.37h-1.26l3.41-8.68h1.65L21.7 25zm-5.6-3.28h2.76l-1.06-2.88a13.18 13.18 0 0 1-.33-1.02 20 20 0 0 1-.32 1.03l-1.06 2.87zm4.64-5.4h1.3a.54.54 0 0 1 .54.37l2.04 5.3a7.16 7.16 0 0 1 .37 1.21c.1-.46.2-.87.34-1.22l2.04-5.29c.03-.1.1-.18.19-.25a.5.5 0 0 1 .34-.12h1.3L25.7 25h-1.46l-3.5-8.68zm11.04 5.29V25h-1.62v-8.68h2.65c.6 0 1.1.06 1.52.19.42.12.77.29 1.04.51a2 2 0 0 1 .6.79c.12.3.18.64.18 1.01a2.62 2.62 0 0 1-.5 1.54 2.9 2.9 0 0 1-1.41.94c.2.11.38.28.52.5l2.18 3.2h-1.45a.7.7 0 0 1-.36-.08.73.73 0 0 1-.25-.24l-1.83-2.78a.64.64 0 0 0-.22-.22.79.79 0 0 0-.36-.07h-.7zm0-1.16h1c.3 0 .57-.04.8-.11.23-.08.41-.18.56-.32.14-.13.25-.29.33-.47.07-.19.1-.39.1-.61 0-.44-.14-.78-.43-1.01-.3-.24-.73-.36-1.33-.36h-1.03v2.88zm5.75 3.73a.92.92 0 0 1 .26-.64.95.95 0 0 1 .65-.26.89.89 0 0 1 .65.26.9.9 0 0 1 .19 1 .87.87 0 0 1-.48.47.94.94 0 0 1-1-.19.92.92 0 0 1-.26-.64z" opacity=".66"/><rect width="1" height="4" x="26"/></g><path fill-rule="nonzero" d="M14.74 21.4a4.88 4.88 0 0 1 .36.82 13.53 13.53 0 0 1 .37-.83l2.57-4.8a.36.36 0 0 1 .1-.15.3.3 0 0 1 .11-.08.5.5 0 0 1 .14-.03h1.41V25h-1.43v-5.6a7.12 7.12 0 0 1 .04-.72l-2.62 4.92a.7.7 0 0 1-.24.26.6.6 0 0 1-.33.09h-.23a.6.6 0 0 1-.33-.1.7.7 0 0 1-.23-.25l-2.66-4.94a5.32 5.32 0 0 1 .04.74V25h-1.42v-8.68h1.21l.2.01a.3.3 0 0 1 .13.03c.04.02.08.04.12.08a.6.6 0 0 1 .1.14l2.6 4.82zM29.17 25h-1.25a.55.55 0 0 1-.54-.37l-.64-1.77h-3.6l-.64 1.77a.57.57 0 0 1-.54.37h-1.25l3.4-8.68h1.66l3.4 8.68zm-5.61-3.28h2.76l-1.05-2.88a13.18 13.18 0 0 1-.33-1.02 20 20 0 0 1-.33 1.03l-1.05 2.87zm8.18-.11V25h-1.62v-8.68h2.65c.59 0 1.1.06 1.52.19.42.12.77.29 1.04.51.27.22.46.48.59.79.13.3.19.64.19 1.01a2.62 2.62 0 0 1-.5 1.54 3.04 3.04 0 0 1-1.41.94c.2.11.37.28.52.5L36.9 25h-1.46a.7.7 0 0 1-.35-.08.73.73 0 0 1-.25-.24L33 21.9a.64.64 0 0 0-.22-.22.79.79 0 0 0-.37-.07h-.69zm0-1.16h1c.3 0 .57-.04.8-.11.22-.08.41-.18.56-.32.14-.13.25-.29.32-.47.08-.19.11-.39.11-.61 0-.44-.14-.78-.43-1.01-.3-.24-.74-.36-1.33-.36h-1.04v2.88zm10.84-2.55a.45.45 0 0 1-.16.19.38.38 0 0 1-.2.05.53.53 0 0 1-.27-.1l-.36-.2a2.9 2.9 0 0 0-.47-.2 2 2 0 0 0-.65-.1c-.22 0-.42.03-.58.08a1.2 1.2 0 0 0-.42.23.9.9 0 0 0-.26.34c-.06.14-.08.28-.08.44 0 .2.05.38.17.51.11.14.26.26.45.35.19.1.4.18.64.26l.74.24c.25.09.5.19.73.3.24.12.46.26.65.44a1.96 1.96 0 0 1 .62 1.55 3 3 0 0 1-.2 1.1 2.54 2.54 0 0 1-1.53 1.5 4.12 4.12 0 0 1-4.13-.92l.47-.78a.6.6 0 0 1 .15-.14.39.39 0 0 1 .21-.06c.1 0 .2.04.32.13l.42.27a2.35 2.35 0 0 0 1.32.4c.47 0 .82-.11 1.07-.33.26-.22.38-.53.38-.94a.87.87 0 0 0-.17-.56 1.38 1.38 0 0 0-.45-.36c-.2-.1-.4-.18-.65-.25l-.73-.22a6.52 6.52 0 0 1-.73-.29 2.37 2.37 0 0 1-.64-.44 2 2 0 0 1-.45-.67 2.57 2.57 0 0 1 .57-2.72c.24-.24.53-.42.89-.56a4.05 4.05 0 0 1 2.62.03c.43.16.8.38 1.1.67l-.4.76z" opacity=".66"/><rect width="1" height="4" x="26"/><g transform="translate(186)"><path fill-rule="nonzero" d="M20 21.4a4.88 4.88 0 0 1 .37.82 13.53 13.53 0 0 1 .36-.83l2.57-4.8a.48.48 0 0 1 .1-.15.3.3 0 0 1 .12-.08.5.5 0 0 1 .14-.03h1.4V25h-1.42v-5.6a7.12 7.12 0 0 1 .03-.72l-2.62 4.92a.7.7 0 0 1-.23.26.6.6 0 0 1-.34.09h-.22a.6.6 0 0 1-.34-.1.7.7 0 0 1-.23-.25l-2.66-4.94a5.32 5.32 0 0 1 .04.74V25h-1.42v-8.68h1.22l.19.01c.05 0 .1.01.14.03.04.02.08.04.11.08a.6.6 0 0 1 .1.14l2.6 4.82zM34.45 25H33.2a.55.55 0 0 1-.54-.37L32 22.86h-3.6l-.64 1.77a.57.57 0 0 1-.53.37h-1.26l3.41-8.68h1.65l3.4 8.68zm-5.62-3.28h2.77l-1.06-2.88a13.18 13.18 0 0 1-.33-1.02 20 20 0 0 1-.32 1.03l-1.06 2.87zM37.15 25h-1.62v-8.68h1.62V25z" opacity=".66"/><rect width="1" height="4" x="26"/></g><g transform="translate(292)"><path fill-rule="nonzero" d="M4.46 21.92c0 .48-.06.92-.18 1.32-.12.39-.3.72-.54 1a2.3 2.3 0 0 1-.89.63c-.36.15-.77.23-1.24.23a5.12 5.12 0 0 1-1.3-.17l.1-.96c0-.08.03-.15.1-.2.05-.06.13-.09.25-.09.06 0 .15.01.26.04.11.03.25.04.42.04.23 0 .43-.03.6-.1.18-.06.33-.17.45-.31.12-.14.2-.33.26-.56.06-.23.1-.51.1-.84v-5.63h1.6v5.6zM9.7 23.7c.31 0 .6-.05.84-.16a1.74 1.74 0 0 0 1.01-1.12c.1-.27.14-.57.14-.9v-5.2h1.61v5.2a4 4 0 0 1-.25 1.43 3.23 3.23 0 0 1-1.85 1.88 4 4 0 0 1-1.5.27 4 4 0 0 1-1.5-.27 3.24 3.24 0 0 1-1.84-1.88 4 4 0 0 1-.25-1.43v-5.2h1.61v5.2c0 .33.05.63.14.9.09.26.22.5.38.68.17.2.38.34.63.44.24.1.52.16.83.16zm7.06 1.3h-1.62v-8.68h1.62V25zm2.8-8.68l.18.01c.05 0 .1.02.13.04l.11.08.12.13 4.55 5.8a5.97 5.97 0 0 1-.04-.78v-5.28h1.42V25h-.83a.74.74 0 0 1-.32-.06.7.7 0 0 1-.24-.22l-4.54-5.77a8.32 8.32 0 0 1 .04.72V25H18.7v-8.68h.85z" opacity=".66"/><rect width="1" height="4" x="13"/></g></g><rect width="2560" height="1" x="24" transform="matrix(1 0 0 -1 0 1)"/></g></svg>