<svg xmlns="http://www.w3.org/2000/svg" viewBox="0 0 2560 33"><g fill="#FFFFFF" fill-rule="evenodd" opacity=".64" transform="translate(-24)"><g transform="translate(1488 1)"><g transform="translate(651)"><path fill-rule="nonzero" d="M22.14 16.32v1.29h-3.85v2.57h3.25v1.29h-3.25V25h-1.63v-8.68h5.48zm6.73 0v1.29h-3.84V20h3.03v1.25h-3.03v2.45h3.84V25H23.4v-8.68h5.47zm1.4 8.68v-8.68h3c.56 0 1.05.06 1.45.17.4.1.73.26.99.46s.45.44.57.72a2.44 2.44 0 0 1 .09 1.55 1.7 1.7 0 0 1-.28.52c-.13.16-.29.31-.48.44-.2.13-.43.25-.7.34 1.2.27 1.8.91 1.8 1.93 0 .37-.08.7-.22 1.02-.14.31-.34.58-.6.8a3 3 0 0 1-1 .54c-.4.13-.84.19-1.34.19h-3.28zm1.62-3.8v2.54h1.63c.3 0 .55-.04.76-.1.2-.08.36-.18.48-.3s.21-.26.27-.42a1.58 1.58 0 0 0-.01-1.01.95.95 0 0 0-.29-.39c-.12-.1-.29-.18-.49-.24s-.44-.08-.72-.08h-1.64zm0-1.12h1.28c.55 0 .97-.1 1.25-.3.29-.2.43-.52.43-.95 0-.46-.13-.78-.38-.97-.26-.2-.66-.29-1.2-.29h-1.39v2.51z" opacity=".66"/><rect width="1" height="4" x="26"/></g><path fill-rule="nonzero" d="M20.78 21.92c0 .48-.06.92-.18 1.32-.12.39-.3.72-.54 1-.24.27-.54.49-.9.63a3.1 3.1 0 0 1-1.23.23 5.12 5.12 0 0 1-1.3-.17l.09-.96c0-.08.04-.15.1-.2.06-.06.14-.09.25-.09.07 0 .16.01.27.04.11.03.25.04.42.04.23 0 .43-.03.6-.1.18-.06.33-.17.45-.31.11-.14.2-.33.26-.56.06-.23.1-.51.1-.84v-5.63h1.6v5.6zm5.24 1.78c.31 0 .6-.05.84-.16a1.74 1.74 0 0 0 1.01-1.12c.1-.27.14-.57.14-.9v-5.2h1.61v5.2a4 4 0 0 1-.25 1.43 3.23 3.23 0 0 1-1.85 1.88 4 4 0 0 1-1.5.27 4 4 0 0 1-1.5-.27 3.24 3.24 0 0 1-1.84-1.88 4 4 0 0 1-.25-1.43v-5.2h1.61v5.2c0 .33.04.63.14.9.09.26.21.5.38.68.17.2.38.34.62.44.25.1.53.16.84.16zm6.86-.03h3.47V25h-5.09v-8.68h1.62v7.35z" opacity=".66"/><rect width="1" height="4" x="26"/><g transform="translate(558)"><path fill-rule="nonzero" d="M19.6 21.92c0 .48-.05.92-.17 1.32-.12.39-.3.72-.54 1-.24.27-.54.49-.9.63a3.1 3.1 0 0 1-1.23.23 5.12 5.12 0 0 1-1.3-.17l.09-.96c0-.08.04-.15.1-.2.06-.06.14-.09.25-.09.07 0 .16.01.27.04.11.03.25.04.42.04.23 0 .43-.03.6-.1.18-.06.33-.17.45-.31.11-.14.2-.33.26-.56.06-.23.1-.51.1-.84v-5.63h1.6v5.6zM28.68 25h-1.25a.55.55 0 0 1-.54-.37l-.64-1.77h-3.6L22 24.63a.57.57 0 0 1-.53.37h-1.25l3.4-8.68h1.65l3.4 8.68zm-5.61-3.28h2.76l-1.05-2.88a13.18 13.18 0 0 1-.33-1.02 20 20 0 0 1-.33 1.03l-1.05 2.87zm7.35-5.4l.18.01c.05 0 .1.02.13.04.04.02.08.04.11.08l.12.13 4.56 5.8a5.97 5.97 0 0 1-.05-.78v-5.28h1.43V25h-.84a.74.74 0 0 1-.32-.06.7.7 0 0 1-.24-.22l-4.54-5.77a8.32 8.32 0 0 1 .04.72V25h-1.42v-8.68h.84z" opacity=".66"/><rect width="1" height="4" x="26"/></g><g transform="translate(465)"><path fill-rule="nonzero" d="M22.14 16.32v1.29h-3.85v2.57h3.25v1.29h-3.25V25h-1.63v-8.68h5.48zm6.73 0v1.29h-3.84V20h3.03v1.25h-3.03v2.45h3.84V25H23.4v-8.68h5.47zm1.4 8.68v-8.68h3c.56 0 1.05.06 1.45.17.4.1.73.26.99.46s.45.44.57.72a2.44 2.44 0 0 1 .09 1.55 1.7 1.7 0 0 1-.28.52c-.13.16-.29.31-.48.44-.2.13-.43.25-.7.34 1.2.27 1.8.91 1.8 1.93 0 .37-.08.7-.22 1.02-.14.31-.34.58-.6.8a3 3 0 0 1-1 .54c-.4.13-.84.19-1.34.19h-3.28zm1.62-3.8v2.54h1.63c.3 0 .55-.04.76-.1.2-.08.36-.18.48-.3s.21-.26.27-.42a1.58 1.58 0 0 0-.01-1.01.95.95 0 0 0-.29-.39c-.12-.1-.29-.18-.49-.24s-.44-.08-.72-.08h-1.64zm0-1.12h1.28c.55 0 .97-.1 1.25-.3.29-.2.43-.52.43-.95 0-.46-.13-.78-.38-.97-.26-.2-.66-.29-1.2-.29h-1.39v2.51z" opacity=".66"/><rect width="1" height="4" x="26"/></g><g transform="translate(837)"><path fill-rule="nonzero" d="M23.06 25h-1.25a.55.55 0 0 1-.54-.37l-.64-1.77h-3.6l-.65 1.77a.57.57 0 0 1-.53.37H14.6l3.4-8.68h1.65L23.06 25zm-5.61-3.28h2.76l-1.05-2.88a13.18 13.18 0 0 1-.33-1.02 20 20 0 0 1-.33 1.03l-1.05 2.87zm8.17.23V25h-1.61v-8.68h2.83c.58 0 1.08.07 1.5.2.43.14.78.33 1.05.58.28.24.48.53.61.87a3.36 3.36 0 0 1 0 2.28 2.4 2.4 0 0 1-.64.9c-.28.25-.63.45-1.05.59-.42.14-.91.2-1.47.2h-1.22zm0-1.26h1.22c.3 0 .55-.04.77-.12.22-.07.4-.17.55-.31.14-.14.25-.3.32-.5a1.93 1.93 0 0 0 0-1.3 1.25 1.25 0 0 0-.32-.48 1.44 1.44 0 0 0-.55-.3c-.22-.07-.48-.1-.77-.1h-1.22v3.1zm7.5.92V25h-1.61v-8.68h2.65c.59 0 1.1.06 1.52.19.42.12.76.29 1.04.51.27.22.46.48.59.79.13.3.19.64.19 1.01a2.62 2.62 0 0 1-.5 1.54 2.96 2.96 0 0 1-1.42.94c.2.11.38.28.53.5l2.17 3.2h-1.45a.7.7 0 0 1-.35-.08.73.73 0 0 1-.25-.24L34.4 21.9a.64.64 0 0 0-.22-.22.79.79 0 0 0-.37-.07h-.69zm0-1.16h1.01c.3 0 .57-.04.8-.11.22-.08.4-.18.55-.32.15-.13.26-.29.33-.47.07-.19.11-.39.11-.61 0-.44-.14-.78-.44-1.01-.29-.24-.73-.36-1.32-.36h-1.04v2.88z" opacity=".66"/><rect width="1" height="4" x="26"/></g><g transform="translate(186)"><path fill-rule="nonzero" d="M21.62 17.9a.45.45 0 0 1-.15.19.38.38 0 0 1-.2.05.53.53 0 0 1-.28-.1l-.35-.2a2.9 2.9 0 0 0-.48-.2 2 2 0 0 0-.64-.1c-.23 0-.42.03-.59.08-.17.06-.3.13-.42.23a.9.9 0 0 0-.25.34c-.06.14-.09.28-.09.44 0 .2.06.38.17.51.12.14.27.26.46.35.18.1.4.18.64.26l.73.24c.25.09.5.19.74.3.24.12.45.26.64.44a1.96 1.96 0 0 1 .62 1.55 3 3 0 0 1-.2 1.1 2.54 2.54 0 0 1-1.53 1.5 4.12 4.12 0 0 1-4.13-.92l.47-.78a.6.6 0 0 1 .16-.14.39.39 0 0 1 .2-.06c.1 0 .21.04.33.13l.41.27a2.43 2.43 0 0 0 1.33.4c.46 0 .82-.11 1.07-.33.25-.22.38-.53.38-.94a.87.87 0 0 0-.18-.56 1.38 1.38 0 0 0-.45-.36c-.19-.1-.4-.18-.64-.25l-.73-.22c-.25-.08-.5-.18-.73-.29a2.37 2.37 0 0 1-.65-.44 2 2 0 0 1-.45-.67A2.57 2.57 0 0 1 17.4 17c.24-.24.54-.42.9-.56a4.05 4.05 0 0 1 2.62.03c.43.16.8.38 1.1.67l-.4.76zm7.26-1.58v1.29h-3.84V20h3.03v1.25h-3.03v2.45h3.84V25h-5.47v-8.68h5.47zm3.07 5.63V25h-1.62v-8.68h2.83c.58 0 1.08.07 1.5.2.43.14.78.33 1.06.58.27.24.48.53.6.87.14.34.2.72.2 1.12 0 .42-.06.8-.2 1.16a2.4 2.4 0 0 1-.63.9c-.28.25-.63.45-1.05.59-.42.14-.92.2-1.48.2h-1.21zm0-1.26h1.21c.3 0 .55-.04.77-.12.22-.07.4-.17.55-.31.14-.14.25-.3.32-.5a1.93 1.93 0 0 0 0-1.3 1.25 1.25 0 0 0-.32-.48 1.44 1.44 0 0 0-.55-.3c-.22-.07-.47-.1-.77-.1h-1.21v3.1z" opacity=".66"/><rect width="1" height="4" x="26"/></g><g transform="translate(744)"><path fill-rule="nonzero" d="M17.96 21.4a4.88 4.88 0 0 1 .36.82 13.53 13.53 0 0 1 .37-.83l2.57-4.8a.36.36 0 0 1 .1-.15.3.3 0 0 1 .1-.08.5.5 0 0 1 .15-.03h1.4V25H21.6v-5.6a7.12 7.12 0 0 1 .04-.72L19 23.6a.7.7 0 0 1-.24.26.6.6 0 0 1-.33.09h-.23a.6.6 0 0 1-.33-.1.7.7 0 0 1-.24-.25L15 18.66a5.32 5.32 0 0 1 .04.74V25H13.6v-8.68h1.21l.19.01c.05 0 .1.01.14.03.04.02.08.04.12.08a.6.6 0 0 1 .1.14l2.6 4.82zM32.4 25h-1.25a.55.55 0 0 1-.54-.37l-.64-1.77h-3.6l-.65 1.77a.57.57 0 0 1-.53.37h-1.25l3.4-8.68h1.65L32.4 25zm-5.61-3.28h2.76l-1.05-2.88a13.18 13.18 0 0 1-.33-1.02 20 20 0 0 1-.33 1.03l-1.05 2.87zm8.17-.11V25h-1.61v-8.68H36c.59 0 1.1.06 1.52.19.42.12.76.29 1.04.51.27.22.46.48.59.79.13.3.19.64.19 1.01a2.62 2.62 0 0 1-.5 1.54 2.96 2.96 0 0 1-1.42.94c.2.11.38.28.53.5l2.17 3.2h-1.45a.7.7 0 0 1-.35-.08.73.73 0 0 1-.25-.24l-1.83-2.78a.64.64 0 0 0-.22-.22.79.79 0 0 0-.37-.07h-.69zm0-1.16h1.01c.3 0 .57-.04.8-.11.22-.08.4-.18.55-.32.15-.13.26-.29.33-.47.07-.19.11-.39.11-.61 0-.44-.14-.78-.44-1.01-.29-.24-.73-.36-1.32-.36h-1.04v2.88z" opacity=".66"/><rect width="1" height="4" x="26"/></g><g transform="translate(93)"><path fill-rule="nonzero" d="M22.2 25h-1.26a.55.55 0 0 1-.54-.37l-.64-1.77h-3.6l-.65 1.77a.57.57 0 0 1-.53.37h-1.25l3.4-8.68h1.65L22.2 25zm-5.62-3.28h2.76l-1.05-2.88a13.18 13.18 0 0 1-.33-1.02 20 20 0 0 1-.33 1.03l-1.05 2.87zm9.69 1.98c.3 0 .59-.05.83-.16a1.74 1.74 0 0 0 1.02-1.12c.09-.27.13-.57.13-.9v-5.2h1.62v5.2a4 4 0 0 1-.25 1.43 3.23 3.23 0 0 1-1.85 1.88 4 4 0 0 1-1.5.27 4 4 0 0 1-1.5-.27 3.24 3.24 0 0 1-1.85-1.88 4 4 0 0 1-.25-1.43v-5.2h1.62v5.2c0 .33.04.63.13.9.1.26.22.5.39.68.17.2.37.34.62.44.25.1.52.16.84.16zm9.22.11a4.04 4.04 0 0 0 1.73-.37v-1.58h-1.09a.34.34 0 0 1-.25-.09.28.28 0 0 1-.09-.2v-.92h2.89v3.51a4.77 4.77 0 0 1-2.32.88c-.3.04-.64.06-1 .06-.62 0-1.2-.11-1.74-.33a4.15 4.15 0 0 1-2.29-2.33 4.75 4.75 0 0 1-.32-1.78 5 5 0 0 1 .31-1.8 4.05 4.05 0 0 1 2.33-2.3 5.13 5.13 0 0 1 1.87-.33 4.3 4.3 0 0 1 3.15 1.13l-.46.73c-.1.15-.22.23-.37.23a.6.6 0 0 1-.3-.1l-.39-.23a3.62 3.62 0 0 0-2.85-.17c-.34.14-.64.35-.88.62-.25.26-.43.59-.57.96a3.96 3.96 0 0 0 .02 2.6 2.53 2.53 0 0 0 1.49 1.6c.34.14.72.21 1.13.21z" opacity=".66"/><rect width="1" height="4" x="26"/></g><g transform="translate(930)"><path fill-rule="nonzero" d="M18.51 21.4a4.88 4.88 0 0 1 .36.82 13.53 13.53 0 0 1 .37-.83l2.57-4.8a.36.36 0 0 1 .1-.15.3.3 0 0 1 .1-.08.5.5 0 0 1 .15-.03h1.4V25h-1.42v-5.6a7.12 7.12 0 0 1 .04-.72l-2.63 4.92a.7.7 0 0 1-.23.26.6.6 0 0 1-.34.09h-.22a.6.6 0 0 1-.33-.1.7.7 0 0 1-.24-.25l-2.66-4.94a5.32 5.32 0 0 1 .05.74V25h-1.43v-8.68h1.22l.19.01c.05 0 .1.01.14.03.04.02.08.04.12.08a.6.6 0 0 1 .1.14l2.6 4.82zM32.94 25H31.7a.55.55 0 0 1-.54-.37l-.64-1.77h-3.6l-.65 1.77a.57.57 0 0 1-.53.37h-1.25l3.4-8.68h1.65l3.4 8.68zm-5.61-3.28h2.76l-1.05-2.88a13.18 13.18 0 0 1-.34-1.02 20 20 0 0 1-.32 1.03l-1.05 2.87zm9.27-.1V25H35v-3.37l-3.17-5.3h1.43a.5.5 0 0 1 .33.1c.08.06.15.15.2.25l1.6 2.9a7.26 7.26 0 0 1 .42.94 6.54 6.54 0 0 1 .42-.94l1.58-2.9a.8.8 0 0 1 .2-.24.5.5 0 0 1 .33-.12h1.43l-3.16 5.3z" opacity=".66"/><rect width="1" height="4" x="26"/></g><g transform="translate(279)"><path fill-rule="nonzero" d="M23.3 20.66c0 .64-.1 1.23-.31 1.77a4.05 4.05 0 0 1-2.28 2.33c-.54.23-1.14.34-1.8.34a4.7 4.7 0 0 1-1.8-.34 4.07 4.07 0 0 1-2.28-2.33 4.8 4.8 0 0 1-.32-1.77c0-.63.1-1.22.32-1.77a4.16 4.16 0 0 1 2.29-2.33 4.7 4.7 0 0 1 1.8-.33c.65 0 1.25.11 1.79.33a4.1 4.1 0 0 1 2.28 2.34c.21.54.32 1.13.32 1.76zm-1.65 0c0-.47-.06-.9-.19-1.28a2.5 2.5 0 0 0-.54-.96 2.34 2.34 0 0 0-.86-.6 2.96 2.96 0 0 0-1.14-.22c-.43 0-.81.07-1.15.21a2.42 2.42 0 0 0-1.42 1.57 4.2 4.2 0 0 0 .01 2.56 2.38 2.38 0 0 0 1.42 1.56c.33.15.71.22 1.14.22.42 0 .8-.07 1.14-.21a2.38 2.38 0 0 0 1.4-1.57c.13-.38.2-.8.2-1.28zm8.9 2.3a.3.3 0 0 1 .22.1l.64.69a3.5 3.5 0 0 1-1.3 1c-.52.23-1.13.35-1.85.35-.65 0-1.22-.11-1.74-.33a3.83 3.83 0 0 1-2.15-2.33 5.27 5.27 0 0 1 .03-3.57 4.1 4.1 0 0 1 2.32-2.32 4.84 4.84 0 0 1 3.5-.01c.48.2.9.48 1.24.82l-.54.75a.49.49 0 0 1-.13.12.35.35 0 0 1-.2.06.47.47 0 0 1-.29-.11 3.5 3.5 0 0 0-.92-.47c-.23-.07-.52-.1-.86-.1-.41 0-.79.06-1.13.2a2.5 2.5 0 0 0-.88.61 2.8 2.8 0 0 0-.58.97c-.14.38-.2.8-.2 1.27 0 .49.06.92.2 1.3s.33.7.56.96a2.5 2.5 0 0 0 1.87.8c.22 0 .42 0 .6-.03a2.53 2.53 0 0 0 .91-.31c.14-.09.27-.19.4-.3a.57.57 0 0 1 .13-.1c.04-.02.1-.03.14-.03zm8.19-6.64v1.33h-2.61V25h-1.61v-7.35h-2.63v-1.33h6.85z" opacity=".66"/><rect width="1" height="4" x="26"/></g><g transform="translate(1023)"><path fill-rule="nonzero" d="M19.34 21.92c0 .48-.06.92-.18 1.32-.12.39-.3.72-.54 1-.23.27-.53.49-.89.63-.35.15-.77.23-1.24.23a5.12 5.12 0 0 1-1.29-.17l.09-.96c0-.08.04-.15.1-.2.05-.06.14-.09.25-.09.07 0 .16.01.27.04.1.03.25.04.41.04.23 0 .43-.03.61-.1a.98.98 0 0 0 .44-.31c.12-.14.2-.33.27-.56.06-.23.09-.51.09-.84v-5.63h1.61v5.6zm5.25 1.78c.3 0 .59-.05.83-.16a1.74 1.74 0 0 0 1.02-1.12c.09-.27.13-.57.13-.9v-5.2h1.62v5.2a4 4 0 0 1-.25 1.43 3.23 3.23 0 0 1-1.85 1.88 4 4 0 0 1-1.5.27 4 4 0 0 1-1.5-.27 3.24 3.24 0 0 1-1.85-1.88 4 4 0 0 1-.25-1.43v-5.2h1.62v5.2c0 .33.04.63.13.9.1.26.22.5.39.68.17.2.37.34.62.44.25.1.52.16.84.16zm6.09-7.38l.18.01c.04 0 .09.02.13.04.03.02.07.04.1.08l.13.13 4.55 5.8a5.97 5.97 0 0 1-.04-.78v-5.28h1.42V25h-.83a.74.74 0 0 1-.32-.06.7.7 0 0 1-.25-.22l-4.53-5.77a8.32 8.32 0 0 1 .03.72V25h-1.42v-8.68h.85z" opacity=".66"/><rect width="1" height="4" x="26"/></g><g transform="translate(372)"><path fill-rule="nonzero" d="M14.8 16.32l.18.01c.05 0 .09.02.13.04.03.02.07.04.1.08l.13.13 4.55 5.8a5.97 5.97 0 0 1-.04-.78v-5.28h1.42V25h-.83a.74.74 0 0 1-.32-.06.7.7 0 0 1-.25-.22l-4.53-5.77a8.32 8.32 0 0 1 .03.72V25h-1.42v-8.68h.85zm16.54 4.34c0 .64-.1 1.23-.31 1.77a4.05 4.05 0 0 1-2.28 2.33c-.54.23-1.14.34-1.8.34a4.7 4.7 0 0 1-1.8-.34 4.07 4.07 0 0 1-2.28-2.33 4.8 4.8 0 0 1-.32-1.77c0-.63.1-1.22.32-1.77a4.16 4.16 0 0 1 2.29-2.33 4.7 4.7 0 0 1 1.8-.33c.65 0 1.25.11 1.79.33a4.1 4.1 0 0 1 2.28 2.34c.2.54.31 1.13.31 1.76zm-1.65 0c0-.47-.06-.9-.19-1.28s-.3-.7-.54-.96a2.34 2.34 0 0 0-.86-.6 2.96 2.96 0 0 0-1.15-.22c-.42 0-.8.07-1.14.21a2.42 2.42 0 0 0-1.42 1.57c-.13.38-.2.8-.2 1.28s.07.9.2 1.28.31.7.55.96c.24.27.53.47.87.6.34.15.72.22 1.14.22.43 0 .8-.07 1.15-.21.33-.14.62-.34.86-.6.23-.27.41-.59.54-.97.13-.38.19-.8.19-1.28zm1.74-4.34h1.3a.54.54 0 0 1 .54.37l2.04 5.3a7.16 7.16 0 0 1 .37 1.21c.1-.46.2-.87.34-1.22l2.04-5.29c.04-.1.1-.18.2-.25.08-.08.2-.12.33-.12h1.3L36.4 25h-1.46l-3.5-8.68z" opacity=".66"/><rect width="1" height="4" x="26"/></g></g><g transform="translate(372 1)"><g transform="translate(651)"><path fill-rule="nonzero" d="M22.14 16.32v1.29h-3.85v2.57h3.25v1.29h-3.25V25h-1.63v-8.68h5.48zm6.73 0v1.29h-3.84V20h3.03v1.25h-3.03v2.45h3.84V25H23.4v-8.68h5.47zm1.4 8.68v-8.68h3c.56 0 1.05.06 1.45.17.4.1.73.26.99.46s.45.44.57.72a2.44 2.44 0 0 1 .09 1.55 1.7 1.7 0 0 1-.28.52c-.13.16-.29.31-.48.44-.2.13-.43.25-.7.34 1.2.27 1.8.91 1.8 1.93 0 .37-.08.7-.22 1.02-.14.31-.34.58-.6.8a3 3 0 0 1-1 .54c-.4.13-.84.19-1.34.19h-3.28zm1.62-3.8v2.54h1.63c.3 0 .55-.04.76-.1.2-.08.36-.18.48-.3s.21-.26.27-.42a1.58 1.58 0 0 0-.01-1.01.95.95 0 0 0-.29-.39c-.12-.1-.29-.18-.49-.24s-.44-.08-.72-.08h-1.64zm0-1.12h1.28c.55 0 .97-.1 1.25-.3.29-.2.43-.52.43-.95 0-.46-.13-.78-.38-.97-.26-.2-.66-.29-1.2-.29h-1.39v2.51z" opacity=".66"/><rect width="1" height="4" x="26"/></g><path fill-rule="nonzero" d="M20.78 21.92c0 .48-.06.92-.18 1.32-.12.39-.3.72-.54 1-.24.27-.54.49-.9.63a3.1 3.1 0 0 1-1.23.23 5.12 5.12 0 0 1-1.3-.17l.09-.96c0-.08.04-.15.1-.2.06-.06.14-.09.25-.09.07 0 .16.01.27.04.11.03.25.04.42.04.23 0 .43-.03.6-.1.18-.06.33-.17.45-.31.11-.14.2-.33.26-.56.06-.23.1-.51.1-.84v-5.63h1.6v5.6zm5.24 1.78c.31 0 .6-.05.84-.16a1.74 1.74 0 0 0 1.01-1.12c.1-.27.14-.57.14-.9v-5.2h1.61v5.2a4 4 0 0 1-.25 1.43 3.23 3.23 0 0 1-1.85 1.88 4 4 0 0 1-1.5.27 4 4 0 0 1-1.5-.27 3.24 3.24 0 0 1-1.84-1.88 4 4 0 0 1-.25-1.43v-5.2h1.61v5.2c0 .33.04.63.14.9.09.26.21.5.38.68.17.2.38.34.62.44.25.1.53.16.84.16zm6.86-.03h3.47V25h-5.09v-8.68h1.62v7.35z" opacity=".66"/><rect width="1" height="4" x="26"/><g transform="translate(558)"><path fill-rule="nonzero" d="M19.6 21.92c0 .48-.05.92-.17 1.32-.12.39-.3.72-.54 1-.24.27-.54.49-.9.63a3.1 3.1 0 0 1-1.23.23 5.12 5.12 0 0 1-1.3-.17l.09-.96c0-.08.04-.15.1-.2.06-.06.14-.09.25-.09.07 0 .16.01.27.04.11.03.25.04.42.04.23 0 .43-.03.6-.1.18-.06.33-.17.45-.31.11-.14.2-.33.26-.56.06-.23.1-.51.1-.84v-5.63h1.6v5.6zM28.68 25h-1.25a.55.55 0 0 1-.54-.37l-.64-1.77h-3.6L22 24.63a.57.57 0 0 1-.53.37h-1.25l3.4-8.68h1.65l3.4 8.68zm-5.61-3.28h2.76l-1.05-2.88a13.18 13.18 0 0 1-.33-1.02 20 20 0 0 1-.33 1.03l-1.05 2.87zm7.35-5.4l.18.01c.05 0 .1.02.13.04.04.02.08.04.11.08l.12.13 4.56 5.8a5.97 5.97 0 0 1-.05-.78v-5.28h1.43V25h-.84a.74.74 0 0 1-.32-.06.7.7 0 0 1-.24-.22l-4.54-5.77a8.32 8.32 0 0 1 .04.72V25h-1.42v-8.68h.84z" opacity=".66"/><rect width="1" height="4" x="26"/></g><g transform="translate(465)"><path fill-rule="nonzero" d="M22.14 16.32v1.29h-3.85v2.57h3.25v1.29h-3.25V25h-1.63v-8.68h5.48zm6.73 0v1.29h-3.84V20h3.03v1.25h-3.03v2.45h3.84V25H23.4v-8.68h5.47zm1.4 8.68v-8.68h3c.56 0 1.05.06 1.45.17.4.1.73.26.99.46s.45.44.57.72a2.44 2.44 0 0 1 .09 1.55 1.7 1.7 0 0 1-.28.52c-.13.16-.29.31-.48.44-.2.13-.43.25-.7.34 1.2.27 1.8.91 1.8 1.93 0 .37-.08.7-.22 1.02-.14.31-.34.58-.6.8a3 3 0 0 1-1 .54c-.4.13-.84.19-1.34.19h-3.28zm1.62-3.8v2.54h1.63c.3 0 .55-.04.76-.1.2-.08.36-.18.48-.3s.21-.26.27-.42a1.58 1.58 0 0 0-.01-1.01.95.95 0 0 0-.29-.39c-.12-.1-.29-.18-.49-.24s-.44-.08-.72-.08h-1.64zm0-1.12h1.28c.55 0 .97-.1 1.25-.3.29-.2.43-.52.43-.95 0-.46-.13-.78-.38-.97-.26-.2-.66-.29-1.2-.29h-1.39v2.51z" opacity=".66"/><rect width="1" height="4" x="26"/></g><g transform="translate(837)"><path fill-rule="nonzero" d="M23.06 25h-1.25a.55.55 0 0 1-.54-.37l-.64-1.77h-3.6l-.65 1.77a.57.57 0 0 1-.53.37H14.6l3.4-8.68h1.65L23.06 25zm-5.61-3.28h2.76l-1.05-2.88a13.18 13.18 0 0 1-.33-1.02 20 20 0 0 1-.33 1.03l-1.05 2.87zm8.17.23V25h-1.61v-8.68h2.83c.58 0 1.08.07 1.5.2.43.14.78.33 1.05.58.28.24.48.53.61.87a3.36 3.36 0 0 1 0 2.28 2.4 2.4 0 0 1-.64.9c-.28.25-.63.45-1.05.59-.42.14-.91.2-1.47.2h-1.22zm0-1.26h1.22c.3 0 .55-.04.77-.12.22-.07.4-.17.55-.31.14-.14.25-.3.32-.5a1.93 1.93 0 0 0 0-1.3 1.25 1.25 0 0 0-.32-.48 1.44 1.44 0 0 0-.55-.3c-.22-.07-.48-.1-.77-.1h-1.22v3.1zm7.5.92V25h-1.61v-8.68h2.65c.59 0 1.1.06 1.52.19.42.12.76.29 1.04.51.27.22.46.48.59.79.13.3.19.64.19 1.01a2.62 2.62 0 0 1-.5 1.54 2.96 2.96 0 0 1-1.42.94c.2.11.38.28.53.5l2.17 3.2h-1.45a.7.7 0 0 1-.35-.08.73.73 0 0 1-.25-.24L34.4 21.9a.64.64 0 0 0-.22-.22.79.79 0 0 0-.37-.07h-.69zm0-1.16h1.01c.3 0 .57-.04.8-.11.22-.08.4-.18.55-.32.15-.13.26-.29.33-.47.07-.19.11-.39.11-.61 0-.44-.14-.78-.44-1.01-.29-.24-.73-.36-1.32-.36h-1.04v2.88z" opacity=".66"/><rect width="1" height="4" x="26"/></g><g transform="translate(186)"><path fill-rule="nonzero" d="M21.62 17.9a.45.45 0 0 1-.15.19.38.38 0 0 1-.2.05.53.53 0 0 1-.28-.1l-.35-.2a2.9 2.9 0 0 0-.48-.2 2 2 0 0 0-.64-.1c-.23 0-.42.03-.59.08-.17.06-.3.13-.42.23a.9.9 0 0 0-.25.34c-.06.14-.09.28-.09.44 0 .2.06.38.17.51.12.14.27.26.46.35.18.1.4.18.64.26l.73.24c.25.09.5.19.74.3.24.12.45.26.64.44a1.96 1.96 0 0 1 .62 1.55 3 3 0 0 1-.2 1.1 2.54 2.54 0 0 1-1.53 1.5 4.12 4.12 0 0 1-4.13-.92l.47-.78a.6.6 0 0 1 .16-.14.39.39 0 0 1 .2-.06c.1 0 .21.04.33.13l.41.27a2.43 2.43 0 0 0 1.33.4c.46 0 .82-.11 1.07-.33.25-.22.38-.53.38-.94a.87.87 0 0 0-.18-.56 1.38 1.38 0 0 0-.45-.36c-.19-.1-.4-.18-.64-.25l-.73-.22c-.25-.08-.5-.18-.73-.29a2.37 2.37 0 0 1-.65-.44 2 2 0 0 1-.45-.67A2.57 2.57 0 0 1 17.4 17c.24-.24.54-.42.9-.56a4.05 4.05 0 0 1 2.62.03c.43.16.8.38 1.1.67l-.4.76zm7.26-1.58v1.29h-3.84V20h3.03v1.25h-3.03v2.45h3.84V25h-5.47v-8.68h5.47zm3.07 5.63V25h-1.62v-8.68h2.83c.58 0 1.08.07 1.5.2.43.14.78.33 1.06.58.27.24.48.53.6.87.14.34.2.72.2 1.12 0 .42-.06.8-.2 1.16a2.4 2.4 0 0 1-.63.9c-.28.25-.63.45-1.05.59-.42.14-.92.2-1.48.2h-1.21zm0-1.26h1.21c.3 0 .55-.04.77-.12.22-.07.4-.17.55-.31.14-.14.25-.3.32-.5a1.93 1.93 0 0 0 0-1.3 1.25 1.25 0 0 0-.32-.48 1.44 1.44 0 0 0-.55-.3c-.22-.07-.47-.1-.77-.1h-1.21v3.1z" opacity=".66"/><rect width="1" height="4" x="26"/></g><g transform="translate(744)"><path fill-rule="nonzero" d="M17.96 21.4a4.88 4.88 0 0 1 .36.82 13.53 13.53 0 0 1 .37-.83l2.57-4.8a.36.36 0 0 1 .1-.15.3.3 0 0 1 .1-.08.5.5 0 0 1 .15-.03h1.4V25H21.6v-5.6a7.12 7.12 0 0 1 .04-.72L19 23.6a.7.7 0 0 1-.24.26.6.6 0 0 1-.33.09h-.23a.6.6 0 0 1-.33-.1.7.7 0 0 1-.24-.25L15 18.66a5.32 5.32 0 0 1 .04.74V25H13.6v-8.68h1.21l.19.01c.05 0 .1.01.14.03.04.02.08.04.12.08a.6.6 0 0 1 .1.14l2.6 4.82zM32.4 25h-1.25a.55.55 0 0 1-.54-.37l-.64-1.77h-3.6l-.65 1.77a.57.57 0 0 1-.53.37h-1.25l3.4-8.68h1.65L32.4 25zm-5.61-3.28h2.76l-1.05-2.88a13.18 13.18 0 0 1-.33-1.02 20 20 0 0 1-.33 1.03l-1.05 2.87zm8.17-.11V25h-1.61v-8.68H36c.59 0 1.1.06 1.52.19.42.12.76.29 1.04.51.27.22.46.48.59.79.13.3.19.64.19 1.01a2.62 2.62 0 0 1-.5 1.54 2.96 2.96 0 0 1-1.42.94c.2.11.38.28.53.5l2.17 3.2h-1.45a.7.7 0 0 1-.35-.08.73.73 0 0 1-.25-.24l-1.83-2.78a.64.64 0 0 0-.22-.22.79.79 0 0 0-.37-.07h-.69zm0-1.16h1.01c.3 0 .57-.04.8-.11.22-.08.4-.18.55-.32.15-.13.26-.29.33-.47.07-.19.11-.39.11-.61 0-.44-.14-.78-.44-1.01-.29-.24-.73-.36-1.32-.36h-1.04v2.88z" opacity=".66"/><rect width="1" height="4" x="26"/></g><g transform="translate(93)"><path fill-rule="nonzero" d="M22.2 25h-1.26a.55.55 0 0 1-.54-.37l-.64-1.77h-3.6l-.65 1.77a.57.57 0 0 1-.53.37h-1.25l3.4-8.68h1.65L22.2 25zm-5.62-3.28h2.76l-1.05-2.88a13.18 13.18 0 0 1-.33-1.02 20 20 0 0 1-.33 1.03l-1.05 2.87zm9.69 1.98c.3 0 .59-.05.83-.16a1.74 1.74 0 0 0 1.02-1.12c.09-.27.13-.57.13-.9v-5.2h1.62v5.2a4 4 0 0 1-.25 1.43 3.23 3.23 0 0 1-1.85 1.88 4 4 0 0 1-1.5.27 4 4 0 0 1-1.5-.27 3.24 3.24 0 0 1-1.85-1.88 4 4 0 0 1-.25-1.43v-5.2h1.62v5.2c0 .33.04.63.13.9.1.26.22.5.39.68.17.2.37.34.62.44.25.1.52.16.84.16zm9.22.11a4.04 4.04 0 0 0 1.73-.37v-1.58h-1.09a.34.34 0 0 1-.25-.09.28.28 0 0 1-.09-.2v-.92h2.89v3.51a4.77 4.77 0 0 1-2.32.88c-.3.04-.64.06-1 .06-.62 0-1.2-.11-1.74-.33a4.15 4.15 0 0 1-2.29-2.33 4.75 4.75 0 0 1-.32-1.78 5 5 0 0 1 .31-1.8 4.05 4.05 0 0 1 2.33-2.3 5.13 5.13 0 0 1 1.87-.33 4.3 4.3 0 0 1 3.15 1.13l-.46.73c-.1.15-.22.23-.37.23a.6.6 0 0 1-.3-.1l-.39-.23a3.62 3.62 0 0 0-2.85-.17c-.34.14-.64.35-.88.62-.25.26-.43.59-.57.96a3.96 3.96 0 0 0 .02 2.6 2.53 2.53 0 0 0 1.49 1.6c.34.14.72.21 1.13.21z" opacity=".66"/><rect width="1" height="4" x="26"/></g><g transform="translate(930)"><path fill-rule="nonzero" d="M18.51 21.4a4.88 4.88 0 0 1 .36.82 13.53 13.53 0 0 1 .37-.83l2.57-4.8a.36.36 0 0 1 .1-.15.3.3 0 0 1 .1-.08.5.5 0 0 1 .15-.03h1.4V25h-1.42v-5.6a7.12 7.12 0 0 1 .04-.72l-2.63 4.92a.7.7 0 0 1-.23.26.6.6 0 0 1-.34.09h-.22a.6.6 0 0 1-.33-.1.7.7 0 0 1-.24-.25l-2.66-4.94a5.32 5.32 0 0 1 .05.74V25h-1.43v-8.68h1.22l.19.01c.05 0 .1.01.14.03.04.02.08.04.12.08a.6.6 0 0 1 .1.14l2.6 4.82zM32.94 25H31.7a.55.55 0 0 1-.54-.37l-.64-1.77h-3.6l-.65 1.77a.57.57 0 0 1-.53.37h-1.25l3.4-8.68h1.65l3.4 8.68zm-5.61-3.28h2.76l-1.05-2.88a13.18 13.18 0 0 1-.34-1.02 20 20 0 0 1-.32 1.03l-1.05 2.87zm9.27-.1V25H35v-3.37l-3.17-5.3h1.43a.5.5 0 0 1 .33.1c.08.06.15.15.2.25l1.6 2.9a7.26 7.26 0 0 1 .42.94 6.54 6.54 0 0 1 .42-.94l1.58-2.9a.8.8 0 0 1 .2-.24.5.5 0 0 1 .33-.12h1.43l-3.16 5.3z" opacity=".66"/><rect width="1" height="4" x="26"/></g><g transform="translate(279)"><path fill-rule="nonzero" d="M23.3 20.66c0 .64-.1 1.23-.31 1.77a4.05 4.05 0 0 1-2.28 2.33c-.54.23-1.14.34-1.8.34a4.7 4.7 0 0 1-1.8-.34 4.07 4.07 0 0 1-2.28-2.33 4.8 4.8 0 0 1-.32-1.77c0-.63.1-1.22.32-1.77a4.16 4.16 0 0 1 2.29-2.33 4.7 4.7 0 0 1 1.8-.33c.65 0 1.25.11 1.79.33a4.1 4.1 0 0 1 2.28 2.34c.21.54.32 1.13.32 1.76zm-1.65 0c0-.47-.06-.9-.19-1.28a2.5 2.5 0 0 0-.54-.96 2.34 2.34 0 0 0-.86-.6 2.96 2.96 0 0 0-1.14-.22c-.43 0-.81.07-1.15.21a2.42 2.42 0 0 0-1.42 1.57 4.2 4.2 0 0 0 .01 2.56 2.38 2.38 0 0 0 1.42 1.56c.33.15.71.22 1.14.22.42 0 .8-.07 1.14-.21a2.38 2.38 0 0 0 1.4-1.57c.13-.38.2-.8.2-1.28zm8.9 2.3a.3.3 0 0 1 .22.1l.64.69a3.5 3.5 0 0 1-1.3 1c-.52.23-1.13.35-1.85.35-.65 0-1.22-.11-1.74-.33a3.83 3.83 0 0 1-2.15-2.33 5.27 5.27 0 0 1 .03-3.57 4.1 4.1 0 0 1 2.32-2.32 4.84 4.84 0 0 1 3.5-.01c.48.2.9.48 1.24.82l-.54.75a.49.49 0 0 1-.13.12.35.35 0 0 1-.2.06.47.47 0 0 1-.29-.11 3.5 3.5 0 0 0-.92-.47c-.23-.07-.52-.1-.86-.1-.41 0-.79.06-1.13.2a2.5 2.5 0 0 0-.88.61 2.8 2.8 0 0 0-.58.97c-.14.38-.2.8-.2 1.27 0 .49.06.92.2 1.3s.33.7.56.96a2.5 2.5 0 0 0 1.87.8c.22 0 .42 0 .6-.03a2.53 2.53 0 0 0 .91-.31c.14-.09.27-.19.4-.3a.57.57 0 0 1 .13-.1c.04-.02.1-.03.14-.03zm8.19-6.64v1.33h-2.61V25h-1.61v-7.35h-2.63v-1.33h6.85z" opacity=".66"/><rect width="1" height="4" x="26"/></g><g transform="translate(1023)"><path fill-rule="nonzero" d="M19.34 21.92c0 .48-.06.92-.18 1.32-.12.39-.3.72-.54 1-.23.27-.53.49-.89.63-.35.15-.77.23-1.24.23a5.12 5.12 0 0 1-1.29-.17l.09-.96c0-.08.04-.15.1-.2.05-.06.14-.09.25-.09.07 0 .16.01.27.04.1.03.25.04.41.04.23 0 .43-.03.61-.1a.98.98 0 0 0 .44-.31c.12-.14.2-.33.27-.56.06-.23.09-.51.09-.84v-5.63h1.61v5.6zm5.25 1.78c.3 0 .59-.05.83-.16a1.74 1.74 0 0 0 1.02-1.12c.09-.27.13-.57.13-.9v-5.2h1.62v5.2a4 4 0 0 1-.25 1.43 3.23 3.23 0 0 1-1.85 1.88 4 4 0 0 1-1.5.27 4 4 0 0 1-1.5-.27 3.24 3.24 0 0 1-1.85-1.88 4 4 0 0 1-.25-1.43v-5.2h1.62v5.2c0 .33.04.63.13.9.1.26.22.5.39.68.17.2.37.34.62.44.25.1.52.16.84.16zm6.09-7.38l.18.01c.04 0 .09.02.13.04.03.02.07.04.1.08l.13.13 4.55 5.8a5.97 5.97 0 0 1-.04-.78v-5.28h1.42V25h-.83a.74.74 0 0 1-.32-.06.7.7 0 0 1-.25-.22l-4.53-5.77a8.32 8.32 0 0 1 .03.72V25h-1.42v-8.68h.85z" opacity=".66"/><rect width="1" height="4" x="26"/></g><g transform="translate(385)"><path fill-rule="nonzero" d="M1.8 16.32l.18.01c.05 0 .09.02.13.04.03.02.07.04.1.08l.13.13 4.55 5.8a5.97 5.97 0 0 1-.04-.78v-5.28h1.42V25h-.83a.74.74 0 0 1-.32-.06.7.7 0 0 1-.25-.22l-4.53-5.77a8.32 8.32 0 0 1 .03.72V25H.95v-8.68h.85zm16.54 4.34c0 .64-.1 1.23-.31 1.77a4.05 4.05 0 0 1-2.28 2.33c-.54.23-1.14.34-1.8.34a4.7 4.7 0 0 1-1.8-.34 4.07 4.07 0 0 1-2.28-2.33 4.8 4.8 0 0 1-.32-1.77c0-.63.1-1.22.32-1.77a4.16 4.16 0 0 1 2.29-2.33 4.7 4.7 0 0 1 1.8-.33c.65 0 1.25.11 1.79.33a4.1 4.1 0 0 1 2.28 2.34c.2.54.31 1.13.31 1.76zm-1.65 0c0-.47-.06-.9-.19-1.28s-.3-.7-.54-.96a2.34 2.34 0 0 0-.86-.6 2.96 2.96 0 0 0-1.15-.22c-.42 0-.8.07-1.14.21a2.42 2.42 0 0 0-1.42 1.57c-.13.38-.2.8-.2 1.28s.07.9.2 1.28.31.7.55.96c.24.27.53.47.87.6.34.15.72.22 1.14.22.43 0 .8-.07 1.15-.21.33-.14.62-.34.86-.6.23-.27.41-.59.54-.97.13-.38.19-.8.19-1.28zm1.74-4.34h1.3a.54.54 0 0 1 .54.37l2.04 5.3a7.16 7.16 0 0 1 .37 1.21c.1-.46.2-.87.34-1.22l2.04-5.29c.04-.1.1-.18.2-.25.08-.08.2-.12.33-.12h1.3L23.4 25h-1.46l-3.5-8.68z" opacity=".66"/><rect width="1" height="4" x="13"/></g></g><g transform="translate(0 1)"><g transform="translate(93)"><path fill-rule="nonzero" d="M23.06 25h-1.25a.55.55 0 0 1-.54-.37l-.64-1.77h-3.6l-.65 1.77a.57.57 0 0 1-.53.37H14.6l3.4-8.68h1.65L23.06 25zm-5.61-3.28h2.76l-1.05-2.88a13.18 13.18 0 0 1-.33-1.02 20 20 0 0 1-.33 1.03l-1.05 2.87zm8.17.23V25h-1.61v-8.68h2.83c.58 0 1.08.07 1.5.2.43.14.78.33 1.05.58.28.24.48.53.61.87a3.36 3.36 0 0 1 0 2.28 2.4 2.4 0 0 1-.64.9c-.28.25-.63.45-1.05.59-.42.14-.91.2-1.47.2h-1.22zm0-1.26h1.22c.3 0 .55-.04.77-.12.22-.07.4-.17.55-.31.14-.14.25-.3.32-.5a1.93 1.93 0 0 0 0-1.3 1.25 1.25 0 0 0-.32-.48 1.44 1.44 0 0 0-.55-.3c-.22-.07-.48-.1-.77-.1h-1.22v3.1zm7.5.92V25h-1.61v-8.68h2.65c.59 0 1.1.06 1.52.19.42.12.76.29 1.04.51.27.22.46.48.59.79.13.3.19.64.19 1.01a2.62 2.62 0 0 1-.5 1.54 2.96 2.96 0 0 1-1.42.94c.2.11.38.28.53.5l2.17 3.2h-1.45a.7.7 0 0 1-.35-.08.73.73 0 0 1-.25-.24L34.4 21.9a.64.64 0 0 0-.22-.22.79.79 0 0 0-.37-.07h-.69zm0-1.16h1.01c.3 0 .57-.04.8-.11.22-.08.4-.18.55-.32.15-.13.26-.29.33-.47.07-.19.11-.39.11-.61 0-.44-.14-.78-.44-1.01-.29-.24-.73-.36-1.32-.36h-1.04v2.88z" opacity=".66"/><rect width="1" height="4" x="26"/></g><path fill-rule="nonzero" d="M17.96 21.4a4.88 4.88 0 0 1 .36.82 13.53 13.53 0 0 1 .37-.83l2.57-4.8a.36.36 0 0 1 .1-.15.3.3 0 0 1 .1-.08.5.5 0 0 1 .15-.03h1.4V25H21.6v-5.6a7.12 7.12 0 0 1 .04-.72L19 23.6a.7.7 0 0 1-.24.26.6.6 0 0 1-.33.09h-.23a.6.6 0 0 1-.33-.1.7.7 0 0 1-.24-.25L15 18.66a5.32 5.32 0 0 1 .04.74V25H13.6v-8.68h1.21l.19.01c.05 0 .1.01.14.03.04.02.08.04.12.08a.6.6 0 0 1 .1.14l2.6 4.82zM32.4 25h-1.25a.55.55 0 0 1-.54-.37l-.64-1.77h-3.6l-.65 1.77a.57.57 0 0 1-.53.37h-1.25l3.4-8.68h1.65L32.4 25zm-5.61-3.28h2.76l-1.05-2.88a13.18 13.18 0 0 1-.33-1.02 20 20 0 0 1-.33 1.03l-1.05 2.87zm8.17-.11V25h-1.61v-8.68H36c.59 0 1.1.06 1.52.19.42.12.76.29 1.04.51.27.22.46.48.59.79.13.3.19.64.19 1.01a2.62 2.62 0 0 1-.5 1.54 2.96 2.96 0 0 1-1.42.94c.2.11.38.28.53.5l2.17 3.2h-1.45a.7.7 0 0 1-.35-.08.73.73 0 0 1-.25-.24l-1.83-2.78a.64.64 0 0 0-.22-.22.79.79 0 0 0-.37-.07h-.69zm0-1.16h1.01c.3 0 .57-.04.8-.11.22-.08.4-.18.55-.32.15-.13.26-.29.33-.47.07-.19.11-.39.11-.61 0-.44-.14-.78-.44-1.01-.29-.24-.73-.36-1.32-.36h-1.04v2.88z" opacity=".66"/><rect width="1" height="4" x="26"/><g transform="translate(186)"><path fill-rule="nonzero" d="M18.51 21.4a4.88 4.88 0 0 1 .36.82 13.53 13.53 0 0 1 .37-.83l2.57-4.8a.36.36 0 0 1 .1-.15.3.3 0 0 1 .1-.08.5.5 0 0 1 .15-.03h1.4V25h-1.42v-5.6a7.12 7.12 0 0 1 .04-.72l-2.63 4.92a.7.7 0 0 1-.23.26.6.6 0 0 1-.34.09h-.22a.6.6 0 0 1-.33-.1.7.7 0 0 1-.24-.25l-2.66-4.94a5.32 5.32 0 0 1 .05.74V25h-1.43v-8.68h1.22l.19.01c.05 0 .1.01.14.03.04.02.08.04.12.08a.6.6 0 0 1 .1.14l2.6 4.82zM32.94 25H31.7a.55.55 0 0 1-.54-.37l-.64-1.77h-3.6l-.65 1.77a.57.57 0 0 1-.53.37h-1.25l3.4-8.68h1.65l3.4 8.68zm-5.61-3.28h2.76l-1.05-2.88a13.18 13.18 0 0 1-.34-1.02 20 20 0 0 1-.32 1.03l-1.05 2.87zm9.27-.1V25H35v-3.37l-3.17-5.3h1.43a.5.5 0 0 1 .33.1c.08.06.15.15.2.25l1.6 2.9a7.26 7.26 0 0 1 .42.94 6.54 6.54 0 0 1 .42-.94l1.58-2.9a.8.8 0 0 1 .2-.24.5.5 0 0 1 .33-.12h1.43l-3.16 5.3z" opacity=".66"/><rect width="1" height="4" x="26"/></g><g transform="translate(279)"><path fill-rule="nonzero" d="M19.34 21.92c0 .48-.06.92-.18 1.32-.12.39-.3.72-.54 1-.23.27-.53.49-.89.63-.35.15-.77.23-1.24.23a5.12 5.12 0 0 1-1.29-.17l.09-.96c0-.08.04-.15.1-.2.05-.06.14-.09.25-.09.07 0 .16.01.27.04.1.03.25.04.41.04.23 0 .43-.03.61-.1a.98.98 0 0 0 .44-.31c.12-.14.2-.33.27-.56.06-.23.09-.51.09-.84v-5.63h1.61v5.6zm5.25 1.78c.3 0 .59-.05.83-.16a1.74 1.74 0 0 0 1.02-1.12c.09-.27.13-.57.13-.9v-5.2h1.62v5.2a4 4 0 0 1-.25 1.43 3.23 3.23 0 0 1-1.85 1.88 4 4 0 0 1-1.5.27 4 4 0 0 1-1.5-.27 3.24 3.24 0 0 1-1.85-1.88 4 4 0 0 1-.25-1.43v-5.2h1.62v5.2c0 .33.04.63.13.9.1.26.22.5.39.68.17.2.37.34.62.44.25.1.52.16.84.16zm6.09-7.38l.18.01c.04 0 .09.02.13.04.03.02.07.04.1.08l.13.13 4.55 5.8a5.97 5.97 0 0 1-.04-.78v-5.28h1.42V25h-.83a.74.74 0 0 1-.32-.06.7.7 0 0 1-.25-.22l-4.53-5.77a8.32 8.32 0 0 1 .03.72V25h-1.42v-8.68h.85z" opacity=".66"/><rect width="1" height="4" x="26"/></g></g><rect width="2560" height="1" x="24" transform="matrix(1 0 0 -1 0 1)"/></g></svg>