<svg xmlns="http://www.w3.org/2000/svg" xmlns:xlink="http://www.w3.org/1999/xlink" width="16" height="16" viewBox="0 0 16 16">
  <defs>
    <path id="filter-active-a" d="M10,12.8786797 L9.06066017,11.9393398 C8.47487373,11.3535534 7.52512627,11.3535534 6.93933983,11.9393398 C6.56369004,12.3149896 6.42893481,12.8403121 6.53507413,13.3233448 L6,12.91 L6,6.91 L1.29934387,2.29395568 L1.29934387,2.29395568 C1.10786578,2.1059242 1,1.84882142 1,1.58045657 L1,1 L1,1 C1,0.44771525 1.44771525,1.01453063e-16 2,0 L2,8.38119257e-18 L14,1.08955503e-16 L14,0 C14.5522847,-1.01453063e-16 15,0.44771525 15,1 L15,1.58105453 L15,1.58105453 C15,1.84906661 14.8924168,2.10586188 14.7013815,2.2938406 L10,6.92 L10,12.8786797 Z M8.35355339,12.6464466 L10,14.2928932 L14.6464466,9.64644661 C14.8417088,9.45118446 15.1582912,9.45118446 15.3535534,9.64644661 C15.5488155,9.84170876 15.5488155,10.1582912 15.3535534,10.3535534 L10.3535534,15.3535534 C10.1582912,15.5488155 9.84170876,15.5488155 9.64644661,15.3535534 L7.64644661,13.3535534 C7.45118446,13.1582912 7.45118446,12.8417088 7.64644661,12.6464466 C7.84170876,12.4511845 8.15829124,12.4511845 8.35355339,12.6464466 Z"/>
  </defs>
  <g fill="none" fill-rule="evenodd">
    <mask id="filter-active-b" fill="#fff">
      <use xlink:href="#filter-active-a"/>
    </mask>
    <use fill="#000" fill-rule="nonzero" xlink:href="#filter-active-a"/>
    <g fill="#297EF1" mask="url(#filter-active-b)">
      <rect width="16" height="16"/>
    </g>
  </g>
</svg>
