<svg xmlns="http://www.w3.org/2000/svg" width="16" height="16" viewBox="0 0 16 16">
  <g fill-rule="evenodd" transform="translate(-128 -192)">
    <path d="M128,192.998502 C128,192.447045 128.444631,192 129.000872,192 L142.999128,192 C143.551894,192 144,192.447489 144,192.998502 L144,204.001498 C144,204.552955 143.546964,205 143.00297,205 L136,205 L130,208 L130,205 L129,205 C128.447715,205 128,204.552511 128,204.001498 L128,192.998502 Z M132,197 C132,197.556135 132.446386,198 132.99703,198 L139.00297,198 C139.546964,198 140,197.552285 140,197 C140,196.443865 139.553614,196 139.00297,196 L132.99703,196 C132.453036,196 132,196.447715 132,197 Z M132,200 C132,200.556135 132.443586,201 132.990778,201 L137.009222,201 C137.549025,201 138,200.552285 138,200 C138,199.443865 137.556414,199 137.009222,199 L132.990778,199 C132.450975,199 132,199.447715 132,200 Z"/>
  </g>
</svg>
