<svg xmlns="http://www.w3.org/2000/svg" width="16" height="16" viewBox="0 0 16 16">
  <g fill-rule="evenodd" transform="translate(-192 -224)">
    <path d="M197.75,237 L194.006845,237 C193.45078,237 193,236.556135 193,236 C193,235.447715 193.453186,235 194,235 C194,235 194,234 194,233 C194,230.55051 195.333333,227.434354 198,226.373186 L198,225.99406 C198,224.892771 198.88773,224 200,224 C201.104569,224 202,224.894514 202,225.99406 L202,226.373186 C204.666667,227.434354 206,230.55051 206,233 L206,235 C206.552285,235 207,235.443865 207,236 C207,236.552285 206.550051,237 205.993155,237 L202.25,237 L197.75,237 Z M198,238 L198,238.00594 C198,239.105486 198.895431,240 200,240 C201.11227,240 202,239.107229 202,238.00594 L202,238 L198,238 Z"/>
  </g>
</svg>
