<svg width="162" height="129" viewBox="0 0 162 129" fill="none" xmlns="http://www.w3.org/2000/svg">
<g clip-path="url(#clip0_1292_77714)">
<path fill-rule="evenodd" clip-rule="evenodd" d="M28.1547 98.9168L77.588 127.434C78.6691 128.057 79.8768 128.365 81.0836 128.359V64.4038L25.6268 32.4131C25.023 33.4509 24.6895 34.6455 24.6895 35.8876V92.9199C24.6895 95.3947 26.0106 97.6798 28.1547 98.9168" fill="#F7B763"/>
<path fill-rule="evenodd" clip-rule="evenodd" d="M81.0839 64.4039L136.496 32.4383C135.897 31.3979 135.029 30.5115 133.952 29.8909L84.5188 1.37472C82.3747 0.137788 79.7324 0.137788 77.5882 1.37472L28.155 29.8909C27.0868 30.5063 26.2248 31.3832 25.6262 32.4132L81.0839 64.4039Z" fill="#FED683"/>
<path fill-rule="evenodd" clip-rule="evenodd" d="M81.0837 128.359C82.2697 128.354 83.4557 128.047 84.5187 127.435L133.952 98.9167C136.096 97.6806 137.417 95.3946 137.417 92.9207V35.8875C137.417 34.6558 137.089 33.4716 136.495 32.439L81.0837 64.4037V128.359Z" fill="#EDA25D"/>
<path fill-rule="evenodd" clip-rule="evenodd" d="M93.4591 83.7477C92.2783 84.4238 91.5913 85.8589 91.5861 88.0766L91.5653 96.7178C91.5601 98.9355 92.2419 99.5873 93.4435 98.8991C95.1016 97.9496 95.2099 95.9007 95.2749 94.5928C95.3399 93.3515 96.0451 92.6218 96.8741 92.1466C97.9934 91.5061 98.5106 91.6645 98.5054 93.6225C98.495 97.9591 96.2521 101.719 93.2876 103.417C90.5725 104.972 88.3192 104.179 88.3331 98.5693L88.353 89.929C88.3669 84.319 90.6306 80.938 93.3456 79.3825C96.3093 77.6851 98.5418 78.7524 98.5314 82.8925C98.5271 84.8496 98.0073 85.6027 96.9097 86.232C96.039 86.7297 95.3356 86.7756 95.2966 85.6261C95.2775 84.7891 95.2203 82.7385 93.4591 83.7477" fill="#3281EE"/>
<path fill-rule="evenodd" clip-rule="evenodd" d="M106.943 79.2794C106.949 77.0288 106.247 76.422 105.086 77.0868C103.926 77.7507 103.24 79.1539 103.234 81.4044L103.213 90.0456C103.208 92.2962 103.89 92.916 105.05 92.2512C106.211 91.5864 106.917 90.172 106.923 87.9215L106.943 79.2794ZM99.981 91.8983L100.002 83.2562C100.015 77.6462 102.238 74.2895 105.098 72.6526C107.957 71.0132 110.191 71.819 110.177 77.4281L110.156 86.0693C110.143 91.6784 107.9 95.0473 105.039 96.6859C102.18 98.3236 99.968 97.5065 99.981 91.8983V91.8983Z" fill="#3281EE"/>
<path fill-rule="evenodd" clip-rule="evenodd" d="M115.29 86.1891L120.926 82.9613C121.549 82.6047 121.897 83.5768 121.895 84.6207C121.893 85.6646 121.538 87.04 120.916 87.3967L112.088 92.4526C111.425 92.8335 111.156 92.4327 111.158 91.6502C111.159 91.1291 111.286 90.4046 111.515 89.655L117.398 70.0354L112.59 72.7897C111.969 73.1446 111.619 72.3041 111.622 71.1295C111.624 70.0536 111.917 68.7457 112.601 68.3536L120.599 63.772C121.221 63.4153 121.532 63.7919 121.53 64.5744C121.528 65.0963 121.402 65.7871 121.173 66.5704L115.29 86.1891Z" fill="#3281EE"/>
<path fill-rule="evenodd" clip-rule="evenodd" d="M126.598 74.4035C126.598 74.2088 126.558 74.0694 126.516 73.9941L122.253 65.2672C122.213 65.159 122.213 65.0291 122.213 64.9313C122.216 63.7255 123.524 62.0965 124.414 61.5858C124.933 61.2898 125.119 61.5096 125.345 61.9978L128.225 68.7183L131.127 58.6861C131.336 57.9477 131.543 57.5036 132.061 57.2068C132.952 56.696 134.256 56.8285 134.252 58.0351C134.252 58.1329 134.252 58.2636 134.211 58.4177L129.915 72.0482C129.873 72.1703 129.831 72.3573 129.831 72.552L129.811 80.7371C129.809 81.781 128.999 82.766 128.191 83.2283C127.383 83.6914 126.577 83.6325 126.579 82.5895L126.598 74.4035Z" fill="#3281EE"/>
<path fill-rule="evenodd" clip-rule="evenodd" d="M104.166 12.7292L47.7715 45.2618L57.4544 51.0145L113.9 18.482L104.166 12.7292Z" fill="#FFE5B8"/>
<path fill-rule="evenodd" clip-rule="evenodd" d="M47.7715 53.578V45.2622L57.4544 51.015V57.4853C57.4544 58.6045 56.2415 59.3039 55.2712 58.7439L48.4992 54.8374C48.0487 54.5777 47.7715 54.0982 47.7715 53.578" fill="#F7CD84"/>
<path fill-rule="evenodd" clip-rule="evenodd" d="M72.3899 97.6242C72.2036 94.6665 71.1865 91.4646 69.6428 88.455C67.963 85.1822 65.5416 81.9483 62.966 80.1781C62.4635 74.4834 59.4332 68.0477 55.0556 64.0859C54.2153 63.3233 53.3646 62.6914 52.5234 62.1824V62.1798C52.519 62.1781 52.5156 62.1764 52.5112 62.1738C52.5069 62.172 52.5026 62.1686 52.4991 62.166V62.1686C51.657 61.7323 50.808 61.4112 49.9668 61.2294C45.5893 60.2772 42.5581 63.3103 42.0565 68.4415C39.4809 67.3197 37.0586 67.8365 35.3806 69.2249C33.8359 70.4999 32.8189 72.5609 32.6317 75.3092C32.5676 76.2587 32.6127 77.2793 32.7582 78.3336C32.9098 79.7635 33.382 81.9829 34.0586 83.8552C35.8354 88.777 38.8649 92.1017 42.6144 95.0413C44.6857 96.6643 46.6514 98.0432 52.3163 101.223C52.3761 101.256 52.4376 101.291 52.4991 101.326C52.5026 101.328 52.5069 101.331 52.5112 101.333C52.5156 101.336 52.519 101.338 52.5234 101.34C52.5857 101.374 52.6464 101.409 52.7062 101.441C58.371 104.622 60.3367 105.449 62.4081 106.15C66.1584 107.421 69.1871 107.496 70.9639 104.569C71.6405 103.457 72.1135 101.768 72.2643 100.508C72.4089 99.616 72.4548 98.6474 72.3899 97.6242" fill="white"/>
<path fill-rule="evenodd" clip-rule="evenodd" d="M53.9005 103.591L52.4638 102.794L50.5148 101.697C50.3908 101.627 50.2686 101.557 50.1481 101.488L48.7819 100.699L47.5615 99.9766L46.7304 99.471L46.2118 99.1486L45.4812 98.6833L45.0221 98.3832L44.3694 97.9446L43.9546 97.6578L43.5534 97.3737L42.9717 96.9495L42.5032 96.5972L41.9485 96.1694L41.4138 95.7469C37.2122 92.3742 34.4972 88.8972 32.8362 84.2962C32.1731 82.4613 31.644 80.1503 31.4708 78.511C31.3123 77.3627 31.2653 76.2552 31.3352 75.2211C31.5398 72.2159 32.6649 69.7824 34.5517 68.2249C36.3349 66.7495 38.6448 66.1975 41.0022 66.7322L41.0667 66.4492C42.1666 61.7351 45.5494 59.0612 50.0018 59.9115L50.2414 59.9604C51.1644 60.1599 52.0983 60.5047 53.0334 60.9831L53.0548 60.9888C53.0978 61.0015 53.1107 61.0107 53.1222 61.0236L53.1291 61.0319L53.1989 61.0708C54.1337 61.6393 55.0485 62.3255 55.9279 63.1236C60.2734 67.0565 63.4399 73.363 64.1767 79.2781L64.1987 79.4688L64.2645 79.5173C66.6013 81.3104 68.859 84.2014 70.5935 87.469L70.7991 87.8628C72.4724 91.1249 73.494 94.4825 73.6866 97.5421C73.7568 98.6475 73.7093 99.7143 73.5545 100.662C73.368 102.221 72.8076 104.038 72.0749 105.242C70.06 108.562 66.7494 108.992 61.9872 107.379L61.7298 107.291L61.1485 107.084L60.775 106.944L60.3955 106.796L60.0079 106.639L59.6099 106.47L59.1992 106.29L58.5544 105.996L57.8685 105.669L57.3846 105.43L56.6133 105.039L55.7805 104.605L54.8788 104.124L53.9005 103.591ZM52.9433 100.086L55.0745 101.273L55.7027 101.616L56.5823 102.09L57.6485 102.651L58.3772 103.023L59.0527 103.357L59.4769 103.56L60.0791 103.839L60.4607 104.009L60.8289 104.167L61.1856 104.315L61.7038 104.519L62.2076 104.706L62.8255 104.921C62.9168 104.952 63.0071 104.982 63.0963 105.011L63.6202 105.174C66.8643 106.14 68.7132 105.773 69.8535 103.895C70.3764 103.035 70.8287 101.568 70.9816 100.3L71.032 99.9505C71.1215 99.244 71.1429 98.4908 71.093 97.7058C70.9244 95.0281 70.006 92.0098 68.4865 89.0475C66.7723 85.7077 64.4577 82.7793 62.2296 81.248C61.9103 81.0285 61.7057 80.678 61.6716 80.2922C61.187 74.7993 58.23 68.7107 54.182 65.0471C53.4224 64.3577 52.64 63.7708 51.8478 63.289L51.9421 63.3471L51.9105 63.3356C51.9001 63.3303 51.8947 63.3251 51.8867 63.3142L51.5765 63.1598C51.0378 62.9026 50.51 62.706 49.9967 62.5714L49.6905 62.4982C46.2393 61.7475 43.7926 64.0385 43.3499 68.5678C43.2641 69.4455 42.3463 69.9842 41.5373 69.6318C39.5593 68.7703 37.6353 69.0452 36.2083 70.226C34.9032 71.3033 34.0868 73.0689 33.9283 75.3966C33.871 76.2463 33.9105 77.1774 34.0505 78.1969C34.2067 79.67 34.6891 81.7768 35.281 83.4147C36.812 87.6555 39.3442 90.8271 43.4152 94.0188L43.8136 94.3287L44.3464 94.7343L44.7083 95.0027L45.2687 95.4063L45.6576 95.6782L46.0615 95.9541L46.7006 96.3782L47.1524 96.67L47.6275 96.9707L48.389 97.4415L49.2164 97.9403L50.1177 98.4718L51.4481 99.2399L52.9433 100.086Z" fill="#3281EE"/>
<path fill-rule="evenodd" clip-rule="evenodd" d="M59.4873 91.0124C59.0775 90.3961 58.5967 89.3496 58.6131 88.9748C58.6313 88.5879 58.4997 88.1681 58.2519 87.821C57.9885 87.4531 57.6307 87.2306 57.3397 87.254C57.059 87.2774 56.8805 87.5292 56.8623 87.9274C56.8372 88.4727 56.9689 89.025 57.1595 89.5617C54.3006 89.8837 50.4974 87.6755 47.7971 84.0946C47.9695 83.7276 48.0613 83.248 48.0016 82.6083C47.934 81.8769 47.4263 81.239 46.9949 81.0658C46.5435 80.8849 46.2568 81.1957 46.3131 81.8051C46.3789 82.5079 45.944 82.7347 45.3688 82.958C45.1158 83.0576 44.9868 83.3666 45.0231 83.7864C45.0595 84.2106 45.2597 84.6806 45.5325 84.9844C45.6287 85.0917 45.7292 85.174 45.8288 85.2302C45.9943 85.3237 46.1598 85.3445 46.307 85.2874C46.4465 85.232 46.612 85.1679 46.7835 85.0813C48.4893 87.3639 50.5563 89.1912 52.6286 90.3537C54.5605 91.4383 56.4941 91.9438 58.1367 91.7031C58.2545 91.9144 58.3818 92.1264 58.5222 92.3376C58.6773 92.5722 58.8488 92.7393 59.0177 92.8336C59.262 92.9712 59.4994 92.9531 59.6666 92.7583C59.9378 92.4398 59.9447 91.7014 59.4873 91.0124" fill="#3281EE"/>
<path fill-rule="evenodd" clip-rule="evenodd" d="M114.042 100.946C114.042 88.0127 124.534 77.5286 137.478 77.5286C150.421 77.5286 160.914 88.0127 160.914 100.946C160.914 113.878 150.421 124.362 137.478 124.362C124.534 124.362 114.042 113.878 114.042 100.946" fill="#CBF7D8"/>
<path fill-rule="evenodd" clip-rule="evenodd" d="M127.86 111.242V111.242C127.86 112 128.475 112.615 129.234 112.615H145.722C146.481 112.615 147.096 112 147.096 111.242C147.096 110.484 146.481 109.868 145.722 109.868H129.234C128.475 109.868 127.86 110.484 127.86 111.242M143.778 97.5129H141.6V90.6487C141.6 89.8905 140.984 89.2759 140.226 89.2759H134.73C133.971 89.2759 133.356 89.8905 133.356 90.6487V97.5129H131.177C129.953 97.5129 129.339 98.9922 130.206 99.8569L136.506 106.152C137.043 106.688 137.912 106.688 138.45 106.152L144.75 99.8569C145.616 98.9922 145.003 97.5129 143.778 97.5129" fill="#35CE68"/>
</g>
<defs>
<clipPath id="clip0_1292_77714">
<rect width="161.136" height="128.108" fill="white" transform="translate(0.432373 0.446045)"/>
</clipPath>
</defs>
</svg>
