<?xml version="1.0" encoding="UTF-8"?><svg width="192px" height="112px" viewBox="0 0 192 112" version="1.1" xmlns="http://www.w3.org/2000/svg" xmlns:xlink="http://www.w3.org/1999/xlink"><!--Generator: Sketch 50.2 (55047) - http://www.bohemiancoding.com/sketch--><title>Group 5</title><desc>Created with Sketch.</desc><defs><polygon id="path-1" points="0 0.000275226654 45.5542014 0.000275226654 45.5542014 45.8257088 0 45.8257088"/></defs><g id="📱fusion-app-connecteur---1---201806" stroke="none" stroke-width="1" fill="none" fill-rule="evenodd"><g id="430-mobile---interapp-1-connecteur---pedagogic-modal" transform="translate(-69.000000, -102.000000)"><g id="Group-5" transform="translate(69.000000, 102.000000)"><path d="M82.7643965,30.251519 C82.1849776,28.1337009 80.5777198,23.0381732 80.4912269,22.7954891 C80.1729663,21.9129249 79.5616374,21.7424581 79.1417686,21.8734572 C78.6295286,22.0271292 78.3305821,22.577997 78.4615811,23.1297046 L78.4615811,23.1305444 C78.6177723,23.7855397 78.7622072,24.4413747 78.9091613,25.0988892 C78.9603852,25.3306568 79.0107695,25.5615847 79.0628332,25.7925125 C76.2387957,22.1505706 71.0038717,20.8095097 69.2185896,20.446743 C68.8768164,20.3770448 68.5316842,20.315744 68.2176224,20.2670392 C67.6113318,20.1217646 67.0042016,20.0000026 66.4155455,19.905952 C64.1012287,19.5364675 61.7894312,19.5196727 59.4751144,19.8639652 C57.8166327,20.110848 55.2982597,20.4786531 54.6961678,22.443639 C54.6054762,22.8542707 54.6869307,23.2203963 54.9119804,23.4219333 C55.0614537,23.5546118 55.2638304,23.595759 55.4930788,23.5176634 C55.9137873,23.374908 56.8987995,23.0373335 58.0400029,22.834117 C61.3704021,22.2337046 64.7100385,22.2916465 67.9631819,23.0087824 C70.1389419,23.4874328 72.2273693,24.2499145 74.173881,25.2718752 C75.1588932,25.7899933 76.4613262,26.5264431 77.6369588,27.5013785 C76.6939335,27.0504394 75.7307545,26.5860645 74.801165,26.0964975 C74.3132775,25.8386981 73.8245502,25.8252623 73.4651425,26.0620683 C73.1678754,26.2560476 73.0066458,26.5902632 73.0318379,26.9547093 C73.0671069,27.4459558 73.4164377,27.8817796 73.991658,28.1513354 C74.2931238,28.293251 74.5937498,28.4393653 74.8926964,28.5846399 C75.5350956,28.8970223 76.1993281,29.2194816 76.8333299,29.4789605 C78.3944021,30.3623644 80.0243328,31.0148405 81.8415249,31.7151817 C81.9775624,31.7689249 82.1211575,31.7790017 82.2555155,31.7504506 C82.375598,31.7252585 82.4872831,31.6681563 82.580494,31.5841826 C82.782031,31.4002801 82.9785296,31.0207187 82.7643965,30.251519" id="Fill-52" fill="#3281EE" transform="translate(68.758519, 25.691435) rotate(-16.000000) translate(-68.758519, -25.691435) "/><g id="Group-14" transform="translate(0.000000, 14.000000)"><g id="Group-49-Copy"><mask id="mask-2" fill="white"><use xlink:href="#path-1"/></mask><g id="Clip-48"/><path d="M0.604571429,28.8104571 C2.10121429,34.7469214 6.45971429,40.0944214 10.07975,42.3492429 C19.9705714,48.4992786 34.3578929,46.4194214 40.92275,36.6666 C47.5442857,26.8423143 48.6351429,11.3945286 33.5906786,2.74488571 C20.7878929,-4.61757857 4.93432143,3.70595714 0.924107143,17.3309929 C-0.156892857,20.9822429 -0.323642857,25.1140286 0.604571429,28.8104571" id="Fill-47" fill="#BBD9FD" mask="url(#mask-2)"/></g><path d="M12,29.2502068 C12,27.8748966 14.7497932,23.7506203 17.4995865,23.7506203 C20.2502068,23.7506203 18.8748966,25.1251034 23,25.1251034 C27.1251034,25.1251034 25.7497932,23.7506203 28.4995865,23.7506203 C31.2493797,23.7506203 34,27.8748966 34,29.2502068 C34,30.6246899 34,32 32.6246899,32 L13.3753101,32 C12,32 12,30.6246899 12,29.2502068 M23,22.3753101 C19.9624088,22.3753101 17.4995865,19.6048417 17.4995865,16.1876551 C17.4995865,12.7704684 19.9624088,10 23,10 C26.0375912,10 28.4995865,12.7704684 28.4995865,16.1876551 C28.4995865,19.6048417 26.0375912,22.3753101 23,22.3753101" id="Fill-50-Copy" fill="#3281EE"/></g><g id="Group-4" transform="translate(91.000000, 0.000000)"><path d="M13.9534046,107.867231 C16.3139069,109.402272 22.3658957,110.734935 27.2414121,111.269008 C40.5529322,112.729312 59.1606773,111.964311 67.0416145,109.304862 C74.9872115,106.626099 75.340741,102.561769 55.1383343,100.527085 C37.9388291,98.7930272 17.8674214,101.219029 13.5763624,104.855093 C12.4242424,105.828349 12.489742,106.914129 13.9534046,107.867231" id="Fill-1" fill="#BBD9FD"/><path d="M27.1218334,69.2778467 C26.9648025,69.2560135 26.84472,69.2954812 26.7397528,69.3551025 C25.7900096,69.2518148 24.7940808,69.6019854 24.022362,70.4408832 C22.5796928,72.0011157 22.7165701,74.7235449 24.4203976,75.98735 C26.0007838,77.1571044 28.8365776,76.1939254 29.8157116,74.4917773 C31.1282214,72.2169282 29.3160677,69.5952675 27.1218334,69.2778467" id="Fill-3" fill="#FF9300"/><path d="M62.8615688,15.1517211 C62.4123092,12.6148739 61.766551,10.1754362 60.5699249,8.19533496 C58.4521067,4.71126373 54.6724479,4.42827216 50.6005603,5.18235651 C48.7447403,5.46786729 46.8931189,6.05232465 45.2942585,6.51502006 C37.5602754,8.75460019 9.57602049,16.4827052 8.42809922,16.9386827 C4.18994364,18.6710613 3.95481712,21.8914549 4.87097082,25.5611082 C4.95830353,26.1514437 17.1000692,77.0168682 17.9305697,79.705708 C19.059177,83.3484896 20.9208752,86.6377417 24.3957093,87.0021878 C27.8772614,87.3809095 70.2630158,75.7874924 72.230521,75.0989076 C74.6405678,74.2516124 75.7179511,72.8845196 75.9849877,71.2445121 C76.3527928,70.3661466 76.2142361,69.3643396 76.0261348,68.1097717 C75.5382473,64.8121222 65.1204629,20.9912562 62.8615688,15.1517211" id="Fill-5" fill="#FFB15C"/><path d="M70.8218612,43.1492439 C68.6696137,37.4541436 66.7894413,31.6733901 65.1460749,25.8296562 C63.7202004,21.5050077 62.4555556,17.1282954 61.3899286,12.6902823 C60.6383635,9.98632727 59.9766503,7.25885961 59.436699,4.49528322 C59.1318743,4.06953627 58.7859024,3.75211546 58.3702323,3.64378932 C58.0267796,3.54805923 57.7001217,3.59088585 57.3810214,3.66982118 C57.3331564,3.67318013 57.2852913,3.65806485 57.2340674,3.67653908 C57.1047478,3.73364124 56.9939024,3.77898707 56.8629033,3.82769185 C56.6890777,3.89235164 56.5076943,3.95533196 56.3271508,4.00067779 C56.2893626,4.01579306 56.259132,4.06701706 56.2230233,4.0947284 C47.5594507,7.65185679 26.0630083,14.2782261 16.8359718,18.1065897 C16.3825135,18.3257612 15.891267,18.4811127 15.5301798,18.9337312 C15.0045041,19.4568877 14.6736475,20.2621961 14.7928902,21.4806553 C14.9028958,22.6856787 15.3462773,23.830241 15.6687365,24.9882392 C15.702326,25.1032832 15.7644666,25.1906159 15.8123316,25.2880255 C20.9775575,41.8216187 26.1511808,58.3501736 31.3273232,74.8720105 C31.3667909,75.0055288 31.4247328,75.0895025 31.4734376,75.1927903 C31.4734376,75.1927903 31.4742773,75.1961492 31.4734376,75.2028671 C31.5943598,75.6244154 31.7169614,76.0409252 31.8521592,76.4465185 C32.16958,77.5281005 32.5483017,78.5441829 33.081535,79.2974276 C33.2469633,79.5963741 33.4283466,79.8835644 33.6332426,80.1245691 C34.60146,81.2548559 35.9693926,81.0256075 37.0551733,80.4806178 C46.0176925,76.7362279 66.1067346,67.2564304 74.876954,63.5666234 C75.8099024,63.3096637 76.7881967,62.7831483 77.1946297,61.5621698 C77.4767815,60.6980799 77.4339549,59.744138 77.2441742,58.7641642 C74.6317506,53.7509308 72.7473794,48.2372139 70.8218612,43.1492439" id="Fill-7" fill="#BBD9FD"/><path d="M20.0210124,8.10413946 C19.8421483,9.20587516 20.0999478,11.5512622 20.1175823,12.6605556 C20.1226207,12.7730804 20.1562102,12.8713297 20.1780434,12.9662201 C20.8775448,27.491161 21.5778859,42.0186212 22.2899834,56.5444019 C22.3605213,58.006385 23.0163564,64.6881769 23.2833929,66.3256652 C23.2850724,66.3315434 23.2909506,66.3399408 23.2943095,66.3500176 C23.3102645,66.4801769 23.3514117,66.6170542 23.4672955,66.7396559 C24.2675654,67.6180214 24.8385869,68.6660139 25.7337472,69.4503288 C25.9755916,70.0347861 27.0479365,70.0171516 27.1772561,69.2210804 C27.3040565,68.4342463 27.6718615,67.7288667 28.0438653,67.0243269 C28.1060059,67.017609 28.1765438,67.0050129 28.2428831,66.9957758 C28.7055785,67.6121432 29.1573573,68.2352285 29.7426544,68.7483082 C29.9777809,69.3336052 31.056004,69.3109323 31.1811249,68.5148611 C31.3096047,67.7557383 31.6538972,67.0747112 32.0091062,66.3945237 C32.0561315,66.3886455 32.0997978,66.3810879 32.1426244,66.37437 C32.591884,66.9731029 33.0285476,67.574355 33.5987294,68.0714797 C33.8355354,68.6534178 34.9129187,68.6349436 35.0397191,67.8388724 C35.1598016,67.0957046 35.4973761,66.4197158 35.8492261,65.7512847 C35.9063283,65.7437271 35.9592317,65.7353297 36.0188531,65.7202144 C36.4630743,66.3122294 36.8972186,66.9034047 37.4564838,67.3912922 C37.6932898,67.9799483 38.7664745,67.9581151 38.8966338,67.1586849 C39.017556,66.4272735 39.3492524,65.7588424 39.6943845,65.0971291 C39.782557,65.0786549 39.8707294,65.0652191 39.9597416,65.0501038 C40.3964051,65.6328817 40.8271905,66.2156596 41.382257,66.7018677 C41.6232617,67.2880045 42.6964464,67.2678508 42.8257659,66.4692604 C42.9450087,65.7386887 43.2725063,65.0727768 43.619318,64.4119033 C43.6722214,64.4043456 43.7259646,64.3942688 43.7797078,64.3833522 C44.2188906,64.9661301 44.6488362,65.5497477 45.1988644,66.0309173 C45.4407088,66.6220926 46.5138934,66.5943813 46.6415335,65.7999895 C46.7599365,65.0702575 47.0907931,64.4077046 47.4317266,63.7468311 C47.5501296,63.7258377 47.6710518,63.7031648 47.7902945,63.68637 C48.2244389,64.2641095 48.6543845,64.8452079 49.2077716,65.328057 C49.4420584,65.9150336 50.515243,65.8932004 50.6479215,65.0946099 C50.7654848,64.3707561 51.091303,63.7065237 51.4364351,63.0523681 C51.5069731,63.0422913 51.5791905,63.0254965 51.6488887,63.0145799 C52.086392,63.5956784 52.5104595,64.1725781 53.0621671,64.649549 C53.2998128,65.2365256 54.3721577,65.2163719 54.5031568,64.4203007 C54.6223995,63.6998058 54.9456985,63.0397721 55.2824332,62.3931741 C55.3622083,62.3746999 55.4436629,62.3663025 55.5158803,62.352027 C55.9466657,62.924728 56.3724126,63.4991085 56.9174023,63.971041 C57.1558878,64.5588574 58.2307519,64.5370242 58.3609112,63.740953 C58.476795,63.0322144 58.7916966,62.3856165 59.1217135,61.7507749 C59.2325588,61.7264225 59.353481,61.7096277 59.4710443,61.6903138 C59.8909131,62.2512585 60.3107819,62.8164019 60.8465345,63.2807768 C61.0808212,63.8669136 62.1573648,63.8484394 62.2908831,63.0523681 C62.4017285,62.3705012 62.6939571,61.7457365 63.0155766,61.1285293 C63.142377,61.1041769 63.2674979,61.0915809 63.3900996,61.068908 C63.8024107,61.6138977 64.204645,62.1521694 64.7202439,62.6039483 C64.9604089,63.1892454 66.0361127,63.1682519 66.1620734,62.3721807 C66.3526938,61.2234197 67.0538747,60.2358883 67.5165701,59.1954534 C67.9733873,58.3632735 67.2461746,57.295967 66.9396704,55.3880832 C66.2107781,50.8241095 65.6918203,46.1602069 65.222407,41.759982 C64.6245138,36.1589323 64.291138,30.5570429 64.1794529,24.9417177 C63.9149356,20.7413503 63.8024107,16.5359445 63.884705,12.3145837 C63.8427182,9.71979456 63.884705,7.1308836 64.0476141,4.52937657 C64.0249412,4.46807573 63.9879928,4.42189016 63.9636404,4.36898669 C63.9376085,4.30264742 63.9191343,4.23126973 63.8679103,4.16493046 C63.8460771,4.13805886 63.8343208,4.11286673 63.8124876,4.09103355 C63.7679815,4.01041874 63.718437,3.93316289 63.6655335,3.86514414 C63.0659609,2.98761837 62.6057847,2.02611884 61.8693348,1.24600262 C61.6879515,0.638872352 60.6181258,0.554058857 60.4098709,1.33501481 C60.1898597,2.16635501 59.6994529,2.88349091 59.2317191,3.60398575 C58.7950555,2.89860619 58.3919815,2.16887423 57.814242,1.56174396 C57.6328587,0.950414995 56.5638728,0.873159138 56.3572973,1.6499164 C56.1482027,2.43255183 55.7014623,3.11357901 55.2564014,3.79460619 C54.8466094,3.12113664 54.4578109,2.44178894 53.9094623,1.85901106 C53.7339571,1.25356026 52.659093,1.17462493 52.4525176,1.95558088 C52.2434229,2.73485736 51.798362,3.41420506 51.3549806,4.09607198 C50.9451886,3.41756401 50.5513517,2.74073552 50.0046825,2.16635501 C49.8258184,1.55502605 48.7559928,1.47441125 48.5477378,2.25704667 C48.3344445,3.06319475 47.8658709,3.76017694 47.4124126,4.45547966 C46.9908644,3.76521537 46.5936685,3.06319475 46.0327238,2.46950028 C45.8513405,1.86488922 44.7798353,1.78259494 44.5732599,2.56103168 C44.3708831,3.33191078 43.9333798,4.00286111 43.4908381,4.67045248 C43.0902833,4.00538032 42.700645,3.34282737 42.1657322,2.77348529 C41.9877078,2.16131659 40.9153629,2.08238126 40.710467,2.86333721 C40.4887763,3.6921582 39.9958503,4.4092941 39.5272767,5.13062868 C39.0914529,4.41853121 38.6875391,3.6921582 38.1123189,3.08334845 C37.9334548,2.47705792 36.8602702,2.39728285 36.6545345,3.17320037 C36.4496385,3.95751528 35.9961802,4.63938219 35.5536385,5.3187299 C35.1438465,4.64274114 34.7525288,3.96003449 34.2058597,3.38733346 C34.0269956,2.77852371 32.9571699,2.6979089 32.7514342,3.4755059 C32.5431793,4.25562212 32.0964389,4.94000825 31.6505382,5.61683674 C31.2432655,4.9433672 30.8494286,4.26401949 30.3027594,3.68628004 C30.1272542,3.08082924 29.0540696,2.99601575 28.8466544,3.78117038 C28.6375598,4.58563899 28.1639478,5.28346092 27.7079703,5.98212259 C27.2881015,5.28765961 26.8867069,4.59067741 26.3308006,3.99446373 C26.1510968,3.38733346 25.0762327,3.30419944 24.8738559,4.0876746 C24.7260621,4.63182455 24.464064,5.12559025 24.1693161,5.60592015 C23.9123564,5.19948716 23.6428006,4.80565023 23.3102645,4.4496015 C23.1305607,3.84834939 22.0582158,3.7635359 21.8508006,4.53777395 C21.5560527,5.66470178 20.7633405,6.58253496 20.1973573,7.57594452 C20.1906394,7.59777769 20.1914792,7.61037376 20.1780434,7.62968772 C20.1125438,7.73549466 20.0537622,7.87825005 20.0210124,8.10413946" id="Fill-9" fill="#FFE2A1"/><path d="M77.3995256,22.0245533 C77.6329727,19.7169545 77.6699211,17.4379067 77.1182136,15.4443696 C76.1424385,11.9099142 72.9405191,10.7267239 69.2263598,10.384111 C67.5426859,10.1716574 65.8035894,10.2287595 64.3063373,10.2354774 C56.9359605,10.2766246 30.6555331,10.13135 29.8132764,10.2254006 C25.7212351,10.6838973 24.7236269,13.4164034 24.6228584,16.8165008 C24.5556794,17.3539329 22.5932126,64.3859554 22.6570327,66.9160847 C22.7468846,70.3472525 23.5479943,73.6482609 26.4677618,74.8280922 C29.3850102,75.9986864 68.9366503,76.3572544 70.8210214,76.2438898 C73.1025884,76.0994549 74.3773101,75.180782 75.0012351,73.8229263 C75.5420261,73.1460978 75.6612689,72.2542965 75.81746,71.1223303 C76.2003804,68.1446208 77.9277206,27.6298017 77.3995256,22.0245533" id="Fill-11" fill="#B7F6F7"/><path d="M80.0171556,57.6641919 C80.1489944,51.5760945 80.566344,45.5115097 81.225538,39.4788349 C81.5211256,34.9341751 81.9838211,30.3995921 82.6556111,25.8851629 C82.9688332,23.0972341 83.372747,20.3185425 83.9068201,17.5558058 C83.7808595,17.0477646 83.5784827,16.6228574 83.2341903,16.3684169 C82.950359,16.1509248 82.6329382,16.0669511 82.3079598,16.022445 C82.2617742,16.0081694 82.2231463,15.9754197 82.1694031,15.9737402 C82.0274874,15.9779389 81.9074049,15.9754197 81.769688,15.9754197 C81.5815868,15.9695415 81.3926458,15.9619839 81.2070638,15.9367918 C81.1650769,15.9325931 81.1188913,15.9720607 81.0743853,15.9812978 C71.7079523,16.0425987 49.292837,14.1548686 39.3058379,14.2564769 C38.8036749,14.2909061 38.288076,14.249759 37.7842334,14.53443 C37.1023665,14.82246 36.4943965,15.4480645 36.1492644,16.6228574 C35.7999335,17.7808555 35.7806196,19.0085518 35.6504602,20.2018189 C35.6378642,20.3193822 35.6630563,20.4251891 35.6697742,20.5335153 C34.278329,37.7993597 32.9011594,55.0635246 31.5273487,72.3226512 C31.5122334,72.4612079 31.5332269,72.5619764 31.542464,72.6761807 C31.542464,72.6761807 31.542464,72.6786999 31.5382653,72.6812191 C31.4920797,73.1204019 31.4500928,73.5537065 31.4215418,73.9828124 C31.3148951,75.1021826 31.2846645,76.1846043 31.4987976,77.081444 C31.542464,77.4223775 31.6020853,77.7565931 31.7028539,78.0563794 C32.1764659,79.465459 33.5301228,79.7660851 34.7418642,79.6653166 C44.4551088,79.5443944 66.6300591,78.2612754 76.1451256,78.1168405 C77.1057854,78.2285256 78.2108801,78.1050842 79.0422203,77.1234309 C79.6291969,76.4298077 79.9449382,75.5270898 80.1372381,74.5462763 C79.5863703,68.918355 79.8995924,63.1031723 80.0171556,57.6641919" id="Fill-13" fill="#FF8E8E"/><path d="M72.3783148,28.3316544 C72.2280017,25.7419037 71.871953,23.2302485 70.9079343,21.1141098 C69.2041067,17.3848352 65.4681142,16.6576225 61.3105734,16.9271783 C59.4203241,16.9918381 57.5057225,17.3579636 55.8522792,17.6317181 C47.7286578,18.9778174 18.7216025,23.4435419 17.8054488,23.6870658 C17.2848115,23.8323404 15.8287065,24.3034332 15.4096775,24.5007715 C12.2564629,25.9770302 12.8132089,28.5499861 13.2397956,31.8761867 C13.2549108,32.4782785 19.3740786,84.7049177 19.8846391,87.4894875 C20.5874994,91.2599093 22.054521,94.7607753 25.48149,95.539212 C28.915177,96.3302448 72.6117618,89.7534201 74.6548434,89.3016412 C77.1597806,88.7373376 78.3983935,87.4995644 78.8585697,85.8914669 C79.3338612,85.059287 79.3078293,84.0432045 79.2700411,82.7726815 C79.174311,79.4170902 73.9461048,34.4281492 72.3783148,28.3316544" id="Fill-15" fill="#FEC267"/><path d="M22.8985412,70.0126171 C20.4204756,55.2836199 17.7165206,40.4992 15.6180164,25.724857 C15.5961832,25.5459929 15.4903763,24.9287858 15.404723,24.8011456 C15.4290754,24.3476873 13.9939639,24.9615355 12.6596209,24.841453 C12.6184737,24.841453 12.096157,24.7725946 12.0550098,24.7725946 C11.6183463,24.6877811 11.1900801,24.5954099 10.7441794,24.4366995 C8.57849622,23.6523846 7.71020756,21.8343528 7.73623943,19.8147839 C7.76395077,18.0043097 9.18310728,17.206559 9.12852434,16.7237098 C9.09913352,16.4633912 7.53218319,17.2728982 7.35079988,17.3350388 C7.10475676,17.4139741 5.44375583,18.4871588 4.68715226,19.8114249 C3.92635002,21.1457679 4.16567523,23.0385365 4.20934158,24.7154924 C4.35797513,30.3686058 9.08905667,65.2504652 10.0043706,72.5469451 C9.98841562,72.6384765 10.2227024,74.4346752 10.3377465,75.2374643 C10.5678346,77.0059516 10.8071598,78.7761185 11.0574016,80.5437661 C11.2513809,81.9276536 12.0650867,89.7775205 12.2330342,90.1394474 C14.2996284,94.6244858 20.089619,96.1544877 24.7333678,95.830349 C24.9970454,95.846304 25.2523256,95.8202722 25.6612779,95.7690482 C26.176037,95.7035486 26.8948524,95.7892019 27.7043594,95.625453 C27.6153472,94.1273612 24.0850904,77.0571756 22.8985412,70.0126171" id="Fill-17" fill="#FF9300"/><path d="M45.7650154,62.336072 C45.6776827,62.0791123 45.8153997,61.8339089 46.095872,61.7826849 L55.8267511,59.999922 C56.0979864,59.9478583 56.329754,60.1367993 56.329754,60.4055153 C56.329754,60.4055153 56.8117633,65.3566081 51.9429648,66.2509286 C47.0716471,67.1402107 45.7650154,62.336072 45.7650154,62.336072" id="Fill-19" fill="#3281EE"/><path d="M45.1892913,43.7716574 C42.9648265,39.855961 38.1976362,37.7011944 34.0048265,39.3764709 C33.0189746,39.5956424 32.112058,40.0482609 31.3478968,40.6747052 C31.2765191,40.7192112 31.2135388,40.7796724 31.1463598,40.8283771 C31.0867384,40.8804409 31.0254376,40.9325046 30.9700149,40.9828888 C30.1999755,41.5665065 29.5827684,42.3138729 29.1351883,43.2392637 C29.049535,43.3870575 28.9605228,43.5331719 28.8857862,43.6851644 C28.8681517,43.7372281 28.8278443,43.7682984 28.8135688,43.8195224 C28.7589858,43.9614381 28.7354732,44.1016742 28.6859286,44.2461091 C28.441565,44.8700341 28.2794957,45.5183115 28.2072782,46.2035374 C27.9645941,47.6646808 27.9956644,49.1275037 28.492789,50.6952937 C29.3652764,53.4445946 32.6805603,54.8209245 35.2358818,55.2441522 C37.1017787,55.5514962 39.2263148,55.1114737 41.0535838,54.3204409 C43.6660074,53.1859554 44.4721555,51.7180941 45.1557018,49.7682234 C45.8543635,47.7730069 46.3011039,45.7257267 45.1892913,43.7716574" id="Fill-21" fill="#BBD9FD"/><path d="M69.7861288,39.8157376 C68.7507324,37.7902905 67.0947699,36.5147291 65.0961944,35.7816382 C65.0516883,35.7522474 65.023977,35.7169784 64.9752722,35.6833889 C63.7341401,34.7991453 62.0462675,34.4649297 60.4658814,34.6832615 C56.7643182,34.9259456 53.3961307,38.1219869 52.2843182,41.7756851 C51.7200145,43.6373833 51.7871935,45.9357451 52.7402957,47.6622455 C54.1686893,50.2519963 56.5426274,51.523359 59.3582675,52.1128547 C64.0599583,53.1037451 69.219306,49.8673964 70.3899002,45.2765511 C70.8433585,43.5055445 70.6216677,41.4423093 69.7861288,39.8157376" id="Fill-23" fill="#BBD9FD"/><path d="M40.0229738,49.9015738 C39.1462878,49.9998231 38.355255,49.3649814 38.2561659,48.4840967 C38.1654743,47.7904735 37.7657592,46.6257575 36.1601809,46.8046216 C34.4093281,46.995242 34.4328407,48.4580649 34.479866,48.9006066 C34.5781153,49.7831708 33.9441135,50.5708446 33.0665877,50.6699336 C32.1882222,50.764824 31.3963496,50.1341811 31.2981003,49.2524566 C31.0747301,47.2152532 32.0908126,44.035167 35.8100104,43.6211764 C39.5275286,43.2139037 41.2137217,46.0975625 41.4362522,48.1314069 C41.5353412,49.0114519 40.9038585,49.8050039 40.0229738,49.9015738" id="Fill-25" fill="#3281EE"/><path d="M64.8534263,46.3277346 C63.9717018,46.4268236 63.1831883,45.7928217 63.0874582,44.9127768 C62.9934076,44.220833 62.5945322,43.0569567 60.9881142,43.2333016 C59.2372614,43.4289604 59.260774,44.8884244 59.3077993,45.3318058 C59.4035294,46.2093316 58.7728865,47.0012041 57.8920017,47.0986137 C57.0169952,47.1918246 56.2242829,46.5603419 56.1268734,45.6811366 C55.9026634,43.648132 56.9162267,40.4646868 60.6362642,40.0548948 C64.3563017,39.6400645 66.0408152,42.5262425 66.2667047,44.5617664 C66.364954,45.4426512 65.7309521,46.2311648 64.8534263,46.3277346" id="Fill-27" fill="#3281EE"/><path d="M44.4357108,44.073459 C44.3777689,44.0650617 44.3307436,44.0835359 44.2921157,44.112087 C43.9251504,44.0944525 43.5523069,44.2540026 43.276873,44.5932566 C42.7671523,45.2280982 42.8889142,46.2676933 43.5691017,46.7043569 C44.2031035,47.1133091 45.2645318,46.6732866 45.5953884,45.9964581 C46.0404494,45.0979389 45.2838458,44.1406381 44.4357108,44.073459" id="Fill-29" fill="#FF9300"/><path d="M53.609676,42.8753215 C53.5525738,42.870283 53.507228,42.8853983 53.4727988,42.9156289 C53.1016347,42.8971546 52.7313105,43.0575445 52.4558765,43.3976382 C51.9444764,44.0324799 52.0653986,45.0678763 52.7472655,45.5062193 C53.3812674,45.9151715 54.4426957,45.4768285 54.7735523,44.8 C55.2169337,43.8989616 54.4628494,42.9433402 53.609676,42.8753215" id="Fill-31" fill="#FF9300"/><path d="M54.4026402,43.3402842 C53.8442147,41.3114782 51.120106,40.1081342 49.190389,40.2416525 C46.8962259,40.4045616 43.9563047,42.3720667 43.5372756,44.7829533 C43.3105465,46.0845466 45.4888257,46.3028784 45.7029588,45.0684641 C46.1799298,42.3435157 51.1226252,41.0377237 52.2243609,43.8474857 C52.2461941,44.0649777 52.3620779,44.2824697 52.6358323,44.4588146 C52.6492681,44.4730902 52.6669026,44.4798081 52.6794987,44.4890452 C53.5393899,45.0499899 54.684792,44.3664435 54.4026402,43.3402842" id="Fill-33" fill="#FFB15C"/><path d="M22.499162,32.7402767 C22.3228171,32.7058474 22.1825809,32.7436356 22.0624985,32.8057762 C20.9884741,32.6395082 19.8388734,32.9905185 18.9168415,33.900794 C17.2004179,35.5987434 17.2214113,38.7015738 19.0889877,40.2214988 C20.8264047,41.6314182 24.0929839,40.681675 25.2938087,38.7981436 C26.9002267,36.2806103 24.9755481,33.2122092 22.499162,32.7402767" id="Fill-35" fill="#FF9300"/><path d="M24.6862585,51.5991033 C24.5317468,51.5705522 24.4091451,51.6016225 24.3024985,51.6562054 C23.3577937,51.5100911 22.3475894,51.8191145 21.5380823,52.6210639 C20.0282342,54.1132776 20.0441892,56.8390658 21.6883954,58.179287 C23.2150383,59.4195794 26.08946,58.5848802 27.1450102,56.9263985 C28.5582885,54.7120105 26.867057,52.0130939 24.6862585,51.5991033" id="Fill-37" fill="#FF9300"/><path d="M27.6862585,69.5991033 C27.5317468,69.5705522 27.4091451,69.6016225 27.3024985,69.6562054 C26.3577937,69.5100911 25.3475894,69.8191145 24.5380823,70.6210639 C23.0282342,72.1132776 23.0441892,74.8390658 24.6883954,76.179287 C26.2150383,77.4195794 29.08946,76.5848802 30.1450102,74.9263985 C31.5582885,72.7120105 29.867057,70.0130939 27.6862585,69.5991033" id="Fill-37" fill="#FF9300"/><path d="M17.5665435,37.2374073 C17.324699,40.8507981 12.2661198,41.0934823 9.17084711,40.1588544 C8.91472715,40.0631243 8.65692771,39.9665545 8.42096145,39.8506707 C8.16904017,39.7272292 7.8768115,39.5450062 7.5753457,39.3199565 C7.52580119,39.2838478 6.96905517,38.8177934 6.88424167,38.7388581 C6.22168872,38.1250099 5.62631478,37.3742845 5.41218169,36.6470718 C5.26186867,35.3841065 5.1174338,34.1564101 4.98895395,33.0227644 C4.41961187,33.1655198 3.8662248,33.3981271 3.38589491,33.7163876 C2.52936257,34.28489 2.0003279,34.8987381 1.61656782,35.8551993 C1.56282462,35.9853586 1.5401517,36.1213961 1.5132801,36.2599528 C1.31090334,36.630277 1.17570559,37.0358703 1.17402612,37.4565788 C0.229321337,40.8827082 2.75861093,43.4371899 6.4022323,44.7127513 C6.38375808,44.5649575 6.36612359,44.4230418 6.34764936,44.2760877 C6.35268779,44.2786069 6.35856595,44.2828056 6.36444411,44.2853248 C6.37620044,44.4272405 6.38375808,44.5649575 6.4022323,44.7127513 C12.8169877,46.9607288 22.6956606,45.2359078 23.2305734,37.2374073 C23.4522642,33.9515142 17.7873944,33.9515142 17.5665435,37.2374073" id="Fill-39" fill="#BBD9FD"/><path d="M22.8370724,52.7938819 L22.6027856,52.7913627 C20.5681015,52.7569335 19.6586657,54.3532746 19.8996704,55.7589953 C19.4008662,57.6089372 15.7975523,58.2454583 14.3019796,58.5318088 C12.2740134,58.9197676 10.5206413,58.6166223 9.46509116,57.4980918 C9.45837326,57.4896945 9.45081562,57.4804574 9.44325798,57.4712202 C9.33577157,57.3553365 9.2425607,57.2226579 9.15018957,57.0899794 C8.56237326,56.2124536 8.1366263,55.2803449 7.63614271,54.3717488 C7.51018207,53.395134 7.38422143,52.4176795 7.25490184,51.4200712 C6.61754102,51.4267891 2.72115864,51.9868941 2.74215208,54.5195426 C2.77994027,59.0264142 5.24876876,61.8093046 8.75971159,62.9899756 C8.75383343,62.9437901 8.74795526,62.8942455 8.74123736,62.84806 C8.75047448,62.8505792 8.75719238,62.8530984 8.76642949,62.8564574 L8.75971159,62.9899756 C10.2930724,63.5047348 12.0363676,63.7180281 13.8972261,63.6264967 C18.4267706,63.404806 25.7904295,60.9460544 25.6291999,55.3634789 C25.5855335,53.8611884 24.2940171,52.8173946 22.8370724,52.7938819" id="Fill-41" fill="#BBD9FD"/><path d="M10.0040347,72.5466092 C9.98807973,72.6381406 10.2232062,74.4343393 10.3374106,75.2371284 C10.5683384,77.0064555 10.8068239,78.7757826 11.0579054,80.5434302 C11.0830975,80.7256532 11.120046,81.0262793 11.1645521,81.4024817 C11.420672,81.4713402 11.6784715,81.5443974 11.9362709,81.6006598 C17.9890994,82.9517976 26.4074687,80.2201312 28.2859616,73.6920112 C29.1298979,70.7529297 24.7884546,69.5210347 23.2408182,71.5389241 C21.2590376,73.3687123 19.3561922,74.1446298 16.7043009,74.5770947 C15.2935418,74.8071828 10.8605671,75.2925511 10.5288707,73.9666054 L10.0040347,72.5466092 Z" id="Fill-43" fill="#BBD9FD"/><path d="M10.3377465,75.2372124 C10.2227024,74.4344232 9.98841562,72.6382246 10.0043706,72.5466932 C9.91787766,71.8522302 9.79527598,70.9066857 9.64580269,69.7612836 C8.77583455,69.1877428 7.60440062,69.0416285 6.65381768,69.6663933 C4.19926473,71.2778497 3.44266117,73.4729237 4.50157026,76.2692499 C5.59238938,79.1461908 8.34756838,80.6434429 11.1640482,81.4025657 C11.1203819,81.0263633 11.0834334,80.7257372 11.0574016,80.5435142 C10.8071598,78.7758665 10.5678346,77.0056997 10.3377465,75.2372124" id="Fill-45" fill="#BBD9FD"/><path d="M67.8116823,88.9652829 C68.8924245,93.2605406 72.0464789,97.1300514 74.6681396,98.7608218 C81.8235436,103.21311 92.2320909,101.707461 96.9833261,94.651146 C101.77151,87.5410879 102.560863,76.3675397 91.6778641,70.1098152 C82.4130393,64.78252 70.9481021,70.8042782 68.0417704,80.6619577 C67.2624939,83.3062913 67.1398922,86.2923981 67.8116823,88.9652829" id="Fill-54" fill="#CBF7D8"/><g id="Group-3" transform="translate(74.302405, 75.051546)" fill="#35CE68"><path d="M18.4040816,8.2676346 C18.4211347,8.18792612 18.4398932,8.1090656 18.4398932,8.02342139 L18.4398932,3.43933599 C18.4398932,2.80590799 17.9240359,2.29289066 17.2871014,2.29289066 C16.7678335,2.29289066 16.3449158,2.64140326 16.2016695,3.1111745 C14.4852718,1.19986697 11.9784613,0 9.22011711,0 C5.60058975,0 2.32468301,2.07581226 0.80098563,5.25227987 C0.527282855,5.82380661 0.770289992,6.50811236 1.34498056,6.78030833 C1.91967112,7.0525043 2.60776501,6.81083498 2.88146779,6.23930824 C4.02488032,3.85738152 6.49332124,2.29289066 9.22011711,2.29289066 C10.9927902,2.29289066 12.6264803,2.95006162 13.8696537,4.03121383 C13.5260331,4.01934236 13.1815598,4.14144896 12.9453739,4.42466844 C12.5369514,4.91055097 12.6026059,5.633863 13.0928835,6.03834112 L16.5495534,8.90360649 C16.55808,8.91123815 16.5683119,8.91378204 16.5759858,8.92056574 C16.6007128,8.93922091 16.6288505,8.95109239 16.6544302,8.96720368 C16.7490751,9.0299529 16.8454253,9.07828677 16.9468914,9.10966138 C16.9767344,9.11983693 17.0057247,9.12662063 17.037273,9.13340433 C17.1643189,9.16223506 17.290512,9.17156265 17.4158526,9.15714728 C17.4260844,9.15629932 17.434611,9.16053913 17.4448429,9.15884321 C17.4482535,9.15884321 17.4508115,9.15629932 17.4542221,9.15629932 C17.5889419,9.13510026 17.7168403,9.08761436 17.8370649,9.0231692 C17.8677606,9.00536199 17.8941929,8.98670682 17.9231833,8.96720368 C18.0161228,8.90615038 18.0988305,8.8332256 18.1713063,8.74673342 C18.1849488,8.72977417 18.202002,8.71535881 18.2147918,8.69839956 C18.2940889,8.59070832 18.3563328,8.47029764 18.3938497,8.33377567 C18.400671,8.31257661 18.3989656,8.28883366 18.4040816,8.2676346" id="Fill-19"/><path d="M17.0667749,11.6047911 C16.495495,11.3249635 15.8048431,11.5581532 15.5234665,12.1262881 C14.3510636,14.4912555 11.8979705,16.0464188 9.22062871,16.0464188 C7.51446281,16.0464188 5.9106157,15.3909438 4.66658969,14.3174232 C4.9769567,14.3030079 5.28050246,14.1707257 5.49537193,13.914641 C5.90294179,13.4279105 5.83728723,12.7054465 5.34786233,12.3001204 L1.89033973,9.43485501 C1.87840254,9.42467946 1.86305472,9.42128761 1.85026487,9.41111206 C1.82127454,9.38906503 1.78972625,9.37380171 1.75903061,9.35514653 C1.66609104,9.29663712 1.57229881,9.25254307 1.4742433,9.22371234 C1.44354766,9.21523272 1.41455734,9.20675309 1.38215638,9.19996939 C1.10504298,9.14400386 0.82537161,9.19233773 0.587480412,9.32631581 C0.556784774,9.34412302 0.528647105,9.36193023 0.498804124,9.38312929 C0.402453925,9.44927037 0.31548295,9.52813089 0.243007137,9.62140676 C0.234480571,9.63327824 0.222543378,9.64175786 0.214016812,9.65278138 C0.137277716,9.76132058 0.0792970658,9.88427515 0.0434854877,10.0199491 C0.0349589215,10.0496278 0.0358115781,10.0810025 0.0306956384,10.1115291 C0.0187584457,10.1785181 0,10.2438113 0,10.3150401 L0,14.8999735 C0,15.5334015 0.516709913,16.0464188 1.15279175,16.0464188 C1.7001973,16.0464188 2.13590484,15.6597479 2.25442411,15.1526663 C3.98361174,17.0987403 6.49468549,18.3384615 9.22062871,18.3384615 C12.785586,18.3384615 16.0350604,16.2796085 17.5903061,13.1396033 C17.8716828,12.5723163 17.6380549,11.8846187 17.0667749,11.6047911" id="Fill-21"/></g></g></g></g></g></svg>