<svg xmlns="http://www.w3.org/2000/svg" width="16" height="16" viewBox="0 0 16 16"><g fill="none" fill-rule="evenodd" transform="translate(-64 -224)"><path fill="#95999D" d="M78.9551282,226.917127 C77.7660256,225.237569 76.2179487,224 73.4807692,224 C70.2948718,224 68.0064103,226.143646 67.1089744,229.127072 L65,229.127072 L65,231.005525 L66.75,231.005525 C66.7051282,231.337017 66.7051282,231.690608 66.7051282,232.022099 C66.7051282,232.309392 66.7051282,232.596685 66.7275641,232.861878 L65,232.861878 L65,234.762431 L67.0416667,234.762431 C67.9166667,237.900552 70.25,240 73.5705128,240 C76.1282051,240 77.7211538,238.718232 79,236.883978 L77.025641,235.447514 C75.9935897,236.79558 75.0961538,237.569061 73.5929487,237.569061 C71.8429487,237.569061 70.5641026,236.508287 69.9358974,234.762431 L74.7820513,234.762431 L74.7820513,232.861878 L69.5096154,232.861878 C69.4871795,232.574586 69.4871795,232.287293 69.4871795,231.977901 C69.4871795,231.646409 69.4871795,231.314917 69.5320513,231.005525 L74.7820513,231.005525 L74.7820513,229.127072 L69.9583333,229.127072 C70.5865385,227.469613 71.8205128,226.430939 73.4134615,226.430939 C74.9839744,226.430939 75.9038462,227.138122 76.8685897,228.441989 L78.9551282,226.917127 Z"/></g></svg>