<svg xmlns="http://www.w3.org/2000/svg" width="24" height="24" viewBox="0 0 24 24">
    <path fill="#FFF" fill-rule="evenodd" d="M23.856 5.933a.77.77 0 0 1-.184 1.08.768.768 0 0 1-1.081-.186 12.312 12.312 0 0 0-4.438-3.85C14.4 1.056 9.566 1.06 5.835 2.992A12.436 12.436 0 0 0 1.382 6.87c-.113.198-.34.322-.606.322a.8.8 0 0 1-.444-.136.756.756 0 0 1-.32-.494.788.788 0 0 1 .131-.59 13.78 13.78 0 0 1 4.995-4.354c4.17-2.152 9.558-2.155 13.723-.013a13.811 13.811 0 0 1 4.995 4.329zM11.954 3.137c6.072 0 11.011 4.69 11.011 10.458 0 2.202-1.876 3.994-4.18 3.994-2.306 0-4.18-1.792-4.18-3.994 0-1.353-1.184-2.453-2.638-2.453-1.453 0-2.637 1.1-2.637 2.453a8.22 8.22 0 0 0 2.438 5.877c1.246 1.233 2.443 1.912 4.272 2.416a.758.758 0 0 1 .462.353.776.776 0 0 1 .078.59.748.748 0 0 1-.728.586.87.87 0 0 1-.2-.03c-2.116-.585-3.508-1.373-4.966-2.804a9.762 9.762 0 0 1-2.9-6.976c0-2.202 1.876-3.996 4.181-3.996 2.306 0 4.18 1.794 4.18 3.996 0 1.351 1.184 2.451 2.638 2.451 1.455 0 2.637-1.1 2.637-2.451 0-4.914-4.248-8.912-9.468-8.912-3.719 0-7.107 2.064-8.633 5.26-.51 1.061-.77 2.29-.77 3.652 0 1.026.092 2.631.88 4.73a.761.761 0 0 1-.02.6.738.738 0 0 1-.432.39.75.75 0 0 1-.588-.022.762.762 0 0 1-.399-.429c-.652-1.746-.97-3.47-.97-5.27 0-1.597.306-3.055.909-4.328 1.779-3.73 5.712-6.141 10.023-6.141zM7.176 18.639c.825 1.482 1.4 2.133 2.427 3.174a.794.794 0 0 1 .001 1.092.847.847 0 0 1-.57.234.731.731 0 0 1-.546-.237c-1.147-1.146-1.774-1.888-2.668-3.508-.918-1.634-1.403-3.635-1.403-5.787 0-3.989 3.405-7.233 7.59-7.233 4.185 0 7.59 3.244 7.59 7.233a.764.764 0 0 1-.772.772.765.765 0 0 1-.773-.772c0-3.137-2.712-5.688-6.045-5.688-3.333 0-6.045 2.551-6.045 5.688 0 1.884.419 3.625 1.214 5.032zm12.687.368c.2-.036.402.006.57.123a.788.788 0 0 1 .326.507.775.775 0 0 1-.635.897 9.036 9.036 0 0 1-1.617.16c-1.603 0-3.001-.401-4.16-1.195-1.997-1.356-3.193-3.558-3.193-5.892 0-.433.34-.772.773-.772s.772.339.772.772c0 1.83.94 3.554 2.514 4.611.915.62 1.994.92 3.294.92.28 0 .803-.035 1.356-.13z" opacity=".64"/>
</svg>
