<?xml version="1.0" encoding="UTF-8"?>
<svg width="48px" height="48px" viewBox="0 0 48 48" version="1.1" xmlns="http://www.w3.org/2000/svg" xmlns:xlink="http://www.w3.org/1999/xlink">
    <g id="back-text" stroke="none" stroke-width="1" fill-rule="nonzero">
        <path d="M16.5079289,12 L38,12 C39.1045695,12 40,12.8954305 40,14 L40,34 C40,35.1045695 39.1045695,36 38,36 L16.5079289,36 C15.967702,35.9999616 15.450467,35.7813811 15.0739254,35.3939965 L5.35392887,25.394 C4.59945188,24.6177967 4.59945188,23.3822033 5.35392544,22.6060035 L15.0739289,12.606 C15.450467,12.2186189 15.967702,12.0000384 16.5079289,12 Z M38,34 L38,13.9999965 L16.508,14 L6.78807456,24.0000035 L16.5080711,34 L38,34 Z" id="Path" fill-rule="nonzero"></path>
        <path d="M21.0157864,20.43 L22.43,19.0157864 L31.0142136,27.6 L29.6,29.0142136 L21.0157864,20.43 Z M29.57,19.0157864 L30.9842136,20.43 L22.4,29.0142136 L20.9857864,27.6 L29.57,19.0157864 Z" id="Shape" fill-rule="nonzero"></path>
    </g>
</svg>
