<svg xmlns="http://www.w3.org/2000/svg" width="56" height="56" viewBox="0 0 56 56">
    <g fill-rule="evenodd">
        <path d="M28 0C18.59 0 9.81 4.809 4.667 12.523V9.667a2.331 2.331 0 0 0-2.334-2.333A2.331 2.331 0 0 0 0 9.667v14.667a2.334 2.334 0 0 0 3.829 1.792l10.997-9.165a2.337 2.337 0 0 0 .299-3.29 2.34 2.34 0 0 0-3.288-.299l-4.368 3.645C11.508 9.497 19.418 4.667 28 4.667c12.866 0 23.333 10.467 23.333 23.333 0 12.866-10.467 23.333-23.333 23.333-8.941 0-17.21-5.215-21.065-13.286-.56-1.162-1.953-1.661-3.11-1.101a2.332 2.332 0 0 0-1.102 3.11C7.348 49.742 17.269 56 28 56c15.44 0 28-12.56 28-28S43.44 0 28 0"/>
        <path d="M30.333 37.333c-3.441 0-6.416-1.892-8.033-4.666h8.033v-3.5H21.12C21.068 28.779 21 28.399 21 28s.068-.78.119-1.167h9.214v-3.5H22.3c1.617-2.774 4.592-4.666 8.033-4.666 2.492 0 4.837.97 6.599 2.734l3.3-3.299A13.889 13.889 0 0 0 30.332 14c-6.08 0-11.253 3.906-13.183 9.333h-5.483v3.5h4.725c-.03.385-.059.773-.059 1.167s.028.782.059 1.167h-4.725v3.5h5.483C19.08 38.094 24.253 42 30.333 42c3.743 0 7.257-1.456 9.898-4.102l-3.299-3.3a9.266 9.266 0 0 1-6.599 2.735"/>
    </g>
</svg>
