<svg xmlns="http://www.w3.org/2000/svg" width="16" height="16" viewBox="0 0 16 16"><g fill="none" fill-rule="evenodd" transform="translate(-160 -192)"><path fill="#297EF2" d="M164.976735,204.513488 C164.976735,204.513488 165.080133,203.429939 164.021188,202.491088 C162.781397,201.3919 162,199.787202 162,198 C162,194.686292 164.686292,192 168,192 C171.313708,192 174,194.686292 174,198 C174,199.771824 173.231992,201.36427 172.010714,202.462601 C171.337002,203.068489 171.10372,204.512523 171.10372,204.512523 C171.041711,204.788217 170.780169,205 170.508995,205 L165.491005,205 C165.22788,205 164.989584,204.782181 164.976735,204.513488 Z M171,206 L169.348373,207.651627 C169.155972,207.844028 168.785965,208 168.495316,208 L167.504684,208 C167.225955,208 166.843063,207.843063 166.651627,207.651627 L165,206 L171,206 Z M172,198 C172,195.790861 170.209139,194 168,194 C167.447715,194 167,194.447715 167,195 C167,195.552285 167.447715,196 168,196 C169.104569,196 170,196.895431 170,198 C170,198.552285 170.447715,199 171,199 C171.552285,199 172,198.552285 172,198 Z"/></g></svg>