<svg xmlns="http://www.w3.org/2000/svg" width="16" height="16" viewBox="0 0 16 16"><g fill-rule="evenodd" transform="translate(-192 -32)"><path d="M201.118034,42 L205.649994,42 C205.649994,42 206,40.7216708 206,40 C206,36.6862915 203.313708,34 200,34 C196.686292,34 194,36.6862915 194,40 C194,40.7052006 194.345138,42 194.345138,42 L198.881966,42 L201.105573,37.5527864 C201.352562,37.0588079 201.953235,36.8585836 202.447214,37.1055728 C202.941192,37.3525621 203.141416,37.9532351 202.894427,38.4472136 L201.118034,42 Z M200,48 C195.581722,48 192,44.418278 192,40 C192,35.581722 195.581722,32 200,32 C204.418278,32 208,35.581722 208,40 C208,44.418278 204.418278,48 200,48 Z"/></g></svg>