<svg xmlns="http://www.w3.org/2000/svg" width="16" height="16" viewBox="0 0 16 16">
    <path fill-rule="evenodd" d="M8 0C3.589 0 0 3.589 0 8s3.589 8 8 8c3.073 0 5.911-1.794 7.229-4.571.237-.499.025-1.095-.474-1.332-.497-.237-1.096-.025-1.332.474C12.434 12.654 10.305 14 8 14c-3.309 0-6-2.691-6-6s2.691-6 6-6c1.482 0 2.866.571 3.938 1.507-.265.016-.523.133-.706.353-.354.424-.296 1.055.128 1.408l3 2.5c.651.543 1.64.08 1.64-.768V3c0-.552-.448-1-1-1-.481 0-.865.348-.96.801C12.548 1.08 10.364 0 8 0z"/>
</svg>
