<svg xmlns="http://www.w3.org/2000/svg" xmlns:xlink="http://www.w3.org/1999/xlink" width="16" height="16" viewBox="0 0 16 16">
    <defs>
        <path id="a" d="M8 0c4.411 0 8 3.589 8 8s-3.589 8-8 8a8.039 8.039 0 0 1-7.229-4.571 1 1 0 1 1 1.806-.858A6.031 6.031 0 0 0 8 14c3.309 0 6-2.691 6-6s-2.691-6-6-6c-1.482 0-2.866.571-3.938 1.507a.989.989 0 0 1 .706.353 1 1 0 0 1-.128 1.408l-3 2.5A1 1 0 0 1 0 7V3a1 1 0 0 1 1-1c.481 0 .865.348.96.801C3.452 1.08 5.636 0 8 0zm1 10c.551 0 1.052-.225 1.413-.586l1.415 1.415A3.987 3.987 0 0 1 5.142 9H4V7h1.142a3.99 3.99 0 0 1 6.686-1.829l-1.414 1.415A1.996 1.996 0 0 0 9 6c-.737 0-1.375.405-1.722 1H9v2H7.278c.347.595.985 1 1.722 1z"/>
    </defs>
    <use xlink:href="#a"/>
</svg>
