<?xml version="1.0" encoding="UTF-8"?>
<svg width="16px" height="16px" viewBox="0 0 16 16" version="1.1" xmlns="http://www.w3.org/2000/svg" xmlns:xlink="http://www.w3.org/1999/xlink">
    <path d="M4,4.5 L4,4 C4,1.794 5.794,0 8,0 C10.205,0 12,1.794 12,4 L12,6 L13,6 C13.2647557,5.99866955 13.5191242,6.10291197 13.7068057,6.28965507 C13.8944872,6.47639816 14.0000033,6.730241 14,6.995 L14,15.005 C14,15.544 13.551,16 12.998,16 L3.002,16 C2.456,16 2,15.555 2,15.005 L2,6.995 C2,6.456 2.448,6 3,6 L4,6 L8,6 L10,6 L10,4.5 C10,3.122 9.103,2 8,2 C6.897,2 6,3.122 6,4.5 L4,4.5 Z M8,8.5 C7.17157288,8.5 6.5,9.17157288 6.5,10 C6.50116442,10.5332239 6.78718422,11.025178 7.25,11.29 L7.25,13.75 C7.27062026,14.1491765 7.60029122,14.4622573 8,14.4622573 C8.39970878,14.4622573 8.72937974,14.1491765 8.75,13.75 L8.75,11.29 C9.195,11.032 9.5,10.552 9.5,10 C9.5,9.172 8.826,8.5 8,8.5 Z" id="Shape" fill-rule="evenodd"></path>
</svg>
