<svg xmlns="http://www.w3.org/2000/svg" xmlns:xlink="http://www.w3.org/1999/xlink" viewBox="0 0 64 64">
  <defs>
    <polygon id="a" points="0 .003 64 .003 64 26.8 0 26.8"/>
    <polygon id="c" points="0 0 64 0 64 26.795 0 26.795"/>
  </defs>
  <g fill="none" fill-rule="evenodd" transform="translate(0 10)">
    <g transform="translate(0 17.2)">
      <mask id="b" fill="white">
        <use xlink:href="#a"/>
      </mask>
      <path fill="#FFB3B3" d="M47.84 14L16.04 0 0 7.78v15.04a4 4 0 0 0 4 3.98h56c2.22 0 4-1.78 4-3.98V6.1L47.84 14z" mask="url(#b)"/>
    </g>
    <mask id="d" fill="white">
      <use xlink:href="#c"/>
    </mask>
    <path fill="#FFB3B3" d="M15.96 12.8l31.8 14L64 18.86V3.98A4 4 0 0 0 60 0H4C1.78 0 0 1.78 0 3.98v16.56l15.96-7.74z" mask="url(#d)"/>
    <polygon fill="#FFF2F2" points="15.96 12.797 47.756 26.795 60 20.812 60 4 4 4 4 18.596"/>
    <polygon fill="#FFF2F2" points="47.844 31.205 16.04 17.203 4 23.041 4 40 60 40 60 25.264"/>
    <path fill="#FFB3B3" d="M49.47 25.96L53.45 24a4 4 0 1 0-3.98 1.94m-7.7-1.8A10.01 10.01 0 0 0 32 12a9.99 9.99 0 0 0-8.18 4.26l17.94 7.9zM14.37 18l-3.73 1.8A3.98 3.98 0 0 0 14 26a4 4 0 0 0 .38-8m7.84 1.92a10 10 0 0 0 17.92 7.89l-17.92-7.89z"/>
  </g>
</svg>
