<svg xmlns="http://www.w3.org/2000/svg" width="96" height="97" fill="none"><path fill="#BBD9FD" fill-rule="evenodd" d="M14.71 93.252c2.737 1.3 9.758 2.427 15.412 2.88 15.44 1.235 37.024.588 46.164-1.663 9.216-2.267 9.627-5.707-13.806-7.43-19.95-1.467-43.23.586-48.208 3.664-1.336.824-1.26 1.743.438 2.55Z" clip-rule="evenodd"/><path fill="#3281EE" fill-rule="evenodd" d="M70.617 27.992a87.36 87.36 0 0 1 3.465-6.946 68.239 68.239 0 0 1 2.794-5.106 41.62 41.62 0 0 1 1.866-3.073.872.872 0 0 0-.078-.58.763.763 0 0 0-.308-.283l-.037-.044-.16-.067a2.216 2.216 0 0 1-.212-.112C74.17 10.282 65.614 5.868 61.65 4.287c-.2-.098-.42-.145-.642-.138a1.28 1.28 0 0 0-.991.552c-.305.414-.568.86-.783 1.326a.7.7 0 0 0-.051.133c-3.402 6.59-6.78 13.154-10.135 19.689a.604.604 0 0 0-.06.14 8.25 8.25 0 0 0-.25.492 4.12 4.12 0 0 0-.487 1.226c-.04.136-.065.276-.074.417 0 .555.407 1.026.958 1.113 3.87 1.533 12.83 4.653 16.609 6.139.4.25.905.274 1.328.06.348-.203.64-.49.847-.836a60.845 60.845 0 0 1 2.698-6.608Z" clip-rule="evenodd"/><path fill="#FF8E8E" fill-rule="evenodd" d="M62.495 32.205c.117-4.625-.002-16.961.107-21.493.039-.457.028-.983-.19-1.366-.303-.537-.816-.56-1.281-.605V8.74c-4.07-.67-7.86-1.243-11.924-1.917-.03-.016-.061-.032-.095-.04-.198-.043-.4-.107-.594-.08-.265.013-.492.129-.61.427-.053.138-.078.29-.093.445-.003.023-.012.04-.013.067l-.005.19c-.005.09-.01.18-.018.268-.002.021.006.042.008.064-.125 4.46-.333 17.959-.457 22.717 0 .238-.017.482.04.72.06.321.196.602.463.753.264.15.55.143.826.189.029.005.053-.006.08-.013 4 .437 8 .872 12 1.303.03.004.054-.006.08-.011h.002c.101.017.202.031.301.038.26.039.51.036.723-.075a.785.785 0 0 0 .23-.11c.336-.245.426-.893.42-1.47Z" clip-rule="evenodd"/><path fill="#F52D2D" fill-rule="evenodd" d="M52.145 13.056c-1.358-.294-.476-.195-2.796-.411-.398-.037-.445 1.222-.043 1.283 2.43.364 1.438.118 2.797.41.399.087.442-1.196.042-1.282ZM55.559 11.183c-1.79-.366-3.58-.74-5.37-1.085-.383-.074-.433 1.383-.049 1.457 1.79.345 3.58.718 5.37 1.086.383.078.432-1.38.049-1.458ZM60.62 18.075c-1.992-.253-9.26-.949-11.252-1.182-.427-.051-.468 1.312-.04 1.361 1.99.234 9.26.93 11.25 1.185.428.054.468-1.309.041-1.364ZM60.62 20.624c-1.992-.253-9.26-.95-11.252-1.182-.427-.052-.468 1.312-.04 1.361 1.99.234 9.26.93 11.25 1.184.428.055.468-1.308.041-1.363Z" clip-rule="evenodd"/><mask id="a" width="39" height="44" x="18" y="1" maskUnits="userSpaceOnUse" style="mask-type:luminance"><path fill="#fff" fill-rule="evenodd" d="M18.932 1.198h37.733v43.138H18.932V1.198Z" clip-rule="evenodd"/></mask><g mask="url(#a)"><path fill="#FFDEC1" fill-rule="evenodd" d="M44.934 2.756c-.009-.008-.012-.017-.021-.026-.555-.437-1.222-.775-1.652-1.344-.299-.395-.897-.105-.861.278-.111.274-.176.559-.23.846-.281-.204-.546-.424-.754-.7-.299-.395-.897-.106-.861.277-.186.462-.254.95-.34 1.436-.423-.292-.854-.581-1.163-.989-.297-.395-.896-.106-.86.277-.182.45-.25.924-.333 1.396-.411-.282-.827-.567-1.126-.963-.298-.395-.897-.105-.861.278-.182.45-.251.923-.332 1.396-.412-.284-.828-.567-1.126-.964-.299-.394-.898-.105-.862.277-.192.477-.258.979-.347 1.478-.435-.301-.884-.596-1.202-1.017-.299-.395-.897-.107-.861.277-.178.444-.249.91-.33 1.376-.404-.279-.81-.56-1.105-.95-.298-.394-.897-.105-.862.277-.186.463-.253.951-.34 1.436-.422-.291-.853-.58-1.162-.988-.298-.396-.896-.107-.86.277-.182.45-.252.923-.333 1.396-.412-.283-.826-.568-1.127-.964-.298-.394-.896-.105-.86.278-.182.45-.252.924-.334 1.396-.41-.283-.825-.567-1.126-.963-.297-.395-.895-.107-.86.277-.192.476-.258.978-.348 1.478-.435-.3-.883-.597-1.2-1.017-.3-.395-.898-.106-.863.277-.244.607-.289 1.257-.433 1.89a1.112 1.112 0 0 0-.035.157c-.005.018-.006.037-.012.055-.014.05-.01.093-.009.137 0 .039-.012.07-.011.11a58.095 58.095 0 0 1 1.884 4.37 91.066 91.066 0 0 1 2.735 7.211c1.227 3.2 2.324 6.449 3.266 9.75.741 2.596 1.517 5.352 2.145 8.098.263 1.152.088 1.92.544 2.284.508.487 1.139.887 1.51 1.494.26.42.883.19.886-.195.193-.371.305-.768.415-1.166l.231-.054c.324.276.638.564.86.924.258.422.882.191.884-.193.201-.386.315-.8.429-1.214l.212-.046c.338.287.668.582.898.958.259.42.882.19.884-.194.206-.394.32-.814.435-1.236l.144-.03c.344.29.682.59.916.972.258.421.882.19.884-.194.207-.395.321-.82.438-1.245l.132-.027c.348.293.689.594.925.98.258.42.882.19.884-.195.207-.397.322-.824.439-1.25l.22-.046c.348.295.692.597.928.984.258.42.883.19.885-.195.207-.398.322-.825.439-1.253l.1-.02c.35.296.694.597.931.986.258.42.883.189.884-.195.209-.4.323-.828.441-1.257l.163-.034c.351.297.697.6.936.99.258.42.882.19.884-.196.21-.402.325-.835.443-1.267l.107-.023c.354.3.703.605.944.998.258.42.883.19.884-.195.214-.409.33-.849.45-1.287l.082-.019c.36.304.718.614.963 1.013.258.422.883.191.884-.194.22-.422.335-.876.46-1.33l.126-.028c.373.315.748.632 1.002 1.046.258.422.882.191.884-.194.338-.647.427-1.37.685-2.046a.397.397 0 0 0 .01-.26c0-.005.002-.01.001-.016-.223-.987-1.382-4.915-1.678-5.76-2.931-8.378-5.867-16.756-8.805-25.132-.01-.061-.013-.122-.038-.187-.242-.631-.633-2.017-.99-2.6a.75.75 0 0 0-.203-.233Z" clip-rule="evenodd"/></g><path fill="#FF9300" fill-rule="evenodd" d="M25.512 16.01c5.227-1.251 5.767-1.42 10.987-2.693 1.118-.273.631-1.762-.488-1.49-5.22 1.274-5.76 1.443-10.987 2.693-1.12.268-.633 1.758.488 1.49ZM28.045 21.11c5.23-1.228 5.77-1.395 10.993-2.646 1.12-.267.657-1.81-.463-1.541-5.223 1.25-5.764 1.417-10.992 2.645-1.122.263-.66 1.804.462 1.541ZM29.728 27.058c5.232-1.201 5.774-1.368 11-2.594 1.12-.262.683-1.86-.439-1.596-5.225 1.226-5.767 1.392-10.998 2.594-1.122.258-.684 1.854.437 1.596ZM31.412 31.313c5.235-.94 5.777-1.072 11.005-2.031 1.121-.206.71-1.53-.413-1.325-5.228.96-5.771 1.092-11.005 2.032-1.122.202-.709 1.526.413 1.324ZM33.946 36.412c5.236-.917 5.78-1.047 11.01-1.984 1.122-.201.734-1.576-.388-1.375-5.231.938-5.775 1.068-11.011 1.985-1.122.197-.734 1.571.389 1.374ZM41.662 12.602c.812-.254 1.032-.316 1.629-.505 1.126-.36.636-2.317-.49-1.958-.738.235-.811.258-1.63.505-1.13.342-.637 2.31.491 1.958ZM44.195 19.402c.814-.242 1.035-.3 1.633-.482 1.128-.342.667-2.333-.463-1.989-.74.224-.813.246-1.633.482-1.133.326-.668 2.326.463 1.99ZM46.727 27.052c.816-.23 1.038-.285 1.637-.458 1.132-.327.699-2.349-.434-2.02-.741.213-.816.234-1.638.458-1.135.309-.698 2.34.435 2.02ZM49.26 33.003c.817-.22 1.04-.271 1.64-.435 1.135-.31.73-2.362-.406-2.052-.742.204-.817.223-1.64.435-1.138.293-.73 2.355.406 2.052Z" clip-rule="evenodd"/><path fill="#BBD9FD" fill-rule="evenodd" d="M23.9 42.018c3.897-2.374 3.428-2.34 7.238-4.678.417-.189.832-.498.89-1.058.081-.785-.5-1.622-1.005-2.392-4.207-6.896-8.168-13.294-12.363-20.183-.024-.057-.047-.116-.08-.174-.196-.34-.38-.7-.63-.998-.318-.416-.678-.717-1.056-.74a1.005 1.005 0 0 0-.47.098c-.024.006-.05.001-.071.015l-.161.097c-.079.042-.157.084-.238.12-.02.008-.027.034-.042.05-3.772 2.27-4.63 2.354-8.64 4.791-.196.132-.413.24-.539.465-.193.272-.262.645-.073 1.159.188.506.528.962.812 1.43.03.048.067.081.103.12 4.314 6.656 8.632 13.31 12.952 19.963.033.052.069.085.104.124l.002.004c.104.17.21.34.32.503.271.437.567.838.906 1.118.114.114.232.221.358.307.59.403 1.222.187 1.684-.141Z" clip-rule="evenodd"/><path fill="#3281EE" fill-rule="evenodd" d="M17.523 20.338c-1.092-2.013-.322-.75-2.374-4.054-.352-.566-1.217-.037-.876.547 2.059 3.527 1.281 2.04 2.374 4.053.321.593 1.198.047.876-.546ZM22.613 25.222c-1.621-3.52-3.237-7.044-4.872-10.553-.35-.753-1.27-.065-.92.688 1.635 3.51 3.252 7.032 4.872 10.553.348.754 1.268.067.92-.688ZM22.592 35.509c-1.996-3.117-9.455-14.379-11.468-17.486-.431-.667-1.509-.027-1.077.64 2.011 3.107 9.47 14.368 11.467 17.486.427.668 1.505.028 1.078-.64Z" clip-rule="evenodd"/><path fill="#FFDEC1" fill-rule="evenodd" d="M84.574 19.561c-.005-.011-.004-.02-.01-.032-.344-.613-.831-1.176-1.011-1.866-.124-.48-.788-.432-.902-.062a4.653 4.653 0 0 0-.537.703c-.18-.295-.34-.599-.427-.934-.125-.478-.789-.432-.902-.061-.35.362-.599.791-.863 1.212-.28-.43-.566-.86-.696-1.355-.124-.478-.788-.432-.901-.061-.34.351-.585.767-.842 1.177-.272-.416-.547-.836-.671-1.317-.125-.478-.789-.432-.902-.06-.34.35-.585.767-.842 1.176-.272-.417-.547-.836-.671-1.317-.125-.478-.789-.432-.902-.06-.36.37-.613.815-.886 1.246-.287-.442-.588-.884-.721-1.394-.125-.479-.788-.433-.902-.062-.335.347-.578.756-.831 1.16-.267-.411-.534-.824-.658-1.297-.124-.478-.788-.432-.901-.062-.35.362-.6.791-.864 1.212-.279-.43-.567-.86-.695-1.354-.125-.479-.788-.433-.901-.062-.34.352-.586.768-.843 1.177-.27-.416-.546-.837-.671-1.316-.124-.479-.788-.432-.902-.062-.34.352-.585.767-.842 1.177-.271-.416-.545-.835-.672-1.316-.124-.479-.787-.432-.9-.062-.36.372-.613.816-.887 1.248-.287-.443-.588-.885-.72-1.395-.126-.48-.788-.432-.902-.062-.46.475-.75 1.064-1.124 1.6-.034.04-.064.086-.093.133-.011.015-.02.032-.032.047-.032.041-.046.083-.06.125-.016.034-.039.06-.054.098.091 1.594.108 3.184.069 4.771a91.95 91.95 0 0 1-.234 7.739 117.725 117.725 0 0 1-.715 10.3c-.31 2.694-.649 5.552-1.12 8.344-.198 1.17-.653 1.821-.371 2.33.283.643.713 1.25.824 1.955.077.488.742.505.891.147.322-.274.577-.602.83-.933.078.012.155.025.235.036.193.378.373.763.44 1.182.077.489.742.506.891.148.334-.285.597-.627.86-.972l.215.037c.201.392.394.791.463 1.226.077.488.742.506.89.148.34-.29.607-.64.876-.99l.144.026c.206.399.404.804.474 1.247.077.488.742.506.89.148.344-.292.611-.645.881-.998l.133.024c.21.402.409.81.48 1.257.077.487.742.505.89.148.344-.293.613-.648.884-1.002l.221.04c.209.403.41.813.482 1.261.077.488.742.506.891.148.344-.293.613-.65.885-1.004l.101.018c.21.405.411.814.483 1.264.077.489.742.506.89.148.346-.294.616-.651.89-1.007l.163.029c.21.407.414.818.486 1.27.077.487.742.505.89.147.35-.297.62-.657.895-1.017l.107.02c.213.41.42.824.492 1.28.077.488.742.505.89.148.354-.302.63-.67.909-1.033.028.004.054.008.082.014.217.417.429.838.503 1.301.077.49.742.507.89.148.365-.311.646-.692.935-1.067l.126.02c.225.432.45.867.526 1.347.077.488.741.506.89.147.56-.476.919-1.117 1.417-1.651a.407.407 0 0 0 .11-.239c0-.005.004-.008.005-.014.173-1.002.606-5.095.655-5.99.5-8.899.995-17.797 1.487-26.695.014-.061.035-.119.037-.189.018-.679.188-2.115.08-2.792a.762.762 0 0 0-.098-.292Z" clip-rule="evenodd"/><path fill="#FF9300" fill-rule="evenodd" d="M60.871 25.704c5.59.69 6.186.715 11.78 1.375 1.2.142 1.411-1.867.212-2.009-5.595-.66-6.19-.684-11.78-1.374-1.199-.148-1.41 1.86-.212 2.008ZM60.864 28.186c5.59.72 6.185.748 11.778 1.44 1.2.149 1.428-1.792.227-1.94-5.592-.692-6.188-.72-11.777-1.44-1.199-.155-1.427 1.786-.228 1.94ZM60.856 32.372c5.588.749 6.184.78 11.777 1.502 1.198.154 1.444-1.724.244-1.878-5.591-.72-6.188-.753-11.776-1.502-1.198-.16-1.443 1.718-.245 1.878ZM60.85 34.861c5.586.776 6.183.813 11.773 1.56 1.198.16 1.461-1.657.261-1.818-5.59-.748-6.187-.784-11.773-1.56-1.198-.165-1.46 1.653-.262 1.818ZM59.992 39.904c5.585.8 6.182.84 11.772 1.614 1.198.165 1.478-1.597.279-1.762-5.59-.773-6.187-.814-11.772-1.614-1.197-.17-1.477 1.591-.279 1.762ZM59.985 43.25c5.583.823 6.18.868 11.769 1.665 1.198.17 1.495-1.538.296-1.709-5.59-.797-6.186-.842-11.77-1.665-1.197-.175-1.492 1.533-.295 1.71ZM59.978 46.6c5.581.844 6.18.892 11.766 1.712 1.198.176 1.511-1.483.312-1.658-5.586-.82-6.184-.87-11.765-1.713-1.197-.181-1.51 1.478-.313 1.658ZM78.68 26.916c.827.08 1.05.108 1.659.165 1.15.107 1.353-1.415.202-1.522-.753-.071-.828-.078-1.66-.165-1.149-.121-1.352 1.409-.202 1.522ZM77.817 33.691c.826.091 1.048.12 1.657.185 1.15.12 1.38-1.378.23-1.5-.752-.079-.827-.087-1.658-.184-1.147-.133-1.378 1.373-.23 1.5ZM77.804 42.166c.825.1 1.048.133 1.655.204 1.148.134 1.407-1.342.258-1.477-.751-.088-.826-.097-1.656-.204-1.145-.147-1.405 1.338-.257 1.477ZM76.092 48.943c.825.108 1.046.143 1.653.221 1.146.148 1.433-1.307.286-1.454-.75-.097-.825-.106-1.653-.222-1.144-.16-1.432 1.302-.286 1.455Z" clip-rule="evenodd"/><path fill="#35CE68" fill-rule="evenodd" d="M11.346 61.069c.813-.025 1.548-.315 2.193-.768a.636.636 0 0 0 .268-.153c4.805-4.536 10.665-8.134 15.089-13.074.303-.34.19-.784-.067-1.029.25-.895 1.468-1.91 1.503-3.057.08-2.63-1-5.46-1.751-7.936-.797-2.625-1.483-5.28-2.62-7.79-1.303-2.88-2.992-5.468-3.588-8.624-.064-.34-.318-.497-.586-.516-.192-.348-.638-.551-.998-.192-2.817 2.81-6.522 4.787-9.492 7.477a.602.602 0 0 0-.3.337.597.597 0 0 0-.042.135c-.002.014-.01.023-.012.036l-.005.055c-.002.024-.01.046-.008.07-.268 2.581-.727 5.148-.537 7.752.25 3.444 1.291 6.786 2.295 10.073 1.034 3.386 2.543 7.175 2.367 10.76-.05 1.029-.342 2.135-.892 3.017-.348.56-.95 1.056-1.64 1.386-.825.393-1.777.55-2.576.289" clip-rule="evenodd"/><path fill="#CBF7D8" fill-rule="evenodd" d="M31.84 8.17c-2.98 1.79-18.485 14.072-20.463 15.81a.261.261 0 0 0-.018.04c-.252.265-.383.578-.463.942-.186.67-.06 1.342-.032 2.032 0 .005.003.008.003.013.004.301.011.6.062.898.007.043.027.07.04.107.118.693 1.247.723 1.323-.084.002-.024.01-.044.015-.066.007-.012.016-.023.021-.036.196-.415.681-.613 1.17-.643 1.469.321 2.558 2.897 2.844 3.628.599 1.53.834 3.16 1.12 4.774.265 2.27.351 4.538.546 6.436.2 1.944.322 4.637.865 7.104.133 1.778.282 3.557.482 5.328.315.931.675 1.834 1.093 2.696 1.91 3.937 6.285 7.053 8.766 2.549a446.256 446.256 0 0 1 15.54-14.98.603.603 0 0 0 .38-.158c.606-.545 1.213-1.09 1.82-1.633.035-.031.049-.067.074-.1.246-.17.396-.475.228-.827l-3.1-6.48a.602.602 0 0 0-.474-.357.684.684 0 0 0-.202-.21c-5.725-3.912-6.226-9.392-5.908-15.902a.662.662 0 0 0-.09-.365l.008-.932c.019-.056.044-.107.05-.174.252-2.972-.477-12.547-5.7-9.41Z" clip-rule="evenodd"/><path fill="#35CE68" fill-rule="evenodd" d="M31.15 59.37A438.03 438.03 0 0 1 45.76 43.953a.54.54 0 0 0 .356-.164l1.711-1.68c.032-.032.046-.069.07-.103a.683.683 0 0 0 .214-.85l-2.914-6.67c-.102-.234-.269-.34-.445-.367a.674.674 0 0 0-.19-.215c-.673-.505-8.62 8.275-13.993 13.601-.648.64.23 5.36.582 11.864Z" clip-rule="evenodd"/><path fill="#C2F0D1" fill-rule="evenodd" d="M54.548 40.503a.674.674 0 0 0-.238-.177c-.165-.249-.46-.388-.796-.182-4.242 2.606-3.766-5.455-4.47-7.02-.53-1.174-1.523-2.019-2.91-1.735-1.229.254-2.003 1.38-2.82 2.21-1.784 1.817-3.617 3.59-5.405 5.407-2.722 2.766-5.678 5.38-8.247 8.279a.556.556 0 0 0-.14.314c-.164.183.306.083.184.28-.15.24 2.442-.486 2.719-.585.276-.1.524-.122.748-.08.211.04.4.134.57.272.92.748 1.295 2.754 1.637 4.003.001.054-.005.105.013.165.71 2.393 1.957 7.117 4.714 8.49.509.253 3.55-.127 4.037-1.216C46.716 55.004 50.2 51.396 53 47.622c2.135-2.877 4.25-4.035 1.547-7.119Z" clip-rule="evenodd"/><path fill="#E1FFE8" fill-rule="evenodd" d="M56.122 36.035c-1.456 3.333-4.793 6.39-7.198 9.024-2.118 2.321-4.354 4.562-6.312 7.027-.29.368-.1.749.22.925.02.037.029.078.058.113.483.612.482 1.483.605 2.223.117.715.363 1.47.14 2.187a.66.66 0 0 0 .003.402c-.381.378-.77.745-1.174 1.09-.663.566.225 1.595.89 1.027 3.193-2.727 5.621-6.514 8.36-9.69 1.946-2.255 4.301-4.406 6.038-6.903.663-.612 1.21-1.277 1.312-2.01.132-.131.203-.32.125-.567-.523-1.667-1.16-3.31-1.824-4.924-.245-.593-1.024-.425-1.243.076Z" clip-rule="evenodd"/><path fill="#E1FFE8" fill-rule="evenodd" d="M41.91 53.742c.598 1.228.884 2.443.661 3.794-.341 2.069-2.427 2.745-3.886 1.206-1.68-1.772-2.448-4.332-3.12-6.603-.007-.046-.002-.09-.019-.137-.659-1.913-.297-4.01-2.445-5.07-1.3-.64-2.809-.217-3.836.73-3.638 3.347 2.438 8.962-2.073 12.199-.7.502.195 1.491.89.991 2.192-1.572 2.523-3.651 2.114-6.152-.296-1.81-1.576-4.837.15-6.223 2.692-2.162 3.31 1.665 3.843 3.621.002.054-.005.104.014.165.833 2.812 2.415 8.872 6.347 8.805 4.097-.07 3.8-5.383 2.573-7.904-.374-.766-1.587-.189-1.213.578Z" clip-rule="evenodd"/><path fill="#35CE68" fill-rule="evenodd" d="M26.109 34.862c-1.212 1.122-1.16 1.14-2.385 2.243-.508.456.142 1.357.648.9 1.225-1.102 1.173-1.12 2.384-2.242.503-.466-.146-1.366-.647-.9ZM26.882 31.473c-1.26 1.113-2.693 2.119-4.002 3.188-.539.44.187 1.233.727.791 1.309-1.069 2.742-2.074 4.001-3.186.52-.46-.204-1.254-.726-.793ZM30.08 39.12c-2.15 1.588-2.879 1.969-6.341 4.847-.594.494.272 1.295.889.81 3.729-2.936 4.19-3.26 6.34-4.848.633-.466-.255-1.276-.888-.808ZM30.177 43.361c-1.96 1.505-.75.476-3.907 3.205-.542.468.248 1.227.81.767 3.402-2.782 1.947-1.7 3.907-3.205.578-.442-.232-1.21-.81-.767ZM26.015 26.352c-1.983 1.46-.749.452-3.97 3.129-.553.459.131 1.327.703.879 3.456-2.717 1.987-1.67 3.97-3.13.585-.428-.118-1.308-.703-.878ZM30.093 19.594c-3.233 2.632-6.472 5.257-9.692 7.904-.69.568.142 1.7.832 1.132 3.221-2.648 6.459-5.272 9.692-7.904.693-.565-.138-1.697-.832-1.132ZM32.63 19.248a2.074 2.074 0 0 1-.038-.216l-.087.05c-.058.035-.141.012-.25-.067a.623.623 0 0 1-.214-.238c-.04-.095.133-.279.523-.55.034-.452.148-.874.344-1.262.195-.39.46-.683.794-.878.108-.064.239-.06.392.015a.615.615 0 0 1 .314.31c.027.064.033.14.017.228s-.046.146-.09.173c-.014.007-.058-.016-.133-.069-.076-.054-.14-.065-.195-.032a1.17 1.17 0 0 0-.385.4 2.738 2.738 0 0 0-.291.631c.394-.23.715-.398.962-.502.246-.105.391-.106.435-.005.038.09-.11.268-.44.537-.332.27-.63.49-.895.66-.11.08-.179.129-.208.145-.001.045.005.123.017.235.42-.31.812-.57 1.175-.782.363-.212.566-.267.609-.166.07.162-.432.67-1.506 1.523.152.157.345.167.58.03.294-.172.601-.439.92-.8.109-.12.186-.191.229-.217.043-.025.084-.028.122-.009a.18.18 0 0 1 .086.096c.04.091.008.24-.096.446a3.026 3.026 0 0 1-.445.632 2.44 2.44 0 0 1-.572.489c-.632.37-1.109.303-1.43-.2-.04.028-.11.07-.21.128-.05.03-.13.006-.24-.073a.61.61 0 0 1-.21-.233c-.02-.044.119-.188.416-.43ZM33.48 28.593a2.13 2.13 0 0 1-.04-.215l-.086.05c-.058.034-.141.011-.25-.068a.614.614 0 0 1-.213-.238c-.041-.095.133-.278.522-.55.034-.451.149-.873.344-1.263.195-.389.46-.683.793-.877.11-.064.24-.06.392.014a.625.625 0 0 1 .315.31c.027.064.033.14.017.229-.016.088-.047.146-.092.172-.013.008-.056-.015-.131-.068-.076-.054-.14-.065-.196-.032-.137.08-.266.213-.384.4a2.667 2.667 0 0 0-.29.632 8.88 8.88 0 0 1 .96-.503c.247-.105.391-.106.435-.005.039.09-.109.268-.44.538-.332.27-.63.489-.894.659-.11.08-.18.129-.208.146 0 .044.005.122.017.233.42-.308.812-.569 1.174-.782.363-.212.566-.266.61-.165.07.162-.432.67-1.506 1.524.152.156.345.167.58.03.294-.173.602-.44.92-.8.11-.12.185-.192.228-.217.044-.026.084-.029.123-.01.038.02.067.052.087.096.04.092.007.24-.097.446a3.038 3.038 0 0 1-.445.632 2.435 2.435 0 0 1-.572.489c-.633.37-1.108.303-1.43-.2-.04.028-.11.071-.21.129-.05.03-.13.006-.24-.073a.614.614 0 0 1-.21-.234c-.02-.044.118-.187.416-.429ZM36.028 35.39a1.965 1.965 0 0 1-.039-.216l-.086.051c-.058.034-.14.011-.25-.07a.61.61 0 0 1-.213-.236c-.042-.095.132-.279.522-.55a3.34 3.34 0 0 1 .343-1.263c.196-.39.46-.683.794-.878.11-.064.24-.059.392.014a.627.627 0 0 1 .315.312c.027.063.033.139.017.227-.016.089-.047.146-.092.173-.012.007-.057-.016-.131-.069-.076-.053-.14-.064-.196-.032a1.199 1.199 0 0 0-.383.4 2.719 2.719 0 0 0-.292.632 8.98 8.98 0 0 1 .961-.503c.247-.104.392-.105.435-.004.039.09-.108.268-.44.538-.331.269-.63.488-.894.659-.11.08-.18.128-.209.145 0 .044.005.122.018.234.42-.309.813-.57 1.175-.782.362-.212.566-.266.61-.165.07.161-.433.669-1.507 1.523.152.156.345.167.58.03.294-.172.601-.439.92-.8.109-.12.186-.192.228-.217.044-.026.085-.029.122-.01a.182.182 0 0 1 .087.096c.04.092.008.241-.096.446a3.051 3.051 0 0 1-.445.632 2.43 2.43 0 0 1-.572.49c-.633.369-1.108.303-1.43-.2-.04.028-.11.07-.21.129-.05.03-.131.005-.24-.074a.621.621 0 0 1-.212-.234c-.018-.043.12-.186.418-.429Z" clip-rule="evenodd"/><path fill="#BBD9FD" fill-rule="evenodd" d="M78.519 40.8c.228-4.354-.003-3.97.207-8.236.076-.43.056-.924-.366-1.285-.591-.506-1.59-.528-2.494-.57-7.912-.63-15.285-1.17-23.184-1.805-.061-.015-.12-.03-.186-.037-.384-.041-.777-.101-1.156-.075-.514.012-.956.12-1.184.4a.922.922 0 0 0-.181.42c-.008.022-.025.038-.026.063l-.01.18c-.01.084-.02.168-.035.25-.004.02.012.04.017.061-.245 4.198-.649 4.909-.89 9.387 0 .225-.033.454.08.677.113.303.378.567.898.71.514.14 1.072.134 1.608.177.054.005.103-.005.153-.012 7.778.412 15.556.82 23.333 1.227.06.003.107-.006.159-.011h.003c.196.016.392.03.584.036.505.036.994.034 1.407-.071.156-.024.308-.055.447-.104.653-.23.827-.84.816-1.383Z" clip-rule="evenodd"/><path fill="#3281EE" fill-rule="evenodd" d="M58.732 33.445c-2.377-.293-.832-.195-4.894-.411-.696-.037-.779 1.223-.075 1.284 4.255.364 2.517.117 4.894.41.7.086.776-1.196.075-1.283ZM66.3 30.723c-3.834-.366-7.668-.74-11.504-1.085-.822-.074-.928 1.383-.105 1.457 3.836.345 7.67.718 11.504 1.086.822.078.928-1.38.106-1.458ZM73.933 37.616c-3.84-.254-17.859-.95-21.7-1.183-.823-.051-.902 1.312-.078 1.362 3.841.233 17.86.93 21.7 1.183.824.055.902-1.308.078-1.362ZM41.742 55.797c4.19-1.498 3.738-1.559 7.84-3.039.435-.099.893-.311 1.066-.837.242-.736-.132-1.655-.448-2.495h.001c-2.53-7.452-4.933-14.38-7.454-21.823-.01-.06-.02-.121-.039-.183-.113-.367-.212-.748-.385-1.083-.214-.463-.491-.824-.845-.92a.96.96 0 0 0-.466-.002c-.024.002-.047-.008-.07.002l-.173.06c-.084.024-.167.048-.251.068-.02.003-.032.027-.05.038-4.05 1.423-4.88 1.334-9.193 2.87-.213.086-.442.147-.607.337-.24.222-.385.566-.313 1.096.07.523.296 1.028.466 1.533.017.053.046.092.072.136 2.683 7.245 5.37 14.489 8.058 21.732.02.056.047.095.072.14l.002.003c.061.185.126.369.196.547.165.474.36.918.622 1.253.084.132.173.258.275.366.474.504 1.117.424 1.624.201Z" clip-rule="evenodd"/><path fill="#3281EE" fill-rule="evenodd" d="M39.647 33.985c-.886-2.38-.219-.866-2.014-4.835-.308-.68-1.596-.324-1.308.372 1.744 4.206 1.128 2.455 2.014 4.835.261.7 1.57.33 1.308-.372ZM43.898 39.875c-1.04-3.56-2.076-7.123-3.133-10.677-.227-.762-1.278-.372-1.052.391 1.057 3.555 2.093 7.117 3.134 10.677.223.764 1.275.372 1.051-.391ZM41.337 49.234c-1.37-3.415-6.58-15.803-7.97-19.212-.296-.731-1.585-.33-1.287.402 1.388 3.41 6.6 15.797 7.969 19.213.293.732 1.582.33 1.288-.403Z" clip-rule="evenodd"/><path fill="#FF8E8E" fill-rule="evenodd" d="M51.73 54.222c3.992 1.795 3.716 1.441 7.633 3.187.375.227.846.388 1.333.127.684-.366 1.06-1.287 1.423-2.111 3.41-7.126 6.543-13.785 9.953-20.898.036-.05.071-.101.1-.159.176-.342.373-.686.484-1.048.171-.482.228-.933.046-1.245a.934.934 0 0 0-.327-.321c-.018-.016-.028-.038-.05-.048-.059-.025-.108-.05-.165-.075-.075-.04-.151-.079-.222-.123-.018-.011-.042-.003-.063-.006-3.841-1.753-4.363-2.388-8.468-4.24-.21-.082-.413-.196-.662-.173-.324-.003-.665.146-.984.58-.315.425-.508.945-.74 1.427-.024.05-.031.099-.043.148-3.158 7.08-6.313 14.163-9.465 21.246-.025.055-.033.102-.046.152l-.002.003c-.085.176-.168.353-.242.53-.214.456-.386.91-.434 1.333a2.408 2.408 0 0 0-.063.453c-.017.691.492 1.074 1.003 1.261Z" clip-rule="evenodd"/><path fill="#F52D2D" fill-rule="evenodd" d="M66.29 36.96c1.158-2.299.483-.775 2.223-4.796.298-.69-.734-1.19-1.055-.5-1.939 4.166-1.065 2.497-2.223 4.795-.34.676.713 1.178 1.055.5Z" clip-rule="evenodd"/><path fill="#FF8E8E" fill-rule="evenodd" d="M66.154 43.72c1.355-3.535 2.716-7.066 4.057-10.608.288-.76-.642-1.33-.93-.57-1.342 3.543-2.702 7.074-4.058 10.608-.29.758.64 1.328.93.57Z" clip-rule="evenodd"/><path fill="#F52D2D" fill-rule="evenodd" d="M55.461 49.675c1.748-3.379 7.91-15.788 9.64-19.175.37-.725-.897-1.24-1.269-.514-1.729 3.386-7.892 15.795-9.64 19.174-.375.724.894 1.24 1.269.515Z" clip-rule="evenodd"/><path fill="#B7F6F7" fill-rule="evenodd" d="M63.556 45.633c-.493-2.936-.785-5.862-1.061-8.84a96 96 0 0 1-.51-6.633c-.094-1.362-.181-2.744-.13-4.11a1.027 1.027 0 0 0-.442-.506.963.963 0 0 0-.484-.138l-.067-.019-.202.034-.286.033c-4.67.842-16.044 1.897-21.023 2.811a1.697 1.697 0 0 0-.732.274c-.38.27-.612.69-.63 1.144-.02.587.005 1.175.079 1.76.01.055.025.109.045.162.824 8.457 1.685 16.886 2.582 25.288-.02.063.026.11.031.17.018.212.037.424.066.64a4.42 4.42 0 0 0 .322 1.472c.043.158.104.31.183.455.36.533 1.07.735 1.674.478 4.848-.917 15.794-3.453 20.52-4.358a1.572 1.572 0 0 0 1.361-.762c.22-.41.328-.865.315-1.325a68.194 68.194 0 0 1-1.611-8.03Z" clip-rule="evenodd"/><path fill="#2BD1D4" fill-rule="evenodd" d="M51.358 39.01c-2.738.66-5.591.992-8.412 1.573a.907.907 0 0 0 .375 1.776c2.796-.496 5.7-.96 8.412-1.573 1.14-.272.769-2.06-.375-1.776ZM51.407 33.892a62.048 62.048 0 0 0-7.632 1.6c-.47.098-.773.575-.678 1.064.095.49.553.806 1.022.707 6.643-1.377 3.896-.946 7.632-1.6 1.106-.185.751-1.92-.344-1.771ZM57.398 30.495c-4.87.744-9.723 1.409-14.583 2.128-.438.105-.683.466-.547.806.114.289.472.476.86.452 4.858-.747 9.714-1.42 14.571-2.13.447-.064.742-.398.659-.744-.083-.347-.513-.577-.96-.512Z" clip-rule="evenodd"/><path fill="#FFCB78" fill-rule="evenodd" d="M53.559 84.227c.432-14.376 5.324-28.499 5.03-42.922A1756.455 1756.455 0 0 0 8.07 38.409c-.857 12.76-.789 25.58.207 38.46.173 2.2 2.108 4.158 4.282 4.362 14.35 1.33 24.414 2.163 38.238 2.959.845.043 1.688.066 2.762.038Z" clip-rule="evenodd"/><path fill="#ED994C" fill-rule="evenodd" d="M8.054 38.656a474.44 474.44 0 0 1-3.763-4.714c-.491-.623-.346-1.55.32-2.073a1.591 1.591 0 0 1 1.024-.344c12.268.388 24.534.959 36.801 1.714 1.955.12 3.836.99 5.298 2.437 1.851 1.834 3.722 3.674 5.606 5.515a1777.607 1777.607 0 0 0-45.286-2.535Z" clip-rule="evenodd"/><path fill="#FFB15C" fill-rule="evenodd" d="M47.502 65.63c-.16-1.903-1.03-3.707-2.354-5.216-1.44-1.64-3.515-3.02-5.722-3.379-.431-3.622-3.028-6.934-6.78-8.177a9.987 9.987 0 0 0-2.171-.46v-.003h-.01l-.01-.001v.001a9.454 9.454 0 0 0-2.171.18c-3.752.755-6.35 3.73-6.78 7.296-2.209.072-4.284 1.182-5.722 2.636-1.324 1.336-2.196 3.027-2.356 4.911a7.267 7.267 0 0 0 .108 1.968c.13.901.534 2.225 1.114 3.254 1.524 2.704 4.12 3.952 7.334 4.715 1.775.42 3.46.714 8.316 1.03l.156.01h.02l.158.01c4.854.316 6.54.242 8.315.051 3.214-.345 5.811-1.255 7.334-3.762.58-.954.984-2.224 1.114-3.109a7.094 7.094 0 0 0 .107-1.955Z" clip-rule="evenodd"/><path fill="#FFCB78" fill-rule="evenodd" d="M36.644 65.37c-.359-.279-.78-.82-.766-1.074a.727.727 0 0 0-.317-.65.848.848 0 0 0-.8-.088.675.675 0 0 0-.417.595c-.022.37.093.694.26.988-2.506 1.115-5.837.848-8.204-.672.152-.297.232-.644.18-1.049-.06-.463-.504-.725-.882-.704-.397.022-.648.319-.598.704.057.445-.323.732-.828 1.061a.675.675 0 0 0-.302.658.823.823 0 0 0 .446.632.683.683 0 0 0 .679-.043c.122-.08.267-.175.417-.286 1.494.975 3.306 1.534 5.122 1.65 1.692.111 3.387-.162 4.825-.84.105.103.215.204.34.3a.8.8 0 0 0 .433.173.67.67 0 0 0 .57-.255c.236-.296.242-.787-.158-1.1Z" clip-rule="evenodd"/><path fill="#EFA158" fill-rule="evenodd" d="M85.115 37.756a507.963 507.963 0 0 0 3.762-4.924 1.453 1.453 0 0 0-.318-2.055 1.513 1.513 0 0 0-1.026-.287 1234.06 1234.06 0 0 0-23.486 2.284c-1.955.208-3.812 1.157-5.234 2.665-1.8 1.91-3.627 3.83-5.473 5.758a1797.095 1797.095 0 0 1 31.775-3.441Z" clip-rule="evenodd"/><path fill="#FFB15C" fill-rule="evenodd" d="M85.098 37.51a1775.71 1775.71 0 0 0-31.762 3.434c.167 14.407.135 28.84-.093 43.295a46.471 46.471 0 0 0 2.553-.226c8.271-1.064 16.542-2.2 24.814-3.43 2.174-.326 4.109-2.393 4.282-4.603a266.642 266.642 0 0 0 .206-38.47Z" clip-rule="evenodd"/><g fill-rule="evenodd" clip-path="url(#b)" clip-rule="evenodd"><path fill="#CBF7D8" d="M64 69.75c0-8.836 7.164-16 16-16s16 7.164 16 16-7.164 16-16 16-16-7.164-16-16Z"/><path fill="#35CE68" d="M81.06 61.81a1.5 1.5 0 0 0-2.12 0l-5.38 5.38c-.944.944-.275 2.56 1.061 2.56H77v6.5a1.5 1.5 0 0 0 1.5 1.5h3a1.5 1.5 0 0 0 1.5-1.5v-6.5h2.379c1.336 0 2.005-1.616 1.06-2.56l-5.378-5.38Z"/></g><defs><clipPath id="b"><path fill="#fff" d="M64 53.75h32v32H64z"/></clipPath></defs></svg>