<svg xmlns="http://www.w3.org/2000/svg" width="96" height="97" fill="none"><path fill="#BBD9FD" d="M15.72 92.538c2.684 1.273 9.56 2.37 15.105 2.821 15.125 1.205 36.265.568 45.218-1.636 9.032-2.214 9.434-5.584-13.518-7.278-19.543-1.43-42.358.578-47.226 3.595-1.313.803-1.234 1.704.421 2.498Z"/><circle cx="48.184" cy="40.913" r="39.184" fill="#C0F4C6"/><path fill="#09AE1C" fill-rule="evenodd" d="M64.828 27.922a4 4 0 0 0-5.656 0L40 47.093l-3.172-3.171a4 4 0 1 0-5.656 5.656l6 6a4 4 0 0 0 5.656 0l22-22a4 4 0 0 0 0-5.656Z" clip-rule="evenodd"/></svg>