<svg xmlns="http://www.w3.org/2000/svg" width="64" height="64" viewBox="0 0 64 64">
  <g fill="none" fill-rule="evenodd">
    <path fill="#855CEA" fill-rule="nonzero" d="M32,17.3818748 C38.4788008,17.3818748 43.7310547,22.7384047 43.7310547,29.3455954 C43.7310547,35.9527861 38.4788008,41.3093161 32,41.3093161 C25.5211992,41.3093161 20.2689453,35.9527861 20.2689453,29.3455954 C20.2689453,22.7384047 25.5211992,17.3818748 32,17.3818748 Z M32,58.9450016 C24.97375,58.9450016 18.6050907,56.0787139 14,51.4547232 C17.8412687,47.7235961 24.4673594,45.2587711 32,45.2587711 C39.5326406,45.2587711 46.1587313,47.7235961 50,51.4547232 C45.3949093,56.0787139 39.02625,58.9450016 32,58.9450016 Z"/>
    <g transform="translate(3)">
      <circle cx="29" cy="32" r="27" stroke="#C2ADF4" stroke-width="4"/>
      <circle cx="29" cy="6" r="6" fill="#C2ADF4"/>
      <circle cx="29" cy="58" r="6" fill="#C2ADF4"/>
      <circle cx="52" cy="47" r="6" fill="#C2ADF4"/>
      <circle cx="6" cy="47" r="6" fill="#C2ADF4"/>
      <circle cx="52" cy="18" r="6" fill="#C2ADF4"/>
      <circle cx="6" cy="18" r="6" fill="#C2ADF4"/>
    </g>
  </g>
</svg>
