<?xml version="1.0" encoding="UTF-8" standalone="no"?>
<svg width="24px" height="24px" viewBox="0 0 24 24" version="1.1" xmlns="http://www.w3.org/2000/svg" xmlns:xlink="http://www.w3.org/1999/xlink">
    <!-- Generator: Sketch 39.1 (31720) - http://www.bohemiancoding.com/sketch -->
    <title>icon-install</title>
    <desc>Created with Sketch.</desc>
    <defs></defs>
    <g id="Page-1" stroke="none" stroke-width="1" fill="none" fill-rule="evenodd">
        <g id="Group" transform="translate(-112.000000, -1.000000)">
            <g id="Fill-242-+-Fill-243" transform="translate(112.000000, 0.000000)">
                <path d="M20,22 L16,22 C15.724,22 15.5,21.776 15.5,21.5 C15.5,21.225 15.724,21 16,21 L20,21 C20.275,21 20.5,21.225 20.5,21.5 C20.5,21.776 20.275,22 20,22 M23.995,18.478 C23.992,18.423 23.982,18.368 23.963,18.316 C23.961,18.312 23.961,18.308 23.959,18.304 C23.94,18.26 23.915,18.218 23.884,18.181 L18.884,12.181 C18.789,12.066 18.648,12 18.5,12 L17,12 C16.724,12 16.5,12.225 16.5,12.5 C16.5,12.776 16.724,13 17,13 L18.266,13 L22.432,18 L1.567,18 L5.734,13 L6.5,13 C6.775,13 7,12.776 7,12.5 C7,12.225 6.775,12 6.5,12 L5.5,12 C5.352,12 5.211,12.066 5.115,12.181 L0.115,18.181 C0.084,18.218 0.059,18.26 0.04,18.304 L0.037,18.316 C0.016,18.368 0.007,18.423 0.004,18.478 C0.004,18.486 0,18.492 0,18.5 L0,22.5 C0,23.879 1.121,25 2.5,25 L21.5,25 C22.878,25 24,23.879 24,22.5 L24,18.5 C24,18.492 23.995,18.486 23.995,18.478" id="Fill-242" fill="#AFB9C6"></path>
                <path d="M11.1455,13.8535 C11.1915,13.8995 11.2475,13.9365 11.3085,13.9615 C11.3695,13.9875 11.4345,13.9995 11.4995,13.9995 C11.5645,13.9995 11.6285,13.9875 11.6905,13.9615 C11.7525,13.9365 11.8065,13.8995 11.8535,13.8535 L15.8535,9.8535 C16.0485,9.6585 16.0485,9.3415 15.8535,9.1465 C15.6585,8.9525 15.3415,8.9525 15.1465,9.1465 L11.9995,12.2935 L11.9995,1.4995 C11.9995,1.2245 11.7755,0.9995 11.4995,0.9995 C11.2235,0.9995 10.9995,1.2245 10.9995,1.4995 L10.9995,12.2935 L7.8535,9.1465 C7.6585,8.9525 7.3415,8.9525 7.1465,9.1465 C6.9515,9.3415 6.9515,9.6585 7.1465,9.8535 L11.1455,13.8535 Z" id="Fill-243" fill="#33A6FF"></path>
            </g>
        </g>
    </g>
</svg>