<svg xmlns="http://www.w3.org/2000/svg" xmlns:xlink="http://www.w3.org/1999/xlink" viewBox="0 0 634 96"><defs><style>.cls-1{fill:#fff;}.cls-2{fill:#b2d3ff;}.cls-3{mask:url(#mask);}.cls-4{mask:url(#mask-2-2);}.cls-5{mask:url(#mask-3);}.cls-6{mask:url(#mask-4-2);}.cls-7{fill:none;stroke:#b2d3ff;stroke-linecap:round;stroke-linejoin:round;stroke-width:0.5px;}.cls-8{fill:#197bff;}.cls-9{mask:url(#mask-5);}.cls-10{mask:url(#mask-6-2);}.cls-11{mask:url(#mask-7);}.cls-12{mask:url(#mask-8-2);}.cls-13{mask:url(#mask-9);}.cls-14{mask:url(#mask-10-2);}.cls-15{mask:url(#mask-11);}.cls-16{mask:url(#mask-12);}.cls-17{mask:url(#mask-13);}.cls-18{mask:url(#mask-14);}.cls-19{mask:url(#mask-15);}.cls-20{fill:#3281ee;}.cls-21{fill:#bbd9fd;}</style><mask id="mask" x="352.19" y="66.12" width="13.15" height="23.96" maskUnits="userSpaceOnUse"><g id="mask-2"><polygon id="path-1" class="cls-1" points="352.19 66.12 365.35 66.12 365.35 90.08 352.19 90.08 352.19 66.12"/></g></mask><mask id="mask-2-2" x="295.98" y="71.1" width="13.15" height="23.96" maskUnits="userSpaceOnUse"><g id="mask-4"><polygon id="path-3" class="cls-1" points="295.98 71.1 309.14 71.1 309.14 95.06 295.98 95.06 295.98 71.1"/></g></mask><mask id="mask-3" x="314.8" y="71.1" width="13.15" height="23.96" maskUnits="userSpaceOnUse"><g id="mask-6"><polygon id="path-5" class="cls-1" points="314.8 71.1 327.95 71.1 327.95 95.06 314.8 95.06 314.8 71.1"/></g></mask><mask id="mask-4-2" x="310.83" y="91.87" width="3.19" height="3.19" maskUnits="userSpaceOnUse"><g id="mask-8"><polygon id="path-7" class="cls-1" points="310.83 91.87 314.02 91.87 314.02 95.06 310.83 95.06 310.83 91.87"/></g></mask><mask id="mask-5" x="333.38" y="68.77" width="31.97" height="21.31" maskUnits="userSpaceOnUse"><g id="mask-10"><polygon id="path-9" class="cls-1" points="333.38 68.77 365.35 68.77 365.35 90.08 333.38 90.08 333.38 68.77"/></g></mask><mask id="mask-6-2" x="281.96" y="50.21" width="13.15" height="23.96" maskUnits="userSpaceOnUse"><g id="mask-2-3" data-name="mask-2"><polygon id="path-1-2" data-name="path-1" class="cls-1" points="281.96 50.21 295.11 50.21 295.11 74.17 281.96 74.17 281.96 50.21"/></g></mask><mask id="mask-7" x="225.72" y="67.92" width="13.15" height="23.96" maskUnits="userSpaceOnUse"><g id="mask-4-3" data-name="mask-4"><polygon id="path-3-2" data-name="path-3" class="cls-1" points="225.72 67.92 238.88 67.92 238.88 91.88 225.72 91.88 225.72 67.92"/></g></mask><mask id="mask-8-2" x="244.54" y="67.92" width="13.15" height="23.96" maskUnits="userSpaceOnUse"><g id="mask-6-3" data-name="mask-6"><polygon id="path-5-2" data-name="path-5" class="cls-1" points="244.54 67.92 257.69 67.92 257.69 91.88 244.54 91.88 244.54 67.92"/></g></mask><mask id="mask-9" x="240.57" y="88.69" width="3.19" height="3.19" maskUnits="userSpaceOnUse"><g id="mask-8-3" data-name="mask-8"><polygon id="path-7-2" data-name="path-7" class="cls-1" points="240.57 88.69 243.76 88.69 243.76 91.88 240.57 91.88 240.57 88.69"/></g></mask><mask id="mask-10-2" x="263.15" y="52.86" width="31.97" height="21.31" maskUnits="userSpaceOnUse"><g id="mask-10-3" data-name="mask-10"><polygon id="path-9-2" data-name="path-9" class="cls-1" points="263.15 52.86 295.11 52.86 295.11 74.17 263.15 74.17 263.15 52.86"/></g></mask><mask id="mask-11" x="405.84" y="72.04" width="13.15" height="23.96" maskUnits="userSpaceOnUse"><g id="mask-2-4" data-name="mask-2"><polygon id="path-1-3" data-name="path-1" class="cls-1" points="419 96 405.84 96 405.84 72.04 419 72.04 419 96"/></g></mask><mask id="mask-12" x="405.84" y="74.69" width="31.97" height="21.31" maskUnits="userSpaceOnUse"><g id="mask-10-4" data-name="mask-10"><polygon id="path-9-3" data-name="path-9" class="cls-1" points="437.81 96 405.84 96 405.84 74.69 437.81 74.69 437.81 96"/></g></mask><mask id="mask-13" x="389.84" y="59.47" width="13.15" height="23.96" maskUnits="userSpaceOnUse"><g id="mask-4-4" data-name="mask-4"><polygon id="path-3-3" data-name="path-3" class="cls-1" points="402.99 83.43 389.83 83.43 389.83 59.47 402.99 59.47 402.99 83.43"/></g></mask><mask id="mask-14" x="371.02" y="59.47" width="13.15" height="23.96" maskUnits="userSpaceOnUse"><g id="mask-6-4" data-name="mask-6"><polygon id="path-5-3" data-name="path-5" class="cls-1" points="384.17 83.43 371.02 83.43 371.02 59.47 384.17 59.47 384.17 83.43"/></g></mask><mask id="mask-15" x="384.95" y="80.24" width="3.19" height="3.19" maskUnits="userSpaceOnUse"><g id="mask-8-4" data-name="mask-8"><polygon id="path-7-3" data-name="path-7" class="cls-1" points="388.14 83.43 384.95 83.43 384.95 80.24 388.14 80.24 388.14 83.43"/></g></mask></defs><title>community-doc-banner</title><g id="Calque_3" data-name="Calque 3"><path id="Fill-1" class="cls-2" d="M317,76c-2.55,2.55-4.46,3.82-6.36,6.36l-5.09-5.08c-1.5-1.5,1.27-.26,1.27-2.55,0-4.56.52-2.54,5.09-2.54S317,71.41,317,76"/><path id="Fill-3" class="cls-2" d="M311.5,74.52c-5.58-.23-9.92-5.3-9.68-11.31s5-10.72,10.56-10.49S322.3,58,322.05,64s-5,10.71-10.55,10.49"/><path id="Fill-5" class="cls-2" d="M349.33,69.55c-5.58,0-10.12-4.89-10.12-10.91s4.54-10.91,10.12-10.91,10.13,4.9,10.13,10.91-4.55,10.91-10.13,10.91"/><path id="Fill-7" class="cls-2" d="M349,79.63a1.72,1.72,0,0,1-1.17-.47l-2.95-2.88a1.68,1.68,0,0,1,2.34-2.4L349,75.63l5.23-5A1.68,1.68,0,1,1,356.59,73L350.2,79.2a1.68,1.68,0,0,1-1.17.43"/><path id="Fill-9" class="cls-2" d="M335.05,90.08a1.67,1.67,0,0,1-1.67-1.67V78.65A8.55,8.55,0,0,1,341.82,70h0a7.42,7.42,0,0,0,1.37-2.57l.1-.25a1.67,1.67,0,1,1,3.1,1.26l-.09.24c-.65,1.67-1.86,4.68-4.32,4.68h-.16a5.19,5.19,0,0,0-5.1,5.29h0v9.77a1.68,1.68,0,0,1-1.68,1.67"/><g id="Group-13"><g class="cls-3"><path id="Fill-11" class="cls-2" d="M362,88.41V78.64h0a5.19,5.19,0,0,0-5.11-5.28h-.16c-2.45,0-3.67-3-4.32-4.68l-.09-.24a1.67,1.67,0,0,1,3.1-1.26l.1.25A7.42,7.42,0,0,0,356.89,70h0a8.56,8.56,0,0,1,8.44,8.65v9.77a1.68,1.68,0,0,1-3.35,0"/></g></g><path id="Fill-14" class="cls-2" d="M341.75,89.24a1.68,1.68,0,0,1-1.68-1.67V81.71a1.68,1.68,0,0,1,3.35,0v5.86a1.67,1.67,0,0,1-1.67,1.67"/><path id="Fill-16" class="cls-2" d="M309.91,84.18,303.51,78a1.68,1.68,0,1,1,2.32-2.42l5.23,5,1.79-1.75a1.67,1.67,0,0,1,2.34,2.39l-2.95,2.88a1.65,1.65,0,0,1-1.17.48,1.7,1.7,0,0,1-1.16-.43"/><g id="Group-20"><g class="cls-4"><path id="Fill-18" class="cls-2" d="M297.66,95.06A1.68,1.68,0,0,1,296,93.38V83.62A8.54,8.54,0,0,1,304.42,75h0a7.49,7.49,0,0,0,1.36-2.57l.11-.26a1.68,1.68,0,1,1,3.1,1.27l-.09.23c-.65,1.68-1.87,4.68-4.32,4.68h-.16a5.2,5.2,0,0,0-5.11,5.29h0v9.77a1.68,1.68,0,0,1-1.67,1.68"/></g></g><g id="Group-23"><g class="cls-5"><path id="Fill-21" class="cls-2" d="M324.6,93.38V83.61h0a5.19,5.19,0,0,0-5.1-5.29h-.16c-2.46,0-3.67-3-4.32-4.68l-.1-.23A1.68,1.68,0,0,1,318,72.14l.1.26A7.21,7.21,0,0,0,319.5,75h0A8.54,8.54,0,0,1,328,83.62v9.76a1.68,1.68,0,1,1-3.35,0"/></g></g><path id="Fill-24" class="cls-2" d="M304.36,94.22a1.68,1.68,0,0,1-1.68-1.67V86.69a1.68,1.68,0,1,1,3.35,0v5.86a1.67,1.67,0,0,1-1.67,1.67"/><path id="Fill-26" class="cls-2" d="M311,87.89a1.6,1.6,0,1,1,.76,2.13,1.6,1.6,0,0,1-.76-2.13"/><g id="Group-30"><g class="cls-6"><path id="Fill-28" class="cls-2" d="M311,92.78a1.6,1.6,0,1,1,.76,2.13,1.6,1.6,0,0,1-.76-2.13"/></g></g><path id="Fill-31" class="cls-2" d="M328.44,54.34c-5.58,0-10.12-4.9-10.12-10.91s4.54-10.91,10.12-10.91,10.13,4.89,10.13,10.91S334,54.34,328.44,54.34"/><path id="Fill-33" class="cls-2" d="M319.12,42l1.67-2.36c3.43-7.78,11-6.88,15.22.45l2,2c-6.71-2.76-13.22-3.67-18.93-.13"/><path id="Fill-35" class="cls-2" d="M328.85,60.58c-3.26,0-4.34-.67-5.62-1.89a3.14,3.14,0,0,0,.87-2.37s0-.65,0-.68a.28.28,0,0,0,0-.09V51.64l8.68-.09v2.91A1.46,1.46,0,0,0,334,55.88l1.66.31h0a1.23,1.23,0,0,0,0,.27v.16a6.9,6.9,0,0,1-6.1,4h-.65Z"/><path id="Stroke-37" class="cls-7" d="M328.85,60.58c-3.26,0-4.34-.67-5.62-1.89a3.14,3.14,0,0,0,.87-2.37s0-.65,0-.68a.28.28,0,0,0,0-.09V51.64l8.68-.09v2.91A1.46,1.46,0,0,0,334,55.88l1.66.31h0a1.23,1.23,0,0,0,0,.27v.16a6.9,6.9,0,0,1-6.1,4h-.65Z"/><path id="Fill-39" class="cls-8" d="M321.69,38.39a2.93,2.93,0,0,0-3.82-1.14,2.45,2.45,0,0,0-1.35,3.06,3.05,3.05,0,0,0,3.14,2,.73.73,0,0,0,.61-.42,2.44,2.44,0,0,0,1.42-3.55"/><path id="Fill-41" class="cls-8" d="M322.39,36.08a3,3,0,0,0-3.82-1.15A2.47,2.47,0,0,0,317.22,38a3,3,0,0,0,3.15,2,.7.7,0,0,0,.6-.41,2.9,2.9,0,0,0,1.26-.87,2.77,2.77,0,0,0,.16-2.68"/><path id="Fill-43" class="cls-8" d="M322,36.65a2.94,2.94,0,0,0-1.77,3.57A2.46,2.46,0,0,0,323,42.07a3,3,0,0,0,2.55-2.75.71.71,0,0,0-.31-.66,2.85,2.85,0,0,0-.64-1.39,2.78,2.78,0,0,0-2.62-.62"/><path id="Fill-45" class="cls-8" d="M327.1,35.75a3,3,0,0,0-1.78,3.57,2.47,2.47,0,0,0,2.8,1.85,3,3,0,0,0,2.54-2.75.69.69,0,0,0-.3-.66,2.94,2.94,0,0,0-.64-1.39,2.79,2.79,0,0,0-2.62-.62"/><path id="Fill-47" class="cls-8" d="M330.48,36.12a3,3,0,0,0-1.77,3.58,2.46,2.46,0,0,0,2.79,1.85,3.06,3.06,0,0,0,2.55-2.75.74.74,0,0,0-.31-.67,2.82,2.82,0,0,0-.64-1.38,2.79,2.79,0,0,0-2.62-.63"/><path id="Fill-49" class="cls-8" d="M331.93,34.68a2.94,2.94,0,0,0-1.78,3.57A2.46,2.46,0,0,0,333,40.1a3,3,0,0,0,2.54-2.75.67.67,0,0,0-.31-.66,2.83,2.83,0,0,0-.63-1.39,2.8,2.8,0,0,0-2.62-.62"/><path id="Fill-51" class="cls-8" d="M334.82,37.25A3,3,0,0,0,333,40.82a2.47,2.47,0,0,0,2.8,1.85,3,3,0,0,0,2.55-2.75.71.71,0,0,0-.31-.66,2.94,2.94,0,0,0-.64-1.39,2.78,2.78,0,0,0-2.62-.62"/><path id="Fill-53" class="cls-8" d="M323.9,33.39a3,3,0,0,0-3.83-1.14,2.46,2.46,0,0,0-1.35,3.06,3,3,0,0,0,3.15,2,.69.69,0,0,0,.6-.41,2.9,2.9,0,0,0,1.26-.87,2.8,2.8,0,0,0,.17-2.68"/><path id="Fill-55" class="cls-8" d="M326.63,31.82a3,3,0,0,0-3.83-1.14,2.47,2.47,0,0,0-1.35,3.07,3.07,3.07,0,0,0,3.15,2,.71.71,0,0,0,.6-.42,2.43,2.43,0,0,0,1.43-3.55"/><path id="Fill-57" class="cls-8" d="M329.41,30.7a2.93,2.93,0,0,0-3.82-1.14,2.45,2.45,0,0,0-1.35,3.06,3,3,0,0,0,3.14,2,.69.69,0,0,0,.6-.41,2.85,2.85,0,0,0,1.26-.87,2.77,2.77,0,0,0,.17-2.68"/><path id="Fill-59" class="cls-8" d="M332.19,30.7a2.93,2.93,0,0,0-3.82-1.14A2.45,2.45,0,0,0,327,32.62a3,3,0,0,0,3.15,2,.69.69,0,0,0,.6-.41,2.9,2.9,0,0,0,1.26-.87,2.77,2.77,0,0,0,.16-2.68"/><path id="Fill-61" class="cls-8" d="M335,31.82a3,3,0,0,0-3.83-1.14,2.46,2.46,0,0,0-1.34,3.07,3.06,3.06,0,0,0,3.14,2,.71.71,0,0,0,.6-.42A2.43,2.43,0,0,0,335,31.82"/><path id="Fill-63" class="cls-8" d="M337.09,33.39a2.93,2.93,0,0,0-3.82-1.14,2.45,2.45,0,0,0-1.35,3.06,3,3,0,0,0,3.15,2,.69.69,0,0,0,.6-.41,2.9,2.9,0,0,0,1.26-.87,2.8,2.8,0,0,0,.16-2.68"/><path id="Fill-65" class="cls-8" d="M332.76,33.39a2.94,2.94,0,0,0-3.83-1.14,2.45,2.45,0,0,0-1.34,3.06,3,3,0,0,0,3.14,2,.69.69,0,0,0,.6-.41,2.9,2.9,0,0,0,1.26-.87,2.77,2.77,0,0,0,.17-2.68"/><path id="Fill-67" class="cls-8" d="M329.87,34.83A3,3,0,0,0,326,33.69a2.46,2.46,0,0,0-1.34,3.07,3.06,3.06,0,0,0,3.14,2,.7.7,0,0,0,.6-.42,2.43,2.43,0,0,0,1.43-3.55"/><path id="Fill-69" class="cls-8" d="M327,36.28a2.94,2.94,0,0,0-3.83-1.14,2.45,2.45,0,0,0-1.34,3.06,3,3,0,0,0,3.14,2,.69.69,0,0,0,.6-.41,2.9,2.9,0,0,0,1.26-.87,2.77,2.77,0,0,0,.17-2.68"/><path id="Fill-71" class="cls-8" d="M338.68,35.38a2.93,2.93,0,0,0-3.82-1.14,2.45,2.45,0,0,0-1.35,3.06,3,3,0,0,0,3.14,2,.7.7,0,0,0,.61-.41,2.9,2.9,0,0,0,1.26-.87,2.8,2.8,0,0,0,.16-2.68"/><path id="Fill-73" class="cls-8" d="M339.88,37.2a3,3,0,0,0-3.83-1.14,2.46,2.46,0,0,0-1.34,3.07,3,3,0,0,0,3.14,2,.71.71,0,0,0,.6-.42,2.43,2.43,0,0,0,1.43-3.55"/><path id="Fill-75" class="cls-8" d="M340.55,39.54a3,3,0,0,0-3.83-1.15,2.46,2.46,0,0,0-1.34,3.07,3,3,0,0,0,3.14,2,.69.69,0,0,0,.6-.41,2.9,2.9,0,0,0,1.26-.87,2.8,2.8,0,0,0,.17-2.68"/><path id="Fill-77" class="cls-8" d="M321.11,40.82a2.93,2.93,0,0,0-3.82-1.14,2.46,2.46,0,0,0-1.35,3.07,3.06,3.06,0,0,0,3.14,2,.73.73,0,0,0,.61-.42,2.88,2.88,0,0,0,1.26-.86,2.82,2.82,0,0,0,.16-2.69"/><path id="Fill-79" class="cls-8" d="M358.11,56.88a3.5,3.5,0,0,0,.79-.58l.28-.12a10.7,10.7,0,0,0-6.35-7.77,3.82,3.82,0,0,0,1.12-.85,3.78,3.78,0,0,0,.32-4.23c-1.34-2.33-4.91-2.62-7.21-1.8-2,.73-3.38,2.69-2.55,4.84a4.46,4.46,0,0,0,1.53,2,10.9,10.9,0,0,0-6.83,10.31c0,.06,0,.11,0,.17l.79.27a4.07,4.07,0,0,0,.53.31,2.13,2.13,0,0,0,.35.14l.19.07a2.7,2.7,0,0,0,.49.12l.06,0a4.91,4.91,0,0,0,.86.08c2.74,0,5.95-2.07,8.11-3.92a6.46,6.46,0,0,0,3.53,1.68,6.66,6.66,0,0,0,3-.25,5.42,5.42,0,0,0,.74-.29l.27-.16"/><path id="Fill-81" class="cls-8" d="M321,62l.1-.07a5.37,5.37,0,0,0,.45-.35v0l.26-.2a10,10,0,0,0-19.72-.25l.51.34a7.54,7.54,0,0,0,2.18,1h0a10,10,0,0,0,8.38-1.36,6.48,6.48,0,0,0,3.61,1.75,7.37,7.37,0,0,0,1,.07,6,6,0,0,0,2.59-.57l.09,0A3.4,3.4,0,0,0,321,62"/><path id="Fill-83" class="cls-2" d="M354.82,72.25c-2.67,2.84-3.36,2.86-5.34,5.68l-5.69-5.34c-1.67-1.57,1.37-.32,1.29-2.8-.15-4.94.48-2.77,5.43-2.93s4.15.44,4.31,5.39"/><g id="Group-87"><g class="cls-9"><path id="Fill-85" class="cls-8" d="M359.26,70.36h0a7.46,7.46,0,0,0-1-.24l-.19,0a8.32,8.32,0,0,0-1.12-.09h0a7.6,7.6,0,0,1-.81-1.22l-7,6.86L344.52,72l-2.62-2.11s0,.07-.07.1h0a9.21,9.21,0,0,0-1.59.17h0a8.53,8.53,0,0,0-1.49.45h0a8.55,8.55,0,0,0-5.33,8v9.76a1.67,1.67,0,0,0,1.67,1.67h28.62a1.68,1.68,0,0,0,1.68-1.67V78.65a8.55,8.55,0,0,0-6.09-8.29"/></g></g><path id="Fill-5-2" data-name="Fill-5" class="cls-2" d="M279.1,53.64c-5.58,0-10.12-4.89-10.12-10.91s4.54-10.91,10.12-10.91,10.12,4.9,10.12,10.91-4.54,10.91-10.12,10.91"/><path id="Fill-7-2" data-name="Fill-7" class="cls-2" d="M278.8,63.72a1.68,1.68,0,0,1-1.17-.47l-2.95-2.88A1.68,1.68,0,0,1,277,58l1.79,1.75,5.23-5a1.68,1.68,0,0,1,2.32,2.42L280,63.29a1.68,1.68,0,0,1-1.17.43"/><path id="Fill-9-2" data-name="Fill-9" class="cls-2" d="M264.82,74.17a1.67,1.67,0,0,1-1.67-1.67V62.74a8.54,8.54,0,0,1,8.44-8.66h0A7.42,7.42,0,0,0,273,51.51l.1-.25a1.67,1.67,0,0,1,3.1,1.26l-.09.24c-.65,1.67-1.87,4.68-4.32,4.68h-.16a5.19,5.19,0,0,0-5.1,5.29h0V72.5a1.68,1.68,0,0,1-1.68,1.67"/><g id="Group-13-2" data-name="Group-13"><g class="cls-10"><path id="Fill-11-2" data-name="Fill-11" class="cls-2" d="M291.76,72.5V62.73h0a5.18,5.18,0,0,0-5.1-5.28h-.16c-2.45,0-3.67-3-4.32-4.68l-.09-.24a1.67,1.67,0,1,1,3.1-1.26l.1.25a7.42,7.42,0,0,0,1.37,2.57h0a8.54,8.54,0,0,1,8.43,8.65V72.5a1.68,1.68,0,0,1-3.35,0"/></g></g><path id="Fill-14-2" data-name="Fill-14" class="cls-2" d="M271.52,73.33a1.68,1.68,0,0,1-1.68-1.67V65.8a1.68,1.68,0,0,1,3.35,0v5.86a1.67,1.67,0,0,1-1.67,1.67"/><path id="Fill-31-2" data-name="Fill-31" class="cls-2" d="M253.72,42.83c-5.58,0-10.12-4.9-10.12-10.91S248.14,21,253.72,21s10.12,4.89,10.12,10.91-4.54,10.91-10.12,10.91"/><path id="Fill-33-2" data-name="Fill-33" class="cls-2" d="M244.4,30.46l1.67-2.36c3.43-7.78,11-6.88,15.21.44l2.05,2.05c-6.72-2.76-13.22-3.68-18.93-.13"/><path id="Fill-35-2" data-name="Fill-35" class="cls-2" d="M254.13,49.07c-3.26,0-4.35-.67-5.63-1.9a3.1,3.1,0,0,0,.88-2.36s0-.65,0-.69a.19.19,0,0,1,0-.08V40.13l8.68-.09V43a1.46,1.46,0,0,0,1.18,1.42l1.66.3h0a1.41,1.41,0,0,0,0,.28v.15a6.87,6.87,0,0,1-6.09,4h-.65Z"/><path id="Stroke-37-2" data-name="Stroke-37" class="cls-7" d="M254.13,49.07c-3.26,0-4.35-.67-5.63-1.9a3.1,3.1,0,0,0,.88-2.36s0-.65,0-.69a.19.19,0,0,1,0-.08V40.13l8.68-.09V43a1.46,1.46,0,0,0,1.18,1.42l1.66.3h0a1.41,1.41,0,0,0,0,.28v.15a6.87,6.87,0,0,1-6.09,4h-.65Z"/><path id="Fill-39-2" data-name="Fill-39" class="cls-8" d="M247,26.88a3,3,0,0,0-3.83-1.14,2.46,2.46,0,0,0-1.35,3.06,3,3,0,0,0,3.15,2,.69.69,0,0,0,.6-.41,2.9,2.9,0,0,0,1.26-.87,2.8,2.8,0,0,0,.17-2.68"/><path id="Fill-41-2" data-name="Fill-41" class="cls-8" d="M247.67,24.56a3,3,0,0,0-3.82-1.14,2.47,2.47,0,0,0-1.35,3.07,3,3,0,0,0,3.14,2,.71.71,0,0,0,.61-.42,2.77,2.77,0,0,0,1.25-.86,2.79,2.79,0,0,0,.17-2.69"/><path id="Fill-43-2" data-name="Fill-43" class="cls-8" d="M247.26,25.14a2.94,2.94,0,0,0-1.78,3.57,2.47,2.47,0,0,0,2.8,1.85,3.05,3.05,0,0,0,2.54-2.75.7.7,0,0,0-.31-.67,2.8,2.8,0,0,0-.63-1.38,2.77,2.77,0,0,0-2.62-.62"/><path id="Fill-45-2" data-name="Fill-45" class="cls-8" d="M252.37,24.23a3,3,0,0,0-1.77,3.58,2.46,2.46,0,0,0,2.79,1.85,3.05,3.05,0,0,0,2.55-2.75.7.7,0,0,0-.31-.67,2.73,2.73,0,0,0-.64-1.38,2.79,2.79,0,0,0-2.62-.63"/><path id="Fill-47-2" data-name="Fill-47" class="cls-8" d="M255.76,24.61A3,3,0,0,0,254,28.19a2.47,2.47,0,0,0,2.8,1.85,3.06,3.06,0,0,0,2.54-2.76.69.69,0,0,0-.31-.66,2.87,2.87,0,0,0-.63-1.39,2.82,2.82,0,0,0-2.62-.62"/><path id="Fill-49-2" data-name="Fill-49" class="cls-8" d="M257.2,23.17a2.94,2.94,0,0,0-1.77,3.57,2.46,2.46,0,0,0,2.79,1.85,3,3,0,0,0,2.55-2.75.71.71,0,0,0-.31-.66,2.43,2.43,0,0,0-3.26-2"/><path id="Fill-51-2" data-name="Fill-51" class="cls-8" d="M260.1,25.74a2.94,2.94,0,0,0-1.78,3.57,2.46,2.46,0,0,0,2.79,1.85,3.05,3.05,0,0,0,2.55-2.75.7.7,0,0,0-.31-.67,2.42,2.42,0,0,0-3.25-2"/><path id="Fill-53-2" data-name="Fill-53" class="cls-8" d="M249.17,21.87a3,3,0,0,0-3.82-1.14A2.47,2.47,0,0,0,244,23.8a3,3,0,0,0,3.15,2,.72.72,0,0,0,.6-.41,2.9,2.9,0,0,0,1.26-.87,2.82,2.82,0,0,0,.16-2.69"/><path id="Fill-55-2" data-name="Fill-55" class="cls-8" d="M251.9,20.31a2.94,2.94,0,0,0-3.82-1.14,2.46,2.46,0,0,0-1.35,3.07,3.06,3.06,0,0,0,3.14,2,.73.73,0,0,0,.61-.42,2.72,2.72,0,0,0,1.25-.86,2.79,2.79,0,0,0,.17-2.69"/><path id="Fill-57-2" data-name="Fill-57" class="cls-8" d="M254.69,19.19A3,3,0,0,0,250.86,18a2.48,2.48,0,0,0-1.35,3.07,3,3,0,0,0,3.15,2,.7.7,0,0,0,.6-.41,2.9,2.9,0,0,0,1.26-.87,2.8,2.8,0,0,0,.17-2.68"/><path id="Fill-59-2" data-name="Fill-59" class="cls-8" d="M257.47,19.19A3,3,0,0,0,253.65,18a2.47,2.47,0,0,0-1.35,3.07,3,3,0,0,0,3.14,2,.7.7,0,0,0,.6-.41,2.85,2.85,0,0,0,1.26-.87,2.77,2.77,0,0,0,.17-2.68"/><path id="Fill-61-2" data-name="Fill-61" class="cls-8" d="M260.25,20.31a2.94,2.94,0,0,0-3.82-1.14,2.46,2.46,0,0,0-1.35,3.07,3.07,3.07,0,0,0,3.15,2,.71.71,0,0,0,.6-.42,2.8,2.8,0,0,0,1.26-.86,2.79,2.79,0,0,0,.16-2.69"/><path id="Fill-63-2" data-name="Fill-63" class="cls-8" d="M262.37,21.87a3,3,0,0,0-3.82-1.14,2.47,2.47,0,0,0-1.35,3.07,3,3,0,0,0,3.14,2,.7.7,0,0,0,.6-.41,2.85,2.85,0,0,0,1.26-.87,2.79,2.79,0,0,0,.17-2.69"/><path id="Fill-65-2" data-name="Fill-65" class="cls-8" d="M258,21.87a3,3,0,0,0-3.82-1.14,2.47,2.47,0,0,0-1.35,3.07,3,3,0,0,0,3.15,2,.7.7,0,0,0,.6-.41,2.9,2.9,0,0,0,1.26-.87,2.79,2.79,0,0,0,.16-2.69"/><path id="Fill-67-2" data-name="Fill-67" class="cls-8" d="M255.14,23.32a2.94,2.94,0,0,0-3.82-1.14A2.46,2.46,0,0,0,250,25.25a3.07,3.07,0,0,0,3.15,2,.71.71,0,0,0,.6-.42A2.8,2.8,0,0,0,255,26a2.79,2.79,0,0,0,.16-2.69"/><path id="Fill-69-2" data-name="Fill-69" class="cls-8" d="M252.25,24.76a3,3,0,0,0-3.82-1.14,2.47,2.47,0,0,0-1.35,3.07,3,3,0,0,0,3.15,2,.7.7,0,0,0,.6-.41,2.9,2.9,0,0,0,1.26-.87,2.79,2.79,0,0,0,.16-2.69"/><path id="Fill-71-2" data-name="Fill-71" class="cls-8" d="M264,23.87a3,3,0,0,0-3.83-1.15,2.46,2.46,0,0,0-1.34,3.07,3,3,0,0,0,3.14,2,.7.7,0,0,0,.6-.41,2.9,2.9,0,0,0,1.26-.87,2.8,2.8,0,0,0,.17-2.68"/><path id="Fill-73-2" data-name="Fill-73" class="cls-8" d="M265.15,25.69a2.93,2.93,0,0,0-3.82-1.14A2.45,2.45,0,0,0,260,27.61a3,3,0,0,0,3.15,2,.69.69,0,0,0,.6-.41,2.9,2.9,0,0,0,1.26-.87,2.77,2.77,0,0,0,.16-2.68"/><path id="Fill-75-2" data-name="Fill-75" class="cls-8" d="M265.82,28A3,3,0,0,0,262,26.88,2.47,2.47,0,0,0,260.65,30a3,3,0,0,0,3.15,2,.71.71,0,0,0,.6-.42,2.8,2.8,0,0,0,1.26-.86,2.82,2.82,0,0,0,.16-2.69"/><path id="Fill-77-2" data-name="Fill-77" class="cls-8" d="M246.39,29.31a2.94,2.94,0,0,0-3.83-1.14,2.45,2.45,0,0,0-1.34,3.06,3,3,0,0,0,3.14,2,.69.69,0,0,0,.6-.41,2.9,2.9,0,0,0,1.26-.87,2.77,2.77,0,0,0,.17-2.68"/><path id="Fill-79-2" data-name="Fill-79" class="cls-8" d="M287.88,41a3.23,3.23,0,0,0,.78-.58l.29-.12a10.7,10.7,0,0,0-6.35-7.77,3.82,3.82,0,0,0,1.12-.85,3.78,3.78,0,0,0,.32-4.23c-1.34-2.33-4.91-2.62-7.21-1.8-2,.73-3.38,2.69-2.55,4.84a4.46,4.46,0,0,0,1.53,2A10.9,10.9,0,0,0,269,42.73v.17l.8.27a4.07,4.07,0,0,0,.53.31,2.13,2.13,0,0,0,.35.14l.19.07a2.81,2.81,0,0,0,.48.12l.07,0a4.91,4.91,0,0,0,.86.08c2.74,0,5.95-2.07,8.11-3.92a6.43,6.43,0,0,0,3.52,1.68,6.69,6.69,0,0,0,3-.25,5.42,5.42,0,0,0,.74-.29l.27-.16"/><path id="Fill-1-2" data-name="Fill-1" class="cls-2" d="M246.69,72.79c-2.55,2.55-4.46,3.82-6.36,6.36-2.55-2.54-3.6-3.59-5.09-5.09s1.27-.26,1.27-2.54c0-4.57.52-2.54,5.09-2.54s5.09-.75,5.09,3.81"/><path id="Fill-3-2" data-name="Fill-3" class="cls-2" d="M241.24,71.34c-5.58-.23-9.92-5.3-9.68-11.31s5-10.72,10.56-10.49,9.92,5.29,9.67,11.3-5,10.72-10.55,10.5"/><path id="Fill-16-2" data-name="Fill-16" class="cls-2" d="M239.65,81l-6.4-6.17a1.68,1.68,0,1,1,2.32-2.42l5.23,5,1.79-1.75a1.67,1.67,0,0,1,2.34,2.39L242,81a1.65,1.65,0,0,1-1.17.48,1.67,1.67,0,0,1-1.16-.44"/><g id="Group-20-2" data-name="Group-20"><g class="cls-11"><path id="Fill-18-2" data-name="Fill-18" class="cls-2" d="M227.4,91.88a1.68,1.68,0,0,1-1.68-1.68V80.44a8.55,8.55,0,0,1,8.44-8.66h0a7.31,7.31,0,0,0,1.36-2.57l.11-.25a1.68,1.68,0,1,1,3.1,1.27l-.09.23c-.65,1.68-1.87,4.68-4.32,4.68h-.16a5.2,5.2,0,0,0-5.11,5.29h0V90.2a1.68,1.68,0,0,1-1.67,1.68"/></g></g><g id="Group-23-2" data-name="Group-23"><g class="cls-12"><path id="Fill-21-2" data-name="Fill-21" class="cls-2" d="M254.34,90.2V80.43h0a5.19,5.19,0,0,0-5.1-5.29h-.16c-2.46,0-3.67-3-4.32-4.68l-.1-.23a1.69,1.69,0,0,1,.93-2.19,1.67,1.67,0,0,1,2.18.92l.1.25a7.17,7.17,0,0,0,1.37,2.57h0a8.55,8.55,0,0,1,8.44,8.66V90.2a1.68,1.68,0,1,1-3.35,0"/></g></g><path id="Fill-24-2" data-name="Fill-24" class="cls-2" d="M234.1,91a1.68,1.68,0,0,1-1.68-1.67V83.51a1.68,1.68,0,1,1,3.35,0v5.86A1.67,1.67,0,0,1,234.1,91"/><path id="Fill-26-2" data-name="Fill-26" class="cls-2" d="M240.72,84.71a1.6,1.6,0,0,1,2.12-.76,1.6,1.6,0,0,1-1.36,2.89,1.6,1.6,0,0,1-.76-2.13"/><g id="Group-30-2" data-name="Group-30"><g class="cls-13"><path id="Fill-28-2" data-name="Fill-28" class="cls-2" d="M240.72,89.6a1.59,1.59,0,1,1,.76,2.12,1.59,1.59,0,0,1-.76-2.12"/></g></g><path id="Fill-81-2" data-name="Fill-81" class="cls-8" d="M250.74,58.78a.39.39,0,0,0,.1-.08,3,3,0,0,0,.45-.35h0l.26-.21a10,10,0,0,0-19.72-.24l.51.34a7.54,7.54,0,0,0,2.18,1h0a10,10,0,0,0,8.38-1.36,6.4,6.4,0,0,0,3.61,1.74,6.15,6.15,0,0,0,1,.08,6,6,0,0,0,2.59-.57l.09,0c.18-.1.36-.2.52-.31"/><path id="Fill-1-3" data-name="Fill-1" class="cls-2" d="M307.69,41.39V45c0,1.16-2.76,2.43-3.51,3.14s-2.05-1.49-2.85-.42l-5.09-5.08c-1.5-1.5,1.27-.26,1.27-2.55,0-4.56.52-2.54,5.09-2.54s5.09-3.22,5.09,3.81"/><path id="Fill-3-3" data-name="Fill-3" class="cls-2" d="M302.24,39.94c-5.57-.23-9.92-5.3-9.67-11.31s5-10.72,10.55-10.49,9.92,5.3,9.68,11.3-5,10.72-10.56,10.5"/><path id="Fill-16-3" data-name="Fill-16" class="cls-2" d="M302.33,49.75l-6.39-6.17a1.68,1.68,0,1,1,2.32-2.42l5.23,5,1.79-1.75a1.68,1.68,0,0,1,2.34,2.4l-2.95,2.88a1.75,1.75,0,0,1-2.34,0"/><path id="Fill-81-3" data-name="Fill-81" class="cls-8" d="M311.75,27.38l.09-.07a4.12,4.12,0,0,0,.45-.35v0l.26-.21a10,10,0,0,0-19.72-.24l.51.34a7.54,7.54,0,0,0,2.18,1h0a10,10,0,0,0,8.38-1.36,6.48,6.48,0,0,0,3.61,1.75,7.41,7.41,0,0,0,1.05.07,6,6,0,0,0,2.58-.57l.09,0c.18-.1.36-.2.53-.31"/><path id="Fill-83-2" data-name="Fill-83" class="cls-2" d="M284.59,56.34c-2.67,2.84-3.36,2.86-5.34,5.68l-5.69-5.34c-1.67-1.57,1.37-.32,1.29-2.8-.15-4.94.48-2.77,5.43-2.93s4.15.44,4.31,5.39"/><g id="Group-87-2" data-name="Group-87"><g class="cls-14"><path id="Fill-85-2" data-name="Fill-85" class="cls-8" d="M289,54.45h0a7.46,7.46,0,0,0-1-.24l-.2,0a8,8,0,0,0-1.11-.09h0a7.6,7.6,0,0,1-.81-1.22l-7,6.86-4.52-3.63L271.67,54s0,.07-.07.1h0a9.2,9.2,0,0,0-1.58.17h0a8.53,8.53,0,0,0-1.49.45h0a8.55,8.55,0,0,0-5.33,8V72.5a1.67,1.67,0,0,0,1.67,1.67h28.62a1.67,1.67,0,0,0,1.67-1.67V62.74A8.53,8.53,0,0,0,289,54.45"/></g></g><path id="Fill-7-3" data-name="Fill-7" class="cls-2" d="M422.16,85.55a1.68,1.68,0,0,1-1.17-.43L414.6,79a1.67,1.67,0,1,1,2.31-2.42l5.24,5,1.79-1.75a1.67,1.67,0,0,1,2.34,2.39l-2.95,2.88a1.68,1.68,0,0,1-1.17.48"/><path id="Fill-9-3" data-name="Fill-9" class="cls-2" d="M436.14,96a1.68,1.68,0,0,1-1.68-1.68V84.56h0a5.19,5.19,0,0,0-5.1-5.29h-.16c-2.46,0-3.67-3-4.32-4.68l-.1-.23a1.68,1.68,0,0,1,3.11-1.27l.1.26a7.42,7.42,0,0,0,1.37,2.57h0a8.54,8.54,0,0,1,8.44,8.65v9.76A1.68,1.68,0,0,1,436.14,96"/><g id="Group-13-3" data-name="Group-13"><g class="cls-15"><path id="Fill-11-3" data-name="Fill-11" class="cls-2" d="M409.19,94.33a1.68,1.68,0,0,1-3.35,0V84.56a8.54,8.54,0,0,1,8.44-8.65h0a7.51,7.51,0,0,0,1.37-2.57l.1-.26a1.68,1.68,0,1,1,3.1,1.27l-.09.23c-.65,1.68-1.87,4.68-4.32,4.68h-.16a5.2,5.2,0,0,0-5.11,5.29h0v9.77"/></g></g><path id="Fill-14-3" data-name="Fill-14" class="cls-2" d="M429.44,95.16a1.68,1.68,0,0,1-1.68-1.67V87.63a1.68,1.68,0,1,1,3.35,0v5.86a1.67,1.67,0,0,1-1.67,1.67"/><path id="Fill-31-3" data-name="Fill-31" class="cls-2" d="M422.27,74.28c-5.58,0-10.12-4.9-10.12-10.91s4.54-10.91,10.12-10.91,10.12,4.89,10.12,10.91-4.54,10.91-10.12,10.91"/><path id="Fill-33-3" data-name="Fill-33" class="cls-2" d="M431.59,61.91c-5.71-3.55-12.21-2.63-18.93.13l2-2c4.21-7.32,11.78-8.22,15.21-.44l1.67,2.36"/><path id="Fill-35-3" data-name="Fill-35" class="cls-2" d="M421.83,80.52h-.62a6.9,6.9,0,0,1-6.1-4v-.16a1.24,1.24,0,0,0,0-.27h0l1.66-.3a1.46,1.46,0,0,0,1.18-1.42V71.49l8.68.09v3.91s0,.06,0,.09,0,.68,0,.68a3.1,3.1,0,0,0,.88,2.36c-1.28,1.23-2.37,1.9-5.63,1.9Z"/><path id="Stroke-37-3" data-name="Stroke-37" class="cls-7" d="M421.83,80.52h-.62a6.9,6.9,0,0,1-6.1-4v-.16a1.24,1.24,0,0,0,0-.27h0l1.66-.3a1.46,1.46,0,0,0,1.18-1.42V71.49l8.68.09v3.91s0,.06,0,.09,0,.68,0,.68a3.1,3.1,0,0,0,.88,2.36c-1.28,1.23-2.37,1.9-5.63,1.9Z"/><path id="Fill-39-3" data-name="Fill-39" class="cls-8" d="M429,58.33a2.8,2.8,0,0,0,.17,2.68,2.9,2.9,0,0,0,1.26.87.69.69,0,0,0,.6.41,3,3,0,0,0,3.14-2,2.45,2.45,0,0,0-1.34-3.06A2.94,2.94,0,0,0,429,58.33"/><path id="Fill-41-3" data-name="Fill-41" class="cls-8" d="M428.32,56a2.8,2.8,0,0,0,.16,2.68,2.9,2.9,0,0,0,1.26.87.72.72,0,0,0,.61.41,3,3,0,0,0,3.14-2,2.47,2.47,0,0,0-1.35-3.07A3,3,0,0,0,428.32,56"/><path id="Fill-43-3" data-name="Fill-43" class="cls-8" d="M428.73,56.59a2.79,2.79,0,0,0-2.62.62,3,3,0,0,0-.64,1.38.71.71,0,0,0-.3.67A3,3,0,0,0,427.71,62a2.47,2.47,0,0,0,2.8-1.85,3,3,0,0,0-1.78-3.57"/><path id="Fill-45-3" data-name="Fill-45" class="cls-8" d="M423.61,55.69a2.42,2.42,0,0,0-3.25,2,.7.7,0,0,0-.31.67,3.05,3.05,0,0,0,2.55,2.75,2.46,2.46,0,0,0,2.79-1.85,2.94,2.94,0,0,0-1.78-3.57"/><path id="Fill-47-3" data-name="Fill-47" class="cls-8" d="M420.23,56.06a2.81,2.81,0,0,0-2.62.62,3,3,0,0,0-.64,1.39.7.7,0,0,0-.3.66,3.05,3.05,0,0,0,2.54,2.76,2.47,2.47,0,0,0,2.8-1.85,3,3,0,0,0-1.78-3.58"/><path id="Fill-49-3" data-name="Fill-49" class="cls-8" d="M418.79,54.62a2.43,2.43,0,0,0-3.26,2,.69.69,0,0,0-.31.66A3,3,0,0,0,417.77,60a2.46,2.46,0,0,0,2.79-1.85,3,3,0,0,0-1.77-3.57"/><path id="Fill-51-3" data-name="Fill-51" class="cls-8" d="M415.89,57.19a2.8,2.8,0,0,0-2.62.62,2.83,2.83,0,0,0-.63,1.39.67.67,0,0,0-.31.66,3,3,0,0,0,2.54,2.75,2.47,2.47,0,0,0,2.8-1.85,3,3,0,0,0-1.78-3.57"/><path id="Fill-53-3" data-name="Fill-53" class="cls-8" d="M426.82,53.33A2.8,2.8,0,0,0,427,56a2.9,2.9,0,0,0,1.26.87.7.7,0,0,0,.6.41,3,3,0,0,0,3.15-2,2.47,2.47,0,0,0-1.35-3.07,3,3,0,0,0-3.82,1.15"/><path id="Fill-55-3" data-name="Fill-55" class="cls-8" d="M424.09,51.76a2.42,2.42,0,0,0,1.42,3.55.73.73,0,0,0,.61.42,3.06,3.06,0,0,0,3.14-2,2.46,2.46,0,0,0-1.35-3.07,2.94,2.94,0,0,0-3.82,1.14"/><path id="Fill-57-3" data-name="Fill-57" class="cls-8" d="M421.3,50.64a2.8,2.8,0,0,0,.17,2.68,2.9,2.9,0,0,0,1.26.87.69.69,0,0,0,.6.41,3,3,0,0,0,3.15-2,2.48,2.48,0,0,0-1.35-3.07,3,3,0,0,0-3.83,1.15"/><path id="Fill-59-3" data-name="Fill-59" class="cls-8" d="M418.52,50.64a2.77,2.77,0,0,0,.17,2.68,2.82,2.82,0,0,0,1.25.87.7.7,0,0,0,.61.41,3,3,0,0,0,3.14-2,2.47,2.47,0,0,0-1.35-3.07,3,3,0,0,0-3.82,1.15"/><path id="Fill-61-3" data-name="Fill-61" class="cls-8" d="M415.73,51.76a2.43,2.43,0,0,0,1.43,3.55.71.71,0,0,0,.6.42,3.07,3.07,0,0,0,3.15-2,2.47,2.47,0,0,0-1.35-3.07,3,3,0,0,0-3.83,1.14"/><path id="Fill-63-3" data-name="Fill-63" class="cls-8" d="M413.62,53.33a2.77,2.77,0,0,0,.17,2.68,2.87,2.87,0,0,0,1.25.87.72.72,0,0,0,.61.41,3,3,0,0,0,3.14-2,2.47,2.47,0,0,0-1.35-3.07,3,3,0,0,0-3.82,1.15"/><path id="Fill-65-3" data-name="Fill-65" class="cls-8" d="M418,53.33a2.8,2.8,0,0,0,.17,2.68,2.9,2.9,0,0,0,1.26.87.7.7,0,0,0,.6.41,3,3,0,0,0,3.15-2,2.48,2.48,0,0,0-1.35-3.07A3,3,0,0,0,418,53.33"/><path id="Fill-67-3" data-name="Fill-67" class="cls-8" d="M420.84,54.77a2.43,2.43,0,0,0,1.43,3.55.71.71,0,0,0,.6.42,3.07,3.07,0,0,0,3.15-2,2.47,2.47,0,0,0-1.35-3.07,3,3,0,0,0-3.83,1.14"/><path id="Fill-69-3" data-name="Fill-69" class="cls-8" d="M423.73,56.22a2.8,2.8,0,0,0,.17,2.68,2.9,2.9,0,0,0,1.26.87.7.7,0,0,0,.6.41,3,3,0,0,0,3.15-2,2.48,2.48,0,0,0-1.35-3.07,3,3,0,0,0-3.83,1.15"/><path id="Fill-71-3" data-name="Fill-71" class="cls-8" d="M412,55.32A2.77,2.77,0,0,0,412.2,58a2.9,2.9,0,0,0,1.26.87.69.69,0,0,0,.6.41,3,3,0,0,0,3.14-2,2.46,2.46,0,0,0-1.35-3.07A3,3,0,0,0,412,55.32"/><path id="Fill-73-3" data-name="Fill-73" class="cls-8" d="M410.83,57.14a2.43,2.43,0,0,0,1.43,3.55.71.71,0,0,0,.6.42,3.07,3.07,0,0,0,3.15-2A2.46,2.46,0,0,0,414.66,56a3,3,0,0,0-3.83,1.14"/><path id="Fill-75-3" data-name="Fill-75" class="cls-8" d="M410.17,59.48a2.77,2.77,0,0,0,.16,2.68,2.9,2.9,0,0,0,1.26.87.7.7,0,0,0,.6.41,3,3,0,0,0,3.15-2A2.47,2.47,0,0,0,414,58.33a3,3,0,0,0-3.82,1.15"/><path id="Fill-77-3" data-name="Fill-77" class="cls-8" d="M429.6,60.76A2.44,2.44,0,0,0,431,64.31a.71.71,0,0,0,.6.42,3.05,3.05,0,0,0,3.14-2.05,2.45,2.45,0,0,0-1.35-3.06,2.93,2.93,0,0,0-3.82,1.14"/><path id="Fill-83-3" data-name="Fill-83" class="cls-2" d="M416.37,78.16c.16-4.94-.64-5.53,4.31-5.38s5.58-2,5.42,2.93c-.07,2.47,3,1.23,1.3,2.8l-5.69,5.34c-2-2.82-2.67-2.84-5.34-5.69"/><g id="Group-87-3" data-name="Group-87"><g class="cls-16"><path id="Fill-85-3" data-name="Fill-85" class="cls-8" d="M411.93,76.27a8.55,8.55,0,0,0-6.09,8.29v9.76A1.68,1.68,0,0,0,407.52,96h28.62a1.68,1.68,0,0,0,1.67-1.68V84.56a8.53,8.53,0,0,0-5.33-8h0a8.2,8.2,0,0,0-1.48-.46h0a8.13,8.13,0,0,0-1.58-.17h0s0-.07-.07-.1l-2.62,2.11-4.52,3.63-7-6.86a7.6,7.6,0,0,1-.81,1.22h0a8.32,8.32,0,0,0-1.12.09L413,76a9.22,9.22,0,0,0-1,.24h0"/></g></g><path id="Fill-1-4" data-name="Fill-1" class="cls-2" d="M382,64.34c0-4.56.52-3.81,5.08-3.81s5.09-2,5.09,2.54c0,2.28,2.77,1.05,1.27,2.54s-2.54,2.55-5.09,5.09c-1.9-2.54-3.81-3.81-6.35-6.36"/><path id="Fill-3-4" data-name="Fill-3" class="cls-2" d="M387.47,62.89c-5.57.22-10.31-4.49-10.55-10.5s4.1-11.08,9.67-11.3,10.31,4.48,10.56,10.49-4.1,11.08-9.68,11.31"/><path id="Fill-16-4" data-name="Fill-16" class="cls-2" d="M389.06,72.54a1.71,1.71,0,0,1-2.33,0l-3-2.88a1.67,1.67,0,0,1,2.34-2.39L387.91,69l5.23-5a1.68,1.68,0,1,1,2.32,2.42l-6.4,6.17"/><g id="Group-20-3" data-name="Group-20"><g class="cls-17"><path id="Fill-18-3" data-name="Fill-18" class="cls-2" d="M401.31,83.43a1.68,1.68,0,0,1-1.67-1.68V72h0a5.2,5.2,0,0,0-5.11-5.29h-.16c-2.45,0-3.67-3-4.32-4.68l-.09-.23a1.68,1.68,0,1,1,3.11-1.27l.1.25a7.31,7.31,0,0,0,1.36,2.57h0A8.55,8.55,0,0,1,403,72v9.76a1.68,1.68,0,0,1-1.68,1.68"/></g></g><g id="Group-23-3" data-name="Group-23"><g class="cls-18"><path id="Fill-21-3" data-name="Fill-21" class="cls-2" d="M374.37,81.75a1.68,1.68,0,1,1-3.35,0V72a8.55,8.55,0,0,1,8.44-8.66h0a7.31,7.31,0,0,0,1.36-2.57l.1-.25a1.68,1.68,0,0,1,3.11,1.27L384,62c-.65,1.68-1.86,4.68-4.32,4.68h-.15A5.2,5.2,0,0,0,374.37,72h0v9.77"/></g></g><path id="Fill-24-3" data-name="Fill-24" class="cls-2" d="M394.61,82.59a1.67,1.67,0,0,1-1.67-1.67V75.06a1.68,1.68,0,1,1,3.35,0v5.86a1.68,1.68,0,0,1-1.68,1.67"/><path id="Fill-26-3" data-name="Fill-26" class="cls-2" d="M388,76.26a1.59,1.59,0,1,1-2.88,1.36,1.59,1.59,0,0,1,.76-2.12,1.6,1.6,0,0,1,2.12.76"/><g id="Group-30-3" data-name="Group-30"><g class="cls-19"><path id="Fill-28-3" data-name="Fill-28" class="cls-2" d="M388,81.15a1.59,1.59,0,1,1-2.12-.76,1.59,1.59,0,0,1,2.12.76"/></g></g><path id="Fill-79-3" data-name="Fill-79" class="cls-8" d="M395.59,49.05a3.67,3.67,0,0,0,.79-.58l.29-.13a10.73,10.73,0,0,0-6.36-7.77,3.66,3.66,0,0,0,1.13-.84,3.8,3.8,0,0,0,.31-4.23c-1.34-2.34-4.91-2.63-7.21-1.8-2,.73-3.37,2.69-2.54,4.83a4.42,4.42,0,0,0,1.53,2,10.89,10.89,0,0,0-6.84,10.31s0,.11,0,.17l.8.26a4.15,4.15,0,0,0,.53.32l.34.13.2.08a4.21,4.21,0,0,0,.48.12h.06A4.93,4.93,0,0,0,380,52c2.73,0,5.94-2.07,8.1-3.93a6.62,6.62,0,0,0,6.51,1.43,5.8,5.8,0,0,0,.73-.28l.27-.16"/><path id="Fill-1-5" data-name="Fill-1" class="cls-2" d="M372.24,40.34V44c0,1.16-2.76,2.43-3.5,3.14s-2.05-1.49-2.86-.42l-5.08-5.09c-1.5-1.49,1.27-.26,1.27-2.54,0-4.57.52-2.55,5.08-2.55s5.09-3.21,5.09,3.82"/><path id="Fill-3-5" data-name="Fill-3" class="cls-2" d="M366.8,38.88c-5.58-.22-9.92-5.29-9.68-11.3s5-10.72,10.56-10.5,9.91,5.3,9.67,11.31-5,10.72-10.55,10.49"/><path id="Fill-16-5" data-name="Fill-16" class="cls-2" d="M366.89,48.69l-6.4-6.17a1.68,1.68,0,0,1,2.32-2.42l5.23,5,1.79-1.75a1.67,1.67,0,0,1,2.34,2.39l-2.95,2.88a1.71,1.71,0,0,1-2.33,0"/><path id="Fill-81-4" data-name="Fill-81" class="cls-8" d="M376.3,26.33l.09-.08a4,4,0,0,0,.46-.35h0l.27-.21a10,10,0,0,0-19.73-.24l.52.34a7.48,7.48,0,0,0,2.17,1h0a10.06,10.06,0,0,0,8.38-1.36,6.37,6.37,0,0,0,3.61,1.74,7.17,7.17,0,0,0,1,.08,6,6,0,0,0,2.59-.57l.08-.05a4.54,4.54,0,0,0,.53-.3"/><path id="Fill-5-3" data-name="Fill-5" class="cls-2" d="M407.41,44.44c-5.58,0-10.12-4.9-10.12-10.91s4.54-10.91,10.12-10.91,10.12,4.89,10.12,10.91S413,44.44,407.41,44.44"/><path id="Fill-79-4" data-name="Fill-79" class="cls-8" d="M416.19,31.77a3.52,3.52,0,0,0,.78-.58l.29-.13a10.7,10.7,0,0,0-6.36-7.77,3.66,3.66,0,0,0,1.13-.84,3.78,3.78,0,0,0,.32-4.23c-1.34-2.34-4.91-2.63-7.21-1.8-2,.73-3.38,2.69-2.55,4.83a4.49,4.49,0,0,0,1.53,2,10.89,10.89,0,0,0-6.83,10.31v.17l.8.26a4.15,4.15,0,0,0,.53.32l.34.14.2.07a4.21,4.21,0,0,0,.48.12h.07a4,4,0,0,0,.86.09c2.73,0,5.94-2.07,8.11-3.93a6.33,6.33,0,0,0,3.52,1.68,6.55,6.55,0,0,0,3-.24c.26-.09.5-.18.74-.29l.27-.16"/><path id="Fill-35-4" data-name="Fill-35" class="cls-2" d="M408.51,50.2c-3.26,0-4.35-.66-5.63-1.89a3.13,3.13,0,0,0,.88-2.36s0-.66,0-.69a.28.28,0,0,1,0-.09V41.26l8.68-.09v2.91a1.45,1.45,0,0,0,1.18,1.42l1.66.31h0a1.27,1.27,0,0,0,0,.28v.15a6.88,6.88,0,0,1-6.09,4h-.65Z"/><path class="cls-20" d="M115.78,71.41c2.77-.1,2.74-4.44-.1-4.44a2.8,2.8,0,0,0-1.48.3h0s0,0,0-.06a8.56,8.56,0,0,0,0-1.34A2.28,2.28,0,0,0,112,63.63a2.23,2.23,0,0,0-2.22,2.23,9.45,9.45,0,0,1,0,1.19l-.54,0c-.28-.11-.46,0-.84,0a2.44,2.44,0,0,0-2.23,2.6,1.79,1.79,0,0,0,1.49,1.85c.62.3,1.31.06,2,.11,0,.32.06.64.07,1,.1,2.86,4.55,2.87,4.45,0,0-.29,0-.57-.07-.86A5.33,5.33,0,0,0,115.78,71.41Z"/><path class="cls-20" d="M149.67,18.46c2.77-.1,2.74-4.44-.09-4.44a2.86,2.86,0,0,0-1.49.3h0a0,0,0,0,0,0-.06,7.5,7.5,0,0,0,0-1.34,2.26,2.26,0,0,0-2.22-2.23,2.24,2.24,0,0,0-2.23,2.23,9.46,9.46,0,0,1,0,1.19l-.54,0c-.29-.11-.46,0-.85,0a2.44,2.44,0,0,0-2.22,2.6,1.8,1.8,0,0,0,1.48,1.85c.63.3,1.32.06,2,.11,0,.32,0,.65.06,1,.11,2.87,4.56,2.88,4.45,0,0-.29,0-.57-.06-.86A5.22,5.22,0,0,0,149.67,18.46Z"/><path class="cls-21" d="M73.1,36.26c2.77-.1,2.74-4.44-.1-4.44a2.8,2.8,0,0,0-1.48.3h0s0,0,0-.06a8.56,8.56,0,0,0,0-1.34,2.27,2.27,0,0,0-2.23-2.22,2.22,2.22,0,0,0-2.22,2.22,7.88,7.88,0,0,1,0,1.19l-.54,0c-.28-.11-.46,0-.84,0a2.44,2.44,0,0,0-2.23,2.6A1.79,1.79,0,0,0,65,36.3c.62.3,1.31.06,2,.11,0,.32.06.65.07,1,.1,2.86,4.55,2.88,4.45,0,0-.29,0-.57-.07-.86A5.33,5.33,0,0,0,73.1,36.26Z"/><path class="cls-21" d="M175,72.51c2.77-.1,2.74-4.44-.1-4.44a2.71,2.71,0,0,0-1.48.3h0s0,0,0-.06a8.56,8.56,0,0,0,0-1.34,2.28,2.28,0,0,0-2.23-2.23A2.23,2.23,0,0,0,168.92,67a7.88,7.88,0,0,1,0,1.19l-.54,0c-.28-.11-.46,0-.84,0a2.44,2.44,0,0,0-2.23,2.6,1.79,1.79,0,0,0,1.49,1.85c.62.3,1.31.06,2,.1,0,.33,0,.65.06,1,.1,2.86,4.55,2.87,4.45,0,0-.29,0-.57-.06-.86A5.31,5.31,0,0,0,175,72.51Z"/><path class="cls-21" d="M10.61,55.73c2.77-.1,2.74-4.44-.09-4.44a2.71,2.71,0,0,0-1.48.3H9s0,0,0-.06a7.5,7.5,0,0,0,0-1.34,2.23,2.23,0,1,0-4.45,0,9.41,9.41,0,0,1,0,1.19l-.54,0c-.29-.11-.46,0-.85,0A2.44,2.44,0,0,0,1,53.92a1.8,1.8,0,0,0,1.48,1.85c.63.3,1.32.06,2,.1,0,.33.05.65.06,1,.11,2.86,4.56,2.87,4.45,0A8.28,8.28,0,0,0,9,56,5.22,5.22,0,0,0,10.61,55.73Z"/><path class="cls-21" d="M81.77,49.57a2.77,2.77,0,0,0,1.1,1.57,2.71,2.71,0,0,0,3.58-.66,2.65,2.65,0,0,0-.85-3.94,2.68,2.68,0,0,0-3.8,1.69A2.65,2.65,0,0,0,81.77,49.57Z"/><path class="cls-21" d="M124.94,54.16a2.78,2.78,0,0,0,1.1,1.57,2.68,2.68,0,0,0,3.58-.66,2.63,2.63,0,0,0-.85-3.93,2.68,2.68,0,0,0-3.8,1.69A2.61,2.61,0,0,0,124.94,54.16Z"/><path class="cls-20" d="M34.64,55.41A2.77,2.77,0,0,0,35.73,57a2.7,2.7,0,0,0,3.59-.65,2.64,2.64,0,0,0-.86-3.94,2.67,2.67,0,0,0-3.79,1.69A2.5,2.5,0,0,0,34.64,55.41Z"/><path class="cls-20" d="M106.78,25.57a2.84,2.84,0,0,0,1.1,1.58,2.7,2.7,0,0,0,3.58-.66,2.64,2.64,0,0,0-.85-3.94,2.67,2.67,0,0,0-3.79,1.69A2.51,2.51,0,0,0,106.78,25.57Z"/><path class="cls-20" d="M189.11,41.76a2.84,2.84,0,0,0,1.1,1.58,2.7,2.7,0,0,0,3.58-.66,2.63,2.63,0,1,0-4.64-2.25A2.5,2.5,0,0,0,189.11,41.76Z"/><path class="cls-20" d="M215.11,72.83a2.74,2.74,0,0,0,1.1,1.57,2.7,2.7,0,0,0,3.58-.66,2.64,2.64,0,0,0-.86-3.94,2.68,2.68,0,0,0-3.79,1.7A2.61,2.61,0,0,0,215.11,72.83Z"/><path class="cls-20" d="M30.29,29.09c2.77-.1,2.74-4.43-.09-4.43a2.85,2.85,0,0,0-1.49.29h0s0,0,0-.06a10,10,0,0,0,0-1.34,2.26,2.26,0,0,0-2.22-2.22,2.23,2.23,0,0,0-2.23,2.22,9.51,9.51,0,0,1,0,1.19l-.54,0c-.29-.11-.46,0-.85,0a2.43,2.43,0,0,0-2.22,2.59,1.8,1.8,0,0,0,1.48,1.86c.63.3,1.32.06,2,.1,0,.33.05.65.06,1,.11,2.86,4.56,2.87,4.45,0,0-.29,0-.58-.06-.86A5.58,5.58,0,0,0,30.29,29.09Z"/><path class="cls-21" d="M155.25,84.11a2.83,2.83,0,0,0,1.1,1.57,2.68,2.68,0,0,0,3.58-.66,2.62,2.62,0,0,0-.85-3.93,2.66,2.66,0,0,0-3.79,1.69A2.5,2.5,0,0,0,155.25,84.11Z"/><path class="cls-21" d="M220.51,57a2.77,2.77,0,0,0,1.09,1.57,2.71,2.71,0,0,0,3.59-.66,2.65,2.65,0,0,0-.85-3.94,2.69,2.69,0,0,0-3.8,1.7A2.61,2.61,0,0,0,220.51,57Z"/><path class="cls-20" d="M519.21,71.41c-2.77-.1-2.74-4.44.09-4.44a2.8,2.8,0,0,1,1.48.3h0s0,0,0-.06a7.5,7.5,0,0,1,0-1.34A2.26,2.26,0,0,1,523,63.63a2.24,2.24,0,0,1,2.23,2.23,9.46,9.46,0,0,0,0,1.19l.54,0c.29-.11.46,0,.85,0a2.44,2.44,0,0,1,2.22,2.6,1.8,1.8,0,0,1-1.48,1.85c-.63.3-1.32.06-2,.11,0,.32,0,.64-.06,1-.11,2.86-4.56,2.87-4.45,0,0-.29,0-.57.06-.86A5.22,5.22,0,0,1,519.21,71.41Z"/><path class="cls-21" d="M561.89,36.26c-2.77-.1-2.75-4.44.09-4.44a2.8,2.8,0,0,1,1.48.3h0a0,0,0,0,1,0-.06,8.56,8.56,0,0,1,0-1.34,2.27,2.27,0,0,1,2.23-2.22,2.22,2.22,0,0,1,2.22,2.22,11.81,11.81,0,0,0,0,1.19l.54,0c.29-.11.47,0,.84,0a2.44,2.44,0,0,1,2.23,2.6A1.8,1.8,0,0,1,570,36.3c-.63.3-1.32.06-2,.11,0,.32-.05.65-.07,1-.1,2.86-4.55,2.88-4.45,0,0-.29,0-.57.07-.86A5.22,5.22,0,0,1,561.89,36.26Z"/><path class="cls-21" d="M624.37,55.73c-2.77-.1-2.74-4.44.1-4.44a2.73,2.73,0,0,1,1.48.3h0s0,0,0-.06a8.56,8.56,0,0,1,0-1.34A2.26,2.26,0,0,1,628.17,48a2.24,2.24,0,0,1,2.23,2.23,7.86,7.86,0,0,0,0,1.19l.54,0c.28-.11.46,0,.84,0a2.44,2.44,0,0,1,2.22,2.6,1.79,1.79,0,0,1-1.48,1.85c-.63.3-1.32.06-2,.1,0,.33-.05.65-.06,1-.1,2.86-4.56,2.87-4.45,0,0-.29,0-.57.06-.86A5.22,5.22,0,0,1,624.37,55.73Z"/><path class="cls-21" d="M553.18,48.23a2.67,2.67,0,0,0-3.79-1.69,2.63,2.63,0,0,0-.85,3.94,2.7,2.7,0,0,0,3.58.66,2.86,2.86,0,0,0,1.1-1.57A2.54,2.54,0,0,0,553.18,48.23Z"/><path class="cls-21" d="M510,52.83a2.68,2.68,0,0,0-3.8-1.69,2.64,2.64,0,0,0-.85,3.93,2.7,2.7,0,0,0,3.59.66A2.77,2.77,0,0,0,510,54.16,2.61,2.61,0,0,0,510,52.83Z"/><path class="cls-21" d="M491,38.15a2.68,2.68,0,0,0-3.8-1.69,2.64,2.64,0,0,0-.85,3.94,2.7,2.7,0,0,0,3.58.66,2.82,2.82,0,0,0,1.1-1.57A2.65,2.65,0,0,0,491,38.15Z"/><path class="cls-21" d="M445.94,54.88a2.68,2.68,0,0,0-3.8-1.7,2.65,2.65,0,0,0-.85,3.94,2.72,2.72,0,0,0,3.59.66A2.77,2.77,0,0,0,446,56.21,2.61,2.61,0,0,0,445.94,54.88Z"/><path class="cls-20" d="M600.31,54.08a2.67,2.67,0,0,0-3.79-1.69,2.63,2.63,0,0,0-.85,3.94,2.69,2.69,0,0,0,3.58.65,2.83,2.83,0,0,0,1.1-1.57A2.5,2.5,0,0,0,600.31,54.08Z"/><path class="cls-20" d="M528.17,24.24a2.68,2.68,0,0,0-3.8-1.69,2.65,2.65,0,0,0-.85,3.94,2.7,2.7,0,0,0,3.58.66,2.84,2.84,0,0,0,1.1-1.58A2.61,2.61,0,0,0,528.17,24.24Z"/><path class="cls-20" d="M495.74,60.11a2.68,2.68,0,0,0-3.79-1.7,2.63,2.63,0,0,0-.85,3.94,2.69,2.69,0,0,0,3.58.66,2.83,2.83,0,0,0,1.1-1.57A2.5,2.5,0,0,0,495.74,60.11Z"/><path class="cls-20" d="M491,89.63a2.67,2.67,0,0,0-3.79-1.69,2.64,2.64,0,0,0-.85,3.94,2.7,2.7,0,0,0,3.58.66,2.82,2.82,0,0,0,1.1-1.57A2.54,2.54,0,0,0,491,89.63Z"/><path class="cls-20" d="M454.7,36.71A2.66,2.66,0,0,0,450.91,35a2.63,2.63,0,0,0-.85,3.94,2.7,2.7,0,0,0,3.58.65,2.83,2.83,0,0,0,1.1-1.57A2.5,2.5,0,0,0,454.7,36.71Z"/><path class="cls-20" d="M604.69,29.09c-2.77-.1-2.74-4.43.1-4.43a2.81,2.81,0,0,1,1.48.29h0s0,0,0-.06a10,10,0,0,1,0-1.34,2.27,2.27,0,0,1,2.23-2.22,2.22,2.22,0,0,1,2.22,2.22,7.9,7.9,0,0,0,0,1.19l.54,0c.28-.11.46,0,.84,0a2.43,2.43,0,0,1,2.22,2.59,1.79,1.79,0,0,1-1.48,1.86c-.62.3-1.31.06-2,.1,0,.33,0,.65-.06,1-.1,2.86-4.55,2.87-4.45,0,0-.29,0-.58.06-.86A5.58,5.58,0,0,1,604.69,29.09Z"/><g id="Mask-16" data-name="Mask"><path id="path-1-4" data-name="path-1" class="cls-2" d="M482.43,8.18A1.5,1.5,0,0,1,484.17,7l20.68,3.65a1.51,1.51,0,0,1,1.22,1.74L503.2,28.6a1.51,1.51,0,0,1-1.73,1.22L491.12,28l-9.64,2.87.78-4.43-1.48-.26a1.51,1.51,0,0,1-1.22-1.74Zm4.87,7a1.49,1.49,0,0,0,1.21,1.74l8.87,1.56a1.5,1.5,0,0,0,1.73-1.21,1.48,1.48,0,0,0-1.21-1.74L489,13.91A1.51,1.51,0,0,0,487.3,15.13Zm-.78,4.43a1.49,1.49,0,0,0,1.2,1.74l5.93,1.05a1.51,1.51,0,0,0,1.73-1.22,1.5,1.5,0,0,0-1.2-1.74l-5.94-1.05A1.5,1.5,0,0,0,486.52,19.56Z"/></g><g id="Mask-17" data-name="Mask"><path id="path-1-5" data-name="path-1" class="cls-8" d="M209,76.23A1.51,1.51,0,0,1,207.82,78l-1.48.26.78,4.43-9.64-2.87-10.35,1.83a1.5,1.5,0,0,1-1.73-1.22l-2.87-16.25a1.51,1.51,0,0,1,1.22-1.74l20.68-3.64A1.49,1.49,0,0,1,206.17,60Zm-9.47-10.51-8.87,1.56a1.5,1.5,0,1,0,.52,3l8.87-1.56a1.5,1.5,0,0,0-.52-3Zm.79,4.43-5.94,1a1.5,1.5,0,0,0,.52,3l5.94-1.05a1.5,1.5,0,0,0-.52-2.95Z"/></g><path class="cls-8" d="M212.89,40a3.84,3.84,0,0,0-3.16-1.12,9,9,0,1,1,8.42-8.54,6.33,6.33,0,0,0,1.22,3.13,1,1,0,0,1-.11,1.15L214,40A.8.8,0,0,1,212.89,40Z"/><path class="cls-8" d="M220.84,35.18l0,3.5a2,2,0,0,1-.54,1.28l-1,1a2.07,2.07,0,0,1-1.27.54H214.5Z"/><path class="cls-21" d="M208.36,13.28c.16-5.5.48-5.52.86-11,.16-2.26-3.37-2.45-3.53-.18-.37,5.51-.7,5.53-.86,11C204.76,15.36,208.29,15.56,208.36,13.28Z"/><path class="cls-21" d="M199.08,16.89c-3.77-4-3.56-4.25-7.19-8.41-1.49-1.71-4.12.65-2.62,2.37,3.62,4.16,3.41,4.4,7.18,8.4C198,20.9,200.64,18.55,199.08,16.89Z"/><path class="cls-21" d="M194.17,24.34c-5.5-.17-5.52-.49-11-.87-2.26-.15-2.45,3.37-.18,3.53,5.51.38,5.53.7,11,.86C196.25,27.93,196.45,24.4,194.17,24.34Z"/><path class="cls-8" d="M455.89,84.37,450.59,79a.93.93,0,0,1-.11-1.14,6.38,6.38,0,0,0,1.22-3.14,9,9,0,1,1,8.41,8.54A3.84,3.84,0,0,0,457,84.4.78.78,0,0,1,455.89,84.37Z"/><path class="cls-8" d="M455.34,86l-3.5,0a2,2,0,0,1-1.27-.54l-1.05-1a2,2,0,0,1-.53-1.28v-3.5Z"/><path class="cls-21" d="M461.49,57.66c-.17-5.5-.49-5.52-.87-11-.15-2.26,3.37-2.45,3.53-.18.38,5.51.7,5.53.86,11C465.08,59.74,461.55,59.94,461.49,57.66Z"/><path class="cls-21" d="M470.77,61.27c3.77-4,3.55-4.24,7.18-8.41,1.49-1.71,4.12.65,2.63,2.37-3.63,4.16-3.42,4.4-7.19,8.4C471.84,65.28,469.2,62.93,470.77,61.27Z"/><path class="cls-21" d="M475.68,68.72c5.49-.17,5.52-.49,11-.86,2.27-.16,2.46,3.37.19,3.52-5.51.38-5.53.7-11,.86C473.59,72.31,473.4,68.78,475.68,68.72Z"/><path class="cls-20" d="M288.36,12.94c2.77-.1,2.75-4.44-.09-4.44a2.71,2.71,0,0,0-1.48.3h0s0,0,0-.06a7.5,7.5,0,0,0,0-1.34,2.26,2.26,0,0,0-2.22-2.23,2.22,2.22,0,0,0-2.22,2.23,9.3,9.3,0,0,1,0,1.18l-.54,0c-.28-.11-.46,0-.84,0a2.43,2.43,0,0,0-2.23,2.59A1.8,1.8,0,0,0,280.24,13c.62.3,1.31.06,2,.1,0,.33.05.65.07,1,.1,2.86,4.55,2.87,4.44,0a8.28,8.28,0,0,0-.06-.86A5.52,5.52,0,0,0,288.36,12.94Z"/><path class="cls-21" d="M349.86,14.86c2.77-.1,2.74-4.44-.09-4.44a2.76,2.76,0,0,0-1.49.3h0s0-.05,0-.06a8.56,8.56,0,0,0,0-1.34,2.26,2.26,0,0,0-2.22-2.23,2.23,2.23,0,0,0-2.23,2.23,9.41,9.41,0,0,1,0,1.19l-.55,0c-.28-.11-.46,0-.84,0A2.43,2.43,0,0,0,340.25,13a1.8,1.8,0,0,0,1.48,1.86c.63.3,1.32.06,2,.1,0,.33.05.65.06,1,.1,2.86,4.56,2.87,4.45,0,0-.29,0-.57-.06-.86A5.22,5.22,0,0,0,349.86,14.86Z"/><path class="cls-21" d="M314.37,3.35a2.9,2.9,0,0,0,1.1,1.57,2.7,2.7,0,0,0,3.58-.66A2.63,2.63,0,0,0,318.2.32,2.67,2.67,0,0,0,314.41,2,2.54,2.54,0,0,0,314.37,3.35Z"/><path class="cls-20" d="M377.13,7.63a2.81,2.81,0,0,0,1.1,1.58,2.7,2.7,0,0,0,3.58-.66A2.64,2.64,0,0,0,381,4.61a2.68,2.68,0,0,0-3.8,1.69A2.61,2.61,0,0,0,377.13,7.63Z"/><path class="cls-20" d="M325.38,21.08a2.78,2.78,0,0,0,1.1,1.57,2.7,2.7,0,0,0,3.58-.66,2.64,2.64,0,0,0-.85-3.94,2.67,2.67,0,0,0-3.79,1.7A2.5,2.5,0,0,0,325.38,21.08Z"/><path class="cls-21" d="M241.83,8.94a2.78,2.78,0,0,0,1.1,1.57,2.69,2.69,0,0,0,3.58-.66,2.64,2.64,0,0,0-.85-3.94,2.68,2.68,0,0,0-3.8,1.7A2.61,2.61,0,0,0,241.83,8.94Z"/><path class="cls-20" d="M223.15,23.74a2.78,2.78,0,0,0,1.1,1.57,2.7,2.7,0,0,0,3.58-.66,2.64,2.64,0,0,0-.85-3.94,2.67,2.67,0,0,0-3.79,1.7A2.5,2.5,0,0,0,223.15,23.74Z"/><path class="cls-21" d="M389.4,18.46A2.78,2.78,0,0,0,390.5,20a2.69,2.69,0,0,0,3.58-.66,2.63,2.63,0,0,0-.85-3.93,2.68,2.68,0,0,0-3.8,1.69A2.61,2.61,0,0,0,389.4,18.46Z"/><path class="cls-20" d="M412.46,7.63a2.82,2.82,0,0,0,1.11,1.58,2.71,2.71,0,0,0,3.58-.66,2.64,2.64,0,0,0-.86-3.94A2.67,2.67,0,0,0,412.5,6.3,2.73,2.73,0,0,0,412.46,7.63Z"/><g id="Mask-18" data-name="Mask"><path id="path-1-6" data-name="path-1" class="cls-2" d="M151.16,37.05a4.49,4.49,0,0,1,3.65-5.23l14.76-2.6a1.49,1.49,0,0,1,1.74,1.21h0a1.5,1.5,0,0,1-1.22,1.74l-14.76,2.6a1.5,1.5,0,0,0-1.22,1.74h0a1.49,1.49,0,0,0,1.72,1.22l6.68-1.18a.74.74,0,0,1,.85.6l1.43,8.14,2-1.87,2.48,1.09-1.44-8.14a.73.73,0,0,1,.6-.85l2.23-.4a1.53,1.53,0,0,1,1.74,1.22L175,51.11a1.5,1.5,0,0,1-1.23,1.74L159,55.45a4.49,4.49,0,0,1-5.22-3.66Z"/></g><g id="Mask-19" data-name="Mask"><path id="path-1-7" data-name="path-1" class="cls-8" d="M434.1,10.16a4.52,4.52,0,0,1,3.66-5.23l14.75-2.6a1.51,1.51,0,0,1,1.75,1.22h0A1.52,1.52,0,0,1,453,5.29l-14.76,2.6a1.49,1.49,0,0,0-1.22,1.74h0a1.5,1.5,0,0,0,1.72,1.22l6.67-1.18a.75.75,0,0,1,.86.6l1.43,8.13,2-1.86,2.47,1.08-1.43-8.13a.73.73,0,0,1,.6-.86l2.23-.39a1.5,1.5,0,0,1,1.73,1.22l2.61,14.76A1.52,1.52,0,0,1,456.68,26l-14.76,2.6a4.5,4.5,0,0,1-5.22-3.66Z"/></g></g></svg>