<svg xmlns="http://www.w3.org/2000/svg" viewBox="0 0 404 264"><defs><style>.cls-1{isolation:isolate;}.cls-14,.cls-2{fill:#288afc;}.cls-3{fill:none;}.cls-4{fill:#bbd9fd;}.cls-5{fill:#f4393d;}.cls-6{fill:#fee2ca;}.cls-7{fill:#961d01;}.cls-8{fill:#e49c74;}.cls-9{fill:#fedba7;}.cls-10{fill:#fd9a9b;}.cls-11{fill:#80492a;}.cls-12{fill:#cb7544;}.cls-13{fill:#c9b8f4;}.cls-14,.cls-16{mix-blend-mode:multiply;}.cls-15{fill:#3281ee;}.cls-17{fill:#b82222;}.cls-18{fill:#f52d2d;}</style></defs><title>FAQ-doc-banner</title><g class="cls-1"><g id="Calque_3" data-name="Calque 3"><path class="cls-2" d="M128.36,146.45c5.21,20.32,20.33,38.6,32.92,46.35,34.27,21.08,84.21,14,106.91-19.39,22.94-33.56,26.64-86.42-25.52-116-44.37-25.24-99.32,3.22-113.24,49.82A75,75,0,0,0,128.36,146.45Z"/><path class="cls-2" d="M308,48a48,48,0,1,1,7.2,25.3A48,48,0,0,1,308,48Z"/><path class="cls-3" d="M404,48a48,48,0,1,0-82.78,33.07c.21-.78.48-1.58.57-1.8a25.07,25.07,0,0,1,3.14-6.35,34.17,34.17,0,0,1,4-3.1c4.85-3,11-3,16.67-3.6a94.92,94.92,0,0,1,21.51,0c4.77.55,10.57,1.28,14.27,4.67,2.08,1.9,2.87,4.33,3.75,7,.22.67,1.36,5.07,1.8,6.87A47.89,47.89,0,0,0,404,48Z"/><path class="cls-4" d="M381.41,70.86c-3.7-3.39-9.5-4.12-14.27-4.67a94.92,94.92,0,0,0-21.51,0c-5.64.64-11.82.59-16.67,3.6a34.17,34.17,0,0,0-4,3.1,25.07,25.07,0,0,0-3.14,6.35c-.09.22-.36,1-.57,1.8a48.1,48.1,0,0,0,15.87,11.05,7.15,7.15,0,0,1,.92-3.06,17.48,17.48,0,0,1,4.85-5.49,22.68,22.68,0,0,1,12.62-4.66A19.11,19.11,0,0,1,374.3,92.39,48.09,48.09,0,0,0,387,84.68c-.44-1.8-1.58-6.2-1.8-6.87C384.28,75.19,383.49,72.76,381.41,70.86Z"/><path class="cls-5" d="M343,94.2a.43.43,0,0,1,0-.07,6.51,6.51,0,0,1,.63-3.92A12.3,12.3,0,0,1,347,86.43a15.71,15.71,0,0,1,8.68-3.2,13.15,13.15,0,0,1,13.34,11,48.35,48.35,0,0,0,5.32-1.83,19.11,19.11,0,0,0-18.82-13.48,22.68,22.68,0,0,0-12.62,4.66A17.48,17.48,0,0,0,338,89.06a7.15,7.15,0,0,0-.92,3.06c1,.45,2.1.87,3.18,1.24C341.15,93.67,342.05,93.94,343,94.2Z"/><path class="cls-6" d="M361.55,95.68c-2.42,0-4.83-.08-7.25-.12l-5,0a47.73,47.73,0,0,0,12.27.16Z"/><path class="cls-4" d="M355.64,83.23a15.71,15.71,0,0,0-8.68,3.2,12.3,12.3,0,0,0-3.33,3.78,6.51,6.51,0,0,0-.63,3.92.43.43,0,0,0,0,.07,47.23,47.23,0,0,0,6.32,1.32l5,0c2.42,0,4.83.09,7.25.12A47,47,0,0,0,369,94.22,13.15,13.15,0,0,0,355.64,83.23Z"/><path class="cls-7" d="M377.93,14.28c-7-10.72-15.86-6.21-15.75-7.29-.13,0,8.08,4.31,8,4.38a.8.8,0,0,0-.43.55.5.5,0,0,0,.25.53c.46,2.65-3.68,4.12-2.21,6.32,1.28,1.91,2,5.12,2.62,7.33.49,1.66,4.29,6.09,4.8,7.69.14.44,2.92-3,3.2-3.28a7.31,7.31,0,0,0,2.74-4.93C381.42,22.75,379.43,16.59,377.93,14.28Z"/><path class="cls-7" d="M329.39,28.29a7.29,7.29,0,0,0,2.74,4.93c.28.25,3.05,3.71,3.19,3.27.52-1.6,4.32-6,4.8-7.68.65-2.21,1.34-5.42,2.62-7.33,1.47-2.2-2.66-3.68-2.21-6.32a.49.49,0,0,0,.26-.53c-.05-.29-.21-.4-.44-.55s8.1-4.39,8-4.38c.11,1.08-8.75-3.43-15.75,7.29C331.07,19.3,329.09,25.46,329.39,28.29Z"/><path class="cls-8" d="M348.17,61.52a4.92,4.92,0,0,1,.24,2c0,1.76-.79,3.32-.7,3.93s.45,1.34,2.47,2.39c3.23,1.69,8.29,1.77,12.49-.38,1-.49,2-1.08,1.69-2.64-.26-1.28-.83-1-.46-5.24C364,57,345.86,56.31,348.17,61.52Z"/><path class="cls-8" d="M338.7,32.88v0h0s0-.09,0-.14a.44.44,0,0,0-.27-.33c-.54-1.19-1.86-1.27-3-.77-1.72.75-1.83,3.88-1.91,5.35a9.59,9.59,0,0,0,2,7.09c.84,1,2.53,1.08,2.94-.23v-.07a8.47,8.47,0,0,0,.42-2.88A52,52,0,0,0,338.7,32.88Z"/><path class="cls-8" d="M378.45,32c-1.62-.91-2.5.32-3.25,1.64a.48.48,0,0,0,0,.46l0,.07c-.69,2.29-3.47,6.14-2.28,8.7a.49.49,0,0,0,.32.77c.85.21,1.29,1,2.18,1.2.72.18,1.37-.42,1.81-.91,1.58-1.8,2-4.68,2.17-7C379.46,35.59,380,32.82,378.45,32Z"/><path class="cls-8" d="M374.07,21c-2-5.75-5.82-11-11.8-12.81C358.56,7,353,6.39,350,9.61a.69.69,0,0,0-1,0c-2.28,2.36-4.39,4.06-6,7a35.67,35.67,0,0,0-4,10.62c-1.38,7.19-1.68,13.6.28,20.72,1.62,5.84,5,11.6,10.48,14.34a13.76,13.76,0,0,0,15.14-2.1C375.35,51.12,378.55,33.71,374.07,21Z"/><path class="cls-9" d="M353.48,50.34h-.08a.52.52,0,0,0-.55.41.59.59,0,0,0-.1.21,3.88,3.88,0,0,0,2.15,4.3,2,2,0,0,0,1,.32V50.34C355.08,50.37,354.28,50.35,353.48,50.34Z"/><path class="cls-9" d="M358.27,50.34h.08a.52.52,0,0,1,.55.41.59.59,0,0,1,.1.21,3.86,3.86,0,0,1-2.15,4.3,2,2,0,0,1-1,.32V50.34C356.67,50.37,357.47,50.35,358.27,50.34Z"/><path class="cls-7" d="M364,35.93a3.9,3.9,0,0,0-1,.38.21.21,0,0,1,0,.06,2.76,2.76,0,0,0,.16,3.47,2,2,0,0,0,1.84.47A1.83,1.83,0,0,0,366.23,39a2.77,2.77,0,0,0-.55-3A3.32,3.32,0,0,0,364,35.93Z"/><path class="cls-7" d="M368.34,35c-.3-.6-1.7-1.09-2.32-1.18a6.92,6.92,0,0,0-2.27-.07A14.77,14.77,0,0,0,361,34.87c-.7.28,0,1.14.58.89s1-.42,1.46-.6h0a3.59,3.59,0,0,1,1-.39,3.32,3.32,0,0,1,1.72.06h0a3.56,3.56,0,0,1,1.6.63.49.49,0,0,0,.67.34H368A.52.52,0,0,0,368.34,35Z"/><path class="cls-7" d="M348,35.93a3.9,3.9,0,0,1,1,.38l0,.06a2.73,2.73,0,0,1-.16,3.47,2,2,0,0,1-1.83.47A1.83,1.83,0,0,1,345.76,39a2.79,2.79,0,0,1,.55-3A3.33,3.33,0,0,1,348,35.93Z"/><path class="cls-7" d="M343.7,32.6a3.79,3.79,0,0,1,2.52-.62,6.8,6.8,0,0,1,2.23.44,14.79,14.79,0,0,1,2.47,1.69c.62.43-.21,1.12-.76.73s-.87-.64-1.29-.92h0a3.88,3.88,0,0,0-.86-.59,3.34,3.34,0,0,0-1.69-.33h0a3.51,3.51,0,0,0-1.7.26.5.5,0,0,1-.73.17l-.05,0A.51.51,0,0,1,343.7,32.6Z"/><path class="cls-7" d="M374.46,44.33c-.46-.42-1-.14-1.42.18a5.42,5.42,0,0,0-.88.91l-.62.29a4.17,4.17,0,0,0-.55.2,8.2,8.2,0,0,0-2.24,1.6,4.66,4.66,0,0,1-7.26-1.1c-1-1.8-2.56-1.22-4.44-1.22a21.81,21.81,0,0,1-4.12,0,3.25,3.25,0,0,0-1.89.27,3.33,3.33,0,0,0-1.18,1.42c-1.29,2.2-3.62,1.72-5.49.75-.87-.45-5.57-4.77-6-3.48a1.64,1.64,0,0,0-.39,1,1.59,1.59,0,0,0-.06.3,3.28,3.28,0,0,0,.06,1,6.7,6.7,0,0,0,.1.73,21,21,0,0,0,1.9,5.66,19,19,0,0,0,6.95,7.79A17.09,17.09,0,0,0,358.56,63c2.58.12,6-2,7.6-3.18a17.64,17.64,0,0,0,3.1-3l.35-.41a26,26,0,0,0,2.92-4.63l.17-.29a25.46,25.46,0,0,0,2-6.44C374.66,44.65,374.66,44.5,374.46,44.33ZM355.85,57c-2.13.08-3.65-1.49-4.44-3.28A6.65,6.65,0,0,1,351,52a5.74,5.74,0,0,1,.68-2.57,4.88,4.88,0,0,1,.58-.34h7.56a2.75,2.75,0,0,1,1.08,1.39C360.94,53.52,358.94,56.88,355.85,57Z"/><path class="cls-10" d="M335.89,33.93a.76.76,0,0,0,0-.14,17.59,17.59,0,0,0-.82-3.43.41.41,0,0,0,.22-.41c-.2-2.2-1-3.11-2.63-3.22a1.5,1.5,0,0,0-.94.25,1.37,1.37,0,0,0-.32.16c-1.76,1.11-2,3.16-2.17,5.59,0,.29,0,.58,0,.87a9.47,9.47,0,0,0,0,1.19v1.57a.32.32,0,0,0,0,.14,15.94,15.94,0,0,0,.95,4.89,3.3,3.3,0,0,0,1.65,2.06c.59.65,1.12.68,1.58.29.78.52,1.62.3,2.25-.72C336.8,41.05,336.69,37.21,335.89,33.93Z"/><path class="cls-5" d="M336.36,32.22c-.22-2.61-1.22-6.32-1.73-3.64a1.08,1.08,0,0,0,0,.19c-.71,1.76-1.14,6.55-.94,10.25.24,4.57,1.34,6.24,2.13,4.07S336.69,36.19,336.36,32.22Z"/><path class="cls-7" d="M339.35,34.37a14,14,0,0,1-.83-4.37,37.91,37.91,0,0,1,.37-4.51c.08-.71-1.14-.84-1.23-.12l-.06.6a.5.5,0,0,0-.32.3,23.58,23.58,0,0,0-1,3.58c-.15-.83-.25-1.66-.35-2.49-.08-.62-1.19-.61-1.22,0a24.92,24.92,0,0,0,.69,5.71,9.94,9.94,0,0,0,1.3,5.92c.31.49,1.29.39,1.16-.31-.09-.51-.17-1-.22-1.51a.58.58,0,0,0,.75-.6,7.85,7.85,0,0,0-.55-2,.43.43,0,0,0,0-.05v-.24c.14.18.29.35.46.53C338.61,35.14,339.53,35,339.35,34.37Z"/><path class="cls-10" d="M376.79,43.66c.57,1,.92,1,1.72.44.5.41,1.12.27,1.86-.76,1.59-2.2,2-6.83,2.05-9.82.06-2.67-.58-5.24-1.68-5.73-.39-.17-.74-.29-1.15.47a2.16,2.16,0,0,0-.13.45s0,.09-.08.14a3.61,3.61,0,0,0-.33.87.15.15,0,0,1-.16,0c-.18-.62-.45-.58-.74-.19-.73.45-.88,3.24-1.16,4.64a.81.81,0,0,0,0,.15C376,37.78,375.69,41.73,376.79,43.66Z"/><path class="cls-5" d="M376.23,43.85c.74,1.92,2.08.25,2.66-4,.47-3.44.32-7.81-.35-9.37a1,1,0,0,0,0-.17c-.38-2.42-1.75,1.13-2.18,3.57C375.69,37.57,375.49,41.93,376.23,43.85Z"/><path class="cls-7" d="M377.42,26.26a.6.6,0,0,0-.55-.13l-.15,0a.54.54,0,0,0-.45.6A13.87,13.87,0,0,0,374.83,30c-.23.87-.73,2-.38,2.9a.63.63,0,0,0,1,.26,3.11,3.11,0,0,0,.33-.29h0a.49.49,0,0,0,.21.14l0,.64a7.73,7.73,0,0,1-.28,1.9,6.18,6.18,0,0,0,.08,2.1c.14.71,1.31.43,1.2-.28v0a7.42,7.42,0,0,0,1,1.67h0l.08.12a.62.62,0,0,0,1-.66,19.13,19.13,0,0,1-1.59-5.63c0-2.83,0-4.47.78-6.11C378.65,26.23,377.87,26,377.42,26.26Z"/><path class="cls-10" d="M375.68,11.76A16.45,16.45,0,0,0,368.8,6a28.33,28.33,0,0,0-11.05-1.81c-6.3.08-12.77,1.08-18.2,5.11a42,42,0,0,0-3.47,3c-1.19,1.13-1.93,3.21-2.74,4.68-1.91,3.49-2.17,6.67-2.5,10.66a.43.43,0,0,0,.38.49v.09a.52.52,0,0,0,.36.51c1.58.47,2.29-.33,3.13-1.86,1.48-2.7,1.92-5.91,3.64-8.51A22.58,22.58,0,0,1,352.8,9c.52,0,1,0,1.51,0a33.18,33.18,0,0,1,10.79,1.71,14.74,14.74,0,0,1,8.27,6.64c.63,1.73,1.15,3.51,1.68,5.29a45.73,45.73,0,0,0,2.62,5.74A2.81,2.81,0,0,0,378.1,30c1.7,2.75,1.64-.07,1.67-.56C380.11,23.75,379,16.19,375.68,11.76Z"/><path class="cls-7" d="M377.06,20.66a21.21,21.21,0,0,0-1.95-6.27c-2.17-4.3-4.5-7.12-9.38-7.66-2.53-.29-4.87-1.2-7.42-1-2,.12-2.84-2.05-4.77-1a7.54,7.54,0,0,1-5,1.3A14.52,14.52,0,0,0,346,5.62a1.52,1.52,0,0,0-.92.43c-1,1-1.67.21-2.54-.36a.63.63,0,0,0-.81.2c-1.63,2.26-1.08,5.49.15,8h0a.64.64,0,0,0-.67.25,16,16,0,0,0-2.5,8.42,8.14,8.14,0,0,0,1.4,4.39,10,10,0,0,1,.74,1.55,2,2,0,0,0,.85,1.1c.94,1.11,2.48.68,3.61-.33a13.51,13.51,0,0,0,1.89-2.22A10.74,10.74,0,0,0,348,26a20.16,20.16,0,0,1-.84,2.44c-.14.36.25.67.57.67,1,0,1.65-1.09,2.16-1.77a8.92,8.92,0,0,0,.85-1.35,2.26,2.26,0,0,1,0,.26h0c-.41.35,0,.91.42.91h.15a.58.58,0,0,0,.57-.45,15.53,15.53,0,0,0,1.95-2.84h0a4.84,4.84,0,0,0,2.28,3.53c.33.19.92,0,.89-.46a6.35,6.35,0,0,1,.3-2.86,2.9,2.9,0,0,0,.38.65c.33.41,1.34.24,1.08-.42a3.26,3.26,0,0,1,.36-2.43,17.06,17.06,0,0,0,2.17-2.25h0c-.18.37-.34.75-.5,1.16s.65.91,1,.52A10.91,10.91,0,0,1,365,18.73c-.07.18-.14.36-.21.51-.24.51.52.78.87.6.9-.44,1.8-.92,2.71-1.36a1.48,1.48,0,0,1,.41-.12c.31,0,.61.06.92.11l.74.29a.35.35,0,0,1-.26.16h-.15c-.67.08-.49,1.09.15,1a.76.76,0,0,0,.16,0h0a4.55,4.55,0,0,1,.73.09,3,3,0,0,0,.78-.12,2.3,2.3,0,0,0,.57-.21l0,0a2.19,2.19,0,0,0-1.08,1.43c0,.39.46.6.75.52a6,6,0,0,1,1.65-.48,5.49,5.49,0,0,0-.56,1.2c-.14.44.42.72.77.53a2.34,2.34,0,0,1,.52-.21v.1q0,.32.12.63a2.85,2.85,0,0,1-1.38,1.29c-.51.2-.19.88.27.87a5.32,5.32,0,0,0,.69,0,1.48,1.48,0,0,0-.24.75.48.48,0,0,0,.39.45,2,2,0,0,0,1.25-.13c-.48.91-1.35,1.68-1.44,2.76,0,.35.31.48.61.44a2.64,2.64,0,0,0,.25,1.56.47.47,0,0,0,.5.23.5.5,0,0,0,.45-.13,1.91,1.91,0,0,0,.61-1.18s.66-.05.66-.07a1.84,1.84,0,0,0,.39-1.18A27.64,27.64,0,0,0,377.06,20.66Z"/><path class="cls-7" d="M345,10.32a6.82,6.82,0,0,0-3.85-.88,2.33,2.33,0,0,0-1.43.88c-1.94.51-3.25,2.14-4.36,3.79a1.41,1.41,0,0,0-.42.68.54.54,0,0,0,.55.67c-1,.69-2.17,1.21-2.48,2.33-.11.4.22.65.57.68h.37a1.63,1.63,0,0,0-.72.93.54.54,0,0,0,.28.61,2.1,2.1,0,0,0,1.89.23c-.68,1.3-2.28,1.88-3.28,2.87-.45.45.06,1,.58.89a6.21,6.21,0,0,0,1.22-.34,9.41,9.41,0,0,1-2.19,4.22c-.28.34.14.84.51.8,1.16-.13.8-.17.62,1a.57.57,0,0,0,.73.65,25.26,25.26,0,0,0,3.22-2,22.82,22.82,0,0,0,4.54-3.48c3.34-3.16,5-6.66,7.07-10.65C349.4,12.29,346.08,11,345,10.32Z"/><path class="cls-5" d="M364.36,66.73c.31,1.56-.73,2.15-1.69,2.64A15.13,15.13,0,0,1,355.81,71a12.33,12.33,0,0,1-5.63-1.25c-2-1-2.38-1.79-2.47-2.39a5,5,0,0,1,.29-1.43l-1.67.17a3.42,3.42,0,0,0-.17,1.49c.21,1.4,1.19,2.46,3.29,3.55a13.74,13.74,0,0,0,6.36,1.43,16.57,16.57,0,0,0,7.58-1.81c.91-.47,3.06-1.57,2.51-4.34,0-.16-.07-.29-.1-.42l-1.72-.16A5.24,5.24,0,0,1,364.36,66.73Z"/><path class="cls-2" d="M83.88,205.52c-2.11,0-4.25-.1-6.36-.3-12.84-1.2-23.21-5-30.82-11.35-8.18-6.8-12.54-17.23-12.3-29.38a1.93,1.93,0,0,1,2.08-1.91,2.15,2.15,0,0,1,1.5.55,1.72,1.72,0,0,1,.42,1.28c-.25,12.62,4.89,23,14.48,29.08,8.38,5.36,19.19,8.08,32.16,8.08s25.11-4.73,36.73-9.3,22.84-9,35.09-9c1.3,0,2.6.05,3.88.15a2.18,2.18,0,0,1,2,2.42,1.44,1.44,0,0,1-1.46,1.6h-.22c-1.3-.1-2.64-.15-4-.15-12.68,0-24.37,4.72-35.68,9.29-1.4.57-2.79,1.13-4.19,1.68C104.78,203.22,94.18,205.52,83.88,205.52Z"/><path class="cls-2" d="M223.89,78.3a2.24,2.24,0,0,1-1.45-.48,1.71,1.71,0,0,1-.55-1.38v-.51c0-10.67,0-21.69,2.41-32.1,2.21-9.56,6.41-16.62,12.47-21,5-3.57,11.52-5.47,18.95-5.47a47,47,0,0,1,9.45,1c9.53,2,17.84,7.69,25.89,13.21,10.29,7.06,20.94,14.37,34.48,14.37h.37a1.78,1.78,0,0,1,1.84,2,1.88,1.88,0,0,1-1.88,2h-.38c-12.17,0-22.38-5.36-34-13.41-10.71-7.43-21.78-15.12-35.94-15.12-.65,0-1.31,0-2,.05-27.79,1.4-27.74,33.77-27.72,53.11v1.87A1.84,1.84,0,0,1,223.89,78.3Z"/><path class="cls-2" d="M309.59,207.23a2.59,2.59,0,0,1-2.3-1.59c-.14-.37-.2-.89.54-1.49,2.5-2.05,24.4-20.53,23.4-37.51-.35-6-3.49-10.92-9.34-14.66a32.44,32.44,0,0,0-18.07-5c-6.52,0-13.15,1.47-19.58,2.89-6.24,1.39-12.7,2.82-18.85,2.82a30.07,30.07,0,0,1-12.69-2.57,1.24,1.24,0,0,1-.87-1.52,2.58,2.58,0,0,1,2.31-2,2.34,2.34,0,0,1,.94.22,23.13,23.13,0,0,0,9.72,1.91A56.18,56.18,0,0,0,275,147.55c2.64-.49,5.3-1.06,7.87-1.61,4.17-.9,8.49-1.83,12.77-2.41a57.83,57.83,0,0,1,7.58-.52c7.88,0,18.89,1.81,26.6,10.42a20.83,20.83,0,0,1,5.49,16c-.68,8.91-7.45,23.37-24.38,37.27a2.13,2.13,0,0,1-1.36.51Z"/><path class="cls-2" d="M150,145.21a2.31,2.31,0,0,1-.69-.13c-16.85-5.84-13.73-22-10.72-37.7.35-1.82.7-3.61,1-5.34,1.89-10.87,0-21.26-5.2-28.49s-13.83-11-25-11c-1.09,0-2.2,0-3.32.11h-.18A1.5,1.5,0,0,1,104.33,61a2.12,2.12,0,0,1,2-2.35c1.14-.07,2.27-.11,3.37-.11,9.4,0,17.48,2.68,23.36,7.76,7.85,6.77,10.29,16.45,11,23.38s-.65,13.57-2,20.56c-.44,2.19-.9,4.45-1.28,6.72-.92,5.41-3.36,19.8,9.41,24.22a2.08,2.08,0,0,1,1.37,2.44c-.11.6-.53,1.63-1.5,1.63Z"/><path class="cls-2" d="M0,122.88a48,48,0,1,1,7.4,25.24A48,48,0,0,1,0,122.88Z"/><path class="cls-11" d="M34.42,163.06a5.2,5.2,0,0,0,4.82-3.28c.39-.78.55-3.49-.06-4.1-1.39-1.37.78-2.26,1.57-3a8.43,8.43,0,0,0,1.77-2.93,18.33,18.33,0,0,0,1.41-9.07c-.3-3.38-3-7.53-.66-10.53,3.75-4.82,4.73-10.31,2.14-16-.65-1.41-1.6-2.64-2.24-4-.83-1.82.25-4,.86-5.77a7,7,0,0,0,.62-3.3c-.27-1.32-.77-2.57-1.08-3.88a.35.35,0,0,0,0-.18,6.68,6.68,0,0,0-.25-1.15.78.78,0,0,1,0-.16.42.42,0,0,0-.12-.25c-1.26-3.16-5-3.94-8.43-3.68a13.83,13.83,0,0,0-6.29,2C25.61,95.66,27,98.94,24.75,101c-1.2,1.1-3,1.71-4.36,2.52a14.27,14.27,0,0,0-3,2.67A21.88,21.88,0,0,0,12.94,114c-.76,2.19-1.17,5.09-.07,7.24,1.39,2.72,5.34,4.91,4.78,8.3-.36,2.16-2.53,1.92-3.74,3.08a21.61,21.61,0,0,0-3,2.88c-.88,1.25-2.32,3.64-.89,5.06a3.2,3.2,0,0,0,.77.6c1.18.73.74,2.3.1,3.29a13.46,13.46,0,0,0-1.8,3.34A9.18,9.18,0,0,0,8.65,150a48.39,48.39,0,0,0,12.16,12.06c1.45.35,2.88.61,4.17.82A36,36,0,0,0,34.42,163.06Z"/><path class="cls-11" d="M49.44,134.38A18.29,18.29,0,0,0,51,143.43a8.43,8.43,0,0,0,1.82,2.9c.8.7,3,1.55,1.61,2.95-.6.61-.39,3.32,0,4.1a5.19,5.19,0,0,0,4.87,3.2,35.47,35.47,0,0,0,9.43-.33c5.25-.93,12.73-2.81,15.35-8a10.27,10.27,0,0,0,.31-7.38,13.34,13.34,0,0,0-1.84-3.3c-.66-1-1.12-2.55,0-3.29a3.23,3.23,0,0,0,.76-.62c1.41-1.44-.07-3.81-1-5a22.89,22.89,0,0,0-3.06-2.84c-1.23-1.13-3.39-.87-3.78-3-.62-3.39,3.29-5.64,4.64-8.38,1.07-2.17.62-5.06-.18-7.24a21.81,21.81,0,0,0-4.55-7.69,13.93,13.93,0,0,0-3.06-2.62C71,96.05,69.21,95.47,68,94.39c-2.28-2-.94-5.34-3.84-7.13a13.63,13.63,0,0,0-6.32-1.9c-3.39-.21-7.16.62-8.37,3.8a.41.41,0,0,0-.11.26,1,1,0,0,0,0,.16,5.86,5.86,0,0,0-.23,1.15.4.4,0,0,0,0,.19c-.29,1.3-.77,2.56-1,3.89a7.07,7.07,0,0,0,.67,3.29c.64,1.71,1.75,3.93.95,5.75-.62,1.42-1.55,2.66-2.17,4.07-2.51,5.69-1.44,11.17,2.39,15.92C52.32,126.81,49.69,131,49.44,134.38Z"/><path class="cls-3" d="M0,122.88a48,48,0,1,1,7.4,25.24A48,48,0,0,1,0,122.88Z"/><path class="cls-5" d="M74.38,145.94c-3.72-3.36-9.54-4-14.31-4.56a94.93,94.93,0,0,0-21.51.2c-5.64.68-11.81.69-16.64,3.73a35.19,35.19,0,0,0-4,3.13,25.09,25.09,0,0,0-3.08,6.38c-.09.22-.35,1-.57,1.81a48,48,0,0,0,65.47,1.89c-.54-2.07-1.36-5.11-1.55-5.66C77.29,150.24,76.47,147.83,74.38,145.94Z"/><path class="cls-12" d="M69.86,106.38C64.93,97.66,52.4,92.74,42.62,95.3l0,0c.83-.51,0-1.62-.74-1.16-5.05,3.11-10.39,6.16-13.72,11.23-3.55,5.4-3,12.56-.87,18.36a21.38,21.38,0,0,0,13.74,13.15,5.12,5.12,0,0,1,.26,2c0,1.76-.77,3.33-.68,3.93s.46,1.34,2.49,2.38c3.25,1.66,8.31,1.7,12.49-.48.95-.5,2-1.09,1.67-2.66-.27-1.28-.84-1-.5-5.24.57-.19,1.14-.39,1.7-.62C69.61,131.51,76,117.24,69.86,106.38Z"/><path class="cls-13" d="M53.66,129.44c.05-.41-.3-.59-.63-.54a29.84,29.84,0,0,1-5.26.2c-1.1,0-2.24-.16-3.31-.15h-.2a.53.53,0,0,0-.47.28.8.8,0,0,0,0,.52,4.44,4.44,0,0,0,.47,1.15,4,4,0,0,0,.86,1,5.66,5.66,0,0,0,3.19,1.17,5.91,5.91,0,0,0,4.6-2A3.25,3.25,0,0,0,53.66,129.44Z"/><path class="cls-11" d="M75.44,107.05a10.14,10.14,0,0,0-1.79-2.65,13.73,13.73,0,0,1-3.33-5.35c-1.83-5.4-6.89-9.55-12.15-11.44a27.55,27.55,0,0,0-4.47-1.2,7,7,0,0,0-.8-.1C47.07,81,36,83.62,29.58,86.17a25.5,25.5,0,0,0-11.3,8.69c-3,4-3.72,9.38-4.52,14.18a17,17,0,0,1-2.27,6.69c-1.36,2.08-3.92,2.77-6,3.89A6.1,6.1,0,0,0,3.14,128a31.9,31.9,0,0,0,3.74,4.86c1,1.14,2.19,2.77,0,3.52a19.05,19.05,0,0,1-2.38.53,4.59,4.59,0,0,0-3.31,2.18c-1.36,1.84-.33,3.08,0,4.81a.38.38,0,0,0-.17.49c2.79,7.59,11.72,7.09,18.08,4.68,7-2.66,13.06-9.3,13.87-16.93a18,18,0,0,0-3.43-12.42c-3.8-5.4-2.58-11.42,3.05-14.92,2.27-1.41,4.94-1.87,7.45-2.67a16.37,16.37,0,0,0,5.62-3.27A19.13,19.13,0,0,0,48,96.48a17.62,17.62,0,0,0,7.59,8.61c4.71,2.44,11.66,3.82,14.39,8.58.07.34.12.68.16,1,0,.06,0,.13-.09.2-.73,1.53-2.07,2.73-2.06,4.58a9.75,9.75,0,0,0,.32,2.21c.43,1.92-.44,3.11-1.71,4.35a11.88,11.88,0,0,0-2.9,3.26,4.9,4.9,0,0,0,2.57,6.92,4.35,4.35,0,0,0,5.64-2.07c.23-.58-.79-.79-1-.24-1.12,2.8-4.81,1.65-6.13,0-1.7-2.15,0-4.71,1.54-6.23l.6-.56c-1.33,2-2.71,4.37-.75,6.09a.57.57,0,0,0,.79-.08c.4.05.85-.29.55-.67s4.63-5.88,4.87-6.2a24.11,24.11,0,0,0,4.22-9.82A15.76,15.76,0,0,0,75.44,107.05Zm-20.34-5.7a21.42,21.42,0,0,0,2.71,1.54c-.79-.29-1.58-.59-2.35-.93A10.6,10.6,0,0,1,51.61,99c-.43-.51-1-1.12-1.49-1.77l.25.18A31.26,31.26,0,0,0,55.1,101.35Zm8.57,6.26c-3.12-1.31-6.54-2.46-9.35-4.36a13.25,13.25,0,0,1-3.09-3.15,13.6,13.6,0,0,0,5.85,3.54c4,1.52,8.56,3.46,11.72,6.56.14.3.28.6.4.91A17.28,17.28,0,0,0,63.67,107.61Z"/><path class="cls-6" d="M65.72,110a31.5,31.5,0,0,0-7.45-.36,6.89,6.89,0,0,0-1.35.28,6.82,6.82,0,0,0-4,1.69c-1.34,1.22-2,3.32-1.87,6.07A6.68,6.68,0,0,0,58,124.43,7.71,7.71,0,0,0,64.49,121a8.2,8.2,0,0,0,1.1-2.11,17.21,17.21,0,0,0,1.31-5C67.09,112.4,67.59,110.34,65.72,110Z"/><path class="cls-14" d="M65,115.61A6.08,6.08,0,0,0,58.76,111a.36.36,0,0,0-.29-.12,6.79,6.79,0,0,0-4.76,1.53c-1.41,1.29-1.67,3.5-1.59,5.3a5.84,5.84,0,0,0,7.06,5.71C62.66,122.85,65.64,119.12,65,115.61Z"/><path class="cls-6" d="M30.52,114.14a17,17,0,0,0,1.38,5,8.48,8.48,0,0,0,6.46,5.4,9.8,9.8,0,0,0,1.2.08,6.69,6.69,0,0,0,6.85-6.82c.08-2.75-.61-4.84-2-6.05a6.86,6.86,0,0,0-4-1.62,6.81,6.81,0,0,0-1.36-.26,32,32,0,0,0-7.44.47C29.76,110.64,30.3,112.68,30.52,114.14Z"/><path class="cls-14" d="M38.38,123.54a5.84,5.84,0,0,0,7-5.82c0-1.8-.24-4-1.68-5.27A6.75,6.75,0,0,0,38.89,111a.38.38,0,0,0-.29.13,6.08,6.08,0,0,0-6.16,4.74C31.86,119.38,34.89,123.07,38.38,123.54Z"/><path class="cls-6" d="M52.05,116.23c-.85-1.07-1.7-2-3.13-2.15A4.57,4.57,0,0,0,45.38,116c-.31.57.62,1,.91.46a3.58,3.58,0,0,1,1.9-1.29c1.35-.56,2.22.58,3,1.51C51.52,117.16,52.45,116.73,52.05,116.23Z"/><path class="cls-10" d="M57.3,141.94c.32,1.56-.72,2.16-1.67,2.65a15.13,15.13,0,0,1-6.85,1.69,12.4,12.4,0,0,1-5.64-1.2c-2-1-2.39-1.77-2.49-2.38a4.93,4.93,0,0,1,.28-1.43l-1.67.18a3.62,3.62,0,0,0-.16,1.5c.22,1.39,1.22,2.45,3.32,3.52a13.82,13.82,0,0,0,6.37,1.38A16.67,16.67,0,0,0,56.36,146c.91-.48,3-1.6,2.48-4.37,0-.15-.07-.29-.11-.41-.57-.06-1.14-.11-1.72-.15A5,5,0,0,1,57.3,141.94Z"/><path class="cls-6" d="M39.85,121.24c-2.6.23-5-2.62-5.1-5.08,0-.61-1.07-.6-1,0,.13,3,3,6.28,6.16,6C40.52,122.11,40.52,121.18,39.85,121.24Z"/><path class="cls-6" d="M60.45,121c-2.81,0-5.67-1.19-5.8-4.37,0-.61-1.07-.61-1,0,.14,3.74,3.49,5.28,6.85,5.3A.47.47,0,1,0,60.45,121Z"/><path class="cls-10" d="M27.75,150a.26.26,0,0,0-.23-.06c-1.33.27-2.72,1.78-2.42,3.23s1.79,1.74,3,1.56a2.65,2.65,0,0,0,2.11-3A2.41,2.41,0,0,0,27.75,150Z"/><path class="cls-10" d="M34.61,157.15a.25.25,0,0,0-.23-.06A3,3,0,0,0,32,160.32c.27,1.33,1.79,1.74,3,1.55a2.63,2.63,0,0,0,2.11-3A2.4,2.4,0,0,0,34.61,157.15Z"/><path class="cls-10" d="M39.13,149.13a.25.25,0,0,0-.23-.06,3,3,0,0,0-2.41,3.22c.27,1.34,1.79,1.75,3,1.56a2.63,2.63,0,0,0,2.11-3A2.39,2.39,0,0,0,39.13,149.13Z"/><path class="cls-10" d="M26,161.18a2.41,2.41,0,0,0-2.45-1.72.26.26,0,0,0-.23-.06,3.24,3.24,0,0,0-2.45,2.66c1.06.73,2.15,1.41,3.27,2.06A2.65,2.65,0,0,0,26,161.18Z"/><path class="cls-10" d="M33.33,166.36a2.43,2.43,0,0,0-2.46-1.72.24.24,0,0,0-.22-.06,3.35,3.35,0,0,0-2.2,1.76q2,.91,4.17,1.65l.36.11A2.59,2.59,0,0,0,33.33,166.36Z"/><path class="cls-10" d="M46.13,156.67a.26.26,0,0,0-.23-.06,3.06,3.06,0,0,0-2.42,3.22c.28,1.34,1.79,1.75,3,1.56a2.64,2.64,0,0,0,2.11-3A2.39,2.39,0,0,0,46.13,156.67Z"/><path class="cls-10" d="M45.26,169a2.4,2.4,0,0,0-2.45-1.72.26.26,0,0,0-.23-.06,3.25,3.25,0,0,0-2.45,2.62,47.9,47.9,0,0,0,5,.54A2.5,2.5,0,0,0,45.26,169Z"/><path class="cls-10" d="M55.19,155.43a2.65,2.65,0,0,0,2.12-3,2.4,2.4,0,0,0-2.45-1.72.26.26,0,0,0-.23-.06,3.06,3.06,0,0,0-2.42,3.22C52.49,155.21,54,155.62,55.19,155.43Z"/><path class="cls-10" d="M55.34,162.09a.26.26,0,0,0-.23-.06c-1.33.27-2.72,1.78-2.42,3.23s1.79,1.74,3,1.56a2.65,2.65,0,0,0,2.11-3A2.41,2.41,0,0,0,55.34,162.09Z"/><path class="cls-9" d="M63.4,167.47a3.24,3.24,0,0,0-1.72,1.05c.92-.27,1.84-.57,2.74-.9a2.14,2.14,0,0,0-.79-.09A.26.26,0,0,0,63.4,167.47Z"/><path class="cls-10" d="M64.73,158.22a.24.24,0,0,0-.22-.06c-1.33.27-2.72,1.78-2.42,3.23s1.79,1.74,3,1.56a2.65,2.65,0,0,0,2.12-3A2.42,2.42,0,0,0,64.73,158.22Z"/><path class="cls-10" d="M65.31,148.53a.25.25,0,0,0-.23-.06,3.06,3.06,0,0,0-2.41,3.23c.28,1.34,1.79,1.74,3,1.55a2.63,2.63,0,0,0,2.11-3A2.41,2.41,0,0,0,65.31,148.53Z"/><path class="cls-10" d="M73.88,155.27a.26.26,0,0,0-.23-.06c-1.33.27-2.72,1.78-2.42,3.23s1.79,1.74,3,1.56a2.65,2.65,0,0,0,2.11-3A2.42,2.42,0,0,0,73.88,155.27Z"/><path class="cls-10" d="M72.87,149.91c.27,1.34,1.78,1.75,3,1.56a2.41,2.41,0,0,0,1.51-.89,12.7,12.7,0,0,0-2.21-3.86A3,3,0,0,0,72.87,149.91Z"/><path class="cls-10" d="M68.32,142.79a31.68,31.68,0,0,0-4.09-.88,2.72,2.72,0,0,0-1,2.45c.28,1.34,1.79,1.74,3,1.56a2.65,2.65,0,0,0,2.11-3A.5.5,0,0,0,68.32,142.79Z"/><path class="cls-10" d="M33.52,145.78a2.64,2.64,0,0,0,2.11-3,1.81,1.81,0,0,0-.43-.85c-1.42.14-2.84.28-4.25.48a2.41,2.41,0,0,0-.42,1.81C30.81,145.56,32.32,146,33.52,145.78Z"/><path class="cls-10" d="M17.15,150.74a.26.26,0,0,0-.23-.06,2.59,2.59,0,0,0-.45.14c-.61,1.26-1.1,2.61-1.59,3.86a2.86,2.86,0,0,0,2.61.78,2.64,2.64,0,0,0,2.11-3A2.4,2.4,0,0,0,17.15,150.74Z"/><path class="cls-15" d="M372.18,171.07c2.77-.1,2.74-4.44-.09-4.44a2.86,2.86,0,0,0-1.49.3h0a0,0,0,0,0,0-.06,7.5,7.5,0,0,0,0-1.34,2.26,2.26,0,0,0-2.22-2.23,2.24,2.24,0,0,0-2.23,2.23,9.46,9.46,0,0,1,0,1.19l-.54,0c-.29-.11-.46,0-.84,0a2.44,2.44,0,0,0-2.23,2.6,1.8,1.8,0,0,0,1.48,1.85c.63.3,1.32.06,2,.11,0,.32.05.65.06,1,.11,2.86,4.56,2.88,4.45,0,0-.29,0-.57-.06-.86A5.22,5.22,0,0,0,372.18,171.07Z"/><path class="cls-15" d="M123.82,260.73c2.77-.1,2.74-4.44-.1-4.44a2.73,2.73,0,0,0-1.48.3h0s0-.05,0-.06a8.56,8.56,0,0,0,0-1.34A2.26,2.26,0,0,0,120,253a2.24,2.24,0,0,0-2.23,2.23,7.75,7.75,0,0,1,0,1.18l-.54,0c-.28-.11-.46,0-.84,0a2.43,2.43,0,0,0-2.22,2.59,1.79,1.79,0,0,0,1.48,1.86c.63.3,1.32.06,2,.1,0,.33,0,.65.06,1,.1,2.86,4.56,2.87,4.45,0,0-.29,0-.57-.06-.86A5.52,5.52,0,0,0,123.82,260.73Z"/><path class="cls-4" d="M386,125.1c2.77-.1,2.74-4.44-.1-4.44a2.71,2.71,0,0,0-1.48.3h0s0,0,0-.06a8.56,8.56,0,0,0,0-1.34,2.28,2.28,0,0,0-2.23-2.23,2.22,2.22,0,0,0-2.22,2.23,9.42,9.42,0,0,1,0,1.19l-.54,0c-.28-.11-.46,0-.84,0a2.43,2.43,0,0,0-2.23,2.59,1.8,1.8,0,0,0,1.49,1.86c.62.3,1.31.06,2,.1,0,.33.06.65.07,1,.1,2.86,4.55,2.87,4.45,0,0-.29,0-.57-.07-.86A5.33,5.33,0,0,0,386,125.1Z"/><path class="cls-4" d="M320.59,105.66c2.77-.1,2.74-4.44-.1-4.44a2.82,2.82,0,0,0-1.48.3h0s0,0,0-.06a8.57,8.57,0,0,0,0-1.34,2.25,2.25,0,0,0-2.22-2.22,2.23,2.23,0,0,0-2.23,2.22,7.9,7.9,0,0,1,0,1.19l-.54,0c-.28-.1-.46,0-.84,0a2.43,2.43,0,0,0-2.22,2.59,1.78,1.78,0,0,0,1.48,1.85c.63.31,1.32.06,2,.11,0,.32.05.65.06,1,.1,2.86,4.56,2.87,4.45,0,0-.29,0-.58-.06-.86A5.52,5.52,0,0,0,320.59,105.66Z"/><path class="cls-4" d="M357.23,144.45l-2.73,0c0-.56-.05-1.13-.05-1.7,0-3.82-6-3.83-5.93,0,0,.71,0,1.41.06,2.11a9.48,9.48,0,0,1-1.64-.17c-3.63-1.23-5.18,4.5-1.58,5.73a10.89,10.89,0,0,0,3.49.26c0,.45,0,.89,0,1.34,0,3.82,6,3.83,5.93,0,0-.54,0-1.07,0-1.61.81,0,1.63-.06,2.45-.06C361.06,150.38,361.06,144.45,357.23,144.45Z"/><path class="cls-4" d="M110.92,73.72c-.53.33-3.3,1.85-5.09-1-.56-.88-1.13-1.73-1.7-2.58l-2.59-3.87-3.37,2.44c-.37.27-1,.71-1.83,1.23a19.76,19.76,0,0,1-4.83,2.32A3.84,3.84,0,0,1,87,69.78c-.44-1.07-.78-3.14.77-4.1A3.89,3.89,0,0,1,89,65.2a23.26,23.26,0,0,0,4.91-2.27l3.8-2.13-2.45-3.61c-.83-1.23-1.92-2.85-3-4.5a3.23,3.23,0,0,1-.57-2.49,4.1,4.1,0,0,1,1.87-2.38c.53-.33,3.3-1.85,5.09,1,.83,1.32,1.7,2.61,2.52,3.81l2.21,3.25,3.29-2.15c2-1.31,4-2.58,5.93-3.78,2.75-1.7,4.47.6,4.94,1.34s1.75,3.31-1,5c-1.77,1.1-3.5,2.26-5.17,3.38l-3.63,2.43,2.65,4c.62.92,1.24,1.84,1.83,2.78a3.23,3.23,0,0,1,.57,2.49,4.1,4.1,0,0,1-1.87,2.38Z"/><path class="cls-2" d="M196.09,244.52c-14.28,0-27.83-.75-36.67-9.83-12.72-13-4.55-28.3,5.73-44.1a1.84,1.84,0,0,1,1.61-.93,2.48,2.48,0,0,1,2.11,1.18,1.44,1.44,0,0,1-.17,1.61l-1,1.49c-7.35,11.23-18.46,28.2-3.23,39.94,7.63,5.89,17.87,6.7,27.79,6.7,1.5,0,3,0,4.45,0l4.1,0h.57a1.85,1.85,0,0,1,1.88,2,1.83,1.83,0,0,1-1.85,2Z"/><path class="cls-4" d="M216.06,251.63c-.41.49-2.55,2.8-5.15.67-.81-.66-1.62-1.29-2.43-1.91l-3.68-2.86-2.42,3.38c-.27.38-.73,1-1.35,1.74a19.91,19.91,0,0,1-3.85,3.73,3.85,3.85,0,0,1-5.1-.93c-.76-.88-1.73-2.74-.56-4.14a4.14,4.14,0,0,1,1-.84,22.54,22.54,0,0,0,3.93-3.7l2.94-3.22-3.46-2.65c-1.18-.91-2.72-2.1-4.23-3.33a3.26,3.26,0,0,1-1.32-2.19,4,4,0,0,1,1-2.85c.4-.48,2.55-2.79,5.14-.67,1.21,1,2.44,1.94,3.6,2.83l3.12,2.39,2.44-3.08c1.49-1.88,3-3.72,4.44-5.46,2.07-2.49,4.43-.85,5.1-.29s2.72,2.59.65,5.08c-1.34,1.6-2.61,3.24-3.85,4.83l-2.68,3.46,3.77,2.92c.88.68,1.75,1.35,2.61,2.06a3.15,3.15,0,0,1,1.32,2.19,4,4,0,0,1-1,2.84Z"/><path class="cls-4" d="M195.14,255a2.43,2.43,0,0,1-1.55-.86c-.39-.45-.78-1.26-.53-1.55a2.3,2.3,0,0,1,.51-.41,23.76,23.76,0,0,0,4.37-4.06l4.41-4.83-5.19-4c-1.17-.89-2.69-2.07-4.18-3.29-.56-.46-.59-.74-.6-.83a2.1,2.1,0,0,1,.57-1.38,2.21,2.21,0,0,1,1.39-.83,1.51,1.51,0,0,1,.94.43c1.26,1,2.54,2,3.65,2.86l4.68,3.59,3.67-4.62c1.48-1.86,3-3.69,4.41-5.42.51-.62.86-.62,1-.62a2.35,2.35,0,0,1,1.3.59c1.34,1.11.72,1.86.39,2.26-1.38,1.65-2.71,3.37-3.89,4.89l-3.9,5,5.34,4.14c.87.67,1.73,1.33,2.57,2,.57.47.59.74.6.84a2.1,2.1,0,0,1-.56,1.37,2.22,2.22,0,0,1-1.39.84,1.58,1.58,0,0,1-.95-.44c-.8-.64-1.59-1.26-2.38-1.87l-5.41-4.2-3.63,5.06c-.26.36-.68.93-1.27,1.63a17.92,17.92,0,0,1-3.36,3.3A1.88,1.88,0,0,1,195.14,255Z"/><path class="cls-4" d="M81.14,225.58c2.77-.1,2.74-4.44-.09-4.44a2.76,2.76,0,0,0-1.49.3h0s0,0,0-.06a8.56,8.56,0,0,0,0-1.34,2.26,2.26,0,0,0-2.22-2.23A2.24,2.24,0,0,0,75.11,220a9.46,9.46,0,0,1,0,1.19l-.55,0c-.28-.11-.46,0-.84,0a2.44,2.44,0,0,0-2.22,2.6A1.79,1.79,0,0,0,73,225.62c.63.3,1.32.06,2,.1,0,.33,0,.65.06,1,.1,2.86,4.56,2.87,4.45,0,0-.29,0-.57-.06-.86A5.22,5.22,0,0,0,81.14,225.58Z"/><path class="cls-15" d="M106.84,175q-1.38,0-2.73,0c0-.57,0-1.13,0-1.7,0-3.82-6-3.82-5.94,0,0,.71,0,1.41.06,2.12a11.81,11.81,0,0,1-1.63-.17c-3.64-1.24-5.18,4.5-1.58,5.72a10.61,10.61,0,0,0,3.49.26c0,.45,0,.9,0,1.34,0,3.83,6,3.83,5.94,0,0-.53,0-1.07-.05-1.61.82,0,1.64-.06,2.46-.06C110.66,181,110.66,175,106.84,175Z"/><path class="cls-4" d="M366.41,193.86a2.78,2.78,0,0,0,1.1,1.57,2.68,2.68,0,0,0,3.58-.66,2.64,2.64,0,0,0-.85-3.94,2.69,2.69,0,0,0-3.8,1.7A2.61,2.61,0,0,0,366.41,193.86Z"/><path class="cls-4" d="M361.42,129.76a2.83,2.83,0,0,0,1.1,1.57,2.69,2.69,0,0,0,3.58-.66,2.63,2.63,0,0,0-.85-3.94,2.67,2.67,0,0,0-3.79,1.7A2.5,2.5,0,0,0,361.42,129.76Z"/><path class="cls-4" d="M306.24,129.87a2.82,2.82,0,0,0,1.1,1.57,2.7,2.7,0,0,0,3.58-.66,2.64,2.64,0,0,0-.85-3.94,2.68,2.68,0,0,0-3.8,1.69A2.65,2.65,0,0,0,306.24,129.87Z"/><path class="cls-15" d="M340.52,114.91a2.78,2.78,0,0,0,1.1,1.57,2.69,2.69,0,0,0,3.58-.66,2.64,2.64,0,0,0-.85-3.94,2.68,2.68,0,0,0-3.8,1.7A2.61,2.61,0,0,0,340.52,114.91Z"/><path class="cls-15" d="M46.39,48.8c2.77-.1,2.74-4.44-.1-4.44a2.8,2.8,0,0,0-1.48.3h0s0,0,0-.07a8.56,8.56,0,0,0,0-1.34A2.26,2.26,0,0,0,42.58,41a2.22,2.22,0,0,0-2.22,2.22,7.9,7.9,0,0,1,0,1.19l-.54,0c-.28-.1-.46,0-.84,0A2.44,2.44,0,0,0,36.77,47a1.79,1.79,0,0,0,1.49,1.85c.62.31,1.31.06,2,.11,0,.32.06.65.07,1,.1,2.86,4.55,2.87,4.45,0,0-.29,0-.58-.07-.87A5.33,5.33,0,0,0,46.39,48.8Z"/><path class="cls-15" d="M151,10.7c2.77-.11,2.74-4.44-.09-4.44a2.76,2.76,0,0,0-1.49.3h0s0,0,0-.06a7.62,7.62,0,0,0,0-1.35,2.26,2.26,0,0,0-2.22-2.22A2.23,2.23,0,0,0,145,5.14a9.51,9.51,0,0,1,0,1.19l-.54,0c-.29-.11-.46,0-.84,0a2.43,2.43,0,0,0-2.23,2.59,1.8,1.8,0,0,0,1.48,1.86c.63.3,1.32.06,2,.1,0,.33.05.65.06,1,.11,2.86,4.56,2.87,4.45,0,0-.29,0-.57-.06-.86A5.86,5.86,0,0,0,151,10.7Z"/><path class="cls-4" d="M194.62,28c2.77-.1,2.74-4.44-.1-4.44a2.82,2.82,0,0,0-1.48.3h0s0,0,0-.06a8.57,8.57,0,0,0,0-1.34,2.26,2.26,0,0,0-2.22-2.22,2.23,2.23,0,0,0-2.23,2.22,7.9,7.9,0,0,1,0,1.19l-.54,0c-.28-.1-.46,0-.84,0a2.44,2.44,0,0,0-2.22,2.6A1.78,1.78,0,0,0,186.49,28c.63.31,1.31.06,2,.11,0,.32.05.65.06,1,.1,2.86,4.55,2.87,4.45,0,0-.29,0-.58-.06-.87A5.26,5.26,0,0,0,194.62,28Z"/><path class="cls-4" d="M18.66,245.05c2.77-.1,2.74-4.44-.1-4.44a2.71,2.71,0,0,0-1.48.3v0s0,0,0,0a8.69,8.69,0,0,0,0-1.35,2.27,2.27,0,0,0-2.23-2.22,2.22,2.22,0,0,0-2.22,2.22,7.9,7.9,0,0,1,0,1.19l-.54,0c-.28-.11-.46,0-.84,0A2.43,2.43,0,0,0,9,243.23a1.8,1.8,0,0,0,1.49,1.86c.62.3,1.31.06,2,.1,0,.33,0,.65.06,1,.1,2.86,4.55,2.87,4.45,0,0-.29,0-.57-.06-.86A6,6,0,0,0,18.66,245.05Z"/><path class="cls-4" d="M35.71,13c-.92,0-1.83,0-2.74,0,0-.56,0-1.13,0-1.7,0-3.82-6-3.82-5.94,0,0,.71,0,1.41.06,2.12a11.81,11.81,0,0,1-1.63-.17C21.78,12,20.24,17.76,23.84,19a10.89,10.89,0,0,0,3.49.27c0,.44,0,.89,0,1.33,0,3.83,6,3.83,5.94,0,0-.53,0-1.07,0-1.61.82,0,1.64-.06,2.46-.06C39.53,18.91,39.53,13,35.71,13Z"/><path class="cls-4" d="M14.68,53.65a2.86,2.86,0,0,0,1.1,1.57,2.7,2.7,0,0,0,3.58-.66,2.63,2.63,0,0,0-.85-3.94,2.67,2.67,0,0,0-3.79,1.69A2.54,2.54,0,0,0,14.68,53.65Z"/><path class="cls-4" d="M67,67.68a2.83,2.83,0,0,0,1.1,1.57,2.69,2.69,0,0,0,3.58-.66,2.63,2.63,0,0,0-.85-3.94,2.67,2.67,0,0,0-3.79,1.7A2.5,2.5,0,0,0,67,67.68Z"/><path class="cls-4" d="M161.25,21.85a2.84,2.84,0,0,0,1.1,1.58,2.7,2.7,0,0,0,3.58-.66,2.63,2.63,0,0,0-.85-3.94,2.66,2.66,0,0,0-3.79,1.69A2.51,2.51,0,0,0,161.25,21.85Z"/><path class="cls-4" d="M298.85,14.08a2.83,2.83,0,0,0,1.1,1.57,2.68,2.68,0,0,0,3.58-.66,2.62,2.62,0,0,0-.85-3.93,2.67,2.67,0,0,0-3.79,1.69A2.51,2.51,0,0,0,298.85,14.08Z"/><path class="cls-15" d="M72.52,12.5a2.78,2.78,0,0,0,1.1,1.57,2.68,2.68,0,0,0,3.58-.66,2.63,2.63,0,0,0-.85-3.93,2.66,2.66,0,0,0-3.79,1.69A2.5,2.5,0,0,0,72.52,12.5Z"/><path class="cls-15" d="M138.82,47.8a2.84,2.84,0,0,0,1.1,1.58,2.7,2.7,0,0,0,3.58-.67,2.63,2.63,0,0,0-.85-3.93,2.68,2.68,0,0,0-3.8,1.69A2.61,2.61,0,0,0,138.82,47.8Z"/><path class="cls-4" d="M89.81,238.88a2.84,2.84,0,0,0,1.1,1.58,2.7,2.7,0,0,0,3.58-.66,2.63,2.63,0,0,0-.85-3.94,2.66,2.66,0,0,0-3.79,1.69A2.51,2.51,0,0,0,89.81,238.88Z"/><path class="cls-4" d="M133,243.48a2.83,2.83,0,0,0,1.1,1.57,2.7,2.7,0,0,0,3.58-.66,2.63,2.63,0,0,0-.85-3.94,2.67,2.67,0,0,0-3.79,1.7A2.5,2.5,0,0,0,133,243.48Z"/><path class="cls-4" d="M14.68,178.69a2.89,2.89,0,0,0,1.1,1.58,2.69,2.69,0,0,0,3.58-.67,2.62,2.62,0,0,0-.85-3.93,2.67,2.67,0,0,0-3.79,1.69A2.51,2.51,0,0,0,14.68,178.69Z"/><path class="cls-4" d="M107.45,124.47a2.78,2.78,0,0,0,1.1,1.57,2.69,2.69,0,0,0,3.58-.66,2.62,2.62,0,0,0-.85-3.93,2.66,2.66,0,0,0-3.79,1.69A2.5,2.5,0,0,0,107.45,124.47Z"/><path class="cls-15" d="M69.68,181.35a2.74,2.74,0,0,0,1.1,1.57,2.69,2.69,0,0,0,3.58-.65,2.64,2.64,0,0,0-.85-3.94,2.68,2.68,0,0,0-3.8,1.69A2.61,2.61,0,0,0,69.68,181.35Z"/><path class="cls-15" d="M98.74,154.58a2.83,2.83,0,0,0,1.1,1.57,2.69,2.69,0,0,0,3.58-.66,2.63,2.63,0,0,0-.85-3.94,2.67,2.67,0,0,0-3.79,1.7A2.5,2.5,0,0,0,98.74,154.58Z"/><path class="cls-15" d="M297.44,75.87c-.91,0-1.82,0-2.73,0,0-.57,0-1.14,0-1.71,0-3.82-6-3.82-5.93,0,0,.71,0,1.42.06,2.12a11.81,11.81,0,0,1-1.63-.17c-3.64-1.23-5.18,4.5-1.58,5.72a10.85,10.85,0,0,0,3.48.27c0,.44,0,.89,0,1.34,0,3.82,6,3.82,5.93,0,0-.54,0-1.08,0-1.61.82,0,1.63-.06,2.45-.06C301.27,81.81,301.27,75.87,297.44,75.87Z"/><path class="cls-4" d="M257.64,44.57a2.81,2.81,0,0,0,1.1,1.58,2.7,2.7,0,0,0,3.58-.66,2.63,2.63,0,1,0-4.64-2.25A2.51,2.51,0,0,0,257.64,44.57Z"/><path class="cls-15" d="M289.35,55.41a2.78,2.78,0,0,0,1.1,1.57,2.68,2.68,0,0,0,3.58-.66,2.63,2.63,0,0,0-.85-3.93,2.66,2.66,0,0,0-3.79,1.69A2.5,2.5,0,0,0,289.35,55.41Z"/><path class="cls-15" d="M224.53,10.33a2.78,2.78,0,0,0,1.1,1.57,2.7,2.7,0,0,0,3.58-.66,2.63,2.63,0,0,0-.85-3.94A2.67,2.67,0,0,0,224.57,9,2.54,2.54,0,0,0,224.53,10.33Z"/><path class="cls-15" d="M70.25,45.52a2.78,2.78,0,0,0,1.1,1.57,2.7,2.7,0,0,0,3.58-.66,2.63,2.63,0,0,0-.85-3.94,2.67,2.67,0,0,0-3.79,1.7A2.5,2.5,0,0,0,70.25,45.52Z"/><path class="cls-15" d="M42.68,244.73a2.78,2.78,0,0,0,1.1,1.57,2.7,2.7,0,0,0,3.58-.66,2.64,2.64,0,0,0-.85-3.94,2.67,2.67,0,0,0-3.79,1.7A2.5,2.5,0,0,0,42.68,244.73Z"/><path class="cls-15" d="M114.83,214.89a2.77,2.77,0,0,0,1.09,1.57,2.69,2.69,0,0,0,3.58-.65,2.63,2.63,0,0,0-.85-3.94,2.67,2.67,0,0,0-3.79,1.69A2.5,2.5,0,0,0,114.83,214.89Z"/><path class="cls-15" d="M38.33,218.41c2.78-.1,2.75-4.44-.09-4.44a2.8,2.8,0,0,0-1.48.3h0s0,0,0-.06a8.56,8.56,0,0,0,0-1.34,2.26,2.26,0,0,0-2.23-2.22,2.22,2.22,0,0,0-2.22,2.22,9.45,9.45,0,0,1,0,1.19l-.54,0c-.28-.11-.46,0-.84,0a2.44,2.44,0,0,0-2.23,2.6,1.79,1.79,0,0,0,1.49,1.85c.62.31,1.31.06,2,.11,0,.32.06.65.07,1,.1,2.86,4.55,2.87,4.45,0,0-.29,0-.58-.07-.86A5.52,5.52,0,0,0,38.33,218.41Z"/><path class="cls-4" d="M383.31,260.73c2.77-.1,2.74-4.44-.1-4.44a2.71,2.71,0,0,0-1.48.3h0s0-.05,0-.06a8.56,8.56,0,0,0,0-1.34A2.28,2.28,0,0,0,379.5,253a2.23,2.23,0,0,0-2.22,2.23,9.42,9.42,0,0,1,0,1.19l-.54,0c-.28-.11-.46,0-.84,0a2.43,2.43,0,0,0-2.23,2.59,1.8,1.8,0,0,0,1.49,1.86c.62.3,1.31.06,2,.1,0,.33.06.65.07,1,.1,2.86,4.55,2.87,4.45,0,0-.29,0-.57-.07-.86A5.33,5.33,0,0,0,383.31,260.73Z"/><path class="cls-15" d="M366.41,238.88a2.84,2.84,0,0,0,1.1,1.58,2.7,2.7,0,0,0,3.58-.66,2.63,2.63,0,1,0-4.64-2.25A2.5,2.5,0,0,0,366.41,238.88Z"/><path class="cls-15" d="M390.73,207.52c2.78-.1,2.75-4.44-.09-4.44a2.8,2.8,0,0,0-1.48.3h0s0,0,0-.06a8.56,8.56,0,0,0,0-1.34,2.27,2.27,0,0,0-2.23-2.23,2.23,2.23,0,0,0-2.22,2.23,9.45,9.45,0,0,1,0,1.19l-.54,0c-.28-.11-.46,0-.84,0a2.44,2.44,0,0,0-2.23,2.6,1.79,1.79,0,0,0,1.49,1.85c.62.31,1.31.06,2,.11,0,.32.06.65.07,1,.1,2.86,4.55,2.87,4.45,0,0-.29,0-.58-.07-.87A5.22,5.22,0,0,0,390.73,207.52Z"/><path class="cls-4" d="M227.18,222.41a2.77,2.77,0,0,0,1.09,1.57,2.71,2.71,0,0,0,3.59-.66,2.64,2.64,0,0,0-.85-3.93,2.68,2.68,0,0,0-3.8,1.69A2.61,2.61,0,0,0,227.18,222.41Z"/><path class="cls-15" d="M267.27,225.12a2.76,2.76,0,0,0,1.1,1.58A2.71,2.71,0,0,0,272,226a2.64,2.64,0,0,0-.85-3.94,2.68,2.68,0,0,0-3.8,1.69A2.61,2.61,0,0,0,267.27,225.12Z"/><path class="cls-4" d="M281,252a2.76,2.76,0,0,0,1.1,1.58,2.7,2.7,0,0,0,3.58-.66,2.64,2.64,0,0,0-.85-3.94,2.68,2.68,0,0,0-3.8,1.69A2.61,2.61,0,0,0,281,252Z"/><path class="cls-15" d="M250.83,249.34c2.77-.1,2.74-4.43-.1-4.43a2.81,2.81,0,0,0-1.48.29h0s0,0,0-.06a10,10,0,0,0,0-1.34,2.26,2.26,0,0,0-2.23-2.22,2.22,2.22,0,0,0-2.22,2.22,7.9,7.9,0,0,1,0,1.19l-.54,0c-.28-.1-.46,0-.84,0a2.43,2.43,0,0,0-2.22,2.59,1.79,1.79,0,0,0,1.48,1.86c.62.3,1.31.05,2,.1,0,.33,0,.65.06,1,.1,2.86,4.55,2.87,4.45,0,0-.29,0-.58-.06-.86A5.58,5.58,0,0,0,250.83,249.34Z"/><path class="cls-2" d="M129,20.65,97.45,14.33a1,1,0,0,0-.9.28,1,1,0,0,0-.26.89l5.36,25a1,1,0,0,0,1.54.59l26.18-18.69a1,1,0,0,0,.39-1A1,1,0,0,0,129,20.65Z"/><path class="cls-2" d="M91.82,13.44a2,2,0,0,0-1.51,2.34l9.08,42.33a2,2,0,1,0,3.84-.83L94.16,15A2,2,0,0,0,91.82,13.44Z"/><path class="cls-4" d="M204.68,200.85a78.75,78.75,0,0,1-41.3-11.35c-11.77-7.25-26.27-24.7-31.23-44a70.75,70.75,0,0,1,1-37.26c9.77-32.67,40.91-56.38,74.05-56.38a67.06,67.06,0,0,1,33.56,8.93C261,72.26,274.07,88.56,278.54,107.9c4.71,20.34-.35,44-13.52,63.25C252.38,189.75,229.82,200.85,204.68,200.85Zm-68.14-64.79A57.17,57.17,0,0,0,138,144c4.51,17.59,18.09,33.94,28.57,40.4a72.68,72.68,0,0,0,38.15,10.46l3.17,0-.58-2.44a25.18,25.18,0,0,1-.5-7.47,2.11,2.11,0,0,1,2-2.12,2.17,2.17,0,0,1,1.51.71,1.64,1.64,0,0,1,.49,1.17,21.33,21.33,0,0,0,.6,7.63,1.28,1.28,0,0,1,.05.27l.28,1.92,1.94-.15c19.57-2.27,36.48-12,46.41-26.55a81.73,81.73,0,0,0,13.34-33.34l.31-2-2-.27c-.86-.11-1.73-.24-2.59-.37a48.41,48.41,0,0,0-7.32-.73c-.62,0-1.23,0-1.81.07h-.21a1.46,1.46,0,0,1-1.48-1.6,2.18,2.18,0,0,1,2-2.42c.5,0,1-.06,1.51-.06a45.42,45.42,0,0,1,6.74.68c1.15.18,2.29.35,3.45.49l2.14.24.08-2.15a63.88,63.88,0,0,0-1.49-17.06C268.55,91.33,256.82,76.78,237.82,66a61.19,61.19,0,0,0-30.6-8.15c-.57,0-1.15,0-1.72,0l-2.08.07-.07,1.86c-.14,3.75-.29,7.6.68,11.41a1.76,1.76,0,0,1-.26,1.6,2.46,2.46,0,0,1-1.91.88,1.59,1.59,0,0,1-1.67-1.34,42.75,42.75,0,0,1-.84-11.65l.06-2.41-2.37.38a72.2,72.2,0,0,0-31.81,13.78,74.2,74.2,0,0,0-26.31,37.49,68.12,68.12,0,0,0-2.75,17.92l0,1.92,2.4.14c1.29.08,2.63.16,4,.16a16.67,16.67,0,0,0,7.06-1.27,2.37,2.37,0,0,1,.95-.21,2.58,2.58,0,0,1,2.31,2,1.23,1.23,0,0,1-.87,1.51,24.89,24.89,0,0,1-10.49,1.8c-1,0-1.93,0-2.91,0l-2.28-.05Z"/><path class="cls-4" d="M178.26,155.12a1.83,1.83,0,0,1-1.68-1.14,1.81,1.81,0,0,1,0-1.39l16.18-37.75a1.54,1.54,0,0,1,.88-.92l37.82-16.21a1.78,1.78,0,0,1,.71-.15,1.71,1.71,0,0,1,.71.15,1.82,1.82,0,0,1,1,2.38l-16.17,37.75a2.1,2.1,0,0,1-1,1L179,155A1.79,1.79,0,0,1,178.26,155.12Z"/><path class="cls-2" d="M205.12,136.47a10.47,10.47,0,0,1-5.56-1.54,10.8,10.8,0,0,1-4.13-6,9.85,9.85,0,0,1,.14-5,10.76,10.76,0,0,1,10-7.74,8.71,8.71,0,0,1,4.4,1.19,9.89,9.89,0,0,1,5.09,6.35,11.4,11.4,0,0,1-1.87,8.75,9.55,9.55,0,0,1-8,4Z"/><path class="cls-2" d="M283.42,216a40,40,0,1,1,6,21.09A40,40,0,0,1,283.42,216Z"/><path class="cls-3" d="M363.42,216a40,40,0,1,0-69,27.56c.18-.65.4-1.31.48-1.5a21.09,21.09,0,0,1,2.61-5.3,31.06,31.06,0,0,1,3.36-2.58c4-2.5,9.19-2.47,13.89-3a79.05,79.05,0,0,1,17.93,0c4,.46,8.81,1.06,11.89,3.89,1.73,1.59,2.39,3.6,3.12,5.79.19.56,1.14,4.22,1.5,5.73A39.9,39.9,0,0,0,363.42,216Z"/><path class="cls-6" d="M328.05,255.73l-6-.09-4.18,0a39.52,39.52,0,0,0,10.22.13Z"/><path class="cls-10" d="M347.72,240.84c-.73-2.19-1.39-4.2-3.12-5.79-3.08-2.83-7.92-3.43-11.89-3.89a79.05,79.05,0,0,0-17.93,0c-4.7.53-9.85.5-13.89,3a31.06,31.06,0,0,0-3.36,2.58,21.09,21.09,0,0,0-2.61,5.3c-.08.19-.3.85-.48,1.5a40.16,40.16,0,0,0,13.22,9.21c.87.37,1.75.72,2.65,1,.74.26,1.49.48,2.25.7a39.71,39.71,0,0,0,5.27,1.1l4.18,0,6,.09a39.4,39.4,0,0,0,6.19-1.21,40.57,40.57,0,0,0,4.43-1.53,40,40,0,0,0,10.55-6.42C348.86,245.06,347.91,241.4,347.72,240.84Z"/><path class="cls-9" d="M316.9,227.26a4.1,4.1,0,0,1,.2,1.64c0,1.47-.66,2.77-.58,3.27s.37,1.12,2.05,2a12,12,0,0,0,10.41-.32c.8-.41,1.67-.9,1.41-2.2-.21-1.07-.69-.84-.38-4.37C330.1,223.5,315,222.92,316.9,227.26Z"/><path class="cls-9" d="M309,203.4h0s0-.08,0-.12a.37.37,0,0,0-.23-.28,1.76,1.76,0,0,0-2.49-.64c-1.43.62-1.53,3.23-1.6,4.46a8,8,0,0,0,1.71,5.91c.69.79,2.1.9,2.44-.2,0,0,0,0,0-.05a7,7,0,0,0,.34-2.4A43.63,43.63,0,0,0,309,203.4Z"/><path class="cls-9" d="M341.13,202c-1.36-.76-2.09.26-2.71,1.36a.42.42,0,0,0,0,.39l0,.05c-.57,1.92-2.89,5.13-1.9,7.25a.41.41,0,0,0,.27.65c.71.17,1.08.82,1.81,1s1.15-.35,1.51-.76c1.32-1.5,1.65-3.9,1.81-5.81C342,205,342.41,202.71,341.13,202Z"/><path class="cls-9" d="M338.49,193.47c-1.69-4.8-4.86-9.15-9.84-10.67-3.09-1-7.75-1.47-10.2,1.21a.56.56,0,0,0-.81,0c-1.9,2-3.66,3.38-5,5.86a29.8,29.8,0,0,0-3.35,8.86c-1.15,6-1.41,11.33.23,17.26,1.35,4.86,4.15,9.66,8.74,12a11.48,11.48,0,0,0,12.61-1.75C339.55,218.6,342.21,204.09,338.49,193.47Z"/><path class="cls-7" d="M320.35,218h-.1c-.39,0-.61.16-.67.34a.43.43,0,0,0-.13.17c-.51,1.46.74,3,2.66,3.59a3.77,3.77,0,0,0,1.22.27V218C322.34,218,321.34,218,320.35,218Z"/><path class="cls-7" d="M326.29,218h.1c.4,0,.61.16.67.34a.36.36,0,0,1,.13.17c.52,1.46-.74,3-2.66,3.59a3.77,3.77,0,0,1-1.22.27V218C324.3,218,325.3,218,326.29,218Z"/><g class="cls-16"><path class="cls-9" d="M335.41,208.36a1.15,1.15,0,0,0-.55-.1l-.24,0h-.08a.46.46,0,0,0-.41,0,.37.37,0,0,0-.15.52.64.64,0,0,0,.6.24l.28,0H335C335.42,209.25,335.89,208.63,335.41,208.36Z"/><path class="cls-9" d="M334.63,209.73a1.79,1.79,0,0,1-.5-.09.46.46,0,0,0-.58.13.37.37,0,0,0,.15.52,2.28,2.28,0,0,0,.93.19.39.39,0,0,0,.42-.37A.4.4,0,0,0,334.63,209.73Z"/></g><g class="cls-16"><path class="cls-9" d="M312.24,208.14c-.33,0-.66-.06-1-.07a.38.38,0,1,0,0,.76c.33,0,.66.06,1,.07A.38.38,0,1,0,312.24,208.14Z"/><path class="cls-9" d="M312.35,209.52l-.26,0c-.24-.16-.66-.11-.69.24v.07a.41.41,0,0,0,.38.42l.49.05a.42.42,0,0,0,.47-.33A.41.41,0,0,0,312.35,209.52Z"/></g><path class="cls-11" d="M329.43,206.62a2.86,2.86,0,0,0-.78.32l0,0a2.22,2.22,0,0,0,.13,2.82,1.65,1.65,0,0,0,1.48.38,1.49,1.49,0,0,0,1-1,2.26,2.26,0,0,0-.44-2.48A2.77,2.77,0,0,0,329.43,206.62Z"/><path class="cls-17" d="M333,205.05c-.24-.49-1.38-.88-1.88-1a5.42,5.42,0,0,0-1.84-.06,11.51,11.51,0,0,0-2.26.88c-.57.22,0,.92.47.72s.8-.35,1.18-.49h0a3.17,3.17,0,0,1,.78-.31,2.77,2.77,0,0,1,1.4,0h0a3.11,3.11,0,0,1,1.3.51.4.4,0,0,0,.54.28h0A.42.42,0,0,0,333,205.05Z"/><path class="cls-11" d="M317,206.62a2.92,2.92,0,0,1,.79.32l0,0a2.25,2.25,0,0,1-.13,2.82,1.67,1.67,0,0,1-1.49.38,1.48,1.48,0,0,1-1-1,2.26,2.26,0,0,1,.44-2.48A2.78,2.78,0,0,1,317,206.62Z"/><path class="cls-17" d="M313.43,205.55c.23-.5,1.36-.92,1.86-1a5.71,5.71,0,0,1,1.84-.1,11.84,11.84,0,0,1,2.29.83c.56.21.05.92-.46.73s-.81-.33-1.19-.47h0a2.81,2.81,0,0,0-.79-.29,2.68,2.68,0,0,0-1.39.08h0a3,3,0,0,0-1.28.55.41.41,0,0,1-.54.29h0A.43.43,0,0,1,313.43,205.55Z"/><path class="cls-18" d="M309.9,205.18a11.58,11.58,0,0,1-.69-3.65,31.6,31.6,0,0,1,.31-3.75c.07-.59-1-.7-1-.1,0,.16,0,.33-.05.5a.41.41,0,0,0-.26.24c-.34.94-.42-.45-.62.59-.12-.69-.46,1-.54.33-.06-.52-1-.51-1,0a21.06,21.06,0,0,0,.57,4.75,8.31,8.31,0,0,0,1.09,4.93c.26.41,1.07.33,1-.25-.08-.42-.15-.84-.19-1.26a.49.49,0,0,0,.63-.5,6.43,6.43,0,0,0-.46-1.69s0,0,0,0,0-.14,0-.21a5.34,5.34,0,0,0,.39.44C309.28,205.82,310.05,205.7,309.9,205.18Z"/><path class="cls-18" d="M340.67,199.24a.5.5,0,0,0-.45-.11l-.13,0a.45.45,0,0,0-.38.5,11.56,11.56,0,0,0-1.18,2.73,4.23,4.23,0,0,0-.31,2.42.53.53,0,0,0,.85.22l.27-.24h0a.36.36,0,0,0,.17.11l0,.54a6.62,6.62,0,0,1-.22,1.59,4.85,4.85,0,0,0,.07,1.74c.12.59,1.09.36,1-.23v0a6.12,6.12,0,0,0,.86,1.39h0a.61.61,0,0,0,.07.1.52.52,0,0,0,.84-.56,16,16,0,0,1-1.35-4.68c0-2.36.48-3.15.63-5.1S341.05,199,340.67,199.24Z"/><path class="cls-18" d="M341,193.22a17.85,17.85,0,0,0-1.63-5.23c-1.81-3.58-3.75-5.93-7.82-6.39-2.1-.23-4-1-6.18-.85-1.65.1-2.36-1.71-4-.8a6.18,6.18,0,0,1-4.13,1.08,12.84,12.84,0,0,0-2.12-.35,1.38,1.38,0,0,0-.77.36c-.83.82-2.34,2.35-3.07,1.87a.53.53,0,0,0-.68.16c-1.35,1.89.07,2.41,1.09,4.52h0a.53.53,0,0,0-.56.21,13.19,13.19,0,0,0-2.08,7,6.66,6.66,0,0,0,1.17,3.66,8.48,8.48,0,0,1,.6,1.29,1.67,1.67,0,0,0,.72.91c.78.93,2.06.57,3-.27a11.28,11.28,0,0,0,1.57-1.85,10,10,0,0,0,.65-.91,14.8,14.8,0,0,1-.7,2c-.12.31.21.56.48.57.79,0,1.37-.91,1.8-1.48a10.47,10.47,0,0,0,.71-1.12c0,.07,0,.14,0,.21h0c-.33.29,0,.76.35.76h.13a.48.48,0,0,0,.47-.37,13.29,13.29,0,0,0,1.63-2.37h0a4.08,4.08,0,0,0,1.9,2.94c.28.16.77,0,.75-.39a5.3,5.3,0,0,1,.25-2.38,15.55,15.55,0,0,0,.62,1.6c.28.35,1,.23.9-.34-.3-1.81.65-.89.82-.62a3.27,3.27,0,0,1,.58,1.82c-.17.45.55.76.83.43a8.92,8.92,0,0,1,2.69-2.1c-.06.14-.12.29-.18.42-.19.42.44.64.73.5.75-.37,1.5-.77,2.26-1.13a1.33,1.33,0,0,1,.34-.1l.76.08.62.25a.27.27,0,0,1-.21.13h-.13c-.56.07-.4.9.13.87l.13,0h0a3.17,3.17,0,0,1,.61.07,2.44,2.44,0,0,0,.65-.1,1.88,1.88,0,0,0,.47-.17h0a1.85,1.85,0,0,0-.9,1.2c0,.32.38.49.63.43a5.11,5.11,0,0,1,1.36-.41,5.13,5.13,0,0,0-.46,1c-.12.36.35.6.64.44a2.53,2.53,0,0,1,.43-.18l0,.09a4.71,4.71,0,0,0,.09.52,2.37,2.37,0,0,1-1.14,1.08c-.43.17-.16.73.22.73l.57,0a1.29,1.29,0,0,0-.19.63.39.39,0,0,0,.32.37c.36.09.35-1.76.56-1.34a.38.38,0,0,0,.42.18.4.4,0,0,0,.37-.1,1.59,1.59,0,0,0,.51-1l.55-.05a1.55,1.55,0,0,0,.32-1A23.1,23.1,0,0,0,341,193.22Z"/><path class="cls-18" d="M314.24,184.6a5.83,5.83,0,0,0-3.21-.74,1.92,1.92,0,0,0-1.19.74,6.8,6.8,0,0,0-3.64,3.16,1.17,1.17,0,0,0-.35.56.45.45,0,0,0,.46.56c-.82.58-1.81,1-2.07,2-.09.33.19.54.48.56h.3a1.36,1.36,0,0,0-.59.78.44.44,0,0,0,.23.5,1.75,1.75,0,0,0,1.58.2c-.57,1.08-1.91,1.56-2.74,2.39-.38.37.05.82.48.74a4.49,4.49,0,0,0,1-.29,8,8,0,0,1-1.82,3.52c-.24.28.11.7.42.67,1-.11.66-.14.52.81a.47.47,0,0,0,.6.55,21,21,0,0,0,2.69-1.67,19.28,19.28,0,0,0,3.78-2.9c2.79-2.63,4.14-5.55,5.9-8.88C317.92,186.25,315.16,185.15,314.24,184.6Z"/><path class="cls-18" d="M330.39,231.61c.26,1.3-.61,1.79-1.41,2.19a12.49,12.49,0,0,1-5.71,1.37,10.24,10.24,0,0,1-4.7-1c-1.68-.87-2-1.48-2.05-2a3.69,3.69,0,0,1,.24-1.19l-1.4.14a3.05,3.05,0,0,0-.14,1.25c.18,1.16,1,2,2.75,3a11.6,11.6,0,0,0,5.3,1.19,13.94,13.94,0,0,0,6.31-1.51,3.19,3.19,0,0,0,2.09-3.62,3,3,0,0,0-.08-.35l-1.43-.13A4.08,4.08,0,0,1,330.39,231.61Z"/></g></g></svg>