<?xml version="1.0" encoding="UTF-8"?>
<svg width="60px" height="60px" viewBox="0 0 60 60" version="1.1" xmlns="http://www.w3.org/2000/svg" xmlns:xlink="http://www.w3.org/1999/xlink">
    <!-- Generator: Sketch 51.3 (57544) - http://www.bohemiancoding.com/sketch -->
    <title>Fill 887 + Fill 888 + Fill 889</title>
    <desc>Created with Sketch.</desc>
    <defs/>
    <g id="home" stroke="none" stroke-width="1" fill="none" fill-rule="evenodd">
        <g id="00-D---dev-doc---home" transform="translate(-66.000000, -1686.000000)">
            <g id="Group-13" transform="translate(0.000000, 1300.000000)">
                <g id="01-doc-part-copy-3" transform="translate(32.000000, 352.000000)">
                    <g id="Fill-887-+-Fill-888-+-Fill-889" transform="translate(34.000000, 34.000000)">
                        <path d="M32.4615385,12.1033846 L35.1273846,12.1033846 L35.1273846,14.7692308 L32.4615385,14.7692308 L32.4615385,12.1033846 Z M41.7932308,14.7692308 L39.1273846,14.7692308 L39.1273846,12.1033846 L41.7932308,12.1033846 L41.7932308,14.7692308 Z M48.4615385,14.7692308 L45.7932308,14.7692308 L45.7932308,12.1033846 L48.4615385,12.1033846 L48.4615385,14.7692308 Z M47.2307692,0 L32.4615385,0 C25.6873846,0 20.1735385,5.52123077 20.1735385,12.3052308 L20.1686154,14.3310769 C21.0104615,14.3507692 21.8350769,14.4443077 22.6301538,14.6338462 C26.4750769,15.5446154 29.7169231,18.3507692 31.5901538,22.1538462 C31.9766154,22.9316923 32.2966154,23.7563077 32.56,24.6153846 L36.1538462,24.6153846 L36.1538462,31.2787692 L42.8172308,24.6153846 L47.2307692,24.6153846 C54.0172308,24.6153846 59.5384615,19.0941538 59.5384615,12.3076923 C59.5384615,5.52123077 54.0172308,0 47.2307692,0 L47.2307692,0 Z" id="Fill-887" fill="#B2D3FF"/>
                        <path d="M35.1936,47.5313231 L26.3074462,44.3485538 L26.3074462,43.1596308 L26.3074462,40.1073231 C29.0594462,37.7614769 30.8588308,33.9608615 30.8588308,29.6654769 C30.8588308,29.6433231 30.8563692,29.6260923 30.8563692,29.6039385 C30.1720615,29.7024 29.0914462,29.8648615 28.8846769,29.9042462 C28.2299077,30.0322462 27.6071385,30.0962462 27.0163692,30.0962462 C24.7025231,30.0962462 22.8686769,29.1165538 21.3056,27.0513231 C19.5652923,28.7276308 16.7000615,29.9288615 14.0809846,29.9288615 C12.9536,29.9288615 10.7012923,29.3971692 8.99790769,28.8384 C8.9856,29.1165538 8.96344615,29.3873231 8.96344615,29.6654769 C8.96344615,34.2119385 10.9769846,38.2045538 13.9997538,40.5011692 L13.9997538,43.4279385 L13.9997538,44.3485538 L5.1136,47.5313231 C2.3296,48.5257846 0.461292308,51.1965538 0.461292308,54.1824 L0.461292308,59.0759385 L39.8459077,59.0759385 L39.8459077,54.1824 C39.8459077,51.1965538 37.9751385,48.5257846 35.1936,47.5313231" id="Fill-888" fill="#297EF1"/>
                        <path d="M20.3064615,24.3773538 L21.3501538,22.3785846 L22.4676923,24.3330462 C24.08,27.1588923 25.6947692,28.0155077 28.4221538,27.4887385 C28.7076923,27.4321231 29.9458462,27.2450462 30.6449231,27.1465846 C29.6455385,21.2438154 25.2147692,16.7785846 19.9126154,16.7785846 C14.8467692,16.7785846 10.5883077,20.8524308 9.34276923,26.3613538 C10.7901538,26.8708923 13.1532308,27.4665846 14.0812308,27.4665846 C16.496,27.4665846 19.4646154,25.9921231 20.3064615,24.3773538" id="Fill-889" fill="#297EF1"/>
                    </g>
                </g>
            </g>
        </g>
    </g>
</svg>