<?xml version="1.0" encoding="UTF-8"?>
<svg width="64px" height="62px" viewBox="0 0 64 62" version="1.1" xmlns="http://www.w3.org/2000/svg" xmlns:xlink="http://www.w3.org/1999/xlink">
    <!-- Generator: Sketch 51.3 (57544) - http://www.bohemiancoding.com/sketch -->
    <title>MEETTUP-LOGOTYPE</title>
    <desc>Created with Sketch.</desc>
    <defs/>
    <g id="home" stroke="none" stroke-width="1" fill="none" fill-rule="evenodd">
        <g id="00-D---dev-doc---home" transform="translate(-556.000000, -1686.000000)">
            <g id="Group-13" transform="translate(0.000000, 1300.000000)">
                <g id="01-doc-part-copy-4" transform="translate(524.000000, 352.000000)">
                    <g id="icon" transform="translate(32.000000, 32.000000)">
                        <g id="MEETTUP-LOGOTYPE" transform="translate(0.000000, 2.000000)">
                            <path d="M63.9716332,25.3790228 C63.8260086,24.7063335 63.163264,24.2781243 62.4902794,24.4236505 C61.8165071,24.5692751 61.3890855,25.2317243 61.533824,25.9052997 C61.6794486,26.5779889 62.3429809,27.005312 63.0159655,26.8605735 C63.6888517,26.7150474 64.1172578,26.051712 63.9716332,25.3790228 M61.1301317,33.4588751 C60.9344886,32.5534228 60.0424271,31.9788012 59.1374671,32.1734597 C58.232704,32.3689058 57.6570978,33.2607705 57.8526425,34.1652382 C58.0473009,35.0706905 58.9394609,35.6452135 59.8452086,35.4505551 C60.7499717,35.2551089 61.3255778,34.3633428 61.1301317,33.4588751 M56.7674978,20.277632 C57.7916948,19.5702843 58.0481871,18.1674043 57.3404455,17.1436012 C56.6329009,16.1196997 55.2295286,15.8634043 54.2053317,16.570752 C53.1810363,17.2780997 52.9246425,18.6809797 53.6321871,19.7048812 C54.3399286,20.7286843 55.7433009,20.9850782 56.7674978,20.277632 M51.0674609,21.8980135 C51.2681255,19.274112 50.6129625,16.5698658 48.9995717,14.2362289 C45.855104,9.68740431 40.1136148,8.01877662 35.1467225,9.81944123 C30.7087655,6.97725046 24.8386855,6.85791508 20.2314732,10.0402905 C17.8995102,11.6513182 16.2379717,13.8665058 15.3017994,16.3287335 C13.9457871,16.5123643 12.608384,16.9658782 11.4047902,17.7975828 C7.42645169,20.5459397 6.37685169,25.9036258 8.90091323,29.965952 C5.47533785,33.1025428 4.68567631,38.3248443 7.28850708,42.3593058 C8.832384,44.7513305 11.2574917,46.1923151 13.8619963,46.6204258 C13.9102425,48.5725243 14.4959902,50.532992 15.6894425,52.2591212 C18.953344,56.9814351 25.4295532,58.164352 30.1526548,54.901632 C30.3329378,54.7762905 30.4726548,54.6181612 30.6427963,54.4844505 C33.2751655,56.8333489 37.2273132,57.2208935 40.2583532,55.1266166 C41.8759778,54.0097674 42.9103163,52.3842658 43.3614671,50.6184566 C45.7332086,50.7055951 48.1481748,50.1031089 50.250624,48.6503089 C55.2947102,45.165952 56.6481625,38.3529058 53.4214794,33.2126228 C56.0116086,31.0286474 56.5693932,27.2092258 54.5793871,24.3898782 C53.6923471,23.1316382 52.4370609,22.3058412 51.0674609,21.8980135 M38.0856025,2.99113354 C37.3330609,1.73880123 35.7078548,1.33264738 34.4560148,2.08489354 C33.2032886,2.83625354 32.797824,4.46086892 33.5494794,5.71310277 C34.3019225,6.96533662 35.9271286,7.37070277 37.1790671,6.61934277 C38.4316948,5.86709662 38.8371594,4.24248123 38.0856025,2.99113354 M20.0156455,1.118592 C19.850624,0.353644308 19.0964086,-0.132854154 18.3311655,0.0321673846 C17.5652332,0.197188923 17.0784394,0.951010462 17.2443471,1.71674585 C17.4094671,2.48169354 18.163584,2.968192 18.9288271,2.80326892 C19.6948578,2.63824738 20.1815532,1.88353969 20.0156455,1.118592 M13.9804455,13.5347889 C14.9005686,12.8993182 15.1307717,11.6386166 14.495104,10.7188874 C13.8594363,9.79905969 12.5982425,9.56895508 11.6782178,10.2043274 C10.7588825,10.8397982 10.5277932,12.1005982 11.1634609,13.0203274 C11.7992271,13.9391705 13.0604209,14.1702597 13.9804455,13.5347889 M4.86595938,30.7266658 C5.69884554,29.5123397 5.38987323,27.8530658 4.17525169,27.0204751 C2.96063015,26.1878843 1.30076554,26.4967582 0.467879385,27.7109858 C-0.365105231,28.9252135 -0.0561329231,30.5844874 1.15848862,31.4169797 C2.37320862,32.2495705 4.03307323,31.9408935 4.86595938,30.7266658 M9.63651938,49.9009674 C9.78047015,50.5702105 10.4406548,50.9958597 11.1093071,50.8511212 C11.7788455,50.7063828 12.2046917,50.0472812 12.0598548,49.3779397 C11.9151163,48.7086966 11.2557194,48.2839335 10.5862794,48.4277858 C9.91752862,48.5725243 9.49178092,49.2316258 9.63651938,49.9009674 M29.441664,57.9061858 C28.6586978,58.4469366 28.4623655,59.5197735 29.0032148,60.3024443 C29.544064,61.0852135 30.6173932,61.2814474 31.4003594,60.7407951 C32.1832271,60.1992566 32.3797563,59.1263212 31.8388086,58.3436505 C31.2979594,57.5609797 30.2246302,57.3655335 29.441664,57.9061858 M45.7451225,53.0290905 C44.4762486,53.9056935 44.1580209,55.6445243 45.0349194,56.9129058 C45.9118178,58.1811889 47.6512394,58.4993182 48.9209994,57.6228135 C50.1896763,56.746112 50.5072148,55.0072812 49.6303163,53.7389982 C48.7533194,52.4698289 47.0137994,52.1524874 45.7451225,53.0290905" id="Fill-1" fill="#ED1C40"/>
                            <path d="M45.0243151,42.0196923 C44.639232,39.5608123 40.0852874,41.4570831 39.8042782,38.7629785 C39.4063951,34.9401108 45.0919582,26.7012431 44.6434658,23.5028185 C44.2404628,20.6235077 42.2995889,20.0201354 40.6109735,19.9905969 C38.9706043,19.96096 38.5370782,20.2223754 37.9826412,20.5447385 C37.6627397,20.7300431 37.2031212,21.0973046 36.5648935,20.4906831 C36.1408197,20.0870892 35.8606966,19.8044062 35.4121058,19.4464985 C35.1835766,19.2637538 34.8194658,19.0335508 34.2100874,18.9438523 C33.5998228,18.8542523 32.8100628,18.9438523 32.3082043,19.1587938 C31.8053612,19.3745231 31.4109243,19.75104 30.9978782,20.1099323 C30.5856197,20.4686277 29.5385797,21.6405169 28.5626289,21.2081723 C28.1394412,21.0211938 26.7063335,20.30528 25.6719951,19.8576738 C23.6751951,18.9937723 20.7955889,20.3933046 19.7586905,22.2362092 C18.2156997,24.9776738 15.1692997,35.7489723 14.7080074,37.1696738 C13.6736689,40.3596308 16.0191212,42.9598031 19.1822966,42.8100431 C20.5196997,42.7465354 21.4092997,42.2583631 22.2540997,40.72256 C22.7424689,39.8358154 27.328512,27.8604308 27.6695828,27.2860062 C27.9167212,26.8696123 28.7420258,26.3196062 29.4420874,26.6784 C30.1412628,27.0371938 30.2808812,27.7852062 30.1775951,28.4899938 C30.0100135,29.6297846 26.7757489,36.9352369 26.6512935,37.7620185 C26.4405858,39.16736 27.1084505,39.9492431 28.5676505,40.0253538 C29.5682166,40.07872 30.5644505,39.7191385 31.3558843,38.2273477 C31.7985674,37.3930831 36.8992689,27.1810462 37.3504197,26.4991015 C37.8464689,25.7509908 38.2450412,25.5048369 38.7504443,25.5310277 C39.1424197,25.5505231 39.7696197,25.6512492 39.6129674,26.8256985 C39.4589735,27.9772062 35.3578535,35.4706215 34.927872,37.3059446 C34.3522658,39.7588185 35.6990228,42.2432 37.9175582,43.3304123 C39.3327458,44.0233846 45.523712,45.2113231 45.0243151,42.0196923" id="Fill-4" fill="#FFFFFF"/>
                        </g>
                    </g>
                </g>
            </g>
        </g>
    </g>
</svg>