<?xml version="1.0" encoding="UTF-8"?>
<svg width="48px" height="64px" viewBox="0 0 48 64" version="1.1" xmlns="http://www.w3.org/2000/svg" xmlns:xlink="http://www.w3.org/1999/xlink">
    <!-- Generator: Sketch 51.3 (57544) - http://www.bohemiancoding.com/sketch -->
    <title>icon</title>
    <desc>Created with Sketch.</desc>
    <defs/>
    <g id="home" stroke="none" stroke-width="1" fill="none" fill-rule="evenodd">
        <g id="00-D---dev-doc---home" transform="translate(-488.000000, -416.000000)" fill-rule="nonzero">
            <g id="Stacked-Group" transform="translate(32.000000, 384.000000)">
                <g id="01-doc-part-copy" transform="translate(328.000000, 0.000000)">
                    <g id="icon" transform="translate(120.000000, 32.000000)">
                        <g id="icon-connector" transform="translate(8.000000, 0.000000)">
                            <g id="Combined-Shape" transform="translate(7.111111, 0.592593)" fill="#B2D3FF">
                                <path d="M15.8814815,31.2888889 C16.1185185,31.5259259 16.3555556,31.5259259 16.5925926,31.5259259 C16.8296296,31.5259259 17.0666667,31.5259259 17.3037037,31.2888889 L32,17.5407407 C32.237037,17.3037037 32.237037,17.0666667 32.237037,16.8296296 C32.237037,16.5925926 32.237037,16.5925926 32.237037,16.3555556 C32,15.8814815 31.762963,15.6444444 31.2888889,15.6444444 L24.1777778,15.6444444 L24.1777778,0.948148148 C24.1777778,0.474074074 23.7037037,0 23.2296296,0 L9.48148148,0 C9.00740741,0 8.53333333,0.474074074 8.53333333,0.948148148 L8.53333333,15.6444444 L1.8962963,15.6444444 C1.42222222,15.6444444 1.18518519,15.8814815 0.948148148,16.3555556 C0.948148148,16.5925926 0.948148148,16.5925926 0.948148148,16.8296296 C0.948148148,17.0666667 0.948148148,17.3037037 1.18518519,17.5407407 L15.8814815,31.2888889 Z" id="path-1_1_"/>
                            </g>
                            <path d="M46.6962963,27.8518519 L38.8740741,24.0592593 L34.6074074,28.0888889 L41.4814815,31.4074074 L23.7037037,40.1777778 L5.92592593,31.4074074 L12.8,28.0888889 L8.53333333,23.8222222 L0.711111111,27.6148148 C0.237037037,28.0888889 0,28.562963 0,29.037037 L0,51.0814815 C0,51.5555556 0.237037037,52.2666667 0.711111111,52.5037037 L22.9925926,63.6444444 C23.2296296,63.6444444 23.4666667,63.8814815 23.7037037,63.8814815 C23.9407407,63.8814815 24.1777778,63.8814815 24.4148148,63.6444444 L46.6962963,52.5037037 C47.1703704,52.2666667 47.4074074,51.7925926 47.4074074,51.0814815 L47.4074074,29.037037 C47.4074074,28.562963 47.1703704,28.0888889 46.6962963,27.8518519 Z" id="Shape" fill="#197BFF"/>
                        </g>
                    </g>
                </g>
            </g>
        </g>
    </g>
</svg>