<?xml version="1.0" encoding="UTF-8"?>
<svg width="64px" height="64px" viewBox="0 0 64 64" version="1.1" xmlns="http://www.w3.org/2000/svg" xmlns:xlink="http://www.w3.org/1999/xlink">
    <!-- Generator: Sketch 52.2 (67145) - http://www.bohemiancoding.com/sketch -->
    <title>github-documentation</title>
    <desc>Created with Sketch.</desc>
    <defs>
        <polygon id="path-1" points="0 48.9795918 48.0367347 48.9795918 48.0367347 0 0 0"/>
        <polygon id="path-3" points="0 48.9795918 48.0367347 48.9795918 48.0367347 0 0 0"/>
        <polygon id="path-5" points="0 48.9795918 48.0367347 48.9795918 48.0367347 0 0 0"/>
        <polygon id="path-7" points="0 48.9795918 48.0367347 48.9795918 48.0367347 0 0 0"/>
        <polygon id="path-9" points="0 48.9795918 48.0367347 48.9795918 48.0367347 0 0 0"/>
    </defs>
    <g id="home" stroke="none" stroke-width="1" fill="none" fill-rule="evenodd">
        <g id="00-D---dev-doc---home" transform="translate(-560.000000, -1525.000000)">
            <g id="Group-13" transform="translate(0.000000, 1300.000000)">
                <g id="01-doc-part" transform="translate(524.000000, 192.000000)">
                    <g id="github-documentation" transform="translate(36.000000, 33.000000)">
                        <g id="icon">
                            <g id="icon-documentation" transform="translate(0.520833, 0.000000)">
                                <path d="M20.9408163,48.9795918 L8.16326531,48.9795918 L8.16326531,2.04081633 C8.16326531,0.913265306 9.07755102,0 10.2040816,0 L18.9,0 C20.027551,0 20.9408163,0.913265306 20.9408163,2.04081633 L20.9408163,48.9795918 Z" id="Fill-1" fill="#B2D3FF" fill-rule="nonzero"/>
                                <path d="M34.2061224,49.2897959 L21.4285714,49.2897959 L21.4285714,17.3469388 L32.1653061,17.3469388 C33.2928571,17.3469388 34.2061224,18.2602041 34.2061224,19.3877551 L34.2061224,49.2897959 Z" id="Fill-3" fill="#197BFF" fill-rule="nonzero"/>
                                <path d="M29.7693878,45.9183673 L25.5102041,45.9183673 C24.9469388,45.9183673 24.4897959,45.4622449 24.4897959,44.8979592 C24.4897959,44.3336735 24.9469388,43.877551 25.5102041,43.877551 L29.7693878,43.877551 C30.3326531,43.877551 30.7897959,44.3336735 30.7897959,44.8979592 C30.7897959,45.4622449 30.3326531,45.9183673 29.7693878,45.9183673" id="Fill-5" fill="#B2D3FF" fill-rule="nonzero"/>
                                <path d="M14.2857143,30.7459184 C13.722449,30.7459184 13.2653061,30.2897959 13.2653061,29.7255102 L13.2653061,7.14285714 C13.2653061,6.57857143 13.722449,6.12244898 14.2857143,6.12244898 C14.8489796,6.12244898 15.3061224,6.57857143 15.3061224,7.14285714 L15.3061224,29.7255102 C15.3061224,30.2897959 14.8489796,30.7459184 14.2857143,30.7459184" id="Fill-7" fill="#197BFF" fill-rule="nonzero"/>
                                <g id="Fill-9-Clipped">
                                    <mask id="mask-2" fill="white">
                                        <use xlink:href="#path-1"/>
                                    </mask>
                                    <g id="path-1"/>
                                    <path d="M13.2653061,43.2112245 L15.4836735,43.2112245 L15.4836735,36.7336735 L13.2653061,36.7336735 L13.2653061,43.2112245 Z M16.5040816,45.2520408 L12.244898,45.2520408 C11.6816327,45.2520408 11.2244898,44.7959184 11.2244898,44.2316327 L11.2244898,35.7142857 C11.2244898,35.15 11.6816327,34.6938776 12.244898,34.6938776 L16.5040816,34.6938776 C17.0673469,34.6938776 17.5244898,35.15 17.5244898,35.7142857 L17.5244898,44.2316327 C17.5244898,44.7959184 17.0673469,45.2520408 16.5040816,45.2520408 Z" id="Fill-9" fill="#197BFF" fill-rule="nonzero" mask="url(#mask-2)"/>
                                </g>
                                <g id="Fill-11-Clipped">
                                    <mask id="mask-4" fill="white">
                                        <use xlink:href="#path-3"/>
                                    </mask>
                                    <g id="path-1"/>
                                    <path d="M27.5510204,39.5744898 C26.9877551,39.5744898 26.5306122,39.1183673 26.5306122,38.5540816 L26.5306122,21.4285714 C26.5306122,20.8642857 26.9877551,20.4081633 27.5510204,20.4081633 C28.1142857,20.4081633 28.5714286,20.8642857 28.5714286,21.4285714 L28.5714286,38.5540816 C28.5714286,39.1183673 28.1142857,39.5744898 27.5510204,39.5744898" id="Fill-11" fill="#B2D3FF" fill-rule="nonzero" mask="url(#mask-4)"/>
                                </g>
                                <g id="Stroke-12-Clipped">
                                    <mask id="mask-6" fill="white">
                                        <use xlink:href="#path-5"/>
                                    </mask>
                                    <g id="path-1"/>
                                    <path d="M4.08163265,13.2653061 L4.08163265,43.0785714" id="Stroke-12" stroke="#000000" stroke-linecap="round" stroke-linejoin="round" mask="url(#mask-6)"/>
                                </g>
                                <g id="Fill-13-Clipped">
                                    <mask id="mask-8" fill="white">
                                        <use xlink:href="#path-7"/>
                                    </mask>
                                    <g id="path-1"/>
                                    <path d="M0,48.7132653 L8.51836735,48.7132653 L8.51836735,6.12244898 L2.04081633,6.12244898 C0.913265306,6.12244898 0,7.03571429 0,8.16326531 L0,48.7132653 Z" id="Fill-13" fill="#197BFF" fill-rule="nonzero" mask="url(#mask-8)"/>
                                </g>
                                <g id="Fill-14-Clipped">
                                    <mask id="mask-10" fill="white">
                                        <use xlink:href="#path-9"/>
                                    </mask>
                                    <g id="path-1"/>
                                    <path d="M47.2244309,47.1387801 L41.039737,48.7357189 L30.6448391,8.48469843 C30.5040228,7.93878006 30.8325942,7.38265761 31.3774921,7.24184129 L35.5887166,6.15510659 C36.134635,6.01429027 36.6907574,6.34184129 36.8315738,6.88775965 L47.2244309,47.1387801 Z" id="Fill-14" fill="#B2D3FF" fill-rule="nonzero" mask="url(#mask-10)"/>
                                </g>
                            </g>
                        </g>
                        <g id="github-logotype" transform="translate(32.000000, 32.000000)">
                            <circle id="Oval" fill="#FFFFFF" fill-rule="nonzero" cx="16" cy="16" r="16"/>
                            <path d="M15.9703802,0 C7.15133884,0 0,7.26324019 0,16.2238783 C0,23.3917439 4.576,29.473146 10.9215207,31.6184012 C11.7196694,31.7685824 12.0126942,31.2664557 12.0126942,30.837942 C12.0126942,30.4513394 11.9978843,29.1730521 11.9910083,27.8173905 C7.54803306,28.7988078 6.6105124,25.9031835 6.6105124,25.9031835 C5.88403306,24.028201 4.83728926,23.5292982 4.83728926,23.5292982 C3.38829752,22.5223581 4.9465124,22.543045 4.9465124,22.543045 C6.55021488,22.6574944 7.39464463,24.2151888 7.39464463,24.2151888 C8.81904132,26.6951951 11.1307107,25.9781398 12.0420496,25.5635965 C12.1853884,24.5152827 12.5992727,23.7993021 13.056,23.3941619 C9.50876033,22.9841858 5.77983471,21.5927923 5.77983471,15.376254 C5.77983471,13.6052431 6.40370248,12.1576996 7.42532231,11.0215338 C7.25950413,10.612901 6.7128595,8.96278735 7.58003306,6.72806821 C7.58003306,6.72806821 8.92138843,6.29230067 11.9730248,8.39134619 C13.2469421,8.03187826 14.613157,7.85160698 15.9703802,7.84515912 C17.3276033,7.85160698 18.694876,8.03187826 19.9711736,8.39134619 C23.0193719,6.29230067 24.3586116,6.72806821 24.3586116,6.72806821 C25.2279008,8.96278735 24.6812562,10.612901 24.515438,11.0215338 C25.539438,12.1576996 26.1588099,13.6052431 26.1588099,15.376254 C26.1588099,21.6078373 22.4227438,22.9796185 18.8665124,23.3812662 C19.4393388,23.8847362 19.9497521,24.872064 19.9497521,26.385698 C19.9497521,28.5564759 19.9315041,30.303576 19.9315041,30.837942 C19.9315041,31.2699483 20.2187107,31.7755676 21.0282314,31.6165205 C27.370314,29.4688474 31.9407603,23.3895946 31.9407603,16.2238783 C31.9407603,7.26324019 24.7904793,0 15.9703802,0" id="Fill-1" fill="#181717"/>
                            <path d="M6.04881983,23.0543263 C6.01364628,23.1351932 5.88881983,23.1593726 5.77510083,23.1040285 C5.65900165,23.0508337 5.59420826,22.9409515 5.63176198,22.8600847 C5.66614215,22.7773372 5.7909686,22.7542324 5.90680331,22.8095765 C6.02263802,22.8625026 6.08875372,22.9734595 6.04881983,23.0543263" id="Fill-4" fill="#181717"/>
                            <path d="M6.69577521,23.7873937 C6.61960992,23.8591261 6.47045289,23.8258122 6.36969256,23.7124374 C6.26496529,23.5993313 6.2456595,23.4478067 6.32288264,23.3752683 C6.4014281,23.3035359 6.54582479,23.3371185 6.6502876,23.4502246 C6.75501488,23.5646741 6.77537851,23.7145867 6.69577521,23.7873937" id="Fill-6" fill="#181717"/>
                            <path d="M7.32543471,24.7216611 C7.22758347,24.7909755 7.06731901,24.7262283 6.96840992,24.5816889 C6.87055868,24.4374181 6.87055868,24.2644007 6.97079008,24.1950862 C7.06969917,24.1257718 7.22758347,24.1883697 7.32781488,24.3312972 C7.42540165,24.4779859 7.42540165,24.6510033 7.32543471,24.7216611" id="Fill-8" fill="#181717"/>
                            <path d="M8.18803306,25.6244683 C8.10049587,25.7225294 7.91404959,25.6962007 7.77758678,25.5624077 C7.63795041,25.4315699 7.59907438,25.2459254 7.68661157,25.1478643 C7.77547107,25.0495345 7.96297521,25.0772066 8.10049587,25.2099249 C8.23907438,25.340494 8.28138843,25.5274818 8.18803306,25.6244683" id="Fill-10" fill="#181717"/>
                            <path d="M9.3781157,26.148652 C9.33950413,26.2757285 9.15993388,26.3332219 8.97904132,26.2792211 C8.79841322,26.2236083 8.68019835,26.075039 8.71669421,25.9466192 C8.75424793,25.8184681 8.93461157,25.7585568 9.11682645,25.8163188 C9.29719008,25.8716629 9.41566942,26.0194263 9.3781157,26.148652" id="Fill-12" fill="#181717"/>
                            <path d="M10.6851967,26.245746 C10.6896926,26.379539 10.5363041,26.4904958 10.3464198,26.4929138 C10.1554777,26.497481 10.0007669,26.3889421 9.99865124,26.2572984 C9.99865124,26.1221621 10.1488661,26.0125486 10.3395438,26.009056 C10.5294281,26.0052947 10.6851967,26.1130276 10.6851967,26.245746" id="Fill-14" fill="#181717"/>
                            <path d="M11.9013554,26.0355728 C11.9240992,26.1658732 11.7921322,26.2999348 11.6035702,26.3356667 C11.4181818,26.3703239 11.2465455,26.2894571 11.2230083,26.1602313 C11.2,26.0264383 11.3340826,25.8923766 11.5194711,25.8577194 C11.7082975,25.8244055 11.8772893,25.9028544 11.9013554,26.0355728" id="Fill-16" fill="#181717"/>
                        </g>
                    </g>
                </g>
            </g>
        </g>
    </g>
</svg>