<?xml version="1.0" encoding="UTF-8"?>
<svg width="48px" height="48px" viewBox="0 0 48 48" version="1.1" xmlns="http://www.w3.org/2000/svg" xmlns:xlink="http://www.w3.org/1999/xlink">
    <!-- Generator: Sketch 50.2 (55047) - http://www.bohemiancoding.com/sketch -->
    <title>icon-community</title>
    <desc>Created with Sketch.</desc>
    <defs>
        <polygon id="path-1" points="0.898371348 0.974707938 10 0.974707938 10 17.5559 0.898371348 17.5559"/>
        <polygon id="path-3" points="0 0.418940669 9.10149206 0.418940669 9.10149206 17 0 17"/>
        <polygon id="path-5" points="0.0214713478 0.419007938 9.12357578 0.419007938 9.12357578 17 0.0214713478 17"/>
        <polygon id="path-7" points="0.27286444 0.79206444 2.48033556 0.79206444 2.48033556 3 0.27286444 3"/>
        <polygon id="path-9" points="0.877408604 0.8096 23 0.8096 23 15.5556 0.877408604 15.5556"/>
    </defs>
    <g id="icon-community" stroke="none" stroke-width="1" fill="none" fill-rule="evenodd">
        <path d="M14.5064,33.3079 C12.7464,35.0679 11.4254,35.9489 10.1054,37.7089 C8.3444,35.9489 7.6194,35.2239 6.5844,34.1879 C5.5484,33.1529 7.4644,34.0079 7.4644,32.4279 C7.4644,29.2679 7.8254,30.6669 10.9854,30.6669 C14.1454,30.6669 14.5064,30.1479 14.5064,33.3079" id="Fill-1" fill="#B2D3FF"/>
        <path d="M10.7373,32.2998 C6.8783,32.1438 3.8733,28.6338 4.0413,24.4748 C4.2093,20.3148 7.4863,17.0578 11.3463,17.2138 C15.2053,17.3698 18.2093,20.8798 18.0413,25.0388 C17.8743,29.1988 14.5963,32.4558 10.7373,32.2998" id="Fill-3" fill="#B2D3FF"/>
        <path d="M36.9181,28.8617 C33.0551,28.8617 29.9121,25.4747 29.9121,21.3127 C29.9121,17.1497 33.0551,13.7637 36.9181,13.7637 C40.7811,13.7637 43.9241,17.1497 43.9241,21.3127 C43.9241,25.4747 40.7811,28.8617 36.9181,28.8617" id="Fill-5" fill="#B2D3FF"/>
        <path d="M36.7119,35.84 C36.4089,35.84 36.1179,35.722 35.9009,35.51 L33.8609,33.517 C33.4249,33.048 33.4509,32.315 33.9189,31.879 C34.3559,31.472 35.0309,31.463 35.4779,31.86 L36.7179,33.071 L40.3389,29.594 C40.8009,29.151 41.5349,29.167 41.9789,29.629 C42.4219,30.091 42.4059,30.825 41.9439,31.269 L37.5169,35.539 C37.2969,35.739 37.0089,35.847 36.7119,35.84" id="Fill-7" fill="#B2D3FF"/>
        <path d="M27.0362,43.0707 C26.3962,43.0707 25.8772,42.5517 25.8772,41.9117 L25.8772,35.1567 C25.8352,31.8897 28.4502,29.2077 31.7172,29.1657 C31.7212,29.1657 31.7252,29.1657 31.7292,29.1657 C32.1582,28.6407 32.4792,28.0367 32.6732,27.3867 L32.7432,27.2127 C32.9842,26.6197 33.6622,26.3337 34.2552,26.5757 C34.8492,26.8167 35.1342,27.4937 34.8922,28.0877 L34.8292,28.2497 C34.3772,29.4087 33.5372,31.4887 31.8392,31.4887 L31.7292,31.4887 C29.7422,31.5237 28.1602,33.1627 28.1952,35.1497 C28.1952,35.1497 28.1952,35.1497 28.1952,35.1507 L28.1952,41.9117 C28.1952,42.5517 27.6762,43.0707 27.0362,43.0707" id="Fill-9" fill="#B2D3FF"/>
        <g id="Group-13" transform="translate(38.000000, 25.515000)">
            <mask id="mask-2" fill="white">
                <use xlink:href="#path-1"/>
            </mask>
            <g id="Clip-12"/>
            <path d="M7.682,16.3969 L7.682,9.6359 C7.682,9.6349 7.682,9.6349 7.682,9.6339 C7.717,7.6479 6.135,6.0089 4.148,5.9739 L4.038,5.9739 C2.34,5.9739 1.5,3.8939 1.048,2.7349 L0.984,2.5729 C0.743,1.9789 1.028,1.3019 1.622,1.0609 C2.215,0.8189 2.892,1.1039 3.134,1.6979 L3.203,1.8719 C3.397,2.5209 3.718,3.1259 4.148,3.6499 C4.152,3.6509 4.156,3.6509 4.16,3.6509 C7.427,3.6919 10.041,6.3749 10,9.6409 L10,16.3969 C10,17.0369 9.481,17.5559 8.841,17.5559 C8.201,17.5559 7.682,17.0369 7.682,16.3969" id="Fill-11" fill="#B2D3FF" mask="url(#mask-2)"/>
        </g>
        <path d="M31.6712,42.4913 C31.0312,42.4913 30.5122,41.9723 30.5122,41.3323 L30.5122,37.2773 C30.5122,36.6373 31.0312,36.1183 31.6712,36.1183 C32.3112,36.1183 32.8302,36.6373 32.8302,37.2773 L32.8302,41.3323 C32.8302,41.9723 32.3112,42.4913 31.6712,42.4913" id="Fill-14" fill="#B2D3FF"/>
        <path d="M9.636,38.983 L5.21,34.713 C4.747,34.27 4.732,33.536 5.175,33.073 C5.618,32.611 6.352,32.595 6.814,33.038 L10.436,36.515 L11.675,35.304 C12.122,34.908 12.797,34.916 13.234,35.323 C13.702,35.759 13.728,36.493 13.292,36.961 L11.252,38.954 C11.036,39.166 10.745,39.285 10.441,39.284 C10.144,39.291 9.856,39.183 9.636,38.983" id="Fill-16" fill="#B2D3FF"/>
        <g id="Group-20" transform="translate(0.000000, 29.515000)">
            <mask id="mask-4" fill="white">
                <use xlink:href="#path-3"/>
            </mask>
            <g id="Clip-19"/>
            <path d="M1.1593,17 C0.5193,17 0.0003,16.481 0.0003,15.841 L0.0003,9.086 C-0.0417,5.819 2.5733,3.137 5.8403,3.095 C5.8443,3.095 5.8483,3.095 5.8523,3.095 C6.2813,2.57 6.6023,1.966 6.7963,1.316 L6.8663,1.142 C7.1073,0.549 7.7853,0.263 8.3783,0.505 C8.9723,0.746 9.2573,1.423 9.0153,2.017 L8.9523,2.179 C8.5003,3.338 7.6603,5.418 5.9623,5.418 L5.8523,5.418 C3.8653,5.453 2.2833,7.092 2.3183,9.079 C2.3183,9.079 2.3183,9.079 2.3183,9.08 L2.3183,15.841 C2.3183,16.481 1.7993,17 1.1593,17" id="Fill-18" fill="#B2D3FF" mask="url(#mask-4)"/>
        </g>
        <g id="Group-23" transform="translate(13.000000, 29.515000)">
            <mask id="mask-6" fill="white">
                <use xlink:href="#path-5"/>
            </mask>
            <g id="Clip-22"/>
            <path d="M6.8051,15.8412 L6.8051,9.0802 C6.8051,9.0792 6.8051,9.0792 6.8051,9.0782 C6.8401,7.0922 5.2581,5.4532 3.2711,5.4182 L3.1611,5.4182 C1.4631,5.4182 0.6231,3.3382 0.1711,2.1792 L0.1071,2.0172 C-0.1339,1.4232 0.1511,0.7462 0.7451,0.5052 C1.3381,0.2632 2.0151,0.5482 2.2571,1.1422 L2.3261,1.3162 C2.5201,1.9652 2.8411,2.5702 3.2711,3.0942 C3.2751,3.0952 3.2791,3.0952 3.2831,3.0952 C6.5501,3.1362 9.1641,5.8192 9.1231,9.0852 L9.1231,15.8412 C9.1231,16.4812 8.6041,17.0002 7.9641,17.0002 C7.3241,17.0002 6.8051,16.4812 6.8051,15.8412" id="Fill-21" fill="#B2D3FF" mask="url(#mask-6)"/>
        </g>
        <path d="M5.7943,45.9356 C5.1543,45.9356 4.6353,45.4166 4.6353,44.7766 L4.6353,40.7216 C4.6353,40.0816 5.1543,39.5626 5.7943,39.5626 C6.4343,39.5626 6.9533,40.0816 6.9533,40.7216 L6.9533,44.7766 C6.9533,45.4166 6.4343,45.9356 5.7943,45.9356" id="Fill-24" fill="#B2D3FF"/>
        <path d="M10.3786,41.5571 C10.6386,41.0061 11.2966,40.7701 11.8476,41.0301 C12.3986,41.2901 12.6346,41.9481 12.3746,42.4991 C12.1146,43.0511 11.4566,43.2871 10.9056,43.0261 C10.3546,42.7661 10.1186,42.1081 10.3786,41.5571" id="Fill-26" fill="#B2D3FF"/>
        <g id="Group-30" transform="translate(10.000000, 43.515000)">
            <mask id="mask-8" fill="white">
                <use xlink:href="#path-7"/>
            </mask>
            <g id="Clip-29"/>
            <path d="M0.3786,1.4248 C0.6386,0.8738 1.2966,0.6378 1.8476,0.8978 C2.3986,1.1578 2.6346,1.8158 2.3746,2.3668 C2.1146,2.9188 1.4566,3.1548 0.9056,2.8938 C0.3546,2.6338 0.1186,1.9758 0.3786,1.4248" id="Fill-28" fill="#B2D3FF" mask="url(#mask-8)"/>
        </g>
        <path d="M22.463,18.3354 C18.6,18.3354 15.457,14.9484 15.457,10.7864 C15.457,6.6234 18.6,3.2374 22.463,3.2374 C26.326,3.2374 29.469,6.6234 29.469,10.7864 C29.469,14.9484 26.326,18.3354 22.463,18.3354" id="Fill-31" fill="#B2D3FF"/>
        <path d="M16.0143,9.7778 L17.1673,8.1438 C19.5423,2.7568 24.7783,3.3808 27.6973,8.4508 L29.1133,9.8658 C24.4643,7.9588 19.9653,7.3228 16.0143,9.7778" id="Fill-33" fill="#B2D3FF"/>
        <path d="M22.7455,22.6554 C20.4885,22.6554 19.7395,22.1934 18.8535,21.3434 C19.1845,21.0204 19.4595,20.5154 19.4595,19.7094 C19.4595,19.7094 19.4655,19.2564 19.4645,19.2334 C19.4635,19.2144 19.4625,19.1934 19.4595,19.1734 L19.4595,16.4674 C19.7385,16.4664 25.1895,16.4034 25.4655,16.4034 L25.4665,18.4174 C25.4665,18.8984 25.8095,19.3124 26.2835,19.4004 L27.4295,19.6134 L27.4305,19.6074 C27.4185,19.6714 27.4125,19.7344 27.4125,19.7984 L27.4145,19.9044 C26.1725,22.3834 23.9435,22.6424 23.1945,22.6544 C23.1675,22.6524 22.8735,22.6554 22.7695,22.6554 L22.7455,22.6554 Z" id="Fill-35" fill="#B2D3FF"/>
        <path d="M22.7455,22.6554 C20.4885,22.6554 19.7395,22.1934 18.8535,21.3434 C19.1845,21.0204 19.4595,20.5154 19.4595,19.7094 C19.4595,19.7094 19.4655,19.2564 19.4645,19.2334 C19.4635,19.2144 19.4625,19.1934 19.4595,19.1734 L19.4595,16.4674 C19.7385,16.4664 25.1895,16.4034 25.4655,16.4034 L25.4665,18.4174 C25.4665,18.8984 25.8095,19.3124 26.2835,19.4004 L27.4295,19.6134 L27.4305,19.6074 C27.4185,19.6714 27.4125,19.7344 27.4125,19.7984 L27.4145,19.9044 C26.1725,22.3834 23.9435,22.6424 23.1945,22.6544 C23.1675,22.6524 22.8735,22.6554 22.7695,22.6554 L22.7455,22.6554 Z" id="Stroke-37" stroke="#B2D3FF" stroke-width="0.5" stroke-linecap="round" stroke-linejoin="round"/>
        <path d="M17.7898,7.2975 C17.2988,6.2705 15.9888,6.1445 15.1438,6.5075 C14.3988,6.8275 13.9048,7.6885 14.2108,8.6305 C14.5458,9.6655 15.5248,10.0805 16.3868,10.0425 C16.5868,10.0335 16.7208,9.9125 16.8038,9.7545 C17.1228,9.6135 17.4398,9.4745 17.6748,9.1565 C18.0398,8.6635 18.0578,7.8585 17.7898,7.2975" id="Fill-39" fill="#197BFF"/>
        <path d="M18.2771,5.6973 C17.7861,4.6703 16.4761,4.5443 15.6311,4.9073 C14.8861,5.2273 14.3921,6.0883 14.6981,7.0303 C15.0331,8.0653 16.0121,8.4803 16.8741,8.4423 C17.0741,8.4333 17.2081,8.3123 17.2911,8.1543 C17.6101,8.0133 17.9271,7.8743 18.1621,7.5563 C18.5271,7.0633 18.5451,6.2583 18.2771,5.6973" id="Fill-41" fill="#197BFF"/>
        <path d="M17.9908,6.0923 C16.8958,6.4023 16.5488,7.6703 16.7618,8.5653 C16.9508,9.3543 17.7158,9.9863 18.6958,9.8463 C19.7728,9.6913 20.3488,8.7973 20.4578,7.9413 C20.4828,7.7433 20.3868,7.5903 20.2448,7.4823 C20.1598,7.1433 20.0758,6.8073 19.8038,6.5223 C19.3798,6.0783 18.5898,5.9233 17.9908,6.0923" id="Fill-43" fill="#197BFF"/>
        <path d="M21.5321,5.4692 C20.4371,5.7792 20.0901,7.0472 20.3031,7.9422 C20.4921,8.7312 21.2571,9.3632 22.2371,9.2232 C23.3141,9.0682 23.8901,8.1742 23.9991,7.3182 C24.0241,7.1202 23.9281,6.9672 23.7861,6.8592 C23.7011,6.5202 23.6171,6.1842 23.3451,5.8992 C22.9211,5.4552 22.1311,5.3002 21.5321,5.4692" id="Fill-45" fill="#197BFF"/>
        <path d="M23.8735,5.7302 C22.7785,6.0402 22.4315,7.3082 22.6445,8.2032 C22.8335,8.9922 23.5985,9.6242 24.5785,9.4842 C25.6555,9.3292 26.2315,8.4352 26.3405,7.5792 C26.3655,7.3812 26.2695,7.2282 26.1275,7.1202 C26.0425,6.7822 25.9585,6.4452 25.6865,6.1602 C25.2625,5.7162 24.4725,5.5612 23.8735,5.7302" id="Fill-47" fill="#197BFF"/>
        <path d="M24.8735,4.7302 C23.7785,5.0402 23.4315,6.3082 23.6445,7.2032 C23.8335,7.9922 24.5985,8.6242 25.5785,8.4842 C26.6555,8.3292 27.2315,7.4352 27.3405,6.5792 C27.3655,6.3812 27.2695,6.2282 27.1275,6.1202 C27.0425,5.7822 26.9585,5.4452 26.6865,5.1602 C26.2625,4.7162 25.4725,4.5612 24.8735,4.7302" id="Fill-49" fill="#197BFF"/>
        <path d="M26.876,6.5081 C25.781,6.8181 25.434,8.0861 25.647,8.9811 C25.836,9.7701 26.601,10.4021 27.581,10.2621 C28.658,10.1071 29.234,9.2131 29.343,8.3571 C29.368,8.1591 29.272,8.0061 29.13,7.8981 C29.045,7.5591 28.961,7.2231 28.689,6.9381 C28.265,6.4941 27.475,6.3391 26.876,6.5081" id="Fill-51" fill="#197BFF"/>
        <path d="M19.3165,3.8361 C18.8255,2.8091 17.5155,2.6831 16.6705,3.0461 C15.9255,3.3661 15.4315,4.2271 15.7375,5.1691 C16.0725,6.2041 17.0515,6.6191 17.9135,6.5811 C18.1135,6.5721 18.2475,6.4511 18.3305,6.2931 C18.6495,6.1521 18.9665,6.0131 19.2015,5.6951 C19.5665,5.2021 19.5845,4.3971 19.3165,3.8361" id="Fill-53" fill="#197BFF"/>
        <path d="M21.2047,2.7527 C20.7137,1.7257 19.4037,1.5997 18.5587,1.9627 C17.8137,2.2827 17.3197,3.1437 17.6257,4.0857 C17.9607,5.1207 18.9397,5.5357 19.8017,5.4977 C20.0017,5.4887 20.1357,5.3677 20.2187,5.2097 C20.5377,5.0687 20.8547,4.9297 21.0897,4.6117 C21.4547,4.1187 21.4727,3.3137 21.2047,2.7527" id="Fill-55" fill="#197BFF"/>
        <path d="M23.1316,1.9749 C22.6406,0.9479 21.3306,0.8219 20.4856,1.1849 C19.7406,1.5049 19.2466,2.3659 19.5526,3.3079 C19.8876,4.3429 20.8666,4.7579 21.7286,4.7199 C21.9286,4.7109 22.0626,4.5899 22.1456,4.4319 C22.4646,4.2909 22.7816,4.1519 23.0166,3.8339 C23.3816,3.3409 23.3996,2.5359 23.1316,1.9749" id="Fill-57" fill="#197BFF"/>
        <path d="M25.0584,1.9749 C24.5674,0.9479 23.2574,0.8219 22.4124,1.1849 C21.6674,1.5049 21.1734,2.3659 21.4794,3.3079 C21.8144,4.3429 22.7934,4.7579 23.6554,4.7199 C23.8554,4.7109 23.9894,4.5899 24.0724,4.4319 C24.3914,4.2909 24.7084,4.1519 24.9434,3.8339 C25.3084,3.3409 25.3264,2.5359 25.0584,1.9749" id="Fill-59" fill="#197BFF"/>
        <path d="M26.9853,2.7527 C26.4943,1.7257 25.1843,1.5997 24.3393,1.9627 C23.5943,2.2827 23.1003,3.1437 23.4063,4.0857 C23.7413,5.1207 24.7203,5.5357 25.5823,5.4977 C25.7823,5.4887 25.9163,5.3677 25.9993,5.2097 C26.3183,5.0687 26.6353,4.9297 26.8703,4.6117 C27.2353,4.1187 27.2533,3.3137 26.9853,2.7527" id="Fill-61" fill="#197BFF"/>
        <path d="M28.4491,3.8361 C27.9581,2.8091 26.6481,2.6831 25.8031,3.0461 C25.0581,3.3661 24.5641,4.2271 24.8701,5.1691 C25.2051,6.2041 26.1841,6.6191 27.0461,6.5811 C27.2461,6.5721 27.3801,6.4511 27.4631,6.2931 C27.7821,6.1521 28.0991,6.0131 28.3341,5.6951 C28.6991,5.2021 28.7171,4.3971 28.4491,3.8361" id="Fill-63" fill="#197BFF"/>
        <path d="M25.4491,3.8361 C24.9581,2.8091 23.6481,2.6831 22.8031,3.0461 C22.0581,3.3661 21.5641,4.2271 21.8701,5.1691 C22.2051,6.2041 23.1841,6.6191 24.0461,6.5811 C24.2461,6.5721 24.3801,6.4511 24.4631,6.2931 C24.7821,6.1521 25.0991,6.0131 25.3341,5.6951 C25.6991,5.2021 25.7171,4.3971 25.4491,3.8361" id="Fill-65" fill="#197BFF"/>
        <path d="M23.4491,4.8361 C22.9581,3.8091 21.6481,3.6831 20.8031,4.0461 C20.0581,4.3661 19.5641,5.2271 19.8701,6.1691 C20.2051,7.2041 21.1841,7.6191 22.0461,7.5811 C22.2461,7.5721 22.3801,7.4511 22.4631,7.2931 C22.7821,7.1521 23.0991,7.0131 23.3341,6.6951 C23.6991,6.2021 23.7171,5.3971 23.4491,4.8361" id="Fill-67" fill="#197BFF"/>
        <path d="M21.4491,5.8361 C20.9581,4.8091 19.6481,4.6831 18.8031,5.0461 C18.0581,5.3661 17.5641,6.2271 17.8701,7.1691 C18.2051,8.2041 19.1841,8.6191 20.0461,8.5811 C20.2461,8.5721 20.3801,8.4511 20.4631,8.2931 C20.7821,8.1521 21.0991,8.0131 21.3341,7.6951 C21.6991,7.2021 21.7171,6.3971 21.4491,5.8361" id="Fill-69" fill="#197BFF"/>
        <path d="M29.548,5.2136 C29.057,4.1866 27.747,4.0606 26.902,4.4236 C26.157,4.7436 25.663,5.6046 25.969,6.5466 C26.304,7.5816 27.283,7.9966 28.145,7.9586 C28.345,7.9496 28.479,7.8286 28.562,7.6706 C28.881,7.5296 29.198,7.3906 29.433,7.0726 C29.798,6.5796 29.816,5.7746 29.548,5.2136" id="Fill-71" fill="#197BFF"/>
        <path d="M30.376,6.4751 C29.885,5.4481 28.575,5.3221 27.73,5.6851 C26.985,6.0051 26.491,6.8661 26.797,7.8081 C27.132,8.8431 28.111,9.2581 28.973,9.2201 C29.173,9.2111 29.307,9.0901 29.39,8.9321 C29.709,8.7911 30.026,8.6521 30.261,8.3341 C30.626,7.8411 30.644,7.0361 30.376,6.4751" id="Fill-73" fill="#197BFF"/>
        <path d="M30.839,8.0918 C30.348,7.0648 29.038,6.9388 28.193,7.3018 C27.448,7.6218 26.954,8.4828 27.26,9.4248 C27.595,10.4598 28.574,10.8748 29.436,10.8368 C29.636,10.8278 29.77,10.7068 29.853,10.5488 C30.172,10.4078 30.489,10.2688 30.724,9.9508 C31.089,9.4578 31.107,8.6528 30.839,8.0918" id="Fill-75" fill="#197BFF"/>
        <path d="M17.3897,8.9795 C16.8987,7.9525 15.5887,7.8265 14.7437,8.1895 C13.9987,8.5095 13.5047,9.3705 13.8107,10.3125 C14.1457,11.3475 15.1247,11.7625 15.9867,11.7245 C16.1867,11.7155 16.3207,11.5945 16.4037,11.4365 C16.7227,11.2955 17.0397,11.1565 17.2747,10.8385 C17.6397,10.3455 17.6577,9.5405 17.3897,8.9795" id="Fill-77" fill="#197BFF"/>
        <path d="M42.9926,20.0966 C43.1936,19.9806 43.3806,19.8516 43.5366,19.6956 L43.7366,19.6066 C43.2006,17.1206 41.5246,15.1026 39.3366,14.2306 C39.6236,14.0836 39.8906,13.9026 40.1166,13.6476 C40.8046,12.8706 40.8396,11.6026 40.3336,10.7196 C39.4066,9.1016 36.9376,8.9036 35.3446,9.4746 C33.9376,9.9786 33.0076,11.3346 33.5836,12.8186 C33.8056,13.3916 34.1826,13.8376 34.6426,14.1806 C31.8946,15.2016 29.9126,18.0096 29.9126,21.3126 C29.9126,21.3526 29.9176,21.3916 29.9176,21.4326 L30.4676,21.6146 C30.5866,21.6986 30.7106,21.7696 30.8366,21.8316 C30.9136,21.8696 30.9946,21.8976 31.0736,21.9276 C31.1196,21.9446 31.1636,21.9656 31.2106,21.9796 C31.3196,22.0146 31.4306,22.0406 31.5436,22.0626 C31.5586,22.0656 31.5726,22.0696 31.5866,22.0716 C31.7816,22.1076 31.9806,22.1306 32.1836,22.1306 C34.0776,22.1306 36.2986,20.6966 37.7956,19.4126 C38.4366,20.0276 39.2816,20.4386 40.2356,20.5776 C40.9616,20.6856 41.6716,20.6096 42.2956,20.4056 C42.4736,20.3486 42.6446,20.2836 42.8056,20.2056 C42.8716,20.1716 42.9306,20.1336 42.9926,20.0966" id="Fill-79" fill="#197BFF"/>
        <path d="M17.3136,23.6104 C17.3366,23.5944 17.3576,23.5754 17.3796,23.5584 C17.4866,23.4804 17.6006,23.4074 17.6916,23.3164 L17.6826,23.3074 L17.8666,23.1634 C17.1856,19.7634 14.3766,17.2074 11.0216,17.2074 C7.7226,17.2074 4.9556,19.6814 4.2166,22.9954 L4.5726,23.2294 C5.0056,23.5354 5.5196,23.7704 6.0786,23.9344 C6.0786,23.9314 6.0796,23.9294 6.0806,23.9274 C7.8486,24.4524 10.0996,24.2284 11.8806,22.9874 C12.5296,23.6254 13.3926,24.0524 14.3766,24.1954 C14.6186,24.2314 14.8606,24.2494 15.0996,24.2494 C15.7576,24.2494 16.3696,24.1014 16.8906,23.8514 C16.9106,23.8414 16.9306,23.8334 16.9496,23.8234 C17.0776,23.7584 17.1996,23.6894 17.3136,23.6104" id="Fill-81" fill="#197BFF"/>
        <path d="M40.7143,30.7283 C38.8673,32.6953 38.3903,32.7103 37.0193,34.6623 C35.0523,32.8153 34.2423,32.0543 33.0853,30.9673 C31.9283,29.8813 34.0323,30.7423 33.9793,29.0303 C33.8713,25.6073 34.3103,27.1113 37.7333,27.0033 C41.1573,26.8963 40.6073,27.3053 40.7143,30.7283" id="Fill-83" fill="#B2D3FF"/>
        <g id="Group-87" transform="translate(25.000000, 27.515000)">
            <mask id="mask-10" fill="white">
                <use xlink:href="#path-9"/>
            </mask>
            <g id="Clip-86"/>
            <path d="M18.7889,1.9046 C18.7889,1.9046 18.7889,1.9046 18.7889,1.9046 C18.5539,1.8336 18.3129,1.7806 18.0669,1.7386 C18.0229,1.7316 17.9789,1.7236 17.9349,1.7166 C17.6809,1.6806 17.4239,1.6536 17.1599,1.6506 C17.1559,1.6506 17.1519,1.6506 17.1479,1.6506 C16.9339,1.3886 16.7469,1.1066 16.5889,0.8096 L11.7179,5.5556 L8.5899,3.0416 L6.7739,1.5826 C6.7569,1.6036 6.7469,1.6296 6.7289,1.6506 C6.7249,1.6506 6.7209,1.6506 6.7169,1.6506 C6.3419,1.6556 5.9769,1.6986 5.6229,1.7696 C5.6159,1.7716 5.6089,1.7716 5.6009,1.7736 C5.2439,1.8466 4.9009,1.9536 4.5709,2.0876 C4.5699,2.0876 4.5699,2.0876 4.5699,2.0876 C2.3799,2.9776 0.8459,5.1346 0.8779,7.6416 L0.8779,14.3966 C0.8779,15.0366 1.3959,15.5556 2.0359,15.5556 L21.8409,15.5556 C22.4809,15.5556 22.9999,15.0366 22.9999,14.3966 L22.9999,7.6416 C23.0339,4.9406 21.2519,2.6456 18.7889,1.9046" id="Fill-85" fill="#197BFF" mask="url(#mask-10)"/>
        </g>
    </g>
</svg>