<svg id="Layer_1" data-name="Layer 1" xmlns="http://www.w3.org/2000/svg" viewBox="0 0 48 48"><defs><style>.cls-1{fill:#b2d3ff;}.cls-2{fill:#197bff;}</style></defs><title>dev-autohost</title><path class="cls-1" d="M41.44,24,25.86,11.24a2.83,2.83,0,0,0-3.72,0L6.57,24a3.42,3.42,0,0,0-1.18,2.59v17.8a1.49,1.49,0,0,0,1.48,1.49H41.13a1.49,1.49,0,0,0,1.48-1.49V26.57A3.44,3.44,0,0,0,41.44,24Z"/><path class="cls-1" d="M47.25,20.74,25.31,2.58a2.17,2.17,0,0,0-2.62,0L14.63,9.25a.57.57,0,0,1-.94-.44V5.49A1.48,1.48,0,0,0,12.21,4h-4A1.48,1.48,0,0,0,6.78,5.49v9.62a1.36,1.36,0,0,1-.49,1.05L.75,20.74A2,2,0,0,0,.3,23.36a2,2,0,0,0,2.93.46L22.38,8a2.54,2.54,0,0,1,3.24,0L44.77,23.82a2,2,0,0,0,2.93-.46A2,2,0,0,0,47.25,20.74Z"/><path class="cls-2" d="M24,24.14c-4.49,0-8,1.58-8,3.6,0,1.27,3.57,2.8,8,2.8,3.66,0,6.9-1,8-2.06v-.74C32,25.72,28.49,24.14,24,24.14Z"/><path class="cls-2" d="M16,29.23v2.11c0,1.27,3.57,2.8,8,2.8,3.66,0,6.9-1,8-2.06V29.47c-1.71,1.15-5,1.87-8,1.87S17.49,30.53,16,29.23Z"/><path class="cls-2" d="M16,32.83v2.11c0,1.27,3.57,2.8,8,2.8,3.66,0,6.9-1,8-2.06V33.07c-1.71,1.15-5,1.87-8,1.87S17.49,34.13,16,32.83Z"/><path class="cls-2" d="M16,36.43v1.71c0,2,3.51,3.6,8,3.6s8-1.58,8-3.6V36.67c-1.71,1.15-5,1.87-8,1.87S17.49,37.73,16,36.43Z"/></svg>