<svg viewBox="0 0 120 116" version="1.1" xmlns="http://www.w3.org/2000/svg" xmlns:xlink="http://www.w3.org/1999/xlink">
    <g id="Page-1" stroke="none" stroke-width="1" fill="none" fill-rule="evenodd">
        <g id="octocat" fill="currentColor">
            <path d="M60,0 C27.2,0 0.5,26.6 0.5,59.5 C0.5,85.8 17.5,108.1 41.2,115.9 C44.2,116.4 45.3,114.6 45.3,113 C45.3,111.6 45.2,107.8 45.2,102.9 C28.7,106.5 25.2,94.9 25.2,94.9 C22.5,88 18.6,86.2 18.6,86.2 C13.2,82.5 19,82.6 19,82.6 C25,83 28.1,88.7 28.1,88.7 C33.4,97.8 42,95.2 45.4,93.6 C45.9,89.8 47.5,87.1 49.2,85.6 C35.9,84.3 22,79.2 22,56.4 C22,49.9 24.3,44.6 28.1,40.4 C27.5,38.9 25.4,32.8 28.7,24.7 C28.7,24.7 33.7,23.1 45.1,30.8 C49.8,29.5 54.9,28.8 60,28.8 C65.1,28.8 70.1,29.5 74.9,30.8 C86.3,23.1 91.2,24.7 91.2,24.7 C94.4,32.9 92.4,38.9 91.8,40.4 C95.6,44.6 97.9,49.9 97.9,56.4 C97.9,79.3 84,84.3 70.7,85.8 C72.8,87.6 74.7,91.3 74.7,96.8 C74.7,104.8 74.6,111.2 74.6,113.1 C74.6,114.7 75.7,116.5 78.7,116 C102.3,108.1 119.3,85.8 119.3,59.6 C119.5,26.6 92.8,0 60,0 Z" id="Shape"></path>
        </g>
    </g>
</svg>
