<?xml version="1.0" encoding="UTF-8"?>
<!-- Generator: Adobe Illustrator 22.1.0, SVG Export Plug-In . SVG Version: 6.00 Build 0)  -->
<svg version="1.1" id="Layer_1" xmlns="http://www.w3.org/2000/svg" xmlns:xlink="http://www.w3.org/1999/xlink" x="0px" y="0px" viewBox="0 0 14 16" style="enable-background:new 0 0 14 16;" xml:space="preserve">
<title>icons/16/icon-album</title>
<desc>Created with Sketch.</desc>
<g id="home">
	<g id="icons_x2F_16_x2F_icon-album" transform="translate(-1.000000, 0.000000)">
		<g id="Mask">
			<path id="path-1_1_" d="M1,3c0-1.7,1.3-3,3-3h10c0.6,0,1,0.4,1,1l0,0c0,0.6-0.5,1-1,1H4C3.4,2,3,2.4,3,3l0,0c0,0.6,0.5,1,1,1h4.5     C8.8,4,9,4.2,9,4.5V10l1.5-1l1.5,1V4.5C12,4.2,12.2,4,12.5,4H14c0.6,0,1,0.5,1,1v10c0,0.6-0.4,1-1,1H4c-1.7,0-3-1.3-3-3V3z"/>
		</g>
	</g>
</g>
</svg>