<svg viewBox="0 0 520 520" version="1.1" xmlns="http://www.w3.org/2000/svg" xmlns:xlink="http://www.w3.org/1999/xlink">
    <g id="logo-officiel" stroke="none" stroke-width="1" fill="none" fill-rule="evenodd">
        <g id="cozy---logo-blue" fill="#297EF1">
            <path d="M349.380239,390 L170.619761,390 C115.125333,390 70,344.575424 70,288.736432 C70,262.108232 80.1866485,236.954707 98.6974613,217.921466 C114.912477,201.264514 135.916738,190.895943 158.639046,188.198739 C161.322544,165.329815 171.61562,144.187712 188.180327,127.874596 C207.094044,109.238677 232.081741,99 258.544221,99 C284.9991,99 309.994399,109.238677 328.908116,127.866955 C345.404405,144.111304 355.667073,165.138795 358.418989,187.885467 C409.679117,192.508153 450,235.976684 450,288.744072 C450,344.575424 404.84426,390 349.372637,390 L349.380239,390 Z M349.80592,371.150486 L350.57629,371.150486 C395.01125,371.150486 431.157025,334.564125 431.157025,289.59047 C431.157025,244.624602 395.01125,208.038242 350.57629,208.038242 L349.767401,208.038242 C343.966513,208.038242 339.213328,203.365654 339.082365,197.478194 C338.080883,153.555871 301.950516,117.841727 258.532445,117.841727 C215.114374,117.841727 178.968598,153.571446 177.974821,197.493769 C177.843858,203.272202 173.244747,207.929215 167.528599,208.061604 C124.141343,209.073999 88.8429752,245.644784 88.8429752,289.598257 C88.8429752,334.571913 124.98875,371.158273 169.42371,371.158273 L170.078525,371.158273 L170.332747,371.142698 C170.563858,371.142698 170.794969,371.142698 171.02608,371.158273 L349.782808,371.158273 L349.80592,371.150486 Z M310.122856,282.303387 L310.122856,282.288117 C311.850824,283.418185 312.338005,285.754676 311.2114,287.495592 C310.488241,288.595118 309.293126,289.205966 308.075175,289.205966 C307.374853,289.205966 306.659307,289.00744 306.035107,288.595118 C304.352812,287.495592 302.967392,286.243355 301.810338,284.930033 C289.196931,296.360518 273.249381,302.071942 257.301832,302.071942 C241.392343,302.071942 225.482855,296.383424 212.892283,285.006388 C211.742842,286.304439 210.372647,287.526135 208.736025,288.595118 C208.104213,289.00744 207.396278,289.205966 206.695956,289.205966 C205.462781,289.205966 204.275278,288.602753 203.559732,287.503228 C202.425515,285.769948 202.912695,283.441092 204.648276,282.295752 C211.019683,278.134353 211.324171,270.460581 211.324171,270.155157 C211.392681,268.093546 213.120649,266.428987 215.153106,266.490071 C217.208398,266.543521 218.84502,268.246258 218.806959,270.307868 C218.806959,270.58275 218.692776,274.232564 216.941971,278.523769 C239.611089,299.92634 275.160042,299.895798 297.783487,278.393963 C296.078355,274.163844 295.971784,270.575115 295.95656,270.300233 C295.918499,268.238622 297.562733,266.520614 299.63325,266.482436 C301.703768,266.451893 303.393675,268.085911 303.439348,270.162792 C303.454573,270.498758 303.766673,278.141989 310.122856,282.303387 Z" id="Combined-Shape"/>
        </g>
    </g>
</svg>
