<svg xmlns="http://www.w3.org/2000/svg" viewBox="0 0 96 96"><g fill="none" fill-rule="evenodd"><rect width="96" height="96"/><path fill="#FFE2A1" d="M94.42 21.3l.01-.05c-.01-.93-.22-1.88 0-2.8.16-.63-.64-.99-1-.63-.38.13-.72.3-1.06.5-.03-.46-.02-.91.08-1.36.16-.63-.64-.99-1-.63-.63.21-1.19.56-1.76.88-.05-.67-.11-1.35.05-2 .15-.64-.64-1-1-.63-.62.2-1.16.53-1.72.85-.05-.65-.1-1.31.05-1.95.16-.63-.64-.99-1-.62-.62.2-1.16.53-1.71.85a6.07 6.07 0 0 1 .04-1.95c.16-.63-.64-.99-1-.63-.65.21-1.22.57-1.8.9-.06-.69-.13-1.38.03-2.06.16-.63-.64-.99-1-.63-.6.2-1.14.52-1.69.84-.05-.64-.1-1.29.05-1.92.16-.63-.64-.99-1-.62-.63.2-1.19.55-1.76.87-.05-.67-.12-1.35.04-2 .16-.64-.64-1-1-.63-.61.2-1.16.53-1.71.85-.05-.65-.1-1.3.05-1.94.15-.64-.64-1-1-.63-.62.2-1.16.53-1.72.85-.05-.65-.1-1.31.05-1.95.16-.63-.64-.99-1-.63-.65.21-1.22.57-1.81.91-.05-.7-.13-1.4.04-2.07.15-.63-.64-.99-1-.63-.83.27-1.54.78-2.3 1.17l-.2.1-.06.03c-.07.03-.1.07-.15.11l-.12.08a78.22 78.22 0 0 1-2.9 5.6 122.9 122.9 0 0 1-5.12 8.86c-2.25 3.95-4.67 7.8-7.27 11.55a213.53 213.53 0 0 1-6.5 9.02c-.97 1.24-1.9 1.72-1.9 2.48-.07.92.05 1.9-.26 2.78-.22.62.54 1.05.93.73a7.79 7.79 0 0 0 1.55-.58l.25.19a5.3 5.3 0 0 1-.23 1.65c-.22.61.54 1.04.93.72a7.87 7.87 0 0 0 1.6-.6l.23.17a5.45 5.45 0 0 1-.23 1.72c-.22.61.54 1.04.94.72.57-.13 1.1-.37 1.63-.62l.15.12a5.4 5.4 0 0 1-.23 1.75c-.22.61.54 1.04.94.72.57-.13 1.1-.37 1.64-.62l.14.11c-.01.6-.04 1.2-.23 1.76-.22.61.54 1.04.93.72.58-.13 1.12-.38 1.65-.62l.23.18c0 .6-.03 1.2-.23 1.77-.22.61.54 1.04.94.72.58-.13 1.11-.38 1.65-.62l.1.08a5.6 5.6 0 0 1-.23 1.77c-.21.62.55 1.05.94.72.59-.13 1.12-.38 1.66-.62l.17.13c-.01.6-.03 1.2-.23 1.78-.22.61.54 1.04.94.72.58-.13 1.12-.38 1.67-.63l.1.09c0 .6-.02 1.21-.22 1.79-.22.62.54 1.05.93.72.6-.13 1.15-.39 1.7-.64l.09.07a5.77 5.77 0 0 1-.24 1.82c-.21.62.55 1.05.94.72.62-.13 1.18-.4 1.75-.66l.13.1a5.98 5.98 0 0 1-.23 1.89c-.22.62.54 1.05.94.72.94-.2 1.76-.73 2.67-1.05a.55.55 0 0 0 .27-.2l.02-.02c.83-1.06 3.89-5.56 4.5-6.57L92.36 25.1c.05-.06.11-.12.16-.2.44-.78 1.54-2.34 1.84-3.2.06-.17.07-.3.06-.4"/><path fill="#FFC644" d="M87.56 20.52v-.05c-.07-.92-.34-1.86-.18-2.79.12-.64-.7-.94-1.03-.56-.36.15-.7.34-1.02.55a4.7 4.7 0 0 1 0-1.35c.12-.64-.7-.95-1.03-.56-.61.24-1.14.62-1.68.99-.1-.67-.2-1.34-.09-2.01.12-.64-.7-.95-1.03-.56-.6.24-1.11.6-1.64.96-.1-.65-.2-1.3-.08-1.95.12-.64-.7-.94-1.03-.56-.6.24-1.11.6-1.64.96-.1-.65-.19-1.3-.08-1.95.12-.64-.7-.94-1.03-.56-.63.25-1.17.65-1.73 1.02-.1-.69-.21-1.38-.1-2.07.12-.64-.69-.94-1.02-.56-.59.23-1.1.6-1.62.94a6.03 6.03 0 0 1-.07-1.91c.11-.64-.7-.95-1.04-.56-.6.24-1.14.62-1.68.98-.1-.66-.2-1.34-.08-2 .1-.64-.7-.95-1.04-.56-.59.24-1.1.6-1.64.96-.09-.65-.19-1.3-.07-1.95.11-.64-.7-.95-1.04-.56-.59.24-1.1.6-1.63.96-.1-.65-.2-1.3-.08-1.95.11-.64-.7-.95-1.03-.56-.63.25-1.17.65-1.73 1.02-.1-.69-.22-1.38-.1-2.07.12-.64-.7-.95-1.03-.56-.8.32-1.47.87-2.2 1.31l-.18.11-.07.04c-.06.03-.1.08-.14.12-.04.03-.08.05-.11.09a78.3 78.3 0 0 1-2.52 5.77 123 123 0 0 1-4.49 9.18 157.4 157.4 0 0 1-6.44 12 214.77 214.77 0 0 1-5.87 9.42c-.87 1.3-1.76 1.84-1.7 2.6-.02.93.15 1.89-.1 2.8-.17.63.6 1 .98.66.53-.16 1-.41 1.49-.67l.26.17c.02.56.02 1.12-.13 1.65-.17.63.6 1.01.98.67.55-.17 1.05-.44 1.55-.7l.23.15a5.5 5.5 0 0 1-.12 1.73c-.17.63.6 1 .97.66a7.95 7.95 0 0 0 1.58-.72l.16.11c.02.6.04 1.19-.12 1.76-.18.63.6 1 .97.66.57-.17 1.08-.45 1.59-.72l.14.1c.03.6.04 1.2-.11 1.77-.18.63.6 1 .97.66a8.19 8.19 0 0 0 1.59-.73l.24.17c.03.6.04 1.2-.12 1.78-.17.63.6 1 .98.66.56-.17 1.08-.45 1.6-.73l.1.08c.03.6.05 1.2-.12 1.78-.17.63.6 1 .98.66.57-.17 1.08-.45 1.6-.73l.18.12c.02.6.04 1.2-.12 1.8-.17.62.6 1 .98.65a7.75 7.75 0 0 0 1.6-.74l.12.08a5.7 5.7 0 0 1-.11 1.8c-.18.64.6 1.02.97.67.59-.17 1.11-.46 1.64-.75l.09.06c.03.62.05 1.24-.11 1.84-.18.63.6 1.01.97.66.6-.18 1.14-.48 1.69-.78l.14.1c.03.64.05 1.28-.12 1.9-.17.63.6 1 .98.66.92-.27 1.7-.85 2.57-1.22.13-.05.2-.14.26-.23l.02-.01c.75-1.11 3.49-5.8 4.03-6.85l16.29-31.29c.05-.07.1-.12.14-.2.4-.81 1.38-2.45 1.62-3.32.05-.17.05-.3.04-.4"/><path fill="#FFE2A1" d="M79.67 20.18v-.05c-.21-.9-.61-1.8-.58-2.74.01-.65-.83-.83-1.1-.4-.34.2-.64.44-.93.7-.12-.44-.2-.89-.2-1.35.03-.65-.82-.83-1.1-.4-.56.33-1.02.79-1.5 1.22a6.1 6.1 0 0 1-.38-1.97c.02-.65-.82-.83-1.1-.4-.55.32-1 .76-1.48 1.19-.18-.63-.37-1.27-.35-1.92.01-.65-.83-.84-1.1-.4-.56.32-1.01.76-1.48 1.18-.19-.63-.38-1.26-.36-1.91.02-.66-.82-.84-1.1-.4-.58.33-1.06.8-1.55 1.25-.2-.66-.42-1.33-.4-2.03.02-.65-.82-.84-1.1-.4-.54.31-.99.74-1.45 1.17a6.11 6.11 0 0 1-.35-1.89c.02-.65-.82-.84-1.1-.4-.57.33-1.03.78-1.51 1.22-.2-.65-.4-1.3-.38-1.97.02-.66-.82-.84-1.1-.4-.55.31-1 .75-1.47 1.18a5.78 5.78 0 0 1-.36-1.92c.02-.65-.83-.83-1.1-.4-.55.32-1 .76-1.48 1.19-.18-.63-.37-1.26-.36-1.92.03-.65-.82-.83-1.1-.4-.58.34-1.05.8-1.55 1.26-.2-.67-.41-1.34-.4-2.03.03-.66-.82-.84-1.1-.41-.74.44-1.31 1.08-1.97 1.62l-.17.14-.05.05a.37.37 0 0 0-.12.13l-.1.1a78.08 78.08 0 0 1-1.65 6.1c-.9 3.29-1.94 6.53-3.1 9.73a158.3 158.3 0 0 1-4.64 12.83 214.43 214.43 0 0 1-4.42 10.19c-.68 1.41-1.48 2.07-1.31 2.82.12.92.43 1.85.31 2.78-.08.65.74.91 1.06.51.5-.23.94-.55 1.37-.88l.28.13c.1.55.19 1.1.12 1.66-.08.65.74.92 1.05.52.52-.24.97-.59 1.43-.93l.25.13c.11.57.2 1.15.13 1.72-.08.65.74.92 1.06.51.53-.24.99-.59 1.45-.93l.17.08c.1.58.2 1.17.13 1.76-.08.64.74.9 1.06.5.53-.24 1-.59 1.46-.94l.16.08c.1.59.21 1.18.14 1.77-.09.65.74.91 1.05.51.54-.25 1-.6 1.46-.95l.27.13c.1.59.21 1.18.14 1.78-.08.65.74.91 1.05.51.54-.25 1-.6 1.47-.95l.12.06c.11.59.21 1.18.14 1.78-.08.64.74.9 1.06.5.53-.24 1-.6 1.47-.95l.2.1c.1.59.2 1.19.13 1.79-.08.64.74.9 1.06.5.54-.24 1.01-.6 1.48-.96l.13.06c.12.6.22 1.2.15 1.8-.09.66.74.92 1.05.52.55-.25 1.03-.62 1.5-.98l.1.05c.12.6.23 1.22.16 1.83-.08.65.74.91 1.05.51.57-.26 1.06-.64 1.55-1.01l.15.07c.13.63.25 1.26.17 1.9-.08.65.74.91 1.05.51.87-.4 1.55-1.08 2.37-1.58a.53.53 0 0 0 .22-.27l.01-.01c.58-1.21 2.6-6.25 3-7.37l11.55-33.36c.03-.08.08-.14.1-.23.28-.86 1.01-2.62 1.12-3.52.03-.18.01-.3-.01-.4"/><path fill="#FFC644" d="M48.95 18.4c6.78 2.65 7.52 2.88 14.32 5.51 1.46.57 2.4-1.56.94-2.12-6.8-2.63-7.54-2.86-14.32-5.52-1.46-.57-2.4 1.55-.94 2.12m-2.97 9.01c6.78 3.03 7.52 3.3 14.3 6.3 1.46.63 2.45-1.67 1-2.3-6.8-3-7.54-3.27-14.31-6.3-1.46-.65-2.44 1.65-.99 2.3m-2.96 8.74c6.76 3.06 7.5 3.33 14.28 6.36 1.46.65 2.5-1.56 1.04-2.21-6.79-3.03-7.53-3.3-14.3-6.36-1.44-.66-2.48 1.56-1.02 2.21M40 45.86c6.36 3.1 7.06 3.37 13.43 6.43 1.37.66 2.38-1.48 1.02-2.13-6.38-3.07-7.07-3.34-13.43-6.43-1.37-.67-2.38 1.47-1.02 2.13M68.69 26.1l2.3.77c1.59.53 2.62-1.46 1.02-1.98l-2.3-.78c-1.58-.54-2.61 1.45-1.02 1.99m-2.97 9.77l2.29.79c1.58.54 2.65-1.41 1.07-1.95a150.9 150.9 0 0 1-2.3-.8c-1.57-.55-2.65 1.4-1.06 1.96m-3.12 8.79l1.82.81c1.27.56 2.16-1.36.89-1.92l-1.82-.81c-1.26-.58-2.15 1.35-.89 1.92m-2.96 9.77l1.81.83c1.26.57 2.18-1.32.92-1.89-.82-.37-.9-.4-1.81-.83-1.25-.59-2.18 1.31-.92 1.89"/><path fill="#B7F6F7" d="M41.55 27.73c-2.48-3.3-4.8-6.69-7-10.18a112.1 112.1 0 0 1-4.94-7.83 71.2 71.2 0 0 1-2.84-4.96 1.36 1.36 0 0 0-.85-.34c-.24 0-.44.1-.63.2-.03.02-.07.01-.1.04l-.2.17c-.1.07-.21.15-.32.21l-.05.09c-4.9 4-17.51 12.47-22.74 16.76-.25.22-.53.42-.68.78-.24.45-.3 1.04.01 1.8.3.77.81 1.43 1.24 2.12l.15.17 19.55 29.29.15.18.49.74a6.67 6.67 0 0 0 1.85 2.05c.85.54 1.68.13 2.28-.44 5.07-4.17 16.22-14.23 21.17-18.34.55-.35 1.09-.88 1.11-1.75.02-.62-.2-1.23-.5-1.84-2.66-2.75-4.93-5.98-7.15-8.92"/><path fill="#2BD1D4" d="M44.84 31.23a141.05 141.05 0 0 1-5.71-10.87 109.66 109.66 0 0 1-3.97-8.3 72.43 72.43 0 0 1-2.21-5.23 1.4 1.4 0 0 0-.81-.45 1.3 1.3 0 0 0-.66.13c-.03 0-.06 0-.1.02l-.22.14-.34.18c-.03 0-.04.05-.06.07-5.4 3.32-19 10.1-24.73 13.66-.28.2-.59.35-.78.69-.3.4-.42.98-.21 1.77.2.79.63 1.5.98 2.23.03.08.08.13.12.19l15.87 31.2c.04.08.09.13.13.2.13.26.26.53.4.78a6.6 6.6 0 0 0 1.6 2.25c.77.64 1.65.34 2.32-.15 5.56-3.47 17.91-11.98 23.36-15.4.59-.28 1.19-.74 1.32-1.6.1-.6-.04-1.23-.28-1.86-2.3-3.03-4.17-6.49-6.02-9.65"/><path fill="#B7F6F7" d="M48.3 36.8a142.86 142.86 0 0 1-4.23-11.6c-1.06-2.9-2.02-5.83-2.84-8.82a70.38 70.38 0 0 1-1.5-5.5 1.39 1.39 0 0 0-.74-.56 1.3 1.3 0 0 0-.67.04l-.1.01-.25.11c-.12.05-.24.1-.36.13-.03.01-.04.05-.07.07-5.78 2.6-20.19 7.57-26.35 10.37-.3.16-.63.28-.87.59-.34.37-.54.92-.44 1.74.1.81.43 1.58.67 2.36l.1.2 11.62 33.24c.03.09.07.14.1.21l.3.84a6.7 6.7 0 0 0 1.28 2.45c.68.75 1.6.56 2.33.17 5.98-2.74 19.37-9.61 25.23-12.3.62-.2 1.27-.58 1.52-1.42.17-.59.12-1.23-.03-1.9-1.88-3.33-3.28-7.02-4.7-10.43"/><path fill="#2BD1D4" d="M18 31.48c-.57.23-.85.92-.62 1.55.23.62.88.93 1.45.7l.51-.21c.86-.36 1.28-1.4.94-2.33l-1.58-4.32c-.05-.16 0-.35.14-.44l2.88-1.91c.13-.09.28-.04.34.13l1.12 3.08c.06.16 0 .33-.15.4l-.78.31c-.57.24-.85.93-.62 1.55l-.04-.1c.23.62.88.93 1.44.7l.52-.21c.86-.35 1.28-1.4.94-2.32l-2.43-6.66c-.11-.3-.42-.42-.67-.25l-4.35 2.84c-.25.17-.37.57-.26.87l2.16 5.91c.05.16-.01.33-.15.39l-.78.32zm7.05-10.42c1.98-.55 10.13-3.72 12.11-4.27.43-.12.23-.72-.2-.6-1.98.55-10.13 3.73-12.11 4.27-.43.11-.23.71.2.6m.96 2.93c1.92-.63 10.22-4.51 12.14-5.15.41-.14.22-.83-.2-.7-1.9.65-10.2 4.53-12.13 5.16-.41.13-.22.83.2.7m1 2.93c1.98-.57 10.13-3.65 12.1-4.23.43-.13.23-.76-.2-.63-1.97.58-10.12 3.66-12.1 4.23-.43.12-.23.75.2.63"/><path fill="#FFFFFF" d="M48.22 54.1c-11.37 5.4-23.06 10.93-35.79 12.03a209.61 209.61 0 0 0-7.5-25.66A77.86 77.86 0 0 0 38 27.93 201.5 201.5 0 0 1 48.22 54.1"/><path fill="#35CE68" d="M46.12 57.31c-5.6-.14-10.97-1.84-16.27-3.53-2.52-.8-5.04-1.66-7.61-2.24-1.24-.27-2.18-.03-3.02.96-1 1.17-1.8 2.56-2.65 3.85-1.93 2.9-3.76 5.87-5.51 8.9-.1-.04-.24.02-.22.15l.21 1.99c.05.42.09.9.36 1.25.52.68 1.6.39 2.31.25 2.53-.51 4.97-1.64 7.38-2.52a981.17 981.17 0 0 1 24.77-8.6c.08-.02.1-.09.1-.15h.1c.2 0 .25-.3.05-.31"/><path fill="#35CE68" d="M45.31 43.29c-.45-.4-1.1-.42-1.66-.49-1.45-.17-2.92-.2-4.38-.17-.73.01-1.45.04-2.18.06-.62.03-1.25.05-1.78.42-.51.36-.87.95-1.22 1.45-.5.7-.99 1.42-1.45 2.15a134.24 134.24 0 0 0-5.16 9.1 46.03 46.03 0 0 0-3.85 9.3c-.03.13.07.19.17.18-.18.62-.85.89-1.08 1.48-.16.4-.05.8.11 1.18a5.97 5.97 0 0 0 2.47 2.8c1.09.6 2.18.1 3.26-.28 1.51-.53 3-1.15 4.45-1.82 2.93-1.34 5.76-2.9 8.6-4.41 1.42-.76 2.84-1.51 4.3-2.22 1.3-.65 2.78-1.16 3.95-2.06a8.65 8.65 0 0 0 1.48-1.55c.33-.43.71-.89.8-1.44.07-.53-.14-1.07-.3-1.57a29.2 29.2 0 0 0-2.92-6.44c-.89-1.46-2.05-2.77-2.81-4.3-.24-.47-.38-1.02-.8-1.37"/><path fill="#CBF7D8" d="M48.66 54.48c-11.31 5.49-22.94 11.08-35.6 12.2a215.4 215.4 0 0 0-7.47-26.02 76.62 76.62 0 0 0 32.89-12.7c4 8.6 7.4 17.45 10.18 26.52M38.29 25.37c-.1.03-.21.08-.32.16A74.13 74.13 0 0 1 4.46 38.5c-.3.04-.52.16-.68.34-.56.2-1 .76-.74 1.47a212.21 212.21 0 0 1 9.08 33.13c.08.39.64 3.18.85 3.24.17.13.6.25.88.21 3.11.11 5.92-.36 8.7-1.01a108.95 108.95 0 0 0 31.92-13c.18-.1.3-.24.38-.38.23-.27.34-.65.17-1.1a631.39 631.39 0 0 0-14.78-35.73c-.4-.88-1.45-.82-1.95-.3"/><path fill="#FFC644" d="M29.37 37.83a2.98 2.98 0 0 0-3.49 1.63v.02a2.55 2.55 0 0 0-.23 1.7c-.02 1.01.75 1.97 1.8 2.3 1.62.49 3.32-.5 3.89-2.08.56-1.55-.46-3.13-1.97-3.57"/><path fill="#BBD9FD" d="M73.8 56.34a19.65 19.65 0 0 1-19.68 19.59 19.63 19.63 0 0 1-19.67-19.6c0-10.81 8.8-19.59 19.67-19.59a19.63 19.63 0 0 1 19.67 19.6"/><path fill="#3281EE" d="M53.63 38.85a17.05 17.05 0 0 0-17.07 17 17.06 17.06 0 1 0 34.14 0c0-9.38-7.66-17-17.07-17m0 39.04a22.11 22.11 0 0 1-22.14-22.04A22.11 22.11 0 0 1 53.63 33.8c12.2 0 22.13 9.9 22.13 22.05a22.11 22.11 0 0 1-22.13 22.04"/><path fill="#3281EE" d="M79.5 84.74c-1.31 0-2.62-.5-3.62-1.49l-8.46-8.42c-2-2-2-5.22 0-7.2a5.13 5.13 0 0 1 7.24 0l8.46 8.42a5.08 5.08 0 0 1-3.62 8.7"/><path fill="#BBD9FD" d="M23.64 93.17c2 .88 7.1 1.63 11.23 1.94 11.26.82 27 .38 33.66-1.13 6.72-1.53 7.02-3.84-10.07-5-14.54-.98-31.51.41-35.14 2.48-.98.56-.92 1.17.32 1.71"/></g></svg>